M48
; DRILL file {KiCad (6.0.2)} date Fri May 27 13:44:51 2022
; FORMAT={-:-/ absolute / inch / decimal}
; #@! TF.CreationDate,2022-05-27T13:44:51-05:00
; #@! TF.GenerationSoftware,Kicad,Pcbnew,(6.0.2)
; #@! TF.FileFunction,Plated,1,2,PTH
FMAT,2
INCH
; #@! TA.AperFunction,Plated,PTH,ViaDrill
T1C0.0157
; #@! TA.AperFunction,Plated,PTH,ComponentDrill
T2C0.0315
; #@! TA.AperFunction,Plated,PTH,ComponentDrill
T3C0.0354
; #@! TA.AperFunction,Plated,PTH,ComponentDrill
T4C0.0394
; #@! TA.AperFunction,Plated,PTH,ComponentDrill
T5C0.0433
%
G90
G05
T1
X1.6Y-2.87
X1.61Y-1.87
X1.66Y-1.92
X1.68Y-2.92
X1.71Y-2.82
X1.73Y-1.84
X1.74Y-2.96
X1.8638Y-1.6047
X1.8677Y-1.7551
X1.87Y-2.74
X1.9118Y-1.9677
X1.9146Y-2.4681
X2.0063Y-1.7508
X2.4071Y-1.5772
X2.6634Y-1.9122
X2.6961Y-3.2043
X2.7248Y-2.4551
X4.1701Y-1.9882
X4.3618Y-3.1098
X4.3713Y-3.1673
X4.4854Y-2.7638
X4.5276Y-2.6701
X4.5764Y-3.2516
X4.5819Y-3.315
X4.5909Y-2.5787
X4.7421Y-3.0504
X4.835Y-2.9953
X4.8636Y-2.7917
X5.0327Y-2.6358
X5.1079Y-2.5803
X5.1961Y-2.5268
X5.2547Y-2.3764
X5.5071Y-2.2602
X5.587Y-3.028
X5.6283Y-3.3417
T2
X1.39Y-3.34
X1.39Y-3.64
X1.4Y-1.17
X1.4Y-1.47
X1.48Y-2.33
X1.48Y-2.46
X1.515Y-3.3406
X1.515Y-3.5374
X1.5311Y-1.2717
X1.5311Y-1.4685
X1.6307Y-3.339
X1.6307Y-3.639
X1.648Y-1.1646
X1.648Y-1.4646
X1.7331Y-3.3398
X1.7331Y-3.6398
X1.7563Y-1.1638
X1.7563Y-1.4638
X1.78Y-2.33
X1.78Y-2.46
X2.0047Y-2.7425
X2.0047Y-3.0425
X2.02Y-1.15
X2.02Y-1.45
X2.0787Y-2.0697
X2.0787Y-2.1921
X2.0878Y-3.2835
X2.0894Y-3.1539
X2.1217Y-2.7398
X2.1217Y-3.0398
X2.16Y-1.15
X2.16Y-1.45
X2.2362Y-2.3433
X2.2362Y-2.4661
X2.3787Y-2.0697
X2.3787Y-2.1921
X2.3878Y-3.2835
X2.3894Y-3.1539
X2.42Y-1.15
X2.42Y-1.45
X2.4331Y-2.3433
X2.4331Y-2.4661
X2.5362Y-3.4669
X2.5362Y-3.5976
X2.5555Y-1.41
X2.5555Y-1.71
X2.5598Y-1.9098
X2.5598Y-2.0098
X2.5598Y-2.1098
X2.5598Y-2.2098
X2.5598Y-2.3098
X2.5598Y-2.4098
X2.5598Y-2.5098
X2.5598Y-2.6098
X2.5598Y-2.7098
X2.5598Y-2.8098
X2.5598Y-2.9098
X2.5598Y-3.0098
X2.5598Y-3.1098
X2.5598Y-3.2098
X2.7331Y-3.4669
X2.8362Y-3.5976
X2.8598Y-1.9098
X2.8598Y-2.0098
X2.8598Y-2.1098
X2.8598Y-2.2098
X2.8598Y-2.3098
X2.8598Y-2.4098
X2.8598Y-2.5098
X2.8598Y-2.6098
X2.8598Y-2.7098
X2.8598Y-2.8098
X2.8598Y-2.9098
X2.8598Y-3.0098
X2.8598Y-3.1098
X2.8598Y-3.2098
X2.9315Y-3.3173
X2.9315Y-3.6173
X3.0713Y-2.2787
X3.0713Y-2.4709
X3.25Y-2.1071
X3.25Y-2.3039
X3.2508Y-2.3972
X3.2508Y-2.5941
X3.4283Y-2.613
X3.4283Y-2.913
X3.4539Y-1.8386
X3.4539Y-2.0354
X3.6551Y-1.5087
X3.6551Y-1.6087
X3.6551Y-1.7087
X3.6551Y-1.8087
X3.6551Y-1.9087
X3.6551Y-2.0087
X3.6551Y-2.1087
X3.6551Y-2.2087
X3.6551Y-2.3087
X3.6551Y-2.4087
X3.6551Y-2.5087
X3.6551Y-2.6087
X3.6551Y-2.7087
X3.6551Y-2.8087
X3.6551Y-2.9087
X3.6551Y-3.0087
X3.6551Y-3.1087
X3.6551Y-3.2087
X3.6551Y-3.3087
X3.6551Y-3.4087
X3.7916Y-3.54
X3.9884Y-3.54
X4.2551Y-1.5087
X4.2551Y-1.6087
X4.2551Y-1.7087
X4.2551Y-1.8087
X4.2551Y-1.9087
X4.2551Y-2.0087
X4.2551Y-2.1087
X4.2551Y-2.2087
X4.2551Y-2.3087
X4.2551Y-2.4087
X4.2551Y-2.5087
X4.2551Y-2.6087
X4.2551Y-2.7087
X4.2551Y-2.8087
X4.2551Y-2.9087
X4.2551Y-3.0087
X4.2551Y-3.1087
X4.2551Y-3.2087
X4.2551Y-3.3087
X4.2551Y-3.4087
X4.773Y-1.5163
X4.773Y-1.6163
X4.773Y-1.7163
X4.773Y-1.8163
X4.773Y-1.9163
X4.773Y-2.0163
X4.773Y-2.1163
X4.773Y-2.2163
X4.773Y-2.3163
X4.773Y-2.4163
X4.773Y-2.5163
X4.773Y-2.6163
X4.773Y-2.7163
X4.773Y-2.8163
X5.373Y-1.5163
X5.373Y-1.6163
X5.373Y-1.7163
X5.373Y-1.8163
X5.373Y-1.9163
X5.373Y-2.0163
X5.373Y-2.1163
X5.373Y-2.2163
X5.373Y-2.3163
X5.373Y-2.4163
X5.373Y-2.5163
X5.373Y-2.6163
X5.373Y-2.7163
X5.373Y-2.8163
X5.5165Y-1.4937
X5.5165Y-1.6906
X5.6094Y-2.3205
X5.6094Y-2.5173
X5.74Y-1.69
X5.7427Y-2.5209
X5.7427Y-2.8209
X5.8427Y-2.5209
X5.8427Y-2.8209
X5.9427Y-2.5209
X5.9427Y-2.8209
X6.04Y-1.69
X6.0427Y-2.5209
X6.0427Y-2.8209
X6.1427Y-2.5209
X6.1427Y-2.8209
X6.2427Y-2.5209
X6.2427Y-2.8209
X6.3427Y-2.5209
X6.3427Y-2.8209
X7.08Y-2.7516
X7.08Y-2.85
T3
X5.74Y-1.49
X5.84Y-1.49
T4
X2.0602Y-3.4736
X2.1098Y-2.4199
X2.1098Y-2.5199
X2.1602Y-3.4736
X2.1679Y-1.6463
X2.1679Y-1.7463
X2.1679Y-1.8463
X2.2602Y-3.4736
X2.2679Y-1.6463
X2.2679Y-1.7463
X2.2679Y-1.8463
X2.2732Y-2.7016
X2.2732Y-2.8016
X2.2732Y-2.9016
X2.2732Y-3.0016
X2.3602Y-3.4736
X2.9031Y-1.5543
X2.9031Y-1.6543
X3.0031Y-1.5543
X3.0031Y-1.6543
X3.1031Y-1.5543
X3.1031Y-1.6543
X3.2031Y-1.5543
X3.2031Y-1.6543
X3.3031Y-1.5543
X3.3031Y-1.6543
X4.639Y-1.2744
X4.68Y-3.22
X4.739Y-1.2744
X4.74Y-3.41
X4.78Y-3.22
X4.839Y-1.2744
X4.84Y-3.41
X4.88Y-3.22
X4.939Y-1.2744
X4.94Y-3.41
X4.98Y-3.22
X5.039Y-1.2744
X5.04Y-3.41
X5.08Y-3.22
X5.139Y-1.2744
X5.14Y-3.41
X5.18Y-3.22
X5.239Y-1.2744
X5.24Y-3.41
X5.28Y-3.22
X5.339Y-1.2744
X5.34Y-3.41
X5.38Y-3.22
X5.439Y-1.2744
X5.44Y-3.41
X5.48Y-3.22
X5.539Y-1.2744
X5.54Y-3.41
X5.58Y-3.22
X5.639Y-1.2744
X5.64Y-3.41
X5.68Y-3.22
X5.739Y-1.2744
X5.74Y-3.41
X5.7421Y-2.0041
X5.7421Y-2.1041
X5.7421Y-2.2041
X5.78Y-3.22
X5.839Y-1.2744
X5.84Y-3.41
X5.88Y-3.22
X5.9209Y-2.0047
X5.9209Y-2.1047
X5.9209Y-2.2047
X5.939Y-1.2744
X5.94Y-3.41
X5.98Y-3.22
X6.039Y-1.2744
X6.04Y-3.41
X6.08Y-3.22
X6.1059Y-2.0098
X6.1059Y-2.1098
X6.1059Y-2.2098
X6.139Y-1.2744
X6.14Y-3.41
X6.18Y-3.22
X6.24Y-3.41
X6.28Y-3.22
X6.34Y-3.41
X6.38Y-3.22
X6.44Y-3.41
X6.48Y-3.22
X6.54Y-3.41
X6.58Y-3.22
X6.64Y-3.41
X6.68Y-3.22
X6.74Y-3.41
X6.78Y-3.22
X6.84Y-3.41
X6.88Y-3.22
X6.94Y-3.41
X6.98Y-3.22
X7.04Y-3.41
X7.08Y-3.22
X7.14Y-3.41
T5
X3.0441Y-3.3417
X3.0441Y-3.5976
X3.2213Y-3.3417
X3.2213Y-3.5976
T0
M30
