M48
; DRILL file {KiCad (6.0.2)} date Thu May 26 17:27:09 2022
; FORMAT={-:-/ absolute / inch / decimal}
; #@! TF.CreationDate,2022-05-26T17:27:09-05:00
; #@! TF.GenerationSoftware,Kicad,Pcbnew,(6.0.2)
; #@! TF.FileFunction,Plated,1,2,PTH
FMAT,2
INCH
; #@! TA.AperFunction,Plated,PTH,ViaDrill
T1C0.0157
; #@! TA.AperFunction,Plated,PTH,ComponentDrill
T2C0.0315
; #@! TA.AperFunction,Plated,PTH,ComponentDrill
T3C0.0354
; #@! TA.AperFunction,Plated,PTH,ComponentDrill
T4C0.0394
; #@! TA.AperFunction,Plated,PTH,ComponentDrill
T5C0.0433
%
G90
G05
T1
X1.6Y-2.87
X1.61Y-1.87
X1.66Y-1.92
X1.68Y-2.92
X1.71Y-2.82
X1.73Y-1.84
X1.74Y-2.96
X1.8638Y-1.6047
X1.8677Y-1.7551
X1.87Y-2.74
X1.9118Y-1.9677
X1.9146Y-2.4681
X1.9433Y-2.7461
X2.0327Y-1.7531
X2.2969Y-3.0386
X2.31Y-3.13
X2.66Y-2.03
X2.6634Y-1.9122
X2.73Y-2.17
X2.7642Y-2.3264
X2.9098Y-2.661
X2.9114Y-2.7598
X3.0835Y-3.0606
X3.3232Y-1.9268
X3.378Y-1.6697
X3.389Y-1.9331
X3.398Y-1.5976
X3.415Y-1.7134
X3.4606Y-1.6272
X3.5114Y-1.8665
X3.6629Y-2.5317
X3.8571Y-2.5409
X3.863Y-1.6677
X3.8764Y-2.228
X3.9567Y-1.6449
X3.9856Y-2.2323
X4.0744Y-2.5531
X4.2559Y-1.6067
X4.2669Y-2.5567
X4.2868Y-2.2028
X4.3024Y-1.7134
X4.4953Y-2.6736
X4.5202Y-2.6381
X4.5613Y-2.6296
X4.5685Y-1.5071
X4.5685Y-1.8465
X4.576Y-2.7276
X4.5776Y-2.5677
X4.674Y-1.5512
X4.715Y-3.026
X4.7508Y-2.063
X4.7681Y-3.0232
X4.8201Y-3.0236
X4.8295Y-3.2657
X4.9114Y-3.0587
X4.9311Y-3.2701
X4.9618Y-3.0563
X5.0094Y-3.0496
X5.0343Y-3.2701
X5.0618Y-3.0409
X5.1224Y-3.0327
X5.1335Y-3.272
X5.1677Y-2.064
X5.2169Y-2.0579
X5.2327Y-3.2701
X5.3323Y-3.2689
X5.4315Y-3.2673
X5.53Y-3.03
X5.5307Y-3.2701
X6.5165Y-2.9929
X6.6941Y-3.0289
X6.7295Y-3.3335
X6.8441Y-3.1122
X6.8909Y-2.6906
X7.0067Y-3.0323
X7.0492Y-3.152
X7.2437Y-2.085
T2
X1.39Y-3.34
X1.39Y-3.64
X1.4Y-1.17
X1.4Y-1.47
X1.48Y-2.33
X1.48Y-2.46
X1.515Y-3.3406
X1.515Y-3.5374
X1.5311Y-1.2717
X1.5311Y-1.4685
X1.6307Y-3.339
X1.6307Y-3.639
X1.648Y-1.1646
X1.648Y-1.4646
X1.7331Y-3.3398
X1.7331Y-3.6398
X1.7563Y-1.1638
X1.7563Y-1.4638
X1.78Y-2.33
X1.78Y-2.46
X2.02Y-1.15
X2.02Y-1.45
X2.0787Y-2.0697
X2.0787Y-2.1921
X2.16Y-1.15
X2.16Y-1.45
X2.2295Y-2.5354
X2.2316Y-2.41
X2.3185Y-3.3335
X2.3185Y-3.6335
X2.3787Y-2.0697
X2.3787Y-2.1921
X2.41Y-2.65
X2.41Y-2.95
X2.42Y-1.15
X2.42Y-1.45
X2.4264Y-2.5354
X2.4284Y-2.41
X2.5555Y-1.41
X2.5555Y-1.71
X2.5598Y-1.9098
X2.5598Y-2.0098
X2.5598Y-2.1098
X2.5598Y-2.2098
X2.5598Y-2.3098
X2.5598Y-2.4098
X2.5598Y-2.5098
X2.5598Y-2.6098
X2.5598Y-2.7098
X2.5598Y-2.8098
X2.5598Y-2.9098
X2.5598Y-3.0098
X2.5598Y-3.1098
X2.5598Y-3.2098
X2.56Y-3.34
X2.56Y-3.64
X2.8598Y-1.9098
X2.8598Y-2.0098
X2.8598Y-2.1098
X2.8598Y-2.2098
X2.8598Y-2.3098
X2.8598Y-2.4098
X2.8598Y-2.5098
X2.8598Y-2.6098
X2.8598Y-2.7098
X2.8598Y-2.8098
X2.8598Y-2.9098
X2.8598Y-3.0098
X2.8598Y-3.1098
X2.8598Y-3.2098
X2.9894Y-2.8622
X3.0295Y-3.3295
X3.0303Y-3.4524
X3.0713Y-2.2787
X3.0713Y-2.4709
X3.25Y-2.1071
X3.25Y-2.3039
X3.2508Y-2.3972
X3.2508Y-2.5941
X3.2894Y-2.8622
X3.3295Y-3.3295
X3.3303Y-3.4524
X3.4642Y-2.8051
X3.4642Y-3.1051
X3.4661Y-1.4874
X3.4661Y-1.7874
X3.4669Y-2.1449
X3.4669Y-2.4449
X3.5642Y-2.8051
X3.5642Y-3.1051
X3.5661Y-1.4874
X3.5661Y-1.7874
X3.5669Y-2.1449
X3.5669Y-2.4449
X3.6642Y-2.8051
X3.6642Y-3.1051
X3.6661Y-1.4874
X3.6661Y-1.7874
X3.6669Y-2.1449
X3.6669Y-2.4449
X3.73Y-3.3931
X3.73Y-3.59
X3.7642Y-2.8051
X3.7642Y-3.1051
X3.7661Y-1.4874
X3.7661Y-1.7874
X3.7669Y-2.1449
X3.7669Y-2.4449
X3.8642Y-2.8051
X3.8642Y-3.1051
X3.8661Y-1.4874
X3.8661Y-1.7874
X3.8669Y-2.1449
X3.8669Y-2.4449
X3.87Y-3.34
X3.87Y-3.64
X3.9642Y-2.8051
X3.9642Y-3.1051
X3.9661Y-1.4874
X3.9661Y-1.7874
X3.9669Y-2.1449
X3.9669Y-2.4449
X4.0642Y-2.8051
X4.0642Y-3.1051
X4.0661Y-1.4874
X4.0661Y-1.7874
X4.0669Y-2.1449
X4.0669Y-2.4449
X4.1131Y-3.28
X4.1642Y-2.8051
X4.1642Y-3.1051
X4.1661Y-1.4874
X4.1661Y-1.7874
X4.1669Y-2.1449
X4.1669Y-2.4449
X4.1787Y-2.5795
X4.1831Y-1.98
X4.2642Y-2.8051
X4.2642Y-3.1051
X4.2661Y-1.4874
X4.2661Y-1.7874
X4.2669Y-2.1449
X4.2669Y-2.4449
X4.31Y-3.28
X4.3642Y-2.8051
X4.3642Y-3.1051
X4.3661Y-1.4874
X4.3661Y-1.7874
X4.3669Y-2.1449
X4.3669Y-2.4449
X4.3756Y-2.5795
X4.38Y-1.98
X4.42Y-3.33
X4.42Y-3.63
X4.9728Y-2.1693
X4.9728Y-2.7693
X5.0728Y-2.1693
X5.0728Y-2.7693
X5.1728Y-2.1693
X5.1728Y-2.7693
X5.2728Y-2.1693
X5.2728Y-2.7693
X5.3728Y-2.1693
X5.3728Y-2.7693
X5.4728Y-2.1693
X5.4728Y-2.7693
X5.5728Y-2.1693
X5.5728Y-2.7693
X5.6728Y-2.1693
X5.6728Y-2.7693
X5.7728Y-2.1693
X5.7728Y-2.7693
X5.8728Y-2.1693
X5.8728Y-2.7693
X5.8772Y-1.5925
X5.8772Y-1.8925
X5.88Y-2.02
X5.9728Y-2.1693
X5.9728Y-2.7693
X5.9965Y-1.5898
X5.9965Y-1.8898
X6.0728Y-2.1693
X6.0728Y-2.7693
X6.1224Y-1.5921
X6.1224Y-1.8921
X6.1728Y-2.1693
X6.1728Y-2.7693
X6.18Y-2.02
X6.2728Y-2.1693
X6.2728Y-2.7693
X6.4028Y-2.5685
X6.4028Y-2.7654
X6.4972Y-2.0614
X6.4972Y-2.2583
X6.5319Y-2.4012
X6.5319Y-2.598
X6.6754Y-2.0146
X6.6754Y-2.3146
X6.6785Y-2.6114
X6.6785Y-2.9114
X6.7754Y-2.0146
X6.7754Y-2.3146
X6.7785Y-2.6114
X6.7785Y-2.9114
X6.8754Y-2.0146
X6.8754Y-2.3146
X6.8785Y-2.6114
X6.8785Y-2.9114
X6.9754Y-2.0146
X6.9754Y-2.3146
X6.9785Y-2.6114
X6.9785Y-2.9114
X7.0754Y-2.0146
X7.0754Y-2.3146
X7.0785Y-2.6114
X7.0785Y-2.9114
X7.089Y-1.4701
X7.089Y-1.7701
X7.1754Y-2.0146
X7.1754Y-2.3146
X7.1785Y-2.6114
X7.1785Y-2.9114
X7.2754Y-2.0146
X7.2754Y-2.3146
X7.2785Y-2.6114
X7.2785Y-2.9114
X7.2815Y-1.7014
X7.2815Y-1.7998
X7.33Y-3.18
X7.33Y-3.48
T3
X7.2337Y-1.4791
X7.3337Y-1.4791
T4
X1.8602Y-3.4419
X1.8602Y-3.5419
X1.8894Y-1.2594
X1.8894Y-1.3594
X2.1098Y-2.4199
X2.1098Y-2.5199
X2.14Y-2.74
X2.14Y-2.84
X2.14Y-2.94
X2.14Y-3.04
X2.14Y-3.14
X2.14Y-3.24
X2.14Y-3.34
X2.14Y-3.44
X2.14Y-3.54
X2.14Y-3.64
X2.1679Y-1.6463
X2.1679Y-1.7463
X2.1679Y-1.8463
X2.2679Y-1.6463
X2.2679Y-1.7463
X2.2679Y-1.8463
X2.8304Y-3.6256
X2.9304Y-3.6256
X3.0304Y-3.6256
X3.1304Y-3.6256
X4.68Y-3.22
X4.74Y-3.41
X4.78Y-3.22
X4.84Y-3.41
X4.88Y-3.22
X4.94Y-3.41
X4.98Y-3.22
X5.04Y-3.41
X5.08Y-3.22
X5.14Y-3.41
X5.18Y-3.22
X5.24Y-3.41
X5.28Y-3.22
X5.34Y-3.41
X5.38Y-3.22
X5.3862Y-2.9205
X5.44Y-3.41
X5.48Y-3.22
X5.4862Y-2.9205
X5.54Y-3.41
X5.58Y-3.22
X5.5862Y-2.9205
X5.64Y-3.41
X5.68Y-3.22
X5.74Y-3.41
X5.78Y-3.22
X5.8087Y-2.9177
X5.84Y-3.41
X5.88Y-3.22
X5.9087Y-2.9177
X5.94Y-3.41
X5.98Y-3.22
X6.0087Y-2.9177
X6.04Y-3.41
X6.08Y-3.22
X6.14Y-3.41
X6.18Y-3.22
X6.2144Y-2.9205
X6.24Y-3.41
X6.28Y-3.22
X6.3144Y-2.9205
X6.34Y-3.41
X6.38Y-3.22
X6.4144Y-2.9205
X6.44Y-3.41
X6.48Y-3.22
X6.54Y-3.41
X6.58Y-3.22
X6.64Y-3.41
X6.68Y-3.22
X6.74Y-3.41
X6.78Y-3.22
X6.84Y-3.41
X6.88Y-3.22
X6.94Y-3.41
X6.98Y-3.22
X7.04Y-3.41
X7.08Y-3.22
X7.14Y-3.41
X7.4539Y-3.2417
X7.4539Y-3.3417
T5
X4.0241Y-3.4328
X4.0241Y-3.61
X4.28Y-3.4328
X4.28Y-3.61
T0
M30
