G04 #@! TF.GenerationSoftware,KiCad,Pcbnew,(6.0.2)*
G04 #@! TF.CreationDate,2022-05-25T19:57:35-05:00*
G04 #@! TF.ProjectId,Apple2Card,4170706c-6532-4436-9172-642e6b696361,rev?*
G04 #@! TF.SameCoordinates,Original*
G04 #@! TF.FileFunction,Copper,L2,Bot*
G04 #@! TF.FilePolarity,Positive*
%FSLAX46Y46*%
G04 Gerber Fmt 4.6, Leading zero omitted, Abs format (unit mm)*
G04 Created by KiCad (PCBNEW (6.0.2)) date 2022-05-25 19:57:35*
%MOMM*%
%LPD*%
G01*
G04 APERTURE LIST*
G04 #@! TA.AperFunction,ComponentPad*
%ADD10C,1.600000*%
G04 #@! TD*
G04 #@! TA.AperFunction,ComponentPad*
%ADD11O,1.600000X1.600000*%
G04 #@! TD*
G04 #@! TA.AperFunction,ComponentPad*
%ADD12R,1.600000X1.600000*%
G04 #@! TD*
G04 #@! TA.AperFunction,ComponentPad*
%ADD13R,1.700000X1.700000*%
G04 #@! TD*
G04 #@! TA.AperFunction,ComponentPad*
%ADD14O,1.700000X1.700000*%
G04 #@! TD*
G04 #@! TA.AperFunction,SMDPad,CuDef*
%ADD15R,1.910000X8.530000*%
G04 #@! TD*
G04 #@! TA.AperFunction,SMDPad,CuDef*
%ADD16R,1.270000X8.530000*%
G04 #@! TD*
G04 #@! TA.AperFunction,ComponentPad*
%ADD17C,1.500000*%
G04 #@! TD*
G04 #@! TA.AperFunction,ComponentPad*
%ADD18C,2.000000*%
G04 #@! TD*
G04 #@! TA.AperFunction,ComponentPad*
%ADD19R,1.800000X1.800000*%
G04 #@! TD*
G04 #@! TA.AperFunction,ComponentPad*
%ADD20C,1.800000*%
G04 #@! TD*
G04 #@! TA.AperFunction,ViaPad*
%ADD21C,0.800000*%
G04 #@! TD*
G04 #@! TA.AperFunction,Conductor*
%ADD22C,0.350000*%
G04 #@! TD*
G04 APERTURE END LIST*
D10*
X155510000Y-48060000D03*
D11*
X155510000Y-40440000D03*
D10*
X82570000Y-60890000D03*
X82570000Y-65890000D03*
X61214000Y-74930000D03*
D11*
X61214000Y-67310000D03*
D10*
X61468000Y-36830000D03*
D11*
X61468000Y-29210000D03*
D10*
X76970000Y-87690000D03*
D11*
X84590000Y-87690000D03*
D10*
X76950000Y-84570000D03*
D11*
X84570000Y-84570000D03*
D12*
X169635000Y-73950000D03*
D11*
X172175000Y-73950000D03*
X174715000Y-73950000D03*
X177255000Y-73950000D03*
X179795000Y-73950000D03*
X182335000Y-73950000D03*
X184875000Y-73950000D03*
X184875000Y-66330000D03*
X182335000Y-66330000D03*
X179795000Y-66330000D03*
X177255000Y-66330000D03*
X174715000Y-66330000D03*
X172175000Y-66330000D03*
X169635000Y-66330000D03*
D12*
X41420000Y-84810000D03*
D11*
X41420000Y-92430000D03*
D10*
X165910000Y-65990000D03*
X165910000Y-60990000D03*
X165030000Y-52360000D03*
X165030000Y-57360000D03*
D13*
X136745000Y-74370000D03*
D14*
X139285000Y-74370000D03*
X141825000Y-74370000D03*
D13*
X157988000Y-74422000D03*
D14*
X160528000Y-74422000D03*
X163068000Y-74422000D03*
D13*
X147589000Y-74422000D03*
D14*
X150129000Y-74422000D03*
X152669000Y-74422000D03*
D10*
X162630000Y-70240000D03*
X162630000Y-65240000D03*
D13*
X53590000Y-61465000D03*
D14*
X53590000Y-64005000D03*
D10*
X61682000Y-61214000D03*
X56682000Y-61214000D03*
X38890000Y-37300000D03*
X38890000Y-32300000D03*
D13*
X190320000Y-79865000D03*
D14*
X190320000Y-82405000D03*
D10*
X109474000Y-83312000D03*
X104474000Y-83312000D03*
D15*
X181864000Y-99060000D03*
D16*
X179070000Y-99060000D03*
X176530000Y-99060000D03*
X173990000Y-99060000D03*
X171450000Y-99060000D03*
X168910000Y-99060000D03*
X166370000Y-99060000D03*
X163830000Y-99060000D03*
X161290000Y-99060000D03*
X158750000Y-99060000D03*
X156210000Y-99060000D03*
X153670000Y-99060000D03*
X151130000Y-99060000D03*
X148590000Y-99060000D03*
X146050000Y-99060000D03*
X143510000Y-99060000D03*
X140970000Y-99060000D03*
X138430000Y-99060000D03*
X135890000Y-99060000D03*
X133350000Y-99060000D03*
X130810000Y-99060000D03*
X128270000Y-99060000D03*
X125730000Y-99060000D03*
X123190000Y-99060000D03*
D15*
X120396000Y-99060000D03*
D10*
X111140000Y-65520000D03*
X106140000Y-65520000D03*
X45212000Y-62484000D03*
D11*
X37592000Y-62484000D03*
D13*
X71892000Y-92090000D03*
D14*
X74432000Y-92090000D03*
X76972000Y-92090000D03*
X79512000Y-92090000D03*
D12*
X44610000Y-29560000D03*
D11*
X44610000Y-37180000D03*
D12*
X72640000Y-81530000D03*
D11*
X72640000Y-78990000D03*
X72640000Y-76450000D03*
X72640000Y-73910000D03*
X72640000Y-71370000D03*
X72640000Y-68830000D03*
X72640000Y-66290000D03*
X72640000Y-63750000D03*
X72640000Y-61210000D03*
X72640000Y-58670000D03*
X72640000Y-56130000D03*
X72640000Y-53590000D03*
X72640000Y-51050000D03*
X72640000Y-48510000D03*
X65020000Y-48510000D03*
X65020000Y-51050000D03*
X65020000Y-53590000D03*
X65020000Y-56130000D03*
X65020000Y-58670000D03*
X65020000Y-61210000D03*
X65020000Y-63750000D03*
X65020000Y-66290000D03*
X65020000Y-68830000D03*
X65020000Y-71370000D03*
X65020000Y-73910000D03*
X65020000Y-76450000D03*
X65020000Y-78990000D03*
X65020000Y-81530000D03*
D12*
X149280000Y-48070000D03*
D11*
X149280000Y-40450000D03*
D17*
X78010000Y-57880000D03*
X78010000Y-62760000D03*
D12*
X58890000Y-92290000D03*
D11*
X58890000Y-84670000D03*
D13*
X120396000Y-86614000D03*
D14*
X122936000Y-86614000D03*
X125476000Y-86614000D03*
X128016000Y-86614000D03*
X130556000Y-86614000D03*
X133096000Y-86614000D03*
X135636000Y-86614000D03*
X138176000Y-86614000D03*
X140716000Y-86614000D03*
X143256000Y-86614000D03*
X145796000Y-86614000D03*
X148336000Y-86614000D03*
X150876000Y-86614000D03*
X153416000Y-86614000D03*
X155956000Y-86614000D03*
X158496000Y-86614000D03*
X161036000Y-86614000D03*
X163576000Y-86614000D03*
X166116000Y-86614000D03*
X168656000Y-86614000D03*
X171196000Y-86614000D03*
X173736000Y-86614000D03*
X176276000Y-86614000D03*
X178816000Y-86614000D03*
X181356000Y-86614000D03*
D12*
X152310000Y-48000000D03*
D11*
X152310000Y-40380000D03*
D13*
X118872000Y-81788000D03*
D14*
X121412000Y-81788000D03*
X123952000Y-81788000D03*
X126492000Y-81788000D03*
X129032000Y-81788000D03*
X131572000Y-81788000D03*
X134112000Y-81788000D03*
X136652000Y-81788000D03*
X139192000Y-81788000D03*
X141732000Y-81788000D03*
X144272000Y-81788000D03*
X146812000Y-81788000D03*
X149352000Y-81788000D03*
X151892000Y-81788000D03*
X154432000Y-81788000D03*
X156972000Y-81788000D03*
X159512000Y-81788000D03*
X162052000Y-81788000D03*
X164592000Y-81788000D03*
X167132000Y-81788000D03*
X169672000Y-81788000D03*
X172212000Y-81788000D03*
X174752000Y-81788000D03*
X177292000Y-81788000D03*
X179832000Y-81788000D03*
D10*
X51308000Y-36830000D03*
D11*
X51308000Y-29210000D03*
D13*
X47250000Y-89965000D03*
D14*
X47250000Y-87425000D03*
D12*
X110850000Y-71250000D03*
D11*
X108310000Y-71250000D03*
X105770000Y-71250000D03*
X103230000Y-71250000D03*
X100690000Y-71250000D03*
X98150000Y-71250000D03*
X95610000Y-71250000D03*
X93070000Y-71250000D03*
X90530000Y-71250000D03*
X87990000Y-71250000D03*
X87990000Y-78870000D03*
X90530000Y-78870000D03*
X93070000Y-78870000D03*
X95610000Y-78870000D03*
X98150000Y-78870000D03*
X100690000Y-78870000D03*
X103230000Y-78870000D03*
X105770000Y-78870000D03*
X108310000Y-78870000D03*
X110850000Y-78870000D03*
D10*
X98298000Y-84836000D03*
D11*
X98298000Y-92456000D03*
D10*
X35560000Y-29718000D03*
D11*
X35560000Y-37338000D03*
D10*
X38480000Y-84850000D03*
X38480000Y-89850000D03*
D12*
X112268000Y-84582000D03*
D11*
X112268000Y-92202000D03*
D12*
X169555000Y-58790000D03*
D11*
X172095000Y-58790000D03*
X174635000Y-58790000D03*
X177175000Y-58790000D03*
X179715000Y-58790000D03*
X182255000Y-58790000D03*
X184795000Y-58790000D03*
X184795000Y-51170000D03*
X182255000Y-51170000D03*
X179715000Y-51170000D03*
X177175000Y-51170000D03*
X174635000Y-51170000D03*
X172095000Y-51170000D03*
X169555000Y-51170000D03*
D10*
X94742000Y-91186000D03*
X94742000Y-86186000D03*
X82550000Y-58520000D03*
X82550000Y-53520000D03*
X180060000Y-44960000D03*
D11*
X180060000Y-37340000D03*
D18*
X102212000Y-91694000D03*
X108712000Y-91694000D03*
X102212000Y-87194000D03*
X108712000Y-87194000D03*
D12*
X110900000Y-37780000D03*
D11*
X108360000Y-37780000D03*
X105820000Y-37780000D03*
X103280000Y-37780000D03*
X100740000Y-37780000D03*
X98200000Y-37780000D03*
X95660000Y-37780000D03*
X93120000Y-37780000D03*
X90580000Y-37780000D03*
X88040000Y-37780000D03*
X88040000Y-45400000D03*
X90580000Y-45400000D03*
X93120000Y-45400000D03*
X95660000Y-45400000D03*
X98200000Y-45400000D03*
X100740000Y-45400000D03*
X103280000Y-45400000D03*
X105820000Y-45400000D03*
X108360000Y-45400000D03*
X110900000Y-45400000D03*
D10*
X64910000Y-43434000D03*
D11*
X64910000Y-35814000D03*
D13*
X47990000Y-31990000D03*
D14*
X47990000Y-34530000D03*
D12*
X110920000Y-54480000D03*
D11*
X108380000Y-54480000D03*
X105840000Y-54480000D03*
X103300000Y-54480000D03*
X100760000Y-54480000D03*
X98220000Y-54480000D03*
X95680000Y-54480000D03*
X93140000Y-54480000D03*
X90600000Y-54480000D03*
X88060000Y-54480000D03*
X88060000Y-62100000D03*
X90600000Y-62100000D03*
X93140000Y-62100000D03*
X95680000Y-62100000D03*
X98220000Y-62100000D03*
X100760000Y-62100000D03*
X103300000Y-62100000D03*
X105840000Y-62100000D03*
X108380000Y-62100000D03*
X110920000Y-62100000D03*
D12*
X159330000Y-55100000D03*
D11*
X156790000Y-55100000D03*
X154250000Y-55100000D03*
X151710000Y-55100000D03*
X149170000Y-55100000D03*
X146630000Y-55100000D03*
X144090000Y-55100000D03*
X141550000Y-55100000D03*
X139010000Y-55100000D03*
X136470000Y-55100000D03*
X133930000Y-55100000D03*
X131390000Y-55100000D03*
X128850000Y-55100000D03*
X126310000Y-55100000D03*
X126310000Y-70340000D03*
X128850000Y-70340000D03*
X131390000Y-70340000D03*
X133930000Y-70340000D03*
X136470000Y-70340000D03*
X139010000Y-70340000D03*
X141550000Y-70340000D03*
X144090000Y-70340000D03*
X146630000Y-70340000D03*
X149170000Y-70340000D03*
X151710000Y-70340000D03*
X154250000Y-70340000D03*
X156790000Y-70340000D03*
X159330000Y-70340000D03*
D12*
X44020000Y-92450000D03*
D11*
X44020000Y-84830000D03*
D12*
X186980000Y-77530000D03*
D11*
X186980000Y-85150000D03*
D10*
X60420000Y-55680000D03*
D11*
X52800000Y-55680000D03*
D19*
X186275000Y-37570000D03*
D20*
X183735000Y-37570000D03*
D10*
X45212000Y-59182000D03*
D11*
X37592000Y-59182000D03*
D10*
X54864000Y-29210000D03*
D11*
X54864000Y-36830000D03*
D10*
X149352000Y-51308000D03*
D11*
X156972000Y-51308000D03*
D13*
X54356000Y-69596000D03*
D14*
X54356000Y-72136000D03*
X54356000Y-74676000D03*
X54356000Y-77216000D03*
X54356000Y-79756000D03*
X54356000Y-82296000D03*
X54356000Y-84836000D03*
X54356000Y-87376000D03*
X54356000Y-89916000D03*
X54356000Y-92456000D03*
D10*
X83550000Y-72700000D03*
D11*
X75930000Y-72700000D03*
D13*
X57605000Y-46895000D03*
D14*
X55065000Y-46895000D03*
X57605000Y-44355000D03*
X55065000Y-44355000D03*
X57605000Y-41815000D03*
X55065000Y-41815000D03*
D10*
X35306000Y-92456000D03*
D11*
X35306000Y-84836000D03*
D10*
X111252000Y-50292000D03*
X106252000Y-50292000D03*
X65024000Y-92456000D03*
D11*
X65024000Y-84836000D03*
D12*
X184950000Y-45715112D03*
D10*
X184950000Y-43215112D03*
X60420000Y-52570000D03*
D11*
X52800000Y-52570000D03*
D10*
X61630000Y-64400000D03*
X56630000Y-64400000D03*
D12*
X41860000Y-37200000D03*
D11*
X41860000Y-29580000D03*
D21*
X178550000Y-80160000D03*
X122810000Y-83790000D03*
X119760000Y-76860000D03*
X121110000Y-76790000D03*
X125410000Y-83820000D03*
X127940000Y-83630000D03*
X122430000Y-76800000D03*
X130290000Y-83560000D03*
X124750000Y-77690000D03*
X133060000Y-83620000D03*
X126030000Y-77630000D03*
X127240000Y-77460000D03*
X135520000Y-83780000D03*
X137950000Y-83710000D03*
X128570000Y-77240000D03*
X140470000Y-83730000D03*
X130110000Y-77030000D03*
X180840000Y-77640000D03*
X118720000Y-39400000D03*
X183990000Y-52960000D03*
X47340000Y-40760000D03*
X177970000Y-77020000D03*
X170030000Y-76934500D03*
X116230000Y-69280000D03*
X103490000Y-64850000D03*
X114180000Y-67910000D03*
X114812655Y-67007345D03*
X93037105Y-64304500D03*
X115857655Y-66792345D03*
X116270000Y-65220000D03*
X120670000Y-52400000D03*
X131260000Y-52425500D03*
X132510000Y-52270000D03*
X40640000Y-72898000D03*
X40894000Y-47498000D03*
X67650000Y-48570000D03*
X49360000Y-69750000D03*
X47498000Y-69596000D03*
X51630000Y-44530000D03*
X47440000Y-44580000D03*
X58674000Y-79502000D03*
X70210000Y-59090000D03*
X69342000Y-55118000D03*
X58340000Y-77180000D03*
X67564000Y-51562000D03*
X73910000Y-67590000D03*
X84410000Y-48940000D03*
X116040000Y-38280000D03*
X78320000Y-77740000D03*
X116040000Y-46900000D03*
X86740000Y-43520000D03*
X73950000Y-70100000D03*
X109280000Y-43520000D03*
X48560000Y-49980000D03*
X43434000Y-71628000D03*
X43942000Y-46736000D03*
X48630000Y-62690000D03*
X44196000Y-75184000D03*
X42164000Y-48768000D03*
X42672000Y-74168000D03*
X86080000Y-49100000D03*
X89190000Y-47410000D03*
X85800000Y-42410000D03*
X98460000Y-56590000D03*
X97970000Y-64540000D03*
X98120000Y-42360000D03*
X87900000Y-41330000D03*
X101235500Y-56700000D03*
X100500000Y-41780000D03*
X108380000Y-64940000D03*
X108100000Y-40810000D03*
X86310000Y-40580000D03*
X108885500Y-55950000D03*
X164610000Y-75940000D03*
X143210000Y-76840000D03*
X175030000Y-68340000D03*
D22*
X143240000Y-76870000D02*
X144400000Y-76870000D01*
X44456000Y-84830000D02*
X44020000Y-84830000D01*
X48510000Y-80776000D02*
X44456000Y-84830000D01*
X48510000Y-69085000D02*
X48510000Y-80776000D01*
X53590000Y-64005000D02*
X48510000Y-69085000D01*
X44655000Y-84830000D02*
X44020000Y-84830000D01*
X47250000Y-87425000D02*
X44655000Y-84830000D01*
X44020000Y-92450000D02*
X44014000Y-92456000D01*
X46941000Y-89965000D02*
X44456000Y-92450000D01*
X44014000Y-92456000D02*
X41446000Y-92456000D01*
X47250000Y-89965000D02*
X46941000Y-89965000D01*
X44456000Y-92450000D02*
X44020000Y-92450000D01*
X41446000Y-92456000D02*
X41420000Y-92430000D01*
X41420000Y-82822000D02*
X41420000Y-84810000D01*
X39878000Y-73660000D02*
X39878000Y-81280000D01*
X39878000Y-81280000D02*
X41420000Y-82822000D01*
X40640000Y-72898000D02*
X39878000Y-73660000D01*
X41394000Y-84836000D02*
X38494000Y-84836000D01*
X41420000Y-84810000D02*
X41394000Y-84836000D01*
X38466000Y-84836000D02*
X35306000Y-84836000D01*
X38480000Y-84850000D02*
X38466000Y-84836000D01*
X45340000Y-37180000D02*
X44610000Y-37180000D01*
X41998000Y-29718000D02*
X41860000Y-29580000D01*
X44452000Y-29718000D02*
X41998000Y-29718000D01*
X44610000Y-29560000D02*
X44452000Y-29718000D01*
X45560000Y-29560000D02*
X44610000Y-29560000D01*
X47990000Y-34530000D02*
X45340000Y-37180000D01*
X47990000Y-31990000D02*
X45560000Y-29560000D01*
X41860000Y-39674000D02*
X41860000Y-37200000D01*
X41860000Y-37200000D02*
X41722000Y-37338000D01*
X41722000Y-37338000D02*
X38928000Y-37338000D01*
X40894000Y-47498000D02*
X40132000Y-46736000D01*
X40132000Y-41402000D02*
X41860000Y-39674000D01*
X38928000Y-37338000D02*
X38890000Y-37300000D01*
X40132000Y-46736000D02*
X40132000Y-41402000D01*
X35600000Y-37298000D02*
X35560000Y-37338000D01*
X38888000Y-37298000D02*
X35600000Y-37298000D01*
X38890000Y-37300000D02*
X38888000Y-37298000D01*
X179780000Y-73965000D02*
X179795000Y-73950000D01*
X179780000Y-78930000D02*
X179780000Y-73965000D01*
X178550000Y-80160000D02*
X179780000Y-78930000D01*
X122936000Y-86614000D02*
X122820000Y-86498000D01*
X122820000Y-86498000D02*
X122820000Y-83800000D01*
X105820000Y-37120000D02*
X105820000Y-37780000D01*
X122820000Y-83800000D02*
X122810000Y-83790000D01*
X111360000Y-35820000D02*
X107120000Y-35820000D01*
X121072862Y-56870000D02*
X134700000Y-56870000D01*
X136470000Y-53640000D02*
X132868000Y-50038000D01*
X136470000Y-55100000D02*
X136470000Y-53640000D01*
X134700000Y-56870000D02*
X136470000Y-55100000D01*
X112610000Y-37070000D02*
X111360000Y-35820000D01*
X114198000Y-50038000D02*
X112610000Y-48450000D01*
X119340000Y-76440000D02*
X119340000Y-58602862D01*
X132868000Y-50038000D02*
X114198000Y-50038000D01*
X119760000Y-76860000D02*
X119340000Y-76440000D01*
X119340000Y-58602862D02*
X121072862Y-56870000D01*
X112610000Y-48450000D02*
X112610000Y-37070000D01*
X107120000Y-35820000D02*
X105820000Y-37120000D01*
X135350000Y-57640000D02*
X136090000Y-56900000D01*
X139010000Y-56300000D02*
X139010000Y-55100000D01*
X125476000Y-86614000D02*
X125476000Y-83886000D01*
X125476000Y-83886000D02*
X125410000Y-83820000D01*
X114446000Y-49276000D02*
X113450000Y-48280000D01*
X120100000Y-75900000D02*
X120100000Y-58890000D01*
X111630000Y-35070000D02*
X106100000Y-35070000D01*
X138410000Y-56900000D02*
X139010000Y-56300000D01*
X121110000Y-76790000D02*
X120990000Y-76790000D01*
X120990000Y-76790000D02*
X120100000Y-75900000D01*
X136090000Y-56900000D02*
X138410000Y-56900000D01*
X121350000Y-57640000D02*
X135350000Y-57640000D01*
X139010000Y-55100000D02*
X133186000Y-49276000D01*
X133186000Y-49276000D02*
X114446000Y-49276000D01*
X113450000Y-48280000D02*
X113450000Y-36890000D01*
X103390000Y-37780000D02*
X103280000Y-37780000D01*
X106100000Y-35070000D02*
X103390000Y-37780000D01*
X113450000Y-36890000D02*
X111630000Y-35070000D01*
X120100000Y-58890000D02*
X121350000Y-57640000D01*
X120770000Y-59490000D02*
X121900000Y-58360000D01*
X114220000Y-36500000D02*
X112100000Y-34380000D01*
X114934000Y-48514000D02*
X114220000Y-47800000D01*
X104312862Y-35970000D02*
X97470000Y-35970000D01*
X120770000Y-75140000D02*
X120770000Y-59490000D01*
X138530000Y-53270000D02*
X133774000Y-48514000D01*
X139980000Y-56600000D02*
X141050000Y-56600000D01*
X141620000Y-56030000D02*
X141620000Y-55170000D01*
X135830000Y-58360000D02*
X136610000Y-57580000D01*
X141550000Y-54520000D02*
X140300000Y-53270000D01*
X105902862Y-34380000D02*
X104312862Y-35970000D01*
X114220000Y-47800000D02*
X114220000Y-36500000D01*
X112100000Y-34380000D02*
X105902862Y-34380000D01*
X141620000Y-55170000D02*
X141550000Y-55100000D01*
X141050000Y-56600000D02*
X141620000Y-56030000D01*
X141550000Y-55100000D02*
X141550000Y-54520000D01*
X133774000Y-48514000D02*
X114934000Y-48514000D01*
X139000000Y-57580000D02*
X139980000Y-56600000D01*
X97470000Y-35970000D02*
X95660000Y-37780000D01*
X128016000Y-83706000D02*
X127940000Y-83630000D01*
X140300000Y-53270000D02*
X138530000Y-53270000D01*
X121900000Y-58360000D02*
X135830000Y-58360000D01*
X122430000Y-76800000D02*
X120770000Y-75140000D01*
X128016000Y-86614000D02*
X128016000Y-83706000D01*
X136610000Y-57580000D02*
X139000000Y-57580000D01*
X142810000Y-57340000D02*
X144090000Y-56060000D01*
X95520000Y-35380000D02*
X93120000Y-37780000D01*
X121480000Y-60020000D02*
X122350000Y-59150000D01*
X138760000Y-52420000D02*
X134092000Y-47752000D01*
X115000000Y-47360000D02*
X115000000Y-35970000D01*
X144090000Y-55100000D02*
X141410000Y-52420000D01*
X144090000Y-56060000D02*
X144090000Y-55100000D01*
X136300000Y-59150000D02*
X137050000Y-58400000D01*
X130556000Y-83826000D02*
X130290000Y-83560000D01*
X105490000Y-33710000D02*
X103820000Y-35380000D01*
X103820000Y-35380000D02*
X95520000Y-35380000D01*
X137050000Y-58400000D02*
X139340000Y-58400000D01*
X134092000Y-47752000D02*
X115392000Y-47752000D01*
X140400000Y-57340000D02*
X142810000Y-57340000D01*
X112740000Y-33710000D02*
X105490000Y-33710000D01*
X124700000Y-77690000D02*
X121480000Y-74470000D01*
X130556000Y-86614000D02*
X130556000Y-83826000D01*
X139340000Y-58400000D02*
X140400000Y-57340000D01*
X141410000Y-52420000D02*
X138760000Y-52420000D01*
X121480000Y-74470000D02*
X121480000Y-60020000D01*
X122350000Y-59150000D02*
X136300000Y-59150000D01*
X124750000Y-77690000D02*
X124700000Y-77690000D01*
X115000000Y-35970000D02*
X112740000Y-33710000D01*
X115392000Y-47752000D02*
X115000000Y-47360000D01*
X122280000Y-60900000D02*
X123280000Y-59900000D01*
X143520000Y-58000000D02*
X144750000Y-56770000D01*
X126030000Y-77630000D02*
X126030000Y-77490000D01*
X136540000Y-59900000D02*
X137270000Y-59170000D01*
X139900000Y-59170000D02*
X141070000Y-58000000D01*
X146630000Y-56420000D02*
X146630000Y-55100000D01*
X146280000Y-56770000D02*
X146630000Y-56420000D01*
X122280000Y-73740000D02*
X122280000Y-60900000D01*
X137270000Y-59170000D02*
X139900000Y-59170000D01*
X141070000Y-58000000D02*
X143520000Y-58000000D01*
X123280000Y-59900000D02*
X136540000Y-59900000D01*
X144750000Y-56770000D02*
X146280000Y-56770000D01*
X126030000Y-77490000D02*
X122280000Y-73740000D01*
X133096000Y-83656000D02*
X133060000Y-83620000D01*
X133096000Y-86614000D02*
X133096000Y-83656000D01*
X135636000Y-86614000D02*
X135636000Y-83896000D01*
X136940000Y-60660000D02*
X137640000Y-59960000D01*
X123050000Y-61470000D02*
X123860000Y-60660000D01*
X141550000Y-58760000D02*
X144110000Y-58760000D01*
X127240000Y-77460000D02*
X127140000Y-77460000D01*
X149170000Y-56450000D02*
X149170000Y-55100000D01*
X137640000Y-59960000D02*
X140350000Y-59960000D01*
X127140000Y-77460000D02*
X123050000Y-73370000D01*
X123050000Y-73370000D02*
X123050000Y-61470000D01*
X140350000Y-59960000D02*
X141550000Y-58760000D01*
X135636000Y-83896000D02*
X135520000Y-83780000D01*
X147560000Y-56720000D02*
X148900000Y-56720000D01*
X123860000Y-60660000D02*
X136940000Y-60660000D01*
X146780000Y-57500000D02*
X147560000Y-56720000D01*
X145370000Y-57500000D02*
X146780000Y-57500000D01*
X144110000Y-58760000D02*
X145370000Y-57500000D01*
X148900000Y-56720000D02*
X149170000Y-56450000D01*
X147960000Y-57470000D02*
X150730000Y-57470000D01*
X128570000Y-77240000D02*
X128570000Y-77140000D01*
X123830000Y-61910000D02*
X124360000Y-61380000D01*
X123830000Y-73130000D02*
X123830000Y-61910000D01*
X147240000Y-58190000D02*
X147960000Y-57470000D01*
X145920000Y-58190000D02*
X147240000Y-58190000D01*
X138176000Y-83936000D02*
X137950000Y-83710000D01*
X151710000Y-56490000D02*
X151710000Y-55100000D01*
X144490000Y-59620000D02*
X145920000Y-58190000D01*
X128570000Y-77140000D02*
X127000000Y-75570000D01*
X126270000Y-75570000D02*
X123830000Y-73130000D01*
X138176000Y-86614000D02*
X138176000Y-83936000D01*
X150730000Y-57470000D02*
X151710000Y-56490000D01*
X140670000Y-60810000D02*
X141860000Y-59620000D01*
X127000000Y-75570000D02*
X126270000Y-75570000D01*
X137320000Y-61380000D02*
X137890000Y-60810000D01*
X124360000Y-61380000D02*
X137320000Y-61380000D01*
X137890000Y-60810000D02*
X140670000Y-60810000D01*
X141860000Y-59620000D02*
X144490000Y-59620000D01*
X141230000Y-61720000D02*
X142240000Y-60710000D01*
X144930000Y-60600000D02*
X146180000Y-59350000D01*
X140716000Y-86614000D02*
X140716000Y-83976000D01*
X124510000Y-72430000D02*
X124510000Y-63220000D01*
X140716000Y-83976000D02*
X140470000Y-83730000D01*
X137770000Y-62350000D02*
X138400000Y-61720000D01*
X154340000Y-55190000D02*
X154250000Y-55100000D01*
X126870000Y-74790000D02*
X124510000Y-72430000D01*
X146180000Y-59350000D02*
X147330000Y-59350000D01*
X142240000Y-60600000D02*
X144930000Y-60600000D01*
X148480000Y-58200000D02*
X151260000Y-58200000D01*
X151260000Y-58200000D02*
X152690000Y-56770000D01*
X130110000Y-77030000D02*
X129970000Y-77030000D01*
X127730000Y-74790000D02*
X126870000Y-74790000D01*
X153510000Y-56770000D02*
X154340000Y-55940000D01*
X138400000Y-61720000D02*
X141230000Y-61720000D01*
X129970000Y-77030000D02*
X127730000Y-74790000D01*
X125380000Y-62350000D02*
X137770000Y-62350000D01*
X152690000Y-56770000D02*
X153510000Y-56770000D01*
X124510000Y-63220000D02*
X125380000Y-62350000D01*
X142240000Y-60710000D02*
X142240000Y-60600000D01*
X147330000Y-59350000D02*
X148480000Y-58200000D01*
X154340000Y-55940000D02*
X154340000Y-55190000D01*
X179715000Y-62695000D02*
X179715000Y-58790000D01*
X172175000Y-76175000D02*
X174655000Y-76175000D01*
X174655000Y-76175000D02*
X175940000Y-74890000D01*
X178490000Y-68730000D02*
X178490000Y-63920000D01*
X163310000Y-86348000D02*
X163310000Y-80490000D01*
X172175000Y-76175000D02*
X172175000Y-73950000D01*
X175940000Y-74890000D02*
X175940000Y-71280000D01*
X172175000Y-76405000D02*
X172175000Y-76175000D01*
X175940000Y-71280000D02*
X178490000Y-68730000D01*
X178490000Y-63920000D02*
X179715000Y-62695000D01*
X169980000Y-78600000D02*
X172175000Y-76405000D01*
X165200000Y-78600000D02*
X169980000Y-78600000D01*
X163310000Y-80490000D02*
X165200000Y-78600000D01*
X163576000Y-86614000D02*
X163310000Y-86348000D01*
X175006000Y-86494000D02*
X175006000Y-89408000D01*
X174752000Y-81788000D02*
X175006000Y-82042000D01*
X176530000Y-90932000D02*
X176530000Y-99060000D01*
X175006000Y-82042000D02*
X175006000Y-86494000D01*
X176276000Y-86614000D02*
X175126000Y-86614000D01*
X175006000Y-89408000D02*
X176530000Y-90932000D01*
X175126000Y-86614000D02*
X175006000Y-86494000D01*
X177292000Y-81788000D02*
X177540000Y-82036000D01*
X177540000Y-82036000D02*
X177540000Y-86560000D01*
X177540000Y-89656000D02*
X179070000Y-91186000D01*
X179070000Y-91186000D02*
X179070000Y-99060000D01*
X178816000Y-86614000D02*
X177594000Y-86614000D01*
X177594000Y-86614000D02*
X177540000Y-86560000D01*
X177540000Y-86560000D02*
X177540000Y-89656000D01*
X178530000Y-46180000D02*
X180630000Y-48280000D01*
X53050000Y-46180000D02*
X53050000Y-43330000D01*
X158010000Y-38640000D02*
X160740000Y-41370000D01*
X141825000Y-74370000D02*
X142800000Y-73395000D01*
X51710000Y-59990000D02*
X55000000Y-56700000D01*
X61686000Y-61210000D02*
X61682000Y-61214000D01*
X76200000Y-82296000D02*
X74134000Y-80230000D01*
X110900000Y-49940000D02*
X110900000Y-45400000D01*
X142800000Y-69480000D02*
X143660000Y-68620000D01*
X52355000Y-64005000D02*
X51710000Y-63360000D01*
X173720000Y-41370000D02*
X178530000Y-46180000D01*
X142800000Y-73395000D02*
X142800000Y-69480000D01*
X178530000Y-46180000D02*
X178840000Y-46180000D01*
X118720000Y-39400000D02*
X118720000Y-42610000D01*
X107996000Y-84790000D02*
X98344000Y-84790000D01*
X162630000Y-70240000D02*
X162630000Y-69000000D01*
X142380000Y-43180000D02*
X146920000Y-38640000D01*
X110900000Y-78920000D02*
X110850000Y-78870000D01*
X178840000Y-46180000D02*
X180060000Y-44960000D01*
X109474000Y-83312000D02*
X110900000Y-81886000D01*
X51710000Y-63360000D02*
X51710000Y-59990000D01*
X110744000Y-84582000D02*
X109474000Y-83312000D01*
X53590000Y-64005000D02*
X52355000Y-64005000D01*
X156260000Y-68620000D02*
X156790000Y-69150000D01*
X186980000Y-77530000D02*
X188750000Y-75760000D01*
X59564000Y-65660000D02*
X59310000Y-65660000D01*
X159330000Y-70684000D02*
X159330000Y-70340000D01*
X159330000Y-70340000D02*
X156790000Y-70340000D01*
X55000000Y-50850000D02*
X53120000Y-48970000D01*
X59490000Y-65480000D02*
X59310000Y-65660000D01*
X167930000Y-52795000D02*
X168037500Y-52687500D01*
X165030000Y-52360000D02*
X165357500Y-52687500D01*
X70950000Y-67980000D02*
X72640000Y-66290000D01*
X50480000Y-40760000D02*
X47340000Y-40760000D01*
X167275000Y-64625000D02*
X165910000Y-65990000D01*
X146920000Y-38640000D02*
X158010000Y-38640000D01*
X109474000Y-83312000D02*
X107996000Y-84790000D01*
X160740000Y-41370000D02*
X173720000Y-41370000D01*
X55000000Y-56700000D02*
X55000000Y-50850000D01*
X156972000Y-51308000D02*
X163978000Y-51308000D01*
X155510000Y-48060000D02*
X155510000Y-49846000D01*
X58830000Y-66140000D02*
X55725000Y-66140000D01*
X187985000Y-77530000D02*
X190320000Y-79865000D01*
X162630000Y-69000000D02*
X165640000Y-65990000D01*
X83312000Y-89408000D02*
X82296000Y-88392000D01*
X112268000Y-84582000D02*
X110744000Y-84582000D01*
X180850000Y-77630000D02*
X186880000Y-77630000D01*
X111140000Y-67220000D02*
X113680000Y-69760000D01*
X143660000Y-68620000D02*
X156260000Y-68620000D01*
X112950000Y-78870000D02*
X110850000Y-78870000D01*
X186320000Y-55290000D02*
X183990000Y-52960000D01*
X110900000Y-81886000D02*
X110900000Y-78920000D01*
X165640000Y-65990000D02*
X165910000Y-65990000D01*
X187050000Y-54560000D02*
X186320000Y-55290000D01*
X53050000Y-48940000D02*
X53050000Y-46180000D01*
X85725000Y-89408000D02*
X83312000Y-89408000D01*
X113680000Y-69760000D02*
X113680000Y-78140000D01*
X165357500Y-52687500D02*
X168037500Y-52687500D01*
X185090000Y-48280000D02*
X187050000Y-50240000D01*
X51420000Y-41700000D02*
X50480000Y-40760000D01*
X82296000Y-84582000D02*
X80010000Y-82296000D01*
X118720000Y-42610000D02*
X119290000Y-43180000D01*
X53120000Y-48970000D02*
X53080000Y-48970000D01*
X169635000Y-66330000D02*
X167930000Y-64625000D01*
X185090000Y-48280000D02*
X184950000Y-48140000D01*
X59490000Y-61990000D02*
X59490000Y-65480000D01*
X61214000Y-67310000D02*
X59564000Y-65660000D01*
X180630000Y-48280000D02*
X185090000Y-48280000D01*
X53080000Y-48970000D02*
X53050000Y-48940000D01*
X155510000Y-49846000D02*
X156972000Y-51308000D01*
X156790000Y-69150000D02*
X156790000Y-70340000D01*
X162630000Y-70240000D02*
X159430000Y-70240000D01*
X186880000Y-77630000D02*
X186980000Y-77530000D01*
X61682000Y-61214000D02*
X60266000Y-61214000D01*
X188750000Y-75760000D02*
X188750000Y-57720000D01*
X163068000Y-74422000D02*
X159330000Y-70684000D01*
X180840000Y-77640000D02*
X180850000Y-77630000D01*
X90551000Y-84582000D02*
X85725000Y-89408000D01*
X98044000Y-84582000D02*
X90551000Y-84582000D01*
X113680000Y-78140000D02*
X112950000Y-78870000D01*
X80010000Y-82296000D02*
X76200000Y-82296000D01*
X187050000Y-50240000D02*
X187050000Y-54560000D01*
X163978000Y-51308000D02*
X165030000Y-52360000D01*
X98344000Y-84790000D02*
X98298000Y-84836000D01*
X65020000Y-61210000D02*
X61686000Y-61210000D01*
X54356000Y-64771000D02*
X53590000Y-64005000D01*
X159430000Y-70240000D02*
X159330000Y-70340000D01*
X71660000Y-80230000D02*
X70950000Y-79520000D01*
X111140000Y-65520000D02*
X111140000Y-67220000D01*
X70950000Y-79520000D02*
X70950000Y-67980000D01*
X167930000Y-64625000D02*
X167275000Y-64625000D01*
X184950000Y-48140000D02*
X184950000Y-45715112D01*
X82296000Y-88392000D02*
X82296000Y-84582000D01*
X60266000Y-61214000D02*
X59490000Y-61990000D01*
X59310000Y-65660000D02*
X58830000Y-66140000D01*
X98298000Y-84836000D02*
X98044000Y-84582000D01*
X186980000Y-77530000D02*
X187985000Y-77530000D01*
X168037500Y-52687500D02*
X169555000Y-51170000D01*
X119290000Y-43180000D02*
X142380000Y-43180000D01*
X111252000Y-50292000D02*
X110900000Y-49940000D01*
X188750000Y-57720000D02*
X186320000Y-55290000D01*
X53050000Y-43330000D02*
X51420000Y-41700000D01*
X167930000Y-64625000D02*
X167930000Y-52795000D01*
X55725000Y-66140000D02*
X53590000Y-64005000D01*
X74134000Y-80230000D02*
X71660000Y-80230000D01*
X54356000Y-69596000D02*
X54356000Y-64771000D01*
X180090000Y-82046000D02*
X180090000Y-89412000D01*
X179832000Y-81788000D02*
X180090000Y-82046000D01*
X180090000Y-89412000D02*
X181864000Y-91186000D01*
X181864000Y-91186000D02*
X181864000Y-99060000D01*
X173990000Y-91694000D02*
X173990000Y-99060000D01*
X172480000Y-82056000D02*
X172480000Y-90184000D01*
X172480000Y-90184000D02*
X173990000Y-91694000D01*
X172212000Y-81788000D02*
X172480000Y-82056000D01*
X169672000Y-81788000D02*
X169910000Y-82026000D01*
X169910000Y-82026000D02*
X169910000Y-89392000D01*
X169910000Y-89392000D02*
X171450000Y-90932000D01*
X171450000Y-90932000D02*
X171450000Y-99060000D01*
X167400000Y-89676000D02*
X168910000Y-91186000D01*
X168910000Y-91186000D02*
X168910000Y-99060000D01*
X167400000Y-82056000D02*
X167400000Y-89676000D01*
X167132000Y-81788000D02*
X167400000Y-82056000D01*
X164592000Y-81788000D02*
X164850000Y-82046000D01*
X166370000Y-91186000D02*
X166370000Y-99060000D01*
X164850000Y-82046000D02*
X164850000Y-89666000D01*
X164850000Y-89666000D02*
X166370000Y-91186000D01*
X162310000Y-89920000D02*
X163830000Y-91440000D01*
X162310000Y-82046000D02*
X162310000Y-89920000D01*
X163830000Y-91440000D02*
X163830000Y-99060000D01*
X162052000Y-81788000D02*
X162310000Y-82046000D01*
X159512000Y-81788000D02*
X159760000Y-82036000D01*
X159760000Y-89656000D02*
X161290000Y-91186000D01*
X159760000Y-82036000D02*
X159760000Y-89656000D01*
X161290000Y-91186000D02*
X161290000Y-99060000D01*
X156972000Y-81788000D02*
X157210000Y-82026000D01*
X157210000Y-82026000D02*
X157210000Y-89138000D01*
X158750000Y-90678000D02*
X158750000Y-99060000D01*
X157210000Y-89138000D02*
X158750000Y-90678000D01*
X154432000Y-81788000D02*
X154700000Y-82056000D01*
X156210000Y-91186000D02*
X156210000Y-99060000D01*
X154700000Y-89676000D02*
X156210000Y-91186000D01*
X154700000Y-82056000D02*
X154700000Y-89676000D01*
X152160000Y-82056000D02*
X152160000Y-89676000D01*
X151892000Y-81788000D02*
X152160000Y-82056000D01*
X152160000Y-89676000D02*
X153670000Y-91186000D01*
X153670000Y-91186000D02*
X153670000Y-99060000D01*
X149610000Y-82046000D02*
X149610000Y-88650000D01*
X151130000Y-90170000D02*
X151130000Y-99060000D01*
X149610000Y-88650000D02*
X151130000Y-90170000D01*
X149352000Y-81788000D02*
X149610000Y-82046000D01*
X147080000Y-88914000D02*
X148590000Y-90424000D01*
X147080000Y-82056000D02*
X147080000Y-88914000D01*
X146812000Y-81788000D02*
X147080000Y-82056000D01*
X148590000Y-90424000D02*
X148590000Y-99060000D01*
X144520000Y-89402000D02*
X146050000Y-90932000D01*
X144520000Y-82036000D02*
X144520000Y-89402000D01*
X144272000Y-81788000D02*
X144520000Y-82036000D01*
X146050000Y-90932000D02*
X146050000Y-99060000D01*
X141980000Y-89402000D02*
X143510000Y-90932000D01*
X166863675Y-77640000D02*
X145880000Y-77640000D01*
X178470000Y-77020000D02*
X178530000Y-76960000D01*
X182335000Y-68155000D02*
X182335000Y-66330000D01*
X170030000Y-76934500D02*
X167569175Y-76934500D01*
X169610000Y-74752138D02*
X169610000Y-76514500D01*
X169610000Y-76514500D02*
X170030000Y-76934500D01*
X177970000Y-77020000D02*
X178470000Y-77020000D01*
X145880000Y-77640000D02*
X141732000Y-81788000D01*
X141732000Y-81788000D02*
X141980000Y-82036000D01*
X141980000Y-82036000D02*
X141980000Y-89402000D01*
X167569175Y-76934500D02*
X166863675Y-77640000D01*
X178530000Y-76960000D02*
X178530000Y-71960000D01*
X143510000Y-90932000D02*
X143510000Y-99060000D01*
X169610000Y-74752138D02*
X170023569Y-74338569D01*
X178530000Y-71960000D02*
X182335000Y-68155000D01*
X134130000Y-77900000D02*
X134130000Y-72990000D01*
X116230000Y-69280000D02*
X116120000Y-69390000D01*
X109600000Y-77910000D02*
X108640000Y-78870000D01*
X140970000Y-91186000D02*
X140970000Y-99060000D01*
X105840000Y-62760000D02*
X105840000Y-62100000D01*
X137504000Y-80100000D02*
X136330000Y-80100000D01*
X106710000Y-63630000D02*
X105840000Y-62760000D01*
X108640000Y-78870000D02*
X108310000Y-78870000D01*
X139192000Y-81788000D02*
X137504000Y-80100000D01*
X109240000Y-63630000D02*
X109600000Y-63990000D01*
X135650000Y-71470000D02*
X136000000Y-71470000D01*
X109240000Y-63630000D02*
X106710000Y-63630000D01*
X112820000Y-67650000D02*
X112820000Y-64920000D01*
X139192000Y-81788000D02*
X139420000Y-82016000D01*
X114560000Y-69390000D02*
X112820000Y-67650000D01*
X136000000Y-71470000D02*
X136470000Y-71000000D01*
X112820000Y-64920000D02*
X111530000Y-63630000D01*
X109600000Y-63990000D02*
X109600000Y-77910000D01*
X111530000Y-63630000D02*
X109240000Y-63630000D01*
X139420000Y-89636000D02*
X140970000Y-91186000D01*
X134130000Y-72990000D02*
X135650000Y-71470000D01*
X136330000Y-80100000D02*
X134130000Y-77900000D01*
X116120000Y-69390000D02*
X114560000Y-69390000D01*
X139420000Y-82016000D02*
X139420000Y-89636000D01*
X136470000Y-71000000D02*
X136470000Y-70340000D01*
X138430000Y-90932000D02*
X138430000Y-99060000D01*
X133930000Y-71790000D02*
X133930000Y-70340000D01*
X112760000Y-60800000D02*
X104140000Y-60800000D01*
X136652000Y-81788000D02*
X133320000Y-78456000D01*
X113690000Y-61730000D02*
X112760000Y-60800000D01*
X101920000Y-70090000D02*
X103490000Y-68520000D01*
X104140000Y-60800000D02*
X103300000Y-61640000D01*
X133320000Y-72400000D02*
X133930000Y-71790000D01*
X136920000Y-89422000D02*
X138430000Y-90932000D01*
X103300000Y-61640000D02*
X103300000Y-62100000D01*
X114180000Y-67910000D02*
X113690000Y-67420000D01*
X113690000Y-67420000D02*
X113690000Y-61730000D01*
X100690000Y-78870000D02*
X100690000Y-74180000D01*
X136920000Y-82056000D02*
X136920000Y-89422000D01*
X133320000Y-78456000D02*
X133320000Y-72400000D01*
X101920000Y-72950000D02*
X101920000Y-70090000D01*
X103490000Y-68520000D02*
X103490000Y-64850000D01*
X136652000Y-81788000D02*
X136920000Y-82056000D01*
X100690000Y-74180000D02*
X101920000Y-72950000D01*
X131390000Y-71060000D02*
X131390000Y-70340000D01*
X99470000Y-64730000D02*
X98220000Y-63480000D01*
X95920000Y-62340000D02*
X95680000Y-62100000D01*
X96380000Y-63480000D02*
X95920000Y-63020000D01*
X98220000Y-63480000D02*
X96380000Y-63480000D01*
X98150000Y-74190000D02*
X99470000Y-72870000D01*
X114670000Y-61810000D02*
X113050000Y-60190000D01*
X134112000Y-81788000D02*
X134112000Y-80502000D01*
X134380000Y-89422000D02*
X135890000Y-90932000D01*
X113050000Y-60190000D02*
X97590000Y-60190000D01*
X134112000Y-81788000D02*
X134380000Y-82056000D01*
X135890000Y-90932000D02*
X135890000Y-99060000D01*
X132720000Y-79110000D02*
X132720000Y-72390000D01*
X114670000Y-66864690D02*
X114670000Y-61810000D01*
X98150000Y-78870000D02*
X98150000Y-74190000D01*
X99470000Y-72870000D02*
X99470000Y-64730000D01*
X134112000Y-80502000D02*
X132720000Y-79110000D01*
X134380000Y-82056000D02*
X134380000Y-89422000D01*
X114812655Y-67007345D02*
X114670000Y-66864690D01*
X132720000Y-72390000D02*
X131390000Y-71060000D01*
X97590000Y-60190000D02*
X95680000Y-62100000D01*
X95920000Y-63020000D02*
X95920000Y-62340000D01*
X91750000Y-69530000D02*
X93037105Y-68242895D01*
X93037105Y-68242895D02*
X93037105Y-64304500D01*
X132040000Y-73530000D02*
X128850000Y-70340000D01*
X93140000Y-60580000D02*
X93140000Y-62100000D01*
X115470000Y-61750000D02*
X113190000Y-59470000D01*
X115857655Y-66792345D02*
X115470000Y-66404690D01*
X94250000Y-59470000D02*
X93140000Y-60580000D01*
X133350000Y-90932000D02*
X133350000Y-99060000D01*
X91750000Y-72220000D02*
X91750000Y-69530000D01*
X131572000Y-81788000D02*
X131820000Y-82036000D01*
X132040000Y-81320000D02*
X132040000Y-73530000D01*
X90530000Y-73440000D02*
X91750000Y-72220000D01*
X90530000Y-78870000D02*
X90530000Y-73440000D01*
X113190000Y-59470000D02*
X94250000Y-59470000D01*
X115470000Y-66404690D02*
X115470000Y-61750000D01*
X131572000Y-81788000D02*
X132040000Y-81320000D01*
X131820000Y-82036000D02*
X131820000Y-89402000D01*
X131820000Y-89402000D02*
X133350000Y-90932000D01*
X126310000Y-71580000D02*
X126310000Y-70340000D01*
X116240000Y-61470000D02*
X113590000Y-58820000D01*
X131440000Y-79380000D02*
X131440000Y-73850000D01*
X129032000Y-81788000D02*
X129280000Y-82036000D01*
X129280000Y-89656000D02*
X130810000Y-91186000D01*
X116240000Y-65190000D02*
X116240000Y-61470000D01*
X130810000Y-91186000D02*
X130810000Y-99060000D01*
X97480000Y-58820000D02*
X93140000Y-54480000D01*
X129032000Y-81788000D02*
X131440000Y-79380000D01*
X129960000Y-72370000D02*
X127100000Y-72370000D01*
X127100000Y-72370000D02*
X126310000Y-71580000D01*
X116270000Y-65220000D02*
X116240000Y-65190000D01*
X113590000Y-58820000D02*
X97480000Y-58820000D01*
X131440000Y-73850000D02*
X129960000Y-72370000D01*
X129280000Y-82036000D02*
X129280000Y-89656000D01*
X126492000Y-81788000D02*
X126098000Y-81788000D01*
X119630000Y-78030000D02*
X118625489Y-77025489D01*
X126492000Y-81788000D02*
X126760000Y-82056000D01*
X126760000Y-89676000D02*
X128270000Y-91186000D01*
X118625489Y-77025489D02*
X118625489Y-58244511D01*
X95680000Y-55730000D02*
X95680000Y-54480000D01*
X113580000Y-58220000D02*
X98170000Y-58220000D01*
X128270000Y-91186000D02*
X128270000Y-99060000D01*
X98170000Y-58220000D02*
X95680000Y-55730000D01*
X123250000Y-53620000D02*
X127370000Y-53620000D01*
X126760000Y-82056000D02*
X126760000Y-89676000D01*
X126098000Y-81788000D02*
X122340000Y-78030000D01*
X122340000Y-78030000D02*
X119630000Y-78030000D01*
X119400000Y-52400000D02*
X113580000Y-58220000D01*
X120670000Y-52400000D02*
X119400000Y-52400000D01*
X118625489Y-58244511D02*
X123250000Y-53620000D01*
X127370000Y-53620000D02*
X128850000Y-55100000D01*
X112770000Y-57510000D02*
X104230000Y-57510000D01*
X130324500Y-51490000D02*
X118790000Y-51490000D01*
X124190000Y-89900000D02*
X125730000Y-91440000D01*
X118790000Y-51490000D02*
X112770000Y-57510000D01*
X123952000Y-81788000D02*
X124190000Y-82026000D01*
X124190000Y-82026000D02*
X124190000Y-89900000D01*
X117880000Y-57990000D02*
X123010000Y-52860000D01*
X123010000Y-52860000D02*
X129150000Y-52860000D01*
X103300000Y-56580000D02*
X103300000Y-54480000D01*
X123952000Y-81788000D02*
X123952000Y-81512000D01*
X117880000Y-77490000D02*
X117880000Y-57990000D01*
X119210000Y-78820000D02*
X117880000Y-77490000D01*
X125730000Y-91440000D02*
X125730000Y-99060000D01*
X121260000Y-78820000D02*
X119210000Y-78820000D01*
X104230000Y-57510000D02*
X103300000Y-56580000D01*
X123952000Y-81512000D02*
X121260000Y-78820000D01*
X129150000Y-52860000D02*
X131390000Y-55100000D01*
X131260000Y-52425500D02*
X130324500Y-51490000D01*
X121412000Y-81788000D02*
X121670000Y-82046000D01*
X118270000Y-50840000D02*
X112260000Y-56850000D01*
X118640000Y-79810000D02*
X117180000Y-78350000D01*
X121670000Y-82046000D02*
X121670000Y-89920000D01*
X132005000Y-53175000D02*
X133930000Y-55100000D01*
X105840000Y-56220000D02*
X105840000Y-54480000D01*
X120850000Y-79810000D02*
X118640000Y-79810000D01*
X132510000Y-52270000D02*
X131080000Y-50840000D01*
X121412000Y-81788000D02*
X121412000Y-80372000D01*
X117180000Y-78350000D02*
X117180000Y-57490000D01*
X117180000Y-57490000D02*
X122580000Y-52090000D01*
X121412000Y-80372000D02*
X120850000Y-79810000D01*
X123190000Y-91440000D02*
X123190000Y-99060000D01*
X112260000Y-56850000D02*
X106470000Y-56850000D01*
X106470000Y-56850000D02*
X105840000Y-56220000D01*
X131980000Y-53200000D02*
X132005000Y-53175000D01*
X129470000Y-52090000D02*
X130580000Y-53200000D01*
X122580000Y-52090000D02*
X129470000Y-52090000D01*
X131080000Y-50840000D02*
X118270000Y-50840000D01*
X121670000Y-89920000D02*
X123190000Y-91440000D01*
X130580000Y-53200000D02*
X131980000Y-53200000D01*
X118872000Y-89916000D02*
X120396000Y-91440000D01*
X118872000Y-81788000D02*
X118872000Y-89916000D01*
X120396000Y-91440000D02*
X120396000Y-99060000D01*
X65020000Y-63750000D02*
X62280000Y-63750000D01*
X62280000Y-63750000D02*
X61630000Y-64400000D01*
X72640000Y-61210000D02*
X76460000Y-61210000D01*
X82510000Y-60830000D02*
X79940000Y-60830000D01*
X82570000Y-60890000D02*
X82510000Y-60830000D01*
X76460000Y-61210000D02*
X78010000Y-62760000D01*
X79940000Y-60830000D02*
X78010000Y-62760000D01*
X72640000Y-58670000D02*
X77220000Y-58670000D01*
X78720000Y-58590000D02*
X78010000Y-57880000D01*
X82550000Y-58520000D02*
X82480000Y-58590000D01*
X77220000Y-58670000D02*
X78010000Y-57880000D01*
X82480000Y-58590000D02*
X78720000Y-58590000D01*
X93838000Y-92090000D02*
X94742000Y-91186000D01*
X79512000Y-92090000D02*
X93838000Y-92090000D01*
X74168000Y-83058000D02*
X72640000Y-81530000D01*
X102212000Y-91694000D02*
X99060000Y-91694000D01*
X99060000Y-91694000D02*
X98298000Y-92456000D01*
X78994000Y-83058000D02*
X74168000Y-83058000D01*
X111760000Y-91694000D02*
X112268000Y-92202000D01*
X108712000Y-91694000D02*
X111760000Y-91694000D01*
X98298000Y-88392000D02*
X98298000Y-92456000D01*
X71120000Y-46200000D02*
X66735000Y-41815000D01*
X81026000Y-85090000D02*
X78994000Y-83058000D01*
X108712000Y-91694000D02*
X102212000Y-91694000D01*
X71120000Y-65720000D02*
X71120000Y-46200000D01*
X90344000Y-86186000D02*
X86360000Y-90170000D01*
X71210000Y-81530000D02*
X70160000Y-80480000D01*
X86360000Y-90170000D02*
X82296000Y-90170000D01*
X70160000Y-80480000D02*
X70160000Y-66680000D01*
X81026000Y-88900000D02*
X81026000Y-85090000D01*
X96092000Y-86186000D02*
X98298000Y-88392000D01*
X72640000Y-81530000D02*
X71210000Y-81530000D01*
X94742000Y-86186000D02*
X90344000Y-86186000D01*
X82296000Y-90170000D02*
X81026000Y-88900000D01*
X66735000Y-41815000D02*
X57605000Y-41815000D01*
X70160000Y-66680000D02*
X71120000Y-65720000D01*
X94742000Y-86186000D02*
X96092000Y-86186000D01*
X76962000Y-84582000D02*
X65278000Y-84582000D01*
X65024000Y-84836000D02*
X65024000Y-87122000D01*
X59856000Y-92290000D02*
X58890000Y-92290000D01*
X65278000Y-84582000D02*
X65024000Y-84836000D01*
X65024000Y-87122000D02*
X59856000Y-92290000D01*
X67650000Y-48570000D02*
X68338511Y-49258511D01*
X65020000Y-48510000D02*
X60960000Y-52570000D01*
X68350000Y-63900000D02*
X66308000Y-67550000D01*
X56180000Y-83120000D02*
X57730000Y-84670000D01*
X68326000Y-51895325D02*
X68350000Y-63900000D01*
X60960000Y-52570000D02*
X60420000Y-52570000D01*
X54356000Y-72136000D02*
X56180000Y-73960000D01*
X66308000Y-67550000D02*
X64550000Y-67550000D01*
X68338511Y-51882814D02*
X68326000Y-51895325D01*
X57730000Y-84670000D02*
X58890000Y-84670000D01*
X59964000Y-72136000D02*
X54356000Y-72136000D01*
X56180000Y-73960000D02*
X56180000Y-83120000D01*
X64550000Y-67550000D02*
X59964000Y-72136000D01*
X68338511Y-49258511D02*
X68338511Y-51882814D01*
X54356000Y-79756000D02*
X52466000Y-79756000D01*
X51630000Y-44530000D02*
X51580000Y-44580000D01*
X51580000Y-44580000D02*
X47440000Y-44580000D01*
X49810000Y-70970000D02*
X49810000Y-70200000D01*
X47498000Y-69596000D02*
X47440000Y-69538000D01*
X50460000Y-77750000D02*
X49810000Y-77100000D01*
X57470000Y-47030000D02*
X57605000Y-46895000D01*
X65020000Y-56130000D02*
X62250000Y-58900000D01*
X52466000Y-79756000D02*
X50460000Y-77750000D01*
X47440000Y-69538000D02*
X47440000Y-44580000D01*
X57470000Y-57900000D02*
X57470000Y-47030000D01*
X49810000Y-70200000D02*
X49360000Y-69750000D01*
X62250000Y-58900000D02*
X58470000Y-58900000D01*
X58470000Y-58900000D02*
X57470000Y-57900000D01*
X49810000Y-77100000D02*
X49810000Y-70970000D01*
X55930000Y-47760000D02*
X55930000Y-59125000D01*
X55065000Y-46895000D02*
X55930000Y-47760000D01*
X55930000Y-59125000D02*
X53590000Y-61465000D01*
X68326000Y-77724000D02*
X63516000Y-77724000D01*
X70210000Y-59090000D02*
X70358000Y-59238000D01*
X70358000Y-65024000D02*
X69360000Y-66022000D01*
X66124000Y-43434000D02*
X66548000Y-43858000D01*
X66548000Y-43858000D02*
X66548000Y-58042000D01*
X64910000Y-43434000D02*
X66124000Y-43434000D01*
X69360000Y-76690000D02*
X68326000Y-77724000D01*
X70358000Y-59238000D02*
X70358000Y-65024000D01*
X58526000Y-43434000D02*
X57605000Y-44355000D01*
X69360000Y-66022000D02*
X69360000Y-76690000D01*
X64910000Y-43434000D02*
X58526000Y-43434000D01*
X61738000Y-79502000D02*
X63516000Y-77724000D01*
X66548000Y-58042000D02*
X65920000Y-58670000D01*
X58674000Y-79502000D02*
X61738000Y-79502000D01*
X65920000Y-58670000D02*
X65020000Y-58670000D01*
X69088000Y-57342000D02*
X69342000Y-57088000D01*
X67010000Y-75190000D02*
X68280000Y-73920000D01*
X63860000Y-75190000D02*
X67010000Y-75190000D01*
X58700000Y-48790000D02*
X59320000Y-48170000D01*
X56320000Y-38286000D02*
X54864000Y-36830000D01*
X69088000Y-64782000D02*
X69088000Y-57342000D01*
X55065000Y-44355000D02*
X56320000Y-43100000D01*
X58340000Y-77180000D02*
X61870000Y-77180000D01*
X65020000Y-53590000D02*
X65020000Y-53870000D01*
X58700000Y-57220000D02*
X58700000Y-48790000D01*
X56320000Y-43100000D02*
X56320000Y-38286000D01*
X65020000Y-53870000D02*
X60980000Y-57910000D01*
X59320000Y-46240000D02*
X58690000Y-45610000D01*
X56320000Y-45610000D02*
X55065000Y-44355000D01*
X61870000Y-77180000D02*
X63860000Y-75190000D01*
X58690000Y-45610000D02*
X56320000Y-45610000D01*
X59390000Y-57910000D02*
X58700000Y-57220000D01*
X68280000Y-73920000D02*
X68280000Y-65590000D01*
X68280000Y-65590000D02*
X69088000Y-64782000D01*
X60980000Y-57910000D02*
X59390000Y-57910000D01*
X59320000Y-48170000D02*
X59320000Y-46240000D01*
X69342000Y-57088000D02*
X69342000Y-55118000D01*
X67530000Y-51596000D02*
X67530000Y-64050000D01*
X53246000Y-74676000D02*
X54356000Y-74676000D01*
X65020000Y-51050000D02*
X60420000Y-55650000D01*
X67530000Y-64050000D02*
X66540000Y-65040000D01*
X66540000Y-65040000D02*
X64180000Y-65040000D01*
X64180000Y-65040000D02*
X63280000Y-65940000D01*
X59880000Y-70870000D02*
X53260000Y-70870000D01*
X52530000Y-73960000D02*
X53246000Y-74676000D01*
X53260000Y-70870000D02*
X52530000Y-71600000D01*
X63280000Y-67470000D02*
X59880000Y-70870000D01*
X52530000Y-71600000D02*
X52530000Y-73960000D01*
X63280000Y-65940000D02*
X63280000Y-67470000D01*
X60420000Y-55650000D02*
X60420000Y-55680000D01*
X67564000Y-51562000D02*
X67530000Y-51596000D01*
X61360000Y-83712000D02*
X59436000Y-81788000D01*
X57150000Y-80518000D02*
X57150000Y-73920000D01*
X58420000Y-81788000D02*
X57150000Y-80518000D01*
X61360000Y-85340000D02*
X61360000Y-83712000D01*
X58095000Y-72975000D02*
X60875000Y-72975000D01*
X60280000Y-86420000D02*
X61360000Y-85340000D01*
X54356000Y-84836000D02*
X55940000Y-86420000D01*
X59436000Y-81788000D02*
X58420000Y-81788000D01*
X60875000Y-72975000D02*
X65020000Y-68830000D01*
X57150000Y-73920000D02*
X58095000Y-72975000D01*
X55940000Y-86420000D02*
X60280000Y-86420000D01*
X63090000Y-80920000D02*
X63090000Y-80930000D01*
X65020000Y-78990000D02*
X63090000Y-80920000D01*
X62710000Y-85500000D02*
X60834000Y-87376000D01*
X63090000Y-80930000D02*
X62710000Y-81310000D01*
X60834000Y-87376000D02*
X54356000Y-87376000D01*
X62710000Y-81310000D02*
X62710000Y-85500000D01*
X63330000Y-87330000D02*
X60744000Y-89916000D01*
X63330000Y-83220000D02*
X63330000Y-87330000D01*
X60744000Y-89916000D02*
X54356000Y-89916000D01*
X65020000Y-81530000D02*
X63330000Y-83220000D01*
X149606000Y-72390000D02*
X159258000Y-72390000D01*
X149170000Y-70340000D02*
X149170000Y-71954000D01*
X149170000Y-71954000D02*
X149606000Y-72390000D01*
X160528000Y-73660000D02*
X160528000Y-74422000D01*
X159258000Y-72390000D02*
X160528000Y-73660000D01*
X152110000Y-48000000D02*
X152310000Y-48000000D01*
X84410000Y-48940000D02*
X84200000Y-49150000D01*
X83240000Y-67590000D02*
X73910000Y-67590000D01*
X150084000Y-45974000D02*
X152110000Y-48000000D01*
X84200000Y-49150000D02*
X84200000Y-66630000D01*
X116040000Y-38280000D02*
X115930000Y-38390000D01*
X115930000Y-44660000D02*
X117244000Y-45974000D01*
X84200000Y-66630000D02*
X83240000Y-67590000D01*
X117244000Y-45974000D02*
X150084000Y-45974000D01*
X65020000Y-71370000D02*
X61460000Y-74930000D01*
X115930000Y-38390000D02*
X115930000Y-44660000D01*
X61460000Y-74930000D02*
X61214000Y-74930000D01*
X83566000Y-72716000D02*
X83566000Y-74446000D01*
X78320000Y-77740000D02*
X78590000Y-77470000D01*
X78590000Y-77470000D02*
X86590000Y-77470000D01*
X83566000Y-74446000D02*
X87990000Y-78870000D01*
X83550000Y-72700000D02*
X83566000Y-72716000D01*
X86590000Y-77470000D02*
X87990000Y-78870000D01*
X149280000Y-51236000D02*
X149352000Y-51308000D01*
X85800000Y-45110000D02*
X85800000Y-44460000D01*
X83560000Y-70060000D02*
X85630000Y-67990000D01*
X116060000Y-46880000D02*
X142612000Y-46880000D01*
X73950000Y-70100000D02*
X73990000Y-70060000D01*
X142612000Y-46880000D02*
X147040000Y-51308000D01*
X85630000Y-67990000D02*
X85740000Y-67880000D01*
X149280000Y-48070000D02*
X149280000Y-51236000D01*
X109580000Y-43820000D02*
X109580000Y-51830000D01*
X85740000Y-61330000D02*
X85740000Y-52370000D01*
X109280000Y-43520000D02*
X109580000Y-43820000D01*
X81680000Y-70060000D02*
X83560000Y-70060000D01*
X87190000Y-48580000D02*
X87190000Y-48110000D01*
X87190000Y-50410000D02*
X87190000Y-48580000D01*
X85740000Y-51860000D02*
X86830000Y-50770000D01*
X85800000Y-46720000D02*
X85800000Y-45110000D01*
X109580000Y-51830000D02*
X110920000Y-53170000D01*
X85800000Y-44460000D02*
X86740000Y-43520000D01*
X147040000Y-51308000D02*
X149352000Y-51308000D01*
X85740000Y-67880000D02*
X85740000Y-61330000D01*
X86830000Y-50770000D02*
X87190000Y-50410000D01*
X85740000Y-52370000D02*
X85740000Y-51860000D01*
X73990000Y-70060000D02*
X81680000Y-70060000D01*
X87190000Y-48110000D02*
X86250000Y-47170000D01*
X86250000Y-47170000D02*
X85800000Y-46720000D01*
X110920000Y-53170000D02*
X110920000Y-54480000D01*
X116040000Y-46900000D02*
X116060000Y-46880000D01*
X100449010Y-80772000D02*
X94996000Y-80772000D01*
X100760000Y-54480000D02*
X101220000Y-54020000D01*
X101930000Y-79291010D02*
X100449010Y-80772000D01*
X99450000Y-46040000D02*
X99450000Y-39070000D01*
X84582000Y-84582000D02*
X86602646Y-82561354D01*
X101220000Y-54020000D02*
X101220000Y-47810000D01*
X76708000Y-80518000D02*
X72640000Y-76450000D01*
X99450000Y-39070000D02*
X100740000Y-37780000D01*
X86602646Y-82296000D02*
X84824646Y-80518000D01*
X101220000Y-47810000D02*
X99450000Y-46040000D01*
X103230000Y-71250000D02*
X103230000Y-72820000D01*
X94996000Y-80772000D02*
X93472000Y-82296000D01*
X103230000Y-72820000D02*
X101930000Y-74120000D01*
X93472000Y-82296000D02*
X86602646Y-82296000D01*
X86602646Y-82561354D02*
X86602646Y-82296000D01*
X84824646Y-80518000D02*
X76708000Y-80518000D01*
X101930000Y-74120000D02*
X101930000Y-79291010D01*
X76990000Y-92072000D02*
X76972000Y-92090000D01*
X76990000Y-87690000D02*
X76990000Y-92072000D01*
X83660000Y-86430000D02*
X83650000Y-86440000D01*
X73910000Y-78990000D02*
X72640000Y-78990000D01*
X76454000Y-81534000D02*
X73910000Y-78990000D01*
X86360000Y-84328000D02*
X86360000Y-85750000D01*
X83650000Y-86440000D02*
X83058000Y-85848000D01*
X82042000Y-81534000D02*
X76454000Y-81534000D01*
X83058000Y-82550000D02*
X82042000Y-81534000D01*
X107830000Y-47460000D02*
X107060000Y-46690000D01*
X86360000Y-85750000D02*
X85680000Y-86430000D01*
X88900000Y-83058000D02*
X88138000Y-83820000D01*
X105770000Y-72890000D02*
X104520000Y-74140000D01*
X84610000Y-87690000D02*
X84610000Y-86460000D01*
X108380000Y-54160000D02*
X107830000Y-53610000D01*
X88138000Y-83820000D02*
X86868000Y-83820000D01*
X86868000Y-83820000D02*
X86360000Y-84328000D01*
X84610000Y-86460000D02*
X84640000Y-86430000D01*
X84640000Y-86430000D02*
X83660000Y-86430000D01*
X107060000Y-40290000D02*
X108360000Y-38990000D01*
X83058000Y-85848000D02*
X83058000Y-82550000D01*
X108380000Y-54480000D02*
X108380000Y-54160000D01*
X107060000Y-46690000D02*
X107060000Y-40290000D01*
X104520000Y-80360000D02*
X101822000Y-83058000D01*
X104520000Y-74140000D02*
X104520000Y-80360000D01*
X85680000Y-86430000D02*
X84640000Y-86430000D01*
X105770000Y-71250000D02*
X105770000Y-72890000D01*
X108360000Y-38990000D02*
X108360000Y-37780000D01*
X107830000Y-53610000D02*
X107830000Y-47460000D01*
X101822000Y-83058000D02*
X88900000Y-83058000D01*
X66040000Y-89916000D02*
X73406000Y-89916000D01*
X65024000Y-90932000D02*
X66040000Y-89916000D01*
X74432000Y-90942000D02*
X74432000Y-92090000D01*
X73406000Y-89916000D02*
X74432000Y-90942000D01*
X65024000Y-92456000D02*
X65024000Y-90932000D01*
X52800000Y-52570000D02*
X50320000Y-50090000D01*
X50280000Y-49980000D02*
X48560000Y-49980000D01*
X50320000Y-50020000D02*
X50280000Y-49980000D01*
X50320000Y-50090000D02*
X50320000Y-50020000D01*
X51116000Y-39624000D02*
X44958000Y-39624000D01*
X54102000Y-35052000D02*
X53090000Y-36064000D01*
X53090000Y-36064000D02*
X53090000Y-37650000D01*
X43180000Y-41402000D02*
X43180000Y-46736000D01*
X43180000Y-46736000D02*
X43942000Y-46736000D01*
X59690000Y-35052000D02*
X54102000Y-35052000D01*
X44958000Y-39624000D02*
X43180000Y-41402000D01*
X62484000Y-35814000D02*
X61468000Y-36830000D01*
X64910000Y-35814000D02*
X62484000Y-35814000D01*
X53090000Y-37650000D02*
X51116000Y-39624000D01*
X61468000Y-36830000D02*
X59690000Y-35052000D01*
X43180000Y-71374000D02*
X43434000Y-71628000D01*
X43180000Y-46736000D02*
X43180000Y-71374000D01*
X44704000Y-74676000D02*
X44196000Y-75184000D01*
X52800000Y-55680000D02*
X50410000Y-58070000D01*
X44196000Y-69850000D02*
X44704000Y-70358000D01*
X45212000Y-62484000D02*
X44196000Y-63500000D01*
X44704000Y-70358000D02*
X44704000Y-74676000D01*
X50410000Y-60910000D02*
X48630000Y-62690000D01*
X50410000Y-58070000D02*
X50410000Y-58850000D01*
X44196000Y-63500000D02*
X44196000Y-69850000D01*
X50410000Y-58850000D02*
X50410000Y-60910000D01*
X41910000Y-73406000D02*
X41910000Y-48768000D01*
X42672000Y-74168000D02*
X41910000Y-73406000D01*
X54864000Y-31496000D02*
X51308000Y-35052000D01*
X51308000Y-35052000D02*
X51308000Y-36830000D01*
X41910000Y-48768000D02*
X41910000Y-41148000D01*
X41910000Y-48768000D02*
X42164000Y-48768000D01*
X41910000Y-41148000D02*
X44196000Y-38862000D01*
X54864000Y-29210000D02*
X54864000Y-31496000D01*
X44196000Y-38862000D02*
X49276000Y-38862000D01*
X49276000Y-38862000D02*
X51308000Y-36830000D01*
X92964000Y-81534000D02*
X86860431Y-81534000D01*
X98220000Y-50570000D02*
X96890000Y-49240000D01*
X74360000Y-75630000D02*
X72640000Y-73910000D01*
X77342000Y-79502000D02*
X74360000Y-76520000D01*
X86860431Y-81534000D02*
X84828431Y-79502000D01*
X96890000Y-49240000D02*
X96890000Y-39090000D01*
X94300000Y-73820000D02*
X94300000Y-80198000D01*
X74360000Y-76520000D02*
X74360000Y-75630000D01*
X84828431Y-79502000D02*
X77342000Y-79502000D01*
X95610000Y-71250000D02*
X95610000Y-72510000D01*
X96890000Y-39090000D02*
X98200000Y-37780000D01*
X95610000Y-72510000D02*
X94300000Y-73820000D01*
X94300000Y-80198000D02*
X92964000Y-81534000D01*
X98220000Y-54480000D02*
X98220000Y-50570000D01*
X87376000Y-80772000D02*
X85118511Y-78514511D01*
X91770000Y-73250000D02*
X91770000Y-80260000D01*
X90600000Y-54480000D02*
X90600000Y-50340000D01*
X75260000Y-73990000D02*
X72640000Y-71370000D01*
X91800000Y-39000000D02*
X90580000Y-37780000D01*
X75260000Y-76200000D02*
X75260000Y-73990000D01*
X91800000Y-49140000D02*
X91800000Y-39000000D01*
X91770000Y-80260000D02*
X91258000Y-80772000D01*
X85118511Y-78514511D02*
X77574511Y-78514511D01*
X90600000Y-50340000D02*
X91800000Y-49140000D01*
X77574511Y-78514511D02*
X75260000Y-76200000D01*
X93070000Y-71950000D02*
X91770000Y-73250000D01*
X91258000Y-80772000D02*
X87376000Y-80772000D01*
X93070000Y-71250000D02*
X93070000Y-71950000D01*
X93070000Y-78870000D02*
X93070000Y-73630000D01*
X86080000Y-49100000D02*
X86080000Y-49330000D01*
X89290000Y-57970000D02*
X90600000Y-59280000D01*
X90580000Y-48395000D02*
X89290000Y-49685000D01*
X89290000Y-49685000D02*
X89290000Y-57970000D01*
X93070000Y-73630000D02*
X94330000Y-72370000D01*
X89190000Y-47410000D02*
X90580000Y-46020000D01*
X91400000Y-63530000D02*
X90600000Y-62730000D01*
X90600000Y-59280000D02*
X90600000Y-62100000D01*
X94330000Y-72370000D02*
X94330000Y-64380000D01*
X83330000Y-68830000D02*
X72640000Y-68830000D01*
X93480000Y-63530000D02*
X91400000Y-63530000D01*
X90580000Y-45400000D02*
X90580000Y-48395000D01*
X94330000Y-64380000D02*
X93480000Y-63530000D01*
X86080000Y-49330000D02*
X84900000Y-50510000D01*
X84900000Y-50510000D02*
X84900000Y-67260000D01*
X90580000Y-46020000D02*
X90580000Y-45400000D01*
X84900000Y-67260000D02*
X83330000Y-68830000D01*
X90600000Y-62730000D02*
X90600000Y-62100000D01*
X99500000Y-49330000D02*
X98200000Y-48030000D01*
X98200000Y-42440000D02*
X98200000Y-45400000D01*
X73420000Y-56130000D02*
X72640000Y-56130000D01*
X99500000Y-55550000D02*
X99500000Y-49330000D01*
X85800000Y-42410000D02*
X74400000Y-53810000D01*
X98580000Y-65150000D02*
X97970000Y-64540000D01*
X74400000Y-53810000D02*
X74400000Y-55150000D01*
X98200000Y-48030000D02*
X98200000Y-45400000D01*
X95610000Y-73950000D02*
X96840000Y-72720000D01*
X74400000Y-55150000D02*
X73420000Y-56130000D01*
X98460000Y-56590000D02*
X99500000Y-55550000D01*
X96840000Y-70560000D02*
X98580000Y-68820000D01*
X98580000Y-68820000D02*
X98580000Y-65150000D01*
X95610000Y-78870000D02*
X95610000Y-73950000D01*
X96840000Y-72720000D02*
X96840000Y-70560000D01*
X98120000Y-42360000D02*
X98200000Y-42440000D01*
X103590000Y-63700000D02*
X101770000Y-63700000D01*
X87665489Y-41564511D02*
X84655489Y-41564511D01*
X103230000Y-74030000D02*
X104500000Y-72760000D01*
X100500000Y-41780000D02*
X100740000Y-42020000D01*
X72640000Y-53580000D02*
X72640000Y-53590000D01*
X102000000Y-46830000D02*
X100740000Y-45570000D01*
X100740000Y-42020000D02*
X100740000Y-45400000D01*
X102000000Y-55900000D02*
X102000000Y-46830000D01*
X100740000Y-45570000D02*
X100740000Y-45400000D01*
X101235500Y-56700000D02*
X101900000Y-56035500D01*
X103230000Y-78870000D02*
X103230000Y-74030000D01*
X100760000Y-62690000D02*
X100760000Y-62100000D01*
X101770000Y-63700000D02*
X100760000Y-62690000D01*
X101900000Y-56035500D02*
X101900000Y-56000000D01*
X104500000Y-72760000D02*
X104500000Y-64610000D01*
X101900000Y-56000000D02*
X102000000Y-55900000D01*
X84655489Y-41564511D02*
X72640000Y-53580000D01*
X87900000Y-41330000D02*
X87665489Y-41564511D01*
X104500000Y-64610000D02*
X103590000Y-63700000D01*
X108100000Y-40810000D02*
X108360000Y-41070000D01*
X105770000Y-78870000D02*
X105770000Y-74080000D01*
X108885500Y-55950000D02*
X109670000Y-55165500D01*
X108620000Y-52570000D02*
X108620000Y-45660000D01*
X108380000Y-66550000D02*
X108380000Y-64940000D01*
X108620000Y-45660000D02*
X108360000Y-45400000D01*
X109670000Y-53620000D02*
X108620000Y-52570000D01*
X107000000Y-72850000D02*
X107000000Y-67930000D01*
X83110000Y-40580000D02*
X72640000Y-51050000D01*
X107000000Y-67930000D02*
X108380000Y-66550000D01*
X109670000Y-55165500D02*
X109670000Y-53620000D01*
X86310000Y-40580000D02*
X83110000Y-40580000D01*
X105770000Y-74080000D02*
X107000000Y-72850000D01*
X108360000Y-41070000D02*
X108360000Y-45400000D01*
X72640000Y-48470000D02*
X72640000Y-48510000D01*
X85920000Y-35150000D02*
X85280000Y-35790000D01*
X117830000Y-43130000D02*
X117830000Y-36360000D01*
X118896000Y-44196000D02*
X117830000Y-43130000D01*
X172741000Y-44196000D02*
X118896000Y-44196000D01*
X93120000Y-35150000D02*
X85920000Y-35150000D01*
X85280000Y-35830000D02*
X72640000Y-48470000D01*
X94170000Y-34100000D02*
X93120000Y-35150000D01*
X104760000Y-32270000D02*
X102930000Y-34100000D01*
X102930000Y-34100000D02*
X94170000Y-34100000D01*
X113740000Y-32270000D02*
X104760000Y-32270000D01*
X85280000Y-35790000D02*
X85280000Y-35830000D01*
X117830000Y-36360000D02*
X113740000Y-32270000D01*
X179715000Y-51170000D02*
X172741000Y-44196000D01*
X174635000Y-54225000D02*
X174635000Y-51170000D01*
X174715000Y-73950000D02*
X174715000Y-70885000D01*
X174715000Y-70885000D02*
X175960000Y-69640000D01*
X175960000Y-69640000D02*
X175960000Y-62655000D01*
X172095000Y-56765000D02*
X174635000Y-54225000D01*
X175960000Y-62655000D02*
X172095000Y-58790000D01*
X172095000Y-58790000D02*
X172095000Y-56765000D01*
X164480000Y-76070000D02*
X144850000Y-76070000D01*
X164610000Y-75940000D02*
X164480000Y-76070000D01*
X144090000Y-75310000D02*
X144090000Y-70340000D01*
X144850000Y-76070000D02*
X144090000Y-75310000D01*
X143210000Y-76840000D02*
X143240000Y-76870000D01*
X172600000Y-69650000D02*
X173720000Y-69650000D01*
X167110000Y-75840000D02*
X167110000Y-70440000D01*
X166080000Y-76870000D02*
X167110000Y-75840000D01*
X167640000Y-69910000D02*
X167900000Y-69650000D01*
X173720000Y-69650000D02*
X175030000Y-68340000D01*
X167900000Y-69650000D02*
X172600000Y-69650000D01*
X144400000Y-76870000D02*
X166080000Y-76870000D01*
X167110000Y-70440000D02*
X167640000Y-69910000D01*
X152310000Y-40380000D02*
X149350000Y-40380000D01*
X157690000Y-42620000D02*
X157690000Y-42640000D01*
X155510000Y-40440000D02*
X152370000Y-40440000D01*
X157960000Y-42910000D02*
X173350000Y-42910000D01*
X157690000Y-42640000D02*
X157960000Y-42910000D01*
X155510000Y-40440000D02*
X157690000Y-42620000D01*
X181940000Y-50855000D02*
X182255000Y-51170000D01*
X181940000Y-49610000D02*
X181940000Y-50855000D01*
X173350000Y-42910000D02*
X179670000Y-49230000D01*
X181560000Y-49230000D02*
X181940000Y-49610000D01*
X149350000Y-40380000D02*
X149280000Y-40450000D01*
X152370000Y-40440000D02*
X152310000Y-40380000D01*
X179670000Y-49230000D02*
X181560000Y-49230000D01*
X141550000Y-70340000D02*
X141550000Y-72105000D01*
X141550000Y-72105000D02*
X139285000Y-74370000D01*
X105312862Y-32940000D02*
X113130000Y-32940000D01*
X103562862Y-34690000D02*
X105312862Y-32940000D01*
X88060000Y-45420000D02*
X88060000Y-52010000D01*
X113130000Y-32940000D02*
X116814511Y-36624511D01*
X116814511Y-44064511D02*
X117962000Y-45212000D01*
X89230000Y-36640000D02*
X89890000Y-35980000D01*
X94990000Y-34690000D02*
X103562862Y-34690000D01*
X175920000Y-57505000D02*
X174635000Y-58790000D01*
X88220000Y-61940000D02*
X88060000Y-62100000D01*
X88060000Y-52010000D02*
X86630000Y-53440000D01*
X175920000Y-49970000D02*
X175920000Y-57505000D01*
X88040000Y-45400000D02*
X89230000Y-44210000D01*
X117962000Y-45212000D02*
X171162000Y-45212000D01*
X171162000Y-45212000D02*
X175920000Y-49970000D01*
X89230000Y-44210000D02*
X89230000Y-36640000D01*
X86630000Y-53440000D02*
X86630000Y-55250000D01*
X88220000Y-56840000D02*
X88220000Y-61940000D01*
X89890000Y-35980000D02*
X93700000Y-35980000D01*
X116814511Y-36624511D02*
X116814511Y-44064511D01*
X88040000Y-45400000D02*
X88060000Y-45420000D01*
X86630000Y-55250000D02*
X88220000Y-56840000D01*
X93700000Y-35980000D02*
X94990000Y-34690000D01*
X179795000Y-64785000D02*
X182255000Y-62325000D01*
X179795000Y-66330000D02*
X179795000Y-64785000D01*
X179795000Y-69105000D02*
X179795000Y-66330000D01*
X182255000Y-62325000D02*
X182255000Y-58790000D01*
X177255000Y-73950000D02*
X177255000Y-71645000D01*
X177255000Y-71645000D02*
X179795000Y-69105000D01*
X187575000Y-85150000D02*
X186980000Y-85150000D01*
X190320000Y-82405000D02*
X187575000Y-85150000D01*
X185936000Y-86614000D02*
X186980000Y-85570000D01*
X186980000Y-85570000D02*
X186980000Y-85150000D01*
X181356000Y-86614000D02*
X185936000Y-86614000D01*
X180060000Y-37340000D02*
X183505000Y-37340000D01*
X183505000Y-37340000D02*
X183735000Y-37570000D01*
M02*
