G04 #@! TF.GenerationSoftware,KiCad,Pcbnew,(6.0.2)*
G04 #@! TF.CreationDate,2022-05-27T13:44:49-05:00*
G04 #@! TF.ProjectId,Apple2Card,4170706c-6532-4436-9172-642e6b696361,rev?*
G04 #@! TF.SameCoordinates,Original*
G04 #@! TF.FileFunction,Copper,L2,Bot*
G04 #@! TF.FilePolarity,Positive*
%FSLAX46Y46*%
G04 Gerber Fmt 4.6, Leading zero omitted, Abs format (unit mm)*
G04 Created by KiCad (PCBNEW (6.0.2)) date 2022-05-27 13:44:49*
%MOMM*%
%LPD*%
G01*
G04 APERTURE LIST*
G04 #@! TA.AperFunction,ComponentPad*
%ADD10R,1.700000X1.700000*%
G04 #@! TD*
G04 #@! TA.AperFunction,ComponentPad*
%ADD11O,1.700000X1.700000*%
G04 #@! TD*
G04 #@! TA.AperFunction,ComponentPad*
%ADD12C,1.600000*%
G04 #@! TD*
G04 #@! TA.AperFunction,ComponentPad*
%ADD13O,1.600000X1.600000*%
G04 #@! TD*
G04 #@! TA.AperFunction,ComponentPad*
%ADD14R,1.600000X1.600000*%
G04 #@! TD*
G04 #@! TA.AperFunction,SMDPad,CuDef*
%ADD15R,1.910000X8.530000*%
G04 #@! TD*
G04 #@! TA.AperFunction,SMDPad,CuDef*
%ADD16R,1.270000X8.530000*%
G04 #@! TD*
G04 #@! TA.AperFunction,ComponentPad*
%ADD17C,1.500000*%
G04 #@! TD*
G04 #@! TA.AperFunction,ComponentPad*
%ADD18C,2.000000*%
G04 #@! TD*
G04 #@! TA.AperFunction,ComponentPad*
%ADD19R,1.800000X1.800000*%
G04 #@! TD*
G04 #@! TA.AperFunction,ComponentPad*
%ADD20C,1.800000*%
G04 #@! TD*
G04 #@! TA.AperFunction,ViaPad*
%ADD21C,0.800000*%
G04 #@! TD*
G04 #@! TA.AperFunction,Conductor*
%ADD22C,0.350000*%
G04 #@! TD*
G04 #@! TA.AperFunction,Conductor*
%ADD23C,0.250000*%
G04 #@! TD*
G04 APERTURE END LIST*
D10*
X57740000Y-76240000D03*
D11*
X57740000Y-73700000D03*
X57740000Y-71160000D03*
X57740000Y-68620000D03*
D12*
X82570000Y-60890000D03*
X82570000Y-65890000D03*
X61468000Y-36830000D03*
D13*
X61468000Y-29210000D03*
D12*
X53030000Y-83400000D03*
D13*
X60650000Y-83400000D03*
D12*
X53070000Y-80110000D03*
D13*
X60690000Y-80110000D03*
D14*
X41420000Y-84810000D03*
D13*
X41420000Y-92430000D03*
D12*
X140120000Y-42940000D03*
X140120000Y-37940000D03*
D10*
X145850000Y-55985000D03*
D11*
X145850000Y-53445000D03*
X145850000Y-50905000D03*
D10*
X150390000Y-56000000D03*
D11*
X150390000Y-53460000D03*
X150390000Y-50920000D03*
D10*
X155090000Y-56130000D03*
D11*
X155090000Y-53590000D03*
X155090000Y-51050000D03*
D12*
X142480000Y-63940000D03*
X142480000Y-58940000D03*
D10*
X53590000Y-61465000D03*
D11*
X53590000Y-64005000D03*
D12*
X61800000Y-59520000D03*
X56800000Y-59520000D03*
X38890000Y-37300000D03*
X38890000Y-32300000D03*
D15*
X181864000Y-99060000D03*
D16*
X179070000Y-99060000D03*
X176530000Y-99060000D03*
X173990000Y-99060000D03*
X171450000Y-99060000D03*
X168910000Y-99060000D03*
X166370000Y-99060000D03*
X163830000Y-99060000D03*
X161290000Y-99060000D03*
X158750000Y-99060000D03*
X156210000Y-99060000D03*
X153670000Y-99060000D03*
X151130000Y-99060000D03*
X148590000Y-99060000D03*
X146050000Y-99060000D03*
X143510000Y-99060000D03*
X140970000Y-99060000D03*
X138430000Y-99060000D03*
X135890000Y-99060000D03*
X133350000Y-99060000D03*
X130810000Y-99060000D03*
X128270000Y-99060000D03*
X125730000Y-99060000D03*
X123190000Y-99060000D03*
D15*
X120396000Y-99060000D03*
D12*
X45212000Y-62484000D03*
D13*
X37592000Y-62484000D03*
D10*
X52330000Y-88230000D03*
D11*
X54870000Y-88230000D03*
X57410000Y-88230000D03*
X59950000Y-88230000D03*
D14*
X44610000Y-29560000D03*
D13*
X44610000Y-37180000D03*
D14*
X72640000Y-81530000D03*
D13*
X72640000Y-78990000D03*
X72640000Y-76450000D03*
X72640000Y-73910000D03*
X72640000Y-71370000D03*
X72640000Y-68830000D03*
X72640000Y-66290000D03*
X72640000Y-63750000D03*
X72640000Y-61210000D03*
X72640000Y-58670000D03*
X72640000Y-56130000D03*
X72640000Y-53590000D03*
X72640000Y-51050000D03*
X72640000Y-48510000D03*
X65020000Y-48510000D03*
X65020000Y-51050000D03*
X65020000Y-53590000D03*
X65020000Y-56130000D03*
X65020000Y-58670000D03*
X65020000Y-61210000D03*
X65020000Y-63750000D03*
X65020000Y-66290000D03*
X65020000Y-68830000D03*
X65020000Y-71370000D03*
X65020000Y-73910000D03*
X65020000Y-76450000D03*
X65020000Y-78990000D03*
X65020000Y-81530000D03*
D17*
X78010000Y-57880000D03*
X78010000Y-62760000D03*
D14*
X53890000Y-77210000D03*
D13*
X53890000Y-69590000D03*
D10*
X120396000Y-86614000D03*
D11*
X122936000Y-86614000D03*
X125476000Y-86614000D03*
X128016000Y-86614000D03*
X130556000Y-86614000D03*
X133096000Y-86614000D03*
X135636000Y-86614000D03*
X138176000Y-86614000D03*
X140716000Y-86614000D03*
X143256000Y-86614000D03*
X145796000Y-86614000D03*
X148336000Y-86614000D03*
X150876000Y-86614000D03*
X153416000Y-86614000D03*
X155956000Y-86614000D03*
X158496000Y-86614000D03*
X161036000Y-86614000D03*
X163576000Y-86614000D03*
X166116000Y-86614000D03*
X168656000Y-86614000D03*
X171196000Y-86614000D03*
X173736000Y-86614000D03*
X176276000Y-86614000D03*
X178816000Y-86614000D03*
X181356000Y-86614000D03*
D10*
X118872000Y-81788000D03*
D11*
X121412000Y-81788000D03*
X123952000Y-81788000D03*
X126492000Y-81788000D03*
X129032000Y-81788000D03*
X131572000Y-81788000D03*
X134112000Y-81788000D03*
X136652000Y-81788000D03*
X139192000Y-81788000D03*
X141732000Y-81788000D03*
X144272000Y-81788000D03*
X146812000Y-81788000D03*
X149352000Y-81788000D03*
X151892000Y-81788000D03*
X154432000Y-81788000D03*
X156972000Y-81788000D03*
X159512000Y-81788000D03*
X162052000Y-81788000D03*
X164592000Y-81788000D03*
X167132000Y-81788000D03*
X169672000Y-81788000D03*
X172212000Y-81788000D03*
X174752000Y-81788000D03*
X177292000Y-81788000D03*
X179832000Y-81788000D03*
D12*
X51308000Y-36830000D03*
D13*
X51308000Y-29210000D03*
D12*
X64420000Y-91380000D03*
D13*
X72040000Y-91380000D03*
D14*
X108080000Y-86580000D03*
D13*
X108080000Y-84040000D03*
X108080000Y-81500000D03*
X108080000Y-78960000D03*
X108080000Y-76420000D03*
X108080000Y-73880000D03*
X108080000Y-71340000D03*
X108080000Y-68800000D03*
X108080000Y-66260000D03*
X108080000Y-63720000D03*
X108080000Y-61180000D03*
X108080000Y-58640000D03*
X108080000Y-56100000D03*
X108080000Y-53560000D03*
X108080000Y-51020000D03*
X108080000Y-48480000D03*
X108080000Y-45940000D03*
X108080000Y-43400000D03*
X108080000Y-40860000D03*
X108080000Y-38320000D03*
X92840000Y-38320000D03*
X92840000Y-40860000D03*
X92840000Y-43400000D03*
X92840000Y-45940000D03*
X92840000Y-48480000D03*
X92840000Y-51020000D03*
X92840000Y-53560000D03*
X92840000Y-56100000D03*
X92840000Y-58640000D03*
X92840000Y-61180000D03*
X92840000Y-63720000D03*
X92840000Y-66260000D03*
X92840000Y-68800000D03*
X92840000Y-71340000D03*
X92840000Y-73880000D03*
X92840000Y-76420000D03*
X92840000Y-78960000D03*
X92840000Y-81500000D03*
X92840000Y-84040000D03*
X92840000Y-86580000D03*
D12*
X35560000Y-29718000D03*
D13*
X35560000Y-37338000D03*
D12*
X38480000Y-84850000D03*
X38480000Y-89850000D03*
D14*
X74460000Y-91880000D03*
D13*
X74460000Y-84260000D03*
D14*
X145865000Y-71650000D03*
D13*
X148405000Y-71650000D03*
X150945000Y-71650000D03*
X153485000Y-71650000D03*
X156025000Y-71650000D03*
X158565000Y-71650000D03*
X161105000Y-71650000D03*
X161105000Y-64030000D03*
X158565000Y-64030000D03*
X156025000Y-64030000D03*
X153485000Y-64030000D03*
X150945000Y-64030000D03*
X148405000Y-64030000D03*
X145865000Y-64030000D03*
D12*
X64420000Y-88060000D03*
X69420000Y-88060000D03*
X82550000Y-58520000D03*
X82550000Y-53520000D03*
X145796000Y-42926000D03*
D13*
X153416000Y-42926000D03*
D18*
X77320000Y-84880000D03*
X77320000Y-91380000D03*
X81820000Y-84880000D03*
X81820000Y-91380000D03*
D12*
X64910000Y-43434000D03*
D13*
X64910000Y-35814000D03*
D12*
X87080000Y-73990000D03*
D13*
X87080000Y-66370000D03*
D14*
X121235000Y-38515000D03*
D13*
X121235000Y-41055000D03*
X121235000Y-43595000D03*
X121235000Y-46135000D03*
X121235000Y-48675000D03*
X121235000Y-51215000D03*
X121235000Y-53755000D03*
X121235000Y-56295000D03*
X121235000Y-58835000D03*
X121235000Y-61375000D03*
X121235000Y-63915000D03*
X121235000Y-66455000D03*
X121235000Y-68995000D03*
X121235000Y-71535000D03*
X136475000Y-71535000D03*
X136475000Y-68995000D03*
X136475000Y-66455000D03*
X136475000Y-63915000D03*
X136475000Y-61375000D03*
X136475000Y-58835000D03*
X136475000Y-56295000D03*
X136475000Y-53755000D03*
X136475000Y-51215000D03*
X136475000Y-48675000D03*
X136475000Y-46135000D03*
X136475000Y-43595000D03*
X136475000Y-41055000D03*
X136475000Y-38515000D03*
D14*
X44020000Y-92450000D03*
D13*
X44020000Y-84830000D03*
D12*
X60420000Y-55680000D03*
D13*
X52800000Y-55680000D03*
D19*
X145796000Y-37846000D03*
D20*
X148336000Y-37846000D03*
D12*
X45212000Y-59182000D03*
D13*
X37592000Y-59182000D03*
D12*
X54864000Y-29210000D03*
D13*
X54864000Y-36830000D03*
D12*
X96306000Y-89916000D03*
X101306000Y-89916000D03*
D10*
X117830000Y-32370000D03*
D11*
X120370000Y-32370000D03*
X122910000Y-32370000D03*
X125450000Y-32370000D03*
X127990000Y-32370000D03*
X130530000Y-32370000D03*
X133070000Y-32370000D03*
X135610000Y-32370000D03*
X138150000Y-32370000D03*
X140690000Y-32370000D03*
X143230000Y-32370000D03*
X145770000Y-32370000D03*
X148310000Y-32370000D03*
X150850000Y-32370000D03*
X153390000Y-32370000D03*
X155930000Y-32370000D03*
D10*
X57605000Y-46895000D03*
D11*
X55065000Y-46895000D03*
X57605000Y-44355000D03*
X55065000Y-44355000D03*
X57605000Y-41815000D03*
X55065000Y-41815000D03*
D12*
X35306000Y-92456000D03*
D13*
X35306000Y-84836000D03*
D10*
X83900000Y-39480000D03*
D11*
X83900000Y-42020000D03*
X81360000Y-39480000D03*
X81360000Y-42020000D03*
X78820000Y-39480000D03*
X78820000Y-42020000D03*
X76280000Y-39480000D03*
X76280000Y-42020000D03*
X73740000Y-39480000D03*
X73740000Y-42020000D03*
D12*
X87730000Y-51700000D03*
X87730000Y-46700000D03*
X50920000Y-77280000D03*
D13*
X50920000Y-69660000D03*
D14*
X179832000Y-72390000D03*
D12*
X179832000Y-69890000D03*
X60420000Y-52570000D03*
D13*
X52800000Y-52570000D03*
D12*
X61800000Y-62640000D03*
X56800000Y-62640000D03*
D14*
X41860000Y-37200000D03*
D13*
X41860000Y-29580000D03*
D21*
X141910000Y-76910000D03*
X142960000Y-84880000D03*
X116380000Y-84200000D03*
X111030000Y-80450000D03*
X47340000Y-40760000D03*
X69210000Y-62360000D03*
X110790000Y-78990000D03*
X116240000Y-82590000D03*
X133470000Y-60360000D03*
X131980000Y-64180000D03*
X129740000Y-65540000D03*
X127830000Y-66950000D03*
X123535500Y-70910000D03*
X122810000Y-76080000D03*
X113930000Y-70200000D03*
X120450000Y-77480000D03*
X115000000Y-67820000D03*
X68480000Y-81390000D03*
X40640000Y-72898000D03*
X40894000Y-47498000D03*
X67650000Y-48570000D03*
X47498000Y-69596000D03*
X50960000Y-44470000D03*
X61140000Y-40060000D03*
X47440000Y-44580000D03*
X48560000Y-49980000D03*
X43434000Y-71628000D03*
X43942000Y-46736000D03*
X48630000Y-62690000D03*
X44196000Y-75184000D03*
X42164000Y-48768000D03*
X42672000Y-74168000D03*
X105920000Y-50500000D03*
X139880000Y-57410000D03*
X116610000Y-65500000D03*
D22*
X54710000Y-71650000D02*
X57740000Y-68620000D01*
X53100000Y-71650000D02*
X54710000Y-71650000D01*
X52440000Y-70990000D02*
X53100000Y-71650000D01*
X52440000Y-66710000D02*
X52440000Y-70990000D01*
X53590000Y-65560000D02*
X52440000Y-66710000D01*
X53590000Y-64005000D02*
X53590000Y-65560000D01*
D23*
X62280000Y-75910000D02*
X62280000Y-78790000D01*
X60070000Y-73700000D02*
X62280000Y-75910000D01*
X57740000Y-73700000D02*
X60070000Y-73700000D01*
X62280000Y-78790000D02*
X65020000Y-81530000D01*
X64190000Y-78430000D02*
X64750000Y-78990000D01*
X62930000Y-77010000D02*
X64190000Y-78270000D01*
X62930000Y-74070000D02*
X62930000Y-77010000D01*
X64750000Y-78990000D02*
X65020000Y-78990000D01*
X60020000Y-71160000D02*
X62930000Y-74070000D01*
X57740000Y-71160000D02*
X60020000Y-71160000D01*
X64190000Y-78270000D02*
X64190000Y-78430000D01*
D22*
X67610000Y-48610000D02*
X67650000Y-48570000D01*
X67610000Y-63160000D02*
X67610000Y-48610000D01*
X65780000Y-64990000D02*
X67610000Y-63160000D01*
X53890000Y-69590000D02*
X58490000Y-64990000D01*
X58490000Y-64990000D02*
X65780000Y-64990000D01*
X53775000Y-64190000D02*
X53590000Y-64005000D01*
X59490000Y-63610000D02*
X58910000Y-64190000D01*
X59490000Y-61990000D02*
X59490000Y-63610000D01*
X61800000Y-59680000D02*
X59490000Y-61990000D01*
X61800000Y-59520000D02*
X61800000Y-59680000D01*
X58910000Y-64190000D02*
X53775000Y-64190000D01*
X62910000Y-63750000D02*
X61800000Y-62640000D01*
X65020000Y-63750000D02*
X62910000Y-63750000D01*
X63490000Y-61210000D02*
X61800000Y-59520000D01*
X65020000Y-61210000D02*
X63490000Y-61210000D01*
X57470000Y-47030000D02*
X57605000Y-46895000D01*
X57740000Y-58170000D02*
X57470000Y-57900000D01*
X62980000Y-58170000D02*
X57740000Y-58170000D01*
X65020000Y-56130000D02*
X62980000Y-58170000D01*
X57470000Y-57900000D02*
X57470000Y-47030000D01*
X55120000Y-59935000D02*
X53590000Y-61465000D01*
X55120000Y-46950000D02*
X55120000Y-59935000D01*
X55065000Y-46895000D02*
X55120000Y-46950000D01*
X51790000Y-40760000D02*
X47340000Y-40760000D01*
X52500000Y-48350000D02*
X52500000Y-41470000D01*
X54450000Y-57250000D02*
X54450000Y-50300000D01*
X51710000Y-63360000D02*
X51710000Y-59990000D01*
X52355000Y-64005000D02*
X51710000Y-63360000D01*
X53590000Y-64005000D02*
X52355000Y-64005000D01*
X54450000Y-50300000D02*
X52500000Y-48350000D01*
X52500000Y-41470000D02*
X51790000Y-40760000D01*
X51710000Y-59990000D02*
X54450000Y-57250000D01*
X56320000Y-45610000D02*
X55065000Y-44355000D01*
X58690000Y-45610000D02*
X56320000Y-45610000D01*
X59320000Y-46240000D02*
X58690000Y-45610000D01*
X58700000Y-48790000D02*
X59320000Y-48170000D01*
X58700000Y-57220000D02*
X58700000Y-48790000D01*
X59320000Y-48170000D02*
X59320000Y-46240000D01*
X59070000Y-57590000D02*
X58700000Y-57220000D01*
X61300000Y-57590000D02*
X59070000Y-57590000D01*
X65020000Y-53870000D02*
X61300000Y-57590000D01*
X65020000Y-53590000D02*
X65020000Y-53870000D01*
X53890000Y-79290000D02*
X53890000Y-77210000D01*
X50920000Y-74370000D02*
X50920000Y-69660000D01*
X53760000Y-77210000D02*
X50920000Y-74370000D01*
X53890000Y-77210000D02*
X53760000Y-77210000D01*
X53070000Y-80110000D02*
X53890000Y-79290000D01*
X50920000Y-78750000D02*
X50920000Y-77280000D01*
X50930000Y-84880000D02*
X50930000Y-78760000D01*
X51810000Y-85760000D02*
X50930000Y-84880000D01*
X50930000Y-78760000D02*
X50920000Y-78750000D01*
X54560000Y-85760000D02*
X51810000Y-85760000D01*
X54870000Y-86070000D02*
X54560000Y-85760000D01*
X54870000Y-88230000D02*
X54870000Y-86070000D01*
X143020000Y-79230000D02*
X143020000Y-78020000D01*
X142960000Y-84880000D02*
X143020000Y-84820000D01*
X143020000Y-78020000D02*
X141910000Y-76910000D01*
X143020000Y-84820000D02*
X143020000Y-79230000D01*
X123570000Y-79620000D02*
X123570000Y-78640000D01*
X124310000Y-77900000D02*
X124310000Y-61660000D01*
X122936000Y-86614000D02*
X122820000Y-86498000D01*
X119690000Y-59830000D02*
X121235000Y-61375000D01*
X110560000Y-66260000D02*
X116990000Y-59830000D01*
X116990000Y-59830000D02*
X119690000Y-59830000D01*
X122820000Y-82740000D02*
X122680000Y-82600000D01*
X122820000Y-86498000D02*
X122820000Y-82740000D01*
X124310000Y-61660000D02*
X124025000Y-61375000D01*
X122680000Y-82600000D02*
X122680000Y-80510000D01*
X122680000Y-80510000D02*
X123570000Y-79620000D01*
X124025000Y-61375000D02*
X121235000Y-61375000D01*
X123570000Y-78640000D02*
X124310000Y-77900000D01*
X108080000Y-66260000D02*
X110560000Y-66260000D01*
X116720000Y-58790000D02*
X121190000Y-58790000D01*
X125200000Y-59800000D02*
X124235000Y-58835000D01*
X125476000Y-86614000D02*
X125476000Y-82926000D01*
X108080000Y-68800000D02*
X108050000Y-68770000D01*
X106570000Y-65440000D02*
X107115489Y-64894511D01*
X121190000Y-58790000D02*
X121235000Y-58835000D01*
X107020000Y-68770000D02*
X106570000Y-68320000D01*
X108050000Y-68770000D02*
X107020000Y-68770000D01*
X125200000Y-74497537D02*
X125200000Y-59800000D01*
X110615489Y-64894511D02*
X116720000Y-58790000D01*
X124235000Y-58835000D02*
X121235000Y-58835000D01*
X107115489Y-64894511D02*
X110615489Y-64894511D01*
X125210000Y-82660000D02*
X125210000Y-79890000D01*
X106570000Y-68320000D02*
X106570000Y-65440000D01*
X125884030Y-75181567D02*
X125200000Y-74497537D01*
X125476000Y-82926000D02*
X125210000Y-82660000D01*
X125884030Y-79215970D02*
X125884030Y-75181567D01*
X125210000Y-79890000D02*
X125884030Y-79215970D01*
X128016000Y-84496000D02*
X127807489Y-84287489D01*
X125950000Y-74470399D02*
X125950000Y-56570000D01*
X128016000Y-86614000D02*
X128016000Y-84496000D01*
X125950000Y-56570000D02*
X125675000Y-56295000D01*
X127807489Y-84287489D02*
X127807489Y-76327888D01*
X127807489Y-76327888D02*
X125950000Y-74470399D01*
X125675000Y-56295000D02*
X121235000Y-56295000D01*
X130300000Y-82570000D02*
X130300000Y-77130000D01*
X126790000Y-55520000D02*
X125025000Y-53755000D01*
X125025000Y-53755000D02*
X121235000Y-53755000D01*
X130300000Y-77130000D02*
X126790000Y-73620000D01*
X130556000Y-83854000D02*
X130556000Y-82826000D01*
X130556000Y-82826000D02*
X130300000Y-82570000D01*
X130556000Y-83854000D02*
X130556000Y-86614000D01*
X126790000Y-73620000D02*
X126790000Y-55520000D01*
X132820000Y-82830000D02*
X132820000Y-77600000D01*
X133096000Y-86614000D02*
X133096000Y-83106000D01*
X128900000Y-73680000D02*
X128900000Y-53870000D01*
X132820000Y-77600000D02*
X128900000Y-73680000D01*
X128900000Y-53870000D02*
X126245000Y-51215000D01*
X126245000Y-51215000D02*
X121235000Y-51215000D01*
X133096000Y-83106000D02*
X132820000Y-82830000D01*
X130435489Y-52695489D02*
X126415000Y-48675000D01*
X135380000Y-78920000D02*
X130860000Y-74400000D01*
X130860000Y-53084675D02*
X130470814Y-52695489D01*
X130860000Y-74400000D02*
X130860000Y-53084675D01*
X135380000Y-82970000D02*
X135380000Y-78920000D01*
X135636000Y-86614000D02*
X135636000Y-83226000D01*
X126415000Y-48675000D02*
X121235000Y-48675000D01*
X130470814Y-52695489D02*
X130435489Y-52695489D01*
X135636000Y-83226000D02*
X135380000Y-82970000D01*
X137910000Y-84010000D02*
X137910000Y-80250000D01*
X137910000Y-80250000D02*
X132900000Y-75240000D01*
X122040000Y-45700000D02*
X122030000Y-45710000D01*
X132900000Y-75240000D02*
X132900000Y-62635325D01*
X121660000Y-45710000D02*
X121235000Y-46135000D01*
X132520000Y-51450000D02*
X126770000Y-45700000D01*
X138176000Y-84276000D02*
X137910000Y-84010000D01*
X138176000Y-86614000D02*
X138176000Y-84276000D01*
X126770000Y-45700000D02*
X122040000Y-45700000D01*
X132520000Y-62255325D02*
X132520000Y-51450000D01*
X132900000Y-62635325D02*
X132520000Y-62255325D01*
X122030000Y-45710000D02*
X121660000Y-45710000D01*
X140716000Y-83286000D02*
X140430000Y-83000000D01*
X140430000Y-83000000D02*
X140430000Y-81270000D01*
X134390000Y-50580000D02*
X127405000Y-43595000D01*
X127405000Y-43595000D02*
X121235000Y-43595000D01*
X140430000Y-81270000D02*
X134390000Y-75230000D01*
X140716000Y-86614000D02*
X140716000Y-83286000D01*
X134390000Y-75230000D02*
X134390000Y-50580000D01*
X163576000Y-83566000D02*
X163320000Y-83310000D01*
X148405000Y-71650000D02*
X145865000Y-71650000D01*
X163320000Y-80400000D02*
X156250000Y-73330000D01*
X163320000Y-83310000D02*
X163320000Y-80400000D01*
X150085000Y-73330000D02*
X148405000Y-71650000D01*
X111030000Y-80450000D02*
X114780000Y-84200000D01*
X163576000Y-86614000D02*
X163576000Y-83566000D01*
X156250000Y-73330000D02*
X150085000Y-73330000D01*
X114780000Y-84200000D02*
X116380000Y-84200000D01*
X175006000Y-86494000D02*
X175006000Y-89408000D01*
X174752000Y-81788000D02*
X175006000Y-82042000D01*
X176530000Y-90932000D02*
X176530000Y-99060000D01*
X175006000Y-82042000D02*
X175006000Y-86494000D01*
X176276000Y-86614000D02*
X175126000Y-86614000D01*
X175006000Y-89408000D02*
X176530000Y-90932000D01*
X175126000Y-86614000D02*
X175006000Y-86494000D01*
X177292000Y-81788000D02*
X177540000Y-82036000D01*
X177540000Y-82036000D02*
X177540000Y-86560000D01*
X177540000Y-89656000D02*
X179070000Y-91186000D01*
X179070000Y-91186000D02*
X179070000Y-99060000D01*
X178816000Y-86614000D02*
X177594000Y-86614000D01*
X177594000Y-86614000D02*
X177540000Y-86560000D01*
X177540000Y-86560000D02*
X177540000Y-89656000D01*
X90820000Y-52110000D02*
X91910000Y-51020000D01*
X182372000Y-86614000D02*
X183134000Y-85852000D01*
X135240000Y-42290000D02*
X136475000Y-41055000D01*
X134590000Y-46640000D02*
X135340000Y-47390000D01*
X89720000Y-51700000D02*
X90000000Y-51700000D01*
X153390000Y-32370000D02*
X153416000Y-32396000D01*
X61720000Y-92590000D02*
X49210000Y-92590000D01*
X87750000Y-38330000D02*
X87750000Y-44590000D01*
X80050000Y-37630000D02*
X81020000Y-36660000D01*
X154686000Y-44450000D02*
X147320000Y-44450000D01*
X156464000Y-43434000D02*
X155194000Y-44704000D01*
X91910000Y-51020000D02*
X92840000Y-51020000D01*
X164338000Y-54102000D02*
X154686000Y-44450000D01*
X87750000Y-44590000D02*
X89720000Y-46560000D01*
X48510000Y-80776000D02*
X44456000Y-84830000D01*
X145865000Y-64030000D02*
X142570000Y-64030000D01*
X155090000Y-51050000D02*
X150520000Y-51050000D01*
X74420000Y-91880000D02*
X74460000Y-91880000D01*
X140134000Y-42926000D02*
X140120000Y-42940000D01*
X44020000Y-87400000D02*
X44020000Y-84830000D01*
X164338000Y-63858000D02*
X164338000Y-64008000D01*
X136475000Y-41055000D02*
X134590000Y-42940000D01*
X145796000Y-42926000D02*
X140134000Y-42926000D01*
X150375000Y-50905000D02*
X150390000Y-50920000D01*
X74240000Y-43940000D02*
X79380000Y-43940000D01*
X136475000Y-38515000D02*
X136475000Y-41055000D01*
X181356000Y-86614000D02*
X182372000Y-86614000D01*
X62930000Y-91380000D02*
X61720000Y-92590000D01*
X66380000Y-93340000D02*
X72960000Y-93340000D01*
X73740000Y-43440000D02*
X74240000Y-43940000D01*
X172720000Y-72390000D02*
X164338000Y-64008000D01*
X79380000Y-43940000D02*
X80050000Y-43270000D01*
X138340000Y-41160000D02*
X136580000Y-41160000D01*
X86080000Y-36660000D02*
X87750000Y-38330000D01*
X179832000Y-72390000D02*
X172720000Y-72390000D01*
X64420000Y-91380000D02*
X62930000Y-91380000D01*
X48510000Y-69085000D02*
X48510000Y-80776000D01*
X88950000Y-66370000D02*
X90820000Y-64500000D01*
X87080000Y-66370000D02*
X88950000Y-66370000D01*
X89720000Y-46560000D02*
X89720000Y-51700000D01*
X150520000Y-51050000D02*
X150390000Y-50920000D01*
X90820000Y-64500000D02*
X90820000Y-52520000D01*
X90820000Y-52520000D02*
X90820000Y-52110000D01*
X183134000Y-85852000D02*
X183134000Y-75692000D01*
X87730000Y-51700000D02*
X89720000Y-51700000D01*
X183134000Y-75692000D02*
X179832000Y-72390000D01*
X104680000Y-51020000D02*
X105960000Y-52300000D01*
X109420000Y-52300000D02*
X119430000Y-42290000D01*
X105960000Y-52300000D02*
X109420000Y-52300000D01*
X53590000Y-64005000D02*
X48510000Y-69085000D01*
X90000000Y-51700000D02*
X90820000Y-52520000D01*
X49210000Y-92590000D02*
X44020000Y-87400000D01*
X134590000Y-42940000D02*
X134590000Y-46640000D01*
X81020000Y-36660000D02*
X86080000Y-36660000D01*
X147320000Y-44450000D02*
X145796000Y-42926000D01*
X142335000Y-47390000D02*
X145850000Y-50905000D01*
X164338000Y-64008000D02*
X164338000Y-54102000D01*
X135340000Y-47390000D02*
X142335000Y-47390000D01*
X80050000Y-43270000D02*
X80050000Y-37630000D01*
X72960000Y-93340000D02*
X74420000Y-91880000D01*
X145865000Y-64030000D02*
X149415000Y-60480000D01*
X136580000Y-41160000D02*
X136475000Y-41055000D01*
X73740000Y-42020000D02*
X73740000Y-43440000D01*
X153416000Y-32396000D02*
X153416000Y-34544000D01*
X156464000Y-37592000D02*
X156464000Y-43434000D01*
X153416000Y-34544000D02*
X156464000Y-37592000D01*
X145850000Y-50905000D02*
X150375000Y-50905000D01*
X140120000Y-42940000D02*
X138340000Y-41160000D01*
X64420000Y-91380000D02*
X66380000Y-93340000D01*
X92840000Y-51020000D02*
X104680000Y-51020000D01*
X149415000Y-60480000D02*
X160960000Y-60480000D01*
X142570000Y-64030000D02*
X142480000Y-63940000D01*
X160960000Y-60480000D02*
X164338000Y-63858000D01*
X119430000Y-42290000D02*
X135240000Y-42290000D01*
X180090000Y-82046000D02*
X180090000Y-89412000D01*
X65020000Y-66290000D02*
X65280000Y-66290000D01*
X179832000Y-81788000D02*
X180090000Y-82046000D01*
X180090000Y-89412000D02*
X181864000Y-91186000D01*
X181864000Y-91186000D02*
X181864000Y-99060000D01*
X65280000Y-66290000D02*
X69210000Y-62360000D01*
X173990000Y-91694000D02*
X173990000Y-99060000D01*
X172480000Y-82056000D02*
X172480000Y-90184000D01*
X172480000Y-90184000D02*
X173990000Y-91694000D01*
X172212000Y-81788000D02*
X172480000Y-82056000D01*
X171450000Y-90932000D02*
X171450000Y-99060000D01*
X169940000Y-82056000D02*
X169940000Y-89422000D01*
X169672000Y-81788000D02*
X169940000Y-82056000D01*
X169940000Y-89422000D02*
X171450000Y-90932000D01*
X167380000Y-82036000D02*
X167380000Y-89656000D01*
X167132000Y-81788000D02*
X167380000Y-82036000D01*
X167380000Y-89656000D02*
X168910000Y-91186000D01*
X168910000Y-91186000D02*
X168910000Y-99060000D01*
X164592000Y-81788000D02*
X164850000Y-82046000D01*
X166370000Y-91186000D02*
X166370000Y-99060000D01*
X164850000Y-82046000D02*
X164850000Y-89666000D01*
X164850000Y-89666000D02*
X166370000Y-91186000D01*
X162310000Y-89920000D02*
X163830000Y-91440000D01*
X162310000Y-82046000D02*
X162310000Y-89920000D01*
X163830000Y-91440000D02*
X163830000Y-99060000D01*
X162052000Y-81788000D02*
X162310000Y-82046000D01*
X159512000Y-81788000D02*
X159760000Y-82036000D01*
X159760000Y-89656000D02*
X161290000Y-91186000D01*
X159760000Y-82036000D02*
X159760000Y-89656000D01*
X161290000Y-91186000D02*
X161290000Y-99060000D01*
X156972000Y-81788000D02*
X157210000Y-82026000D01*
X157210000Y-82026000D02*
X157210000Y-89138000D01*
X158750000Y-90678000D02*
X158750000Y-99060000D01*
X157210000Y-89138000D02*
X158750000Y-90678000D01*
X154432000Y-81788000D02*
X154700000Y-82056000D01*
X156210000Y-91186000D02*
X156210000Y-99060000D01*
X154700000Y-89676000D02*
X156210000Y-91186000D01*
X154700000Y-82056000D02*
X154700000Y-89676000D01*
X152160000Y-82056000D02*
X152160000Y-89676000D01*
X151892000Y-81788000D02*
X152160000Y-82056000D01*
X152160000Y-89676000D02*
X153670000Y-91186000D01*
X153670000Y-91186000D02*
X153670000Y-99060000D01*
X149610000Y-82046000D02*
X149610000Y-88650000D01*
X151130000Y-90170000D02*
X151130000Y-99060000D01*
X149610000Y-88650000D02*
X151130000Y-90170000D01*
X149352000Y-81788000D02*
X149610000Y-82046000D01*
X147080000Y-88914000D02*
X148590000Y-90424000D01*
X147080000Y-82056000D02*
X147080000Y-88914000D01*
X146812000Y-81788000D02*
X147080000Y-82056000D01*
X148590000Y-90424000D02*
X148590000Y-99060000D01*
X144520000Y-89402000D02*
X146050000Y-90932000D01*
X144520000Y-82036000D02*
X144520000Y-89402000D01*
X144272000Y-81788000D02*
X144520000Y-82036000D01*
X146050000Y-90932000D02*
X146050000Y-99060000D01*
X141980000Y-89402000D02*
X143510000Y-90932000D01*
X116200000Y-82590000D02*
X112600000Y-78990000D01*
X112600000Y-78990000D02*
X110790000Y-78990000D01*
X116240000Y-82590000D02*
X116200000Y-82590000D01*
X141732000Y-81788000D02*
X141980000Y-82036000D01*
X141980000Y-82036000D02*
X141980000Y-89402000D01*
X143510000Y-90932000D02*
X143510000Y-99060000D01*
X140970000Y-91186000D02*
X140970000Y-99060000D01*
X127370000Y-44850000D02*
X119050000Y-44850000D01*
X100920000Y-53560000D02*
X92840000Y-53560000D01*
X109165489Y-54734511D02*
X102094511Y-54734511D01*
X133450000Y-50930000D02*
X127370000Y-44850000D01*
X139192000Y-81788000D02*
X139420000Y-82016000D01*
X102094511Y-54734511D02*
X100920000Y-53560000D01*
X133470000Y-60360000D02*
X133450000Y-60340000D01*
X139420000Y-89636000D02*
X140970000Y-91186000D01*
X133450000Y-60340000D02*
X133450000Y-50930000D01*
X119050000Y-44850000D02*
X109165489Y-54734511D01*
X139420000Y-82016000D02*
X139420000Y-89636000D01*
X138430000Y-90932000D02*
X138430000Y-99060000D01*
X131660000Y-63860000D02*
X131660000Y-52230000D01*
X126780000Y-47350000D02*
X119300000Y-47350000D01*
X94150000Y-57410000D02*
X92840000Y-56100000D01*
X136920000Y-89422000D02*
X138430000Y-90932000D01*
X131980000Y-64180000D02*
X131660000Y-63860000D01*
X119300000Y-47350000D02*
X109240000Y-57410000D01*
X136920000Y-82056000D02*
X136920000Y-89422000D01*
X131660000Y-52230000D02*
X126780000Y-47350000D01*
X109240000Y-57410000D02*
X94150000Y-57410000D01*
X136652000Y-81788000D02*
X136920000Y-82056000D01*
X108970000Y-59890000D02*
X106110000Y-59890000D01*
X129680000Y-52930000D02*
X126680000Y-49930000D01*
X118930000Y-49930000D02*
X108970000Y-59890000D01*
X129680000Y-65480000D02*
X129680000Y-52930000D01*
X126680000Y-49930000D02*
X118930000Y-49930000D01*
X106110000Y-59890000D02*
X104860000Y-58640000D01*
X129740000Y-65540000D02*
X129680000Y-65480000D01*
X134380000Y-89422000D02*
X135890000Y-90932000D01*
X134112000Y-81788000D02*
X134380000Y-82056000D01*
X135890000Y-90932000D02*
X135890000Y-99060000D01*
X134380000Y-82056000D02*
X134380000Y-89422000D01*
X104860000Y-58640000D02*
X92840000Y-58640000D01*
X125910000Y-52490000D02*
X118470000Y-52490000D01*
X108490000Y-62470000D02*
X105520000Y-62470000D01*
X104230000Y-61180000D02*
X92840000Y-61180000D01*
X133350000Y-90932000D02*
X133350000Y-99060000D01*
X127810000Y-54390000D02*
X125910000Y-52490000D01*
X131572000Y-81788000D02*
X131820000Y-82036000D01*
X118470000Y-52490000D02*
X108490000Y-62470000D01*
X105520000Y-62470000D02*
X104230000Y-61180000D01*
X127810000Y-66930000D02*
X127810000Y-54390000D01*
X131820000Y-82036000D02*
X131820000Y-89402000D01*
X131820000Y-89402000D02*
X133350000Y-90932000D01*
X127830000Y-66950000D02*
X127810000Y-66930000D01*
X108490000Y-70080000D02*
X99200000Y-70080000D01*
X123110000Y-70484500D02*
X123110000Y-63250000D01*
X129032000Y-81788000D02*
X129280000Y-82036000D01*
X123110000Y-63250000D02*
X123740000Y-62620000D01*
X123740000Y-62620000D02*
X115950000Y-62620000D01*
X129280000Y-89656000D02*
X130810000Y-91186000D01*
X123535500Y-70910000D02*
X123110000Y-70484500D01*
X130810000Y-91186000D02*
X130810000Y-99060000D01*
X99200000Y-70080000D02*
X92840000Y-63720000D01*
X129280000Y-82036000D02*
X129280000Y-89656000D01*
X115950000Y-62620000D02*
X108490000Y-70080000D01*
X119400000Y-73920000D02*
X121560000Y-76080000D01*
X113780000Y-70200000D02*
X111380000Y-72600000D01*
X111380000Y-72600000D02*
X99180000Y-72600000D01*
X126760000Y-89676000D02*
X128270000Y-91186000D01*
X119400000Y-69900000D02*
X119400000Y-73920000D01*
X113930000Y-70200000D02*
X113780000Y-70200000D01*
X128270000Y-91186000D02*
X128270000Y-99060000D01*
X99180000Y-72600000D02*
X92840000Y-66260000D01*
X120305000Y-68995000D02*
X119400000Y-69900000D01*
X121235000Y-68995000D02*
X120305000Y-68995000D01*
X126760000Y-82056000D02*
X126760000Y-89676000D01*
X121560000Y-76080000D02*
X122810000Y-76080000D01*
X115000000Y-73140000D02*
X113000000Y-75140000D01*
X99180000Y-75140000D02*
X92840000Y-68800000D01*
X124190000Y-89900000D02*
X125730000Y-91440000D01*
X120905000Y-66455000D02*
X121235000Y-66455000D01*
X115000000Y-67820000D02*
X115000000Y-73140000D01*
X124190000Y-82026000D02*
X124190000Y-89900000D01*
X120450000Y-77480000D02*
X120280000Y-77480000D01*
X120280000Y-77480000D02*
X117750000Y-74950000D01*
X113000000Y-75140000D02*
X99180000Y-75140000D01*
X117750000Y-74950000D02*
X117750000Y-69610000D01*
X125730000Y-91440000D02*
X125730000Y-99060000D01*
X117750000Y-69610000D02*
X120905000Y-66455000D01*
X121412000Y-81788000D02*
X121412000Y-79742000D01*
X121412000Y-81788000D02*
X121670000Y-82046000D01*
X117000000Y-68140000D02*
X117000000Y-73120000D01*
X114650000Y-77680000D02*
X116335000Y-75995000D01*
X121235000Y-63915000D02*
X121225000Y-63915000D01*
X121670000Y-82046000D02*
X121670000Y-89920000D01*
X117000000Y-73120000D02*
X117000000Y-75330000D01*
X123190000Y-91440000D02*
X123190000Y-99060000D01*
X121225000Y-63915000D02*
X117000000Y-68140000D01*
X99180000Y-77680000D02*
X114650000Y-77680000D01*
X117000000Y-75330000D02*
X116335000Y-75995000D01*
X92840000Y-71340000D02*
X99180000Y-77680000D01*
X121412000Y-79742000D02*
X117000000Y-75330000D01*
X121670000Y-89920000D02*
X123190000Y-91440000D01*
X118872000Y-89916000D02*
X120396000Y-91440000D01*
X118872000Y-81788000D02*
X118872000Y-89916000D01*
X120396000Y-91440000D02*
X120396000Y-99060000D01*
X72640000Y-61210000D02*
X76460000Y-61210000D01*
X82510000Y-60830000D02*
X79940000Y-60830000D01*
X82570000Y-60890000D02*
X82510000Y-60830000D01*
X76460000Y-61210000D02*
X78010000Y-62760000D01*
X79940000Y-60830000D02*
X78010000Y-62760000D01*
X72640000Y-58670000D02*
X77220000Y-58670000D01*
X78720000Y-58590000D02*
X78010000Y-57880000D01*
X82550000Y-58520000D02*
X82480000Y-58590000D01*
X77220000Y-58670000D02*
X78010000Y-57880000D01*
X82480000Y-58590000D02*
X78720000Y-58590000D01*
X59950000Y-88230000D02*
X59990000Y-88270000D01*
X59990000Y-88270000D02*
X64210000Y-88270000D01*
X64210000Y-88270000D02*
X64420000Y-88060000D01*
X58245000Y-41815000D02*
X57605000Y-41815000D01*
X58360000Y-41700000D02*
X58245000Y-41815000D01*
X77320000Y-84880000D02*
X76140000Y-83700000D01*
X70110000Y-43150000D02*
X68660000Y-41700000D01*
X72840000Y-81530000D02*
X74460000Y-83150000D01*
X76140000Y-83700000D02*
X75020000Y-83700000D01*
X75020000Y-83700000D02*
X74460000Y-84260000D01*
X72530000Y-84950000D02*
X72530000Y-81640000D01*
X68660000Y-41700000D02*
X58360000Y-41700000D01*
X72040000Y-91380000D02*
X69420000Y-88760000D01*
X69420000Y-88060000D02*
X72530000Y-84950000D01*
X74460000Y-83150000D02*
X74460000Y-84260000D01*
X70110000Y-74840000D02*
X70110000Y-43150000D01*
X69420000Y-88760000D02*
X69420000Y-88060000D01*
X68480000Y-81390000D02*
X68410000Y-81320000D01*
X68410000Y-76540000D02*
X70110000Y-74840000D01*
X77320000Y-91380000D02*
X77320000Y-84880000D01*
X68410000Y-81320000D02*
X68410000Y-76540000D01*
X41420000Y-84810000D02*
X41394000Y-84836000D01*
X38480000Y-84850000D02*
X38466000Y-84836000D01*
X39878000Y-73660000D02*
X39878000Y-81280000D01*
X39878000Y-81280000D02*
X41420000Y-82822000D01*
X38466000Y-84836000D02*
X35306000Y-84836000D01*
X40640000Y-72898000D02*
X39878000Y-73660000D01*
X41420000Y-82822000D02*
X41420000Y-84810000D01*
X41394000Y-84836000D02*
X38494000Y-84836000D01*
X41860000Y-39674000D02*
X41860000Y-37200000D01*
X41860000Y-37200000D02*
X41722000Y-37338000D01*
X38890000Y-37300000D02*
X38888000Y-37298000D01*
X41722000Y-37338000D02*
X38928000Y-37338000D01*
X38888000Y-37298000D02*
X35600000Y-37298000D01*
X38928000Y-37338000D02*
X38890000Y-37300000D01*
X40132000Y-41402000D02*
X41860000Y-39674000D01*
X40132000Y-46736000D02*
X40132000Y-41402000D01*
X35600000Y-37298000D02*
X35560000Y-37338000D01*
X40894000Y-47498000D02*
X40132000Y-46736000D01*
X65020000Y-48510000D02*
X60960000Y-52570000D01*
X60960000Y-52570000D02*
X60420000Y-52570000D01*
X44020000Y-92450000D02*
X44014000Y-92456000D01*
X41446000Y-92456000D02*
X41420000Y-92430000D01*
X44014000Y-92456000D02*
X41446000Y-92456000D01*
X44610000Y-29560000D02*
X44452000Y-29718000D01*
X44452000Y-29718000D02*
X41998000Y-29718000D01*
X41998000Y-29718000D02*
X41860000Y-29580000D01*
X75080000Y-37570000D02*
X76280000Y-38770000D01*
X61140000Y-40060000D02*
X69380000Y-40060000D01*
X50960000Y-44470000D02*
X50850000Y-44580000D01*
X47498000Y-69596000D02*
X47440000Y-69538000D01*
X76280000Y-38770000D02*
X76280000Y-39480000D01*
X71870000Y-37570000D02*
X75080000Y-37570000D01*
X69380000Y-40060000D02*
X71870000Y-37570000D01*
X47440000Y-69538000D02*
X47440000Y-44580000D01*
X50850000Y-44580000D02*
X47440000Y-44580000D01*
X56330000Y-43080000D02*
X56330000Y-40800000D01*
X57605000Y-44355000D02*
X56330000Y-43080000D01*
X56330000Y-40800000D02*
X57080000Y-40050000D01*
X84530000Y-45570000D02*
X79090000Y-45570000D01*
X64910000Y-43434000D02*
X63896000Y-42420000D01*
X66124000Y-43434000D02*
X66548000Y-43858000D01*
X66548000Y-43858000D02*
X66548000Y-58042000D01*
X85640000Y-40690000D02*
X85640000Y-44460000D01*
X64910000Y-43434000D02*
X66124000Y-43434000D01*
X83900000Y-39480000D02*
X84430000Y-39480000D01*
X85640000Y-44460000D02*
X84530000Y-45570000D01*
X84430000Y-39480000D02*
X85640000Y-40690000D01*
X59470000Y-41050000D02*
X58470000Y-40050000D01*
X70770000Y-44400000D02*
X71960000Y-45590000D01*
X57080000Y-40050000D02*
X58470000Y-40050000D01*
X70770000Y-42130000D02*
X70770000Y-44400000D01*
X69690000Y-41050000D02*
X70770000Y-42130000D01*
X59540000Y-42420000D02*
X57605000Y-44355000D01*
X63896000Y-42420000D02*
X59540000Y-42420000D01*
X71960000Y-45590000D02*
X79070000Y-45590000D01*
X66548000Y-58042000D02*
X65920000Y-58670000D01*
X79090000Y-45570000D02*
X79070000Y-45590000D01*
X69690000Y-41050000D02*
X59470000Y-41050000D01*
X65920000Y-58670000D02*
X65020000Y-58670000D01*
X54864000Y-36830000D02*
X56040000Y-36830000D01*
X69440000Y-38210000D02*
X70960000Y-36690000D01*
X54864000Y-37986000D02*
X53180000Y-39670000D01*
X56040000Y-36830000D02*
X57420000Y-38210000D01*
X70960000Y-36690000D02*
X76840000Y-36690000D01*
X78820000Y-38670000D02*
X78820000Y-39480000D01*
X54840000Y-44580000D02*
X55065000Y-44355000D01*
X53180000Y-39670000D02*
X53180000Y-43560000D01*
X53180000Y-43560000D02*
X54200000Y-44580000D01*
X57420000Y-38210000D02*
X69440000Y-38210000D01*
X54864000Y-36830000D02*
X54864000Y-37986000D01*
X76840000Y-36690000D02*
X78820000Y-38670000D01*
X54200000Y-44580000D02*
X54840000Y-44580000D01*
X65020000Y-51050000D02*
X60420000Y-55650000D01*
X60420000Y-55650000D02*
X60420000Y-55680000D01*
X96306000Y-80246000D02*
X93760000Y-77700000D01*
X93760000Y-77700000D02*
X91710000Y-77700000D01*
X96306000Y-89916000D02*
X96306000Y-80246000D01*
X91710000Y-77700000D02*
X90640000Y-76630000D01*
X91850000Y-73880000D02*
X92840000Y-73880000D01*
X87190000Y-73880000D02*
X87080000Y-73990000D01*
X90640000Y-75090000D02*
X91850000Y-73880000D01*
X90640000Y-76630000D02*
X90640000Y-75090000D01*
X92840000Y-73880000D02*
X87190000Y-73880000D01*
X136475000Y-48675000D02*
X139875000Y-48675000D01*
X148480000Y-53460000D02*
X150390000Y-53460000D01*
X147190000Y-52170000D02*
X148480000Y-53460000D01*
X139875000Y-48675000D02*
X143370000Y-52170000D01*
X143370000Y-52170000D02*
X147190000Y-52170000D01*
X155120000Y-53620000D02*
X155090000Y-53590000D01*
X156830000Y-53060000D02*
X156270000Y-53620000D01*
X136475000Y-46135000D02*
X148775000Y-46135000D01*
X151370000Y-48730000D02*
X155590000Y-48730000D01*
X156830000Y-49970000D02*
X156830000Y-53060000D01*
X155590000Y-48730000D02*
X156830000Y-49970000D01*
X156270000Y-53620000D02*
X155120000Y-53620000D01*
X148775000Y-46135000D02*
X151370000Y-48730000D01*
X115700000Y-37790000D02*
X115700000Y-36680000D01*
X117856000Y-34524000D02*
X117856000Y-32396000D01*
X108080000Y-43400000D02*
X110090000Y-43400000D01*
X117856000Y-32396000D02*
X117830000Y-32370000D01*
X110090000Y-43400000D02*
X115700000Y-37790000D01*
X115700000Y-36680000D02*
X117856000Y-34524000D01*
X108080000Y-40860000D02*
X110430000Y-40860000D01*
X119460000Y-30730000D02*
X120370000Y-31640000D01*
X120370000Y-31640000D02*
X120370000Y-32370000D01*
X115100000Y-36190000D02*
X115100000Y-31740000D01*
X116110000Y-30730000D02*
X119460000Y-30730000D01*
X110430000Y-40860000D02*
X115100000Y-36190000D01*
X115100000Y-31740000D02*
X116110000Y-30730000D01*
X114160000Y-31410000D02*
X115570000Y-30000000D01*
X110650000Y-38320000D02*
X114160000Y-34810000D01*
X114160000Y-34810000D02*
X114160000Y-31410000D01*
X120620000Y-30000000D02*
X120940000Y-30320000D01*
X108080000Y-38320000D02*
X110650000Y-38320000D01*
X120940000Y-30400000D02*
X122910000Y-32370000D01*
X120940000Y-30320000D02*
X120940000Y-30400000D01*
X115570000Y-30000000D02*
X120620000Y-30000000D01*
X89040000Y-84900000D02*
X89040000Y-87390000D01*
X69590000Y-83090000D02*
X68280000Y-84400000D01*
X62250000Y-80570000D02*
X61790000Y-80110000D01*
X71508630Y-76450000D02*
X69590000Y-78368630D01*
X89040000Y-87390000D02*
X94480000Y-92830000D01*
X62250000Y-83440000D02*
X62250000Y-80570000D01*
X111506000Y-84126000D02*
X108880000Y-81500000D01*
X111506000Y-88646000D02*
X111506000Y-84126000D01*
X72640000Y-76450000D02*
X80590000Y-76450000D01*
X72640000Y-76450000D02*
X71508630Y-76450000D01*
X63210000Y-84400000D02*
X62250000Y-83440000D01*
X107322000Y-92830000D02*
X111506000Y-88646000D01*
X94480000Y-92830000D02*
X107322000Y-92830000D01*
X68280000Y-84400000D02*
X63210000Y-84400000D01*
X80590000Y-76450000D02*
X89040000Y-84900000D01*
X69590000Y-78368630D02*
X69590000Y-83090000D01*
X108880000Y-81500000D02*
X108080000Y-81500000D01*
X61790000Y-80110000D02*
X60690000Y-80110000D01*
X55250000Y-83400000D02*
X53030000Y-83400000D01*
X57410000Y-88230000D02*
X57410000Y-85540000D01*
X57410000Y-85540000D02*
X55260000Y-83390000D01*
X55260000Y-83390000D02*
X55250000Y-83400000D01*
X70410000Y-83610000D02*
X68890000Y-85130000D01*
X88200000Y-87720000D02*
X94080000Y-93600000D01*
X72640000Y-78990000D02*
X70820000Y-78990000D01*
X88200000Y-85290000D02*
X88200000Y-87720000D01*
X108057138Y-93600000D02*
X112268000Y-89389138D01*
X112268000Y-89389138D02*
X112268000Y-83148000D01*
X112268000Y-83148000D02*
X108080000Y-78960000D01*
X94080000Y-93600000D02*
X108057138Y-93600000D01*
X70820000Y-78990000D02*
X70410000Y-79400000D01*
X81900000Y-78990000D02*
X88200000Y-85290000D01*
X70410000Y-79400000D02*
X70410000Y-83610000D01*
X62380000Y-85130000D02*
X60650000Y-83400000D01*
X68890000Y-85130000D02*
X62380000Y-85130000D01*
X72640000Y-78990000D02*
X81900000Y-78990000D01*
X52800000Y-52570000D02*
X50320000Y-50090000D01*
X50280000Y-49980000D02*
X48560000Y-49980000D01*
X50320000Y-50020000D02*
X50280000Y-49980000D01*
X50320000Y-50090000D02*
X50320000Y-50020000D01*
X44958000Y-39624000D02*
X43180000Y-41402000D01*
X43180000Y-46736000D02*
X43942000Y-46736000D01*
X43180000Y-41402000D02*
X43180000Y-46736000D01*
X61468000Y-36830000D02*
X59690000Y-35052000D01*
X51916000Y-39624000D02*
X44958000Y-39624000D01*
X59690000Y-35052000D02*
X54102000Y-35052000D01*
X62484000Y-35814000D02*
X61468000Y-36830000D01*
X64910000Y-35814000D02*
X62484000Y-35814000D01*
X53090000Y-38450000D02*
X51916000Y-39624000D01*
X43180000Y-71374000D02*
X43434000Y-71628000D01*
X53090000Y-36064000D02*
X53090000Y-38450000D01*
X43180000Y-46736000D02*
X43180000Y-71374000D01*
X54102000Y-35052000D02*
X53090000Y-36064000D01*
X44704000Y-74676000D02*
X44196000Y-75184000D01*
X52800000Y-55680000D02*
X50410000Y-58070000D01*
X44196000Y-69850000D02*
X44704000Y-70358000D01*
X45212000Y-62484000D02*
X44196000Y-63500000D01*
X44704000Y-70358000D02*
X44704000Y-74676000D01*
X50410000Y-60910000D02*
X48630000Y-62690000D01*
X50410000Y-58070000D02*
X50410000Y-60910000D01*
X44196000Y-63500000D02*
X44196000Y-69850000D01*
X41910000Y-73406000D02*
X41910000Y-48768000D01*
X42672000Y-74168000D02*
X41910000Y-73406000D01*
X54864000Y-31496000D02*
X51308000Y-35052000D01*
X51308000Y-35052000D02*
X51308000Y-36830000D01*
X41910000Y-48768000D02*
X41910000Y-41148000D01*
X41910000Y-48768000D02*
X42164000Y-48768000D01*
X41910000Y-41148000D02*
X44196000Y-38862000D01*
X54864000Y-29210000D02*
X54864000Y-31496000D01*
X44196000Y-38862000D02*
X49276000Y-38862000D01*
X49276000Y-38862000D02*
X51308000Y-36830000D01*
X89960000Y-87080000D02*
X95060000Y-92180000D01*
X108960000Y-84040000D02*
X108080000Y-84040000D01*
X95060000Y-92180000D02*
X106448000Y-92180000D01*
X72640000Y-73910000D02*
X79070000Y-73910000D01*
X110744000Y-85824000D02*
X108960000Y-84040000D01*
X89960000Y-84800000D02*
X89960000Y-87080000D01*
X106448000Y-92180000D02*
X110744000Y-87884000D01*
X79070000Y-73910000D02*
X89960000Y-84800000D01*
X110744000Y-87884000D02*
X110744000Y-85824000D01*
X108080000Y-87460000D02*
X108080000Y-86580000D01*
X95580000Y-91580000D02*
X103960000Y-91580000D01*
X72640000Y-71370000D02*
X77560000Y-71370000D01*
X90710000Y-84520000D02*
X90710000Y-86710000D01*
X103960000Y-91580000D02*
X108080000Y-87460000D01*
X77560000Y-71370000D02*
X90710000Y-84520000D01*
X90710000Y-86710000D02*
X95580000Y-91580000D01*
X91665489Y-85405489D02*
X92840000Y-86580000D01*
X91665489Y-84205489D02*
X91665489Y-85405489D01*
X72640000Y-68830000D02*
X76290000Y-68830000D01*
X76290000Y-68830000D02*
X91665489Y-84205489D01*
X75370000Y-56130000D02*
X76100000Y-55400000D01*
X77350000Y-51670000D02*
X83530000Y-51670000D01*
X84310000Y-52450000D02*
X84310000Y-75820000D01*
X76100000Y-55400000D02*
X76100000Y-52920000D01*
X83530000Y-51670000D02*
X84310000Y-52450000D01*
X72640000Y-56130000D02*
X75370000Y-56130000D01*
X92530000Y-84040000D02*
X92840000Y-84040000D01*
X84310000Y-75820000D02*
X92530000Y-84040000D01*
X76100000Y-52920000D02*
X77350000Y-51670000D01*
X76810000Y-50870000D02*
X83920000Y-50870000D01*
X85000000Y-75230000D02*
X87640000Y-77870000D01*
X83920000Y-50870000D02*
X85000000Y-51950000D01*
X87670000Y-77870000D02*
X91300000Y-81500000D01*
X85000000Y-51950000D02*
X85000000Y-75230000D01*
X72640000Y-53590000D02*
X74090000Y-53590000D01*
X74090000Y-53590000D02*
X76810000Y-50870000D01*
X91300000Y-81500000D02*
X92840000Y-81500000D01*
X87640000Y-77870000D02*
X87670000Y-77870000D01*
X72640000Y-51050000D02*
X74130000Y-51050000D01*
X74130000Y-51050000D02*
X75210000Y-49970000D01*
X85720000Y-74940000D02*
X88950000Y-78170000D01*
X88950000Y-78170000D02*
X88950000Y-78190000D01*
X85720000Y-51440000D02*
X85720000Y-74940000D01*
X84250000Y-49970000D02*
X85720000Y-51440000D01*
X88950000Y-78190000D02*
X89720000Y-78960000D01*
X89720000Y-78960000D02*
X92840000Y-78960000D01*
X75210000Y-49970000D02*
X84250000Y-49970000D01*
X110080000Y-35740000D02*
X112980000Y-32840000D01*
X123370000Y-29250000D02*
X125450000Y-31330000D01*
X112980000Y-31230000D02*
X114960000Y-29250000D01*
X97450000Y-38320000D02*
X100030000Y-35740000D01*
X112980000Y-32840000D02*
X112980000Y-31230000D01*
X92840000Y-38320000D02*
X97450000Y-38320000D01*
X100030000Y-35740000D02*
X110080000Y-35740000D01*
X114960000Y-29250000D02*
X123370000Y-29250000D01*
X125450000Y-31330000D02*
X125450000Y-32370000D01*
X112000000Y-30840000D02*
X114300000Y-28540000D01*
X91070000Y-40240000D02*
X91070000Y-36730000D01*
X127990000Y-31960000D02*
X127990000Y-32370000D01*
X114300000Y-28540000D02*
X124570000Y-28540000D01*
X112000000Y-31650000D02*
X112000000Y-30840000D01*
X92840000Y-40860000D02*
X91690000Y-40860000D01*
X124570000Y-28540000D02*
X127990000Y-31960000D01*
X108760000Y-34890000D02*
X112000000Y-31650000D01*
X91690000Y-40860000D02*
X91070000Y-40240000D01*
X91070000Y-36730000D02*
X92910000Y-34890000D01*
X92910000Y-34890000D02*
X108760000Y-34890000D01*
X92160000Y-33990000D02*
X108240000Y-33990000D01*
X113810000Y-27690000D02*
X127760000Y-27690000D01*
X90450000Y-41010000D02*
X90450000Y-35700000D01*
X130530000Y-30460000D02*
X130530000Y-32370000D01*
X108240000Y-33990000D02*
X111080000Y-31150000D01*
X127760000Y-27690000D02*
X130530000Y-30460000D01*
X111080000Y-31150000D02*
X111080000Y-30420000D01*
X92840000Y-43400000D02*
X90450000Y-41010000D01*
X111080000Y-30420000D02*
X113810000Y-27690000D01*
X90450000Y-35700000D02*
X92160000Y-33990000D01*
X113040000Y-27010000D02*
X128590000Y-27010000D01*
X109770000Y-30280000D02*
X113040000Y-27010000D01*
X89780000Y-34750000D02*
X91530000Y-33000000D01*
X109770000Y-31260000D02*
X109770000Y-30280000D01*
X128590000Y-27010000D02*
X133070000Y-31490000D01*
X89780000Y-42880000D02*
X89780000Y-34750000D01*
X108030000Y-33000000D02*
X109770000Y-31260000D01*
X133070000Y-31490000D02*
X133070000Y-32370000D01*
X91530000Y-33000000D02*
X108030000Y-33000000D01*
X92840000Y-45940000D02*
X89780000Y-42880000D01*
X142615000Y-53445000D02*
X145850000Y-53445000D01*
X136475000Y-56295000D02*
X139765000Y-56295000D01*
X139765000Y-56295000D02*
X142615000Y-53445000D01*
X135760000Y-30430000D02*
X135760000Y-32220000D01*
X92840000Y-48480000D02*
X92840000Y-48370000D01*
X108650000Y-30910000D02*
X108650000Y-30170000D01*
X92840000Y-48370000D02*
X89050000Y-44580000D01*
X108650000Y-30170000D02*
X112690000Y-26130000D01*
X131460000Y-26130000D02*
X135760000Y-30430000D01*
X107560000Y-32000000D02*
X108650000Y-30910000D01*
X135760000Y-32220000D02*
X135610000Y-32370000D01*
X112690000Y-26130000D02*
X131460000Y-26130000D01*
X89050000Y-33830000D02*
X90880000Y-32000000D01*
X90880000Y-32000000D02*
X107560000Y-32000000D01*
X89050000Y-44580000D02*
X89050000Y-33830000D01*
X153416000Y-42926000D02*
X148336000Y-37846000D01*
X116790000Y-39560000D02*
X109120000Y-47230000D01*
X107010000Y-47220000D02*
X105920000Y-48310000D01*
X116790000Y-36770000D02*
X116790000Y-39560000D01*
X119170000Y-34390000D02*
X116790000Y-36770000D01*
X105920000Y-48310000D02*
X105920000Y-50500000D01*
X107810000Y-47230000D02*
X107800000Y-47220000D01*
X140690000Y-33790000D02*
X140090000Y-34390000D01*
X140690000Y-32370000D02*
X140690000Y-33790000D01*
X107800000Y-47220000D02*
X107010000Y-47220000D01*
X109120000Y-47230000D02*
X107810000Y-47230000D01*
X140090000Y-34390000D02*
X119170000Y-34390000D01*
X118490000Y-41370000D02*
X118490000Y-37630000D01*
X108080000Y-51020000D02*
X108840000Y-51020000D01*
X108840000Y-51020000D02*
X118490000Y-41370000D01*
X119905000Y-36180000D02*
X142135000Y-36180000D01*
X118490000Y-37630000D02*
X119920000Y-36200000D01*
X143256000Y-35094000D02*
X143256000Y-32396000D01*
X143256000Y-32396000D02*
X143230000Y-32370000D01*
X142150000Y-36200000D02*
X143256000Y-35094000D01*
X109840000Y-48480000D02*
X117590000Y-40730000D01*
X117590000Y-40730000D02*
X117590000Y-37190000D01*
X145770000Y-31070000D02*
X145770000Y-32370000D01*
X141950000Y-31060000D02*
X142540000Y-30470000D01*
X145170000Y-30470000D02*
X145770000Y-31070000D01*
X141950000Y-34830000D02*
X141950000Y-31060000D01*
X119420000Y-35360000D02*
X141420000Y-35360000D01*
X141420000Y-35360000D02*
X141950000Y-34830000D01*
X108080000Y-48480000D02*
X109840000Y-48480000D01*
X117590000Y-37190000D02*
X119420000Y-35360000D01*
X142540000Y-30470000D02*
X145170000Y-30470000D01*
X81360000Y-38130000D02*
X81980000Y-37510000D01*
X82810000Y-48510000D02*
X72640000Y-48510000D01*
X85670000Y-37510000D02*
X86620000Y-38460000D01*
X81980000Y-37510000D02*
X85670000Y-37510000D01*
X86620000Y-38460000D02*
X86620000Y-44700000D01*
X81360000Y-39480000D02*
X81360000Y-38130000D01*
X86620000Y-44700000D02*
X82810000Y-48510000D01*
X114430000Y-76420000D02*
X108080000Y-76420000D01*
X116610000Y-65500000D02*
X116120000Y-65990000D01*
X150945000Y-70085000D02*
X150945000Y-71650000D01*
X116120000Y-65990000D02*
X116120000Y-74730000D01*
X145170000Y-69130000D02*
X149990000Y-69130000D01*
X116120000Y-74730000D02*
X114430000Y-76420000D01*
X139880000Y-57410000D02*
X140770000Y-58300000D01*
X149990000Y-69130000D02*
X150945000Y-70085000D01*
X140770000Y-64730000D02*
X145170000Y-69130000D01*
X140770000Y-58300000D02*
X140770000Y-64730000D01*
M02*
