G04 #@! TF.GenerationSoftware,KiCad,Pcbnew,(6.0.2)*
G04 #@! TF.CreationDate,2022-06-12T22:39:58-05:00*
G04 #@! TF.ProjectId,Apple2Card,4170706c-6532-4436-9172-642e6b696361,rev?*
G04 #@! TF.SameCoordinates,Original*
G04 #@! TF.FileFunction,Soldermask,Top*
G04 #@! TF.FilePolarity,Negative*
%FSLAX46Y46*%
G04 Gerber Fmt 4.6, Leading zero omitted, Abs format (unit mm)*
G04 Created by KiCad (PCBNEW (6.0.2)) date 2022-06-12 22:39:58*
%MOMM*%
%LPD*%
G01*
G04 APERTURE LIST*
%ADD10C,1.600000*%
%ADD11O,1.600000X1.600000*%
%ADD12R,1.600000X1.600000*%
%ADD13R,2.200000X1.200000*%
%ADD14C,1.000000*%
%ADD15R,1.400000X1.600000*%
%ADD16R,1.600000X0.700000*%
%ADD17R,1.400000X1.200000*%
%ADD18R,1.700000X1.700000*%
%ADD19O,1.700000X1.700000*%
%ADD20R,1.900000X8.530000*%
%ADD21R,1.270000X8.530000*%
%ADD22R,1.910000X8.530000*%
%ADD23C,1.500000*%
%ADD24C,2.000000*%
%ADD25R,1.800000X1.800000*%
%ADD26C,1.800000*%
G04 APERTURE END LIST*
D10*
X82310000Y-59830000D03*
X82310000Y-54830000D03*
X61468000Y-36830000D03*
D11*
X61468000Y-29210000D03*
D12*
X100190000Y-92370000D03*
D11*
X92570000Y-92370000D03*
D10*
X52525000Y-90000000D03*
D11*
X60145000Y-90000000D03*
D10*
X52415000Y-86850000D03*
D11*
X60035000Y-86850000D03*
D12*
X41790000Y-84750000D03*
D11*
X41790000Y-92370000D03*
D10*
X140120000Y-42940000D03*
X140120000Y-37940000D03*
D13*
X35620000Y-66160000D03*
D14*
X35220000Y-68960000D03*
D15*
X45120000Y-80760000D03*
D14*
X35220000Y-76960000D03*
D16*
X45720000Y-76160000D03*
X45720000Y-75060000D03*
X45720000Y-73960000D03*
X45720000Y-72860000D03*
X45720000Y-71760000D03*
X45720000Y-70660000D03*
X45720000Y-69560000D03*
X45720000Y-68460000D03*
X45720000Y-67360000D03*
D17*
X45120000Y-66160000D03*
D13*
X35520000Y-81660000D03*
D12*
X75692000Y-67564000D03*
D11*
X83312000Y-67564000D03*
D10*
X143480000Y-62580000D03*
X143480000Y-57580000D03*
D18*
X53470000Y-59480000D03*
D19*
X53470000Y-62020000D03*
D10*
X77340000Y-70610000D03*
X82340000Y-70610000D03*
X40894000Y-37300000D03*
X40894000Y-32300000D03*
D18*
X161080000Y-47190000D03*
D19*
X158540000Y-47190000D03*
D10*
X145920000Y-54080000D03*
D11*
X153540000Y-54080000D03*
D20*
X120396000Y-99060000D03*
D21*
X123190000Y-99060000D03*
X125730000Y-99060000D03*
X128270000Y-99060000D03*
X130810000Y-99060000D03*
X133350000Y-99060000D03*
X135890000Y-99060000D03*
X138430000Y-99060000D03*
X140970000Y-99060000D03*
X143510000Y-99060000D03*
X146050000Y-99060000D03*
X148590000Y-99060000D03*
X151130000Y-99060000D03*
X153670000Y-99060000D03*
X156210000Y-99060000D03*
X158750000Y-99060000D03*
X161290000Y-99060000D03*
X163830000Y-99060000D03*
X166370000Y-99060000D03*
X168910000Y-99060000D03*
X171450000Y-99060000D03*
X173990000Y-99060000D03*
X176530000Y-99060000D03*
X179070000Y-99060000D03*
D22*
X181864000Y-99060000D03*
D10*
X45212000Y-62484000D03*
D11*
X37592000Y-62484000D03*
D12*
X46736000Y-29560000D03*
D11*
X46736000Y-37180000D03*
D12*
X72640000Y-81530000D03*
D11*
X72640000Y-78990000D03*
X72640000Y-76450000D03*
X72640000Y-73910000D03*
X72640000Y-71370000D03*
X72640000Y-68830000D03*
X72640000Y-66290000D03*
X72640000Y-63750000D03*
X72640000Y-61210000D03*
X72640000Y-58670000D03*
X72640000Y-56130000D03*
X72640000Y-53590000D03*
X72640000Y-51050000D03*
X72640000Y-48510000D03*
X65020000Y-48510000D03*
X65020000Y-51050000D03*
X65020000Y-53590000D03*
X65020000Y-56130000D03*
X65020000Y-58670000D03*
X65020000Y-61210000D03*
X65020000Y-63750000D03*
X65020000Y-66290000D03*
X65020000Y-68830000D03*
X65020000Y-71370000D03*
X65020000Y-73910000D03*
X65020000Y-76450000D03*
X65020000Y-78990000D03*
X65020000Y-81530000D03*
D23*
X77960000Y-52720000D03*
X77960000Y-57600000D03*
D18*
X56300000Y-67640000D03*
D19*
X58840000Y-67640000D03*
X56300000Y-70180000D03*
X58840000Y-70180000D03*
X56300000Y-72720000D03*
X58840000Y-72720000D03*
X56300000Y-75260000D03*
X58840000Y-75260000D03*
X56300000Y-77800000D03*
X58840000Y-77800000D03*
D18*
X120396000Y-86614000D03*
D19*
X122936000Y-86614000D03*
X125476000Y-86614000D03*
X128016000Y-86614000D03*
X130556000Y-86614000D03*
X133096000Y-86614000D03*
X135636000Y-86614000D03*
X138176000Y-86614000D03*
X140716000Y-86614000D03*
X143256000Y-86614000D03*
X145796000Y-86614000D03*
X148336000Y-86614000D03*
X150876000Y-86614000D03*
X153416000Y-86614000D03*
X155956000Y-86614000D03*
X158496000Y-86614000D03*
X161036000Y-86614000D03*
X163576000Y-86614000D03*
X166116000Y-86614000D03*
X168656000Y-86614000D03*
X171196000Y-86614000D03*
X173736000Y-86614000D03*
X176276000Y-86614000D03*
X178816000Y-86614000D03*
X181356000Y-86614000D03*
D18*
X119130000Y-78510000D03*
D19*
X121670000Y-78510000D03*
X124210000Y-78510000D03*
X126750000Y-78510000D03*
X129290000Y-78510000D03*
X131830000Y-78510000D03*
X134370000Y-78510000D03*
X136910000Y-78510000D03*
X139450000Y-78510000D03*
X141990000Y-78510000D03*
X144530000Y-78510000D03*
X147070000Y-78510000D03*
X149610000Y-78510000D03*
X152150000Y-78510000D03*
X154690000Y-78510000D03*
X157230000Y-78510000D03*
X159770000Y-78510000D03*
X162310000Y-78510000D03*
X164850000Y-78510000D03*
X167390000Y-78510000D03*
X169930000Y-78510000D03*
X172470000Y-78510000D03*
X175010000Y-78510000D03*
X177550000Y-78510000D03*
X180090000Y-78510000D03*
D10*
X51308000Y-36830000D03*
D11*
X51308000Y-29210000D03*
D10*
X145940000Y-50970000D03*
D11*
X153560000Y-50970000D03*
D12*
X147066000Y-69342000D03*
D11*
X149606000Y-69342000D03*
X152146000Y-69342000D03*
X154686000Y-69342000D03*
X157226000Y-69342000D03*
X159766000Y-69342000D03*
X162306000Y-69342000D03*
X162306000Y-61722000D03*
X159766000Y-61722000D03*
X157226000Y-61722000D03*
X154686000Y-61722000D03*
X152146000Y-61722000D03*
X149606000Y-61722000D03*
X147066000Y-61722000D03*
D13*
X35582000Y-41018000D03*
D15*
X45082000Y-55618000D03*
D14*
X35182000Y-43818000D03*
X35182000Y-51818000D03*
D16*
X45682000Y-51018000D03*
X45682000Y-49918000D03*
X45682000Y-48818000D03*
X45682000Y-47718000D03*
X45682000Y-46618000D03*
X45682000Y-45518000D03*
X45682000Y-44418000D03*
X45682000Y-43318000D03*
X45682000Y-42218000D03*
D17*
X45082000Y-41018000D03*
D13*
X35482000Y-56518000D03*
D10*
X64000000Y-92000000D03*
D11*
X71620000Y-92000000D03*
D12*
X108080000Y-86580000D03*
D11*
X108080000Y-84040000D03*
X108080000Y-81500000D03*
X108080000Y-78960000D03*
X108080000Y-76420000D03*
X108080000Y-73880000D03*
X108080000Y-71340000D03*
X108080000Y-68800000D03*
X108080000Y-66260000D03*
X108080000Y-63720000D03*
X108080000Y-61180000D03*
X108080000Y-58640000D03*
X108080000Y-56100000D03*
X108080000Y-53560000D03*
X108080000Y-51020000D03*
X108080000Y-48480000D03*
X108080000Y-45940000D03*
X108080000Y-43400000D03*
X108080000Y-40860000D03*
X108080000Y-38320000D03*
X92840000Y-38320000D03*
X92840000Y-40860000D03*
X92840000Y-43400000D03*
X92840000Y-45940000D03*
X92840000Y-48480000D03*
X92840000Y-51020000D03*
X92840000Y-53560000D03*
X92840000Y-56100000D03*
X92840000Y-58640000D03*
X92840000Y-61180000D03*
X92840000Y-63720000D03*
X92840000Y-66260000D03*
X92840000Y-68800000D03*
X92840000Y-71340000D03*
X92840000Y-73880000D03*
X92840000Y-76420000D03*
X92840000Y-78960000D03*
X92840000Y-81500000D03*
X92840000Y-84040000D03*
X92840000Y-86580000D03*
D10*
X37592000Y-29718000D03*
D11*
X37592000Y-37338000D03*
D10*
X38880000Y-84740000D03*
X38880000Y-89740000D03*
D12*
X74460000Y-91880000D03*
D11*
X74460000Y-84260000D03*
D12*
X170429000Y-69586000D03*
D11*
X172969000Y-69586000D03*
X175509000Y-69586000D03*
X178049000Y-69586000D03*
X180589000Y-69586000D03*
X183129000Y-69586000D03*
X185669000Y-69586000D03*
X185669000Y-61966000D03*
X183129000Y-61966000D03*
X180589000Y-61966000D03*
X178049000Y-61966000D03*
X175509000Y-61966000D03*
X172969000Y-61966000D03*
X170429000Y-61966000D03*
D10*
X145990000Y-47780000D03*
D11*
X153610000Y-47780000D03*
D18*
X81280000Y-64262000D03*
D19*
X78740000Y-64262000D03*
D18*
X161085000Y-51100000D03*
D19*
X158545000Y-51100000D03*
D10*
X50050000Y-63450000D03*
D11*
X50050000Y-55830000D03*
D10*
X66600000Y-88900000D03*
X71600000Y-88900000D03*
X82340000Y-52550000D03*
X82340000Y-47550000D03*
X144272000Y-42164000D03*
D11*
X151892000Y-42164000D03*
D24*
X77320000Y-84880000D03*
X77320000Y-91380000D03*
X81820000Y-91380000D03*
X81820000Y-84880000D03*
D10*
X64910000Y-43434000D03*
D11*
X64910000Y-35814000D03*
D12*
X121235000Y-38515000D03*
D11*
X121235000Y-41055000D03*
X121235000Y-43595000D03*
X121235000Y-46135000D03*
X121235000Y-48675000D03*
X121235000Y-51215000D03*
X121235000Y-53755000D03*
X121235000Y-56295000D03*
X121235000Y-58835000D03*
X121235000Y-61375000D03*
X121235000Y-63915000D03*
X121235000Y-66455000D03*
X121235000Y-68995000D03*
X121235000Y-71535000D03*
X136475000Y-71535000D03*
X136475000Y-68995000D03*
X136475000Y-66455000D03*
X136475000Y-63915000D03*
X136475000Y-61375000D03*
X136475000Y-58835000D03*
X136475000Y-56295000D03*
X136475000Y-53755000D03*
X136475000Y-51215000D03*
X136475000Y-48675000D03*
X136475000Y-46135000D03*
X136475000Y-43595000D03*
X136475000Y-41055000D03*
X136475000Y-38515000D03*
D12*
X44380000Y-92370000D03*
D11*
X44380000Y-84750000D03*
D10*
X60420000Y-55680000D03*
D11*
X52800000Y-55680000D03*
D25*
X156960000Y-40020000D03*
D26*
X156960000Y-42560000D03*
D10*
X45212000Y-59182000D03*
D11*
X37592000Y-59182000D03*
D10*
X54864000Y-29210000D03*
D11*
X54864000Y-36830000D03*
D18*
X161080000Y-54870000D03*
D19*
X158540000Y-54870000D03*
D18*
X117830000Y-32370000D03*
D19*
X120370000Y-32370000D03*
X122910000Y-32370000D03*
X125450000Y-32370000D03*
X127990000Y-32370000D03*
X130530000Y-32370000D03*
X133070000Y-32370000D03*
X135610000Y-32370000D03*
X138150000Y-32370000D03*
X140690000Y-32370000D03*
X143230000Y-32370000D03*
X145770000Y-32370000D03*
X148310000Y-32370000D03*
X150850000Y-32370000D03*
X153390000Y-32370000D03*
X155930000Y-32370000D03*
D18*
X57605000Y-46895000D03*
D19*
X55065000Y-46895000D03*
X57605000Y-44355000D03*
X55065000Y-44355000D03*
X57605000Y-41815000D03*
X55065000Y-41815000D03*
D10*
X166920000Y-62150000D03*
X166920000Y-57150000D03*
X35750000Y-92380000D03*
D11*
X35750000Y-84760000D03*
D18*
X83900000Y-39480000D03*
D19*
X83900000Y-42020000D03*
X81360000Y-39480000D03*
X81360000Y-42020000D03*
X78820000Y-39480000D03*
X78820000Y-42020000D03*
X76280000Y-39480000D03*
X76280000Y-42020000D03*
X73740000Y-39480000D03*
X73740000Y-42020000D03*
D10*
X87730000Y-51700000D03*
X87730000Y-46700000D03*
D12*
X172620000Y-54190000D03*
D10*
X172620000Y-51690000D03*
X60420000Y-52570000D03*
D11*
X52800000Y-52570000D03*
D10*
X61730000Y-60520000D03*
X56730000Y-60520000D03*
D12*
X43942000Y-37200000D03*
D11*
X43942000Y-29580000D03*
M02*
