M48
; DRILL file {KiCad (6.0.2)} date Fri Jun  3 20:35:32 2022
; FORMAT={-:-/ absolute / inch / decimal}
; #@! TF.CreationDate,2022-06-03T20:35:32-05:00
; #@! TF.GenerationSoftware,Kicad,Pcbnew,(6.0.2)
; #@! TF.FileFunction,Plated,1,2,PTH
FMAT,2
INCH
; #@! TA.AperFunction,Plated,PTH,ViaDrill
T1C0.0157
; #@! TA.AperFunction,Plated,PTH,ComponentDrill
T2C0.0315
; #@! TA.AperFunction,Plated,PTH,ComponentDrill
T3C0.0354
; #@! TA.AperFunction,Plated,PTH,ComponentDrill
T4C0.0394
; #@! TA.AperFunction,Plated,PTH,ComponentDrill
T5C0.0433
%
G90
G05
T1
X1.6Y-2.87
X1.61Y-1.87
X1.66Y-1.92
X1.68Y-2.92
X1.71Y-2.82
X1.73Y-1.84
X1.74Y-2.96
X1.8677Y-1.7551
X1.87Y-2.74
X1.8982Y-2.4341
X1.9079Y-2.0681
X2.4071Y-1.5772
X2.6661Y-1.9445
X2.6961Y-3.2043
X2.7248Y-2.4551
X4.1701Y-1.9882
X4.3396Y-3.1063
X4.3573Y-3.1575
X4.4193Y-3.2805
X4.5315Y-2.7205
X4.5555Y-3.1874
X4.563Y-2.6407
X4.5854Y-3.1429
X4.5935Y-3.4104
X4.6339Y-3.3425
X4.6644Y-2.56
X4.7862Y-2.8878
X4.8354Y-2.9244
X4.848Y-2.7953
X5.0327Y-2.6358
X5.1079Y-2.5803
X5.1961Y-2.5268
X5.2547Y-2.3764
X5.5071Y-2.2602
X5.5862Y-2.8925
X5.6299Y-3.3339
X6.5252Y-1.8634
X6.6398Y-3.1929
X6.7413Y-3.2461
T2
X1.4075Y-3.337
X1.4075Y-3.637
X1.48Y-1.17
X1.48Y-1.47
X1.48Y-2.33
X1.48Y-2.46
X1.5307Y-3.3362
X1.5307Y-3.5331
X1.61Y-1.2717
X1.61Y-1.4685
X1.6453Y-3.3366
X1.6453Y-3.6366
X1.73Y-1.1646
X1.73Y-1.4646
X1.7472Y-3.3366
X1.7472Y-3.6366
X1.78Y-2.33
X1.78Y-2.46
X1.84Y-1.1638
X1.84Y-1.4638
X1.9705Y-2.198
X1.9705Y-2.498
X1.9917Y-2.6634
X1.9917Y-2.9634
X2.02Y-1.15
X2.02Y-1.45
X2.0579Y-3.298
X2.0636Y-3.4193
X2.0679Y-3.5433
X2.0787Y-2.0697
X2.0787Y-2.1921
X2.16Y-1.15
X2.16Y-1.45
X2.2335Y-2.3827
X2.3579Y-3.298
X2.3636Y-3.4193
X2.3679Y-3.5433
X2.3787Y-2.0697
X2.3787Y-2.1921
X2.42Y-1.15
X2.42Y-1.45
X2.4303Y-2.3827
X2.5197Y-3.622
X2.5555Y-1.41
X2.5555Y-1.71
X2.5598Y-1.9098
X2.5598Y-2.0098
X2.5598Y-2.1098
X2.5598Y-2.2098
X2.5598Y-2.3098
X2.5598Y-2.4098
X2.5598Y-2.5098
X2.5598Y-2.6098
X2.5598Y-2.7098
X2.5598Y-2.8098
X2.5598Y-2.9098
X2.5598Y-3.0098
X2.5598Y-3.1098
X2.5598Y-3.2098
X2.622Y-3.5
X2.8189Y-3.5
X2.8197Y-3.622
X2.8598Y-1.9098
X2.8598Y-2.0098
X2.8598Y-2.1098
X2.8598Y-2.2098
X2.8598Y-2.3098
X2.8598Y-2.4098
X2.8598Y-2.5098
X2.8598Y-2.6098
X2.8598Y-2.7098
X2.8598Y-2.8098
X2.8598Y-2.9098
X2.8598Y-3.0098
X2.8598Y-3.1098
X2.8598Y-3.2098
X2.9315Y-3.3173
X2.9315Y-3.6173
X2.98Y-2.66
X3.0116Y-2.78
X3.0693Y-2.0756
X3.0693Y-2.2677
X3.2084Y-2.78
X3.2406Y-2.1587
X3.2406Y-2.3555
X3.2417Y-1.872
X3.2417Y-2.0689
X3.28Y-2.66
X3.4539Y-1.8386
X3.4539Y-2.0354
X3.6445Y-3.6366
X3.6551Y-1.5087
X3.6551Y-1.6087
X3.6551Y-1.7087
X3.6551Y-1.8087
X3.6551Y-1.9087
X3.6551Y-2.0087
X3.6551Y-2.1087
X3.6551Y-2.2087
X3.6551Y-2.3087
X3.6551Y-2.4087
X3.6551Y-2.5087
X3.6551Y-2.6087
X3.6551Y-2.7087
X3.6551Y-2.8087
X3.6551Y-2.9087
X3.6551Y-3.0087
X3.6551Y-3.1087
X3.6551Y-3.2087
X3.6551Y-3.3087
X3.6551Y-3.4087
X3.9445Y-3.6366
X4.2551Y-1.5087
X4.2551Y-1.6087
X4.2551Y-1.7087
X4.2551Y-1.8087
X4.2551Y-1.9087
X4.2551Y-2.0087
X4.2551Y-2.1087
X4.2551Y-2.2087
X4.2551Y-2.3087
X4.2551Y-2.4087
X4.2551Y-2.5087
X4.2551Y-2.6087
X4.2551Y-2.7087
X4.2551Y-2.8087
X4.2551Y-2.9087
X4.2551Y-3.0087
X4.2551Y-3.1087
X4.2551Y-3.2087
X4.2551Y-3.3087
X4.2551Y-3.4087
X4.773Y-1.5163
X4.773Y-1.6163
X4.773Y-1.7163
X4.773Y-1.8163
X4.773Y-1.9163
X4.773Y-2.0163
X4.773Y-2.1163
X4.773Y-2.2163
X4.773Y-2.3163
X4.773Y-2.4163
X4.773Y-2.5163
X4.773Y-2.6163
X4.773Y-2.7163
X4.773Y-2.8163
X5.373Y-1.5163
X5.373Y-1.6163
X5.373Y-1.7163
X5.373Y-1.8163
X5.373Y-1.9163
X5.373Y-2.0163
X5.373Y-2.1163
X5.373Y-2.2163
X5.373Y-2.3163
X5.373Y-2.4163
X5.373Y-2.5163
X5.373Y-2.6163
X5.373Y-2.7163
X5.373Y-2.8163
X5.5165Y-1.4937
X5.5165Y-1.6906
X5.6094Y-2.3205
X5.6094Y-2.5173
X5.74Y-1.69
X5.7425Y-2.4394
X5.7425Y-2.7394
X5.7449Y-2.1291
X5.7457Y-2.0067
X5.7476Y-1.8811
X5.8425Y-2.4394
X5.8425Y-2.7394
X5.9425Y-2.4394
X5.9425Y-2.7394
X6.04Y-1.69
X6.0425Y-2.4394
X6.0425Y-2.7394
X6.0449Y-2.1291
X6.0457Y-2.0067
X6.0476Y-1.8811
X6.1425Y-2.4394
X6.1425Y-2.7394
X6.2425Y-2.4394
X6.2425Y-2.7394
X6.3425Y-2.4394
X6.3425Y-2.7394
X6.7929Y-2.5014
X6.7929Y-2.5998
T3
X5.74Y-1.49
X5.84Y-1.49
T4
X2.1051Y-2.3417
X2.1051Y-2.4417
X2.1679Y-1.6463
X2.1679Y-1.7463
X2.1679Y-1.8463
X2.2165Y-2.663
X2.2165Y-2.763
X2.2165Y-2.863
X2.2165Y-2.963
X2.2165Y-3.063
X2.2679Y-1.6463
X2.2679Y-1.7463
X2.2679Y-1.8463
X2.3165Y-2.663
X2.3165Y-2.763
X2.3165Y-2.863
X2.3165Y-2.963
X2.3165Y-3.063
X2.9031Y-1.5543
X2.9031Y-1.6543
X3.0031Y-1.5543
X3.0031Y-1.6543
X3.1Y-2.53
X3.1031Y-1.5543
X3.1031Y-1.6543
X3.2Y-2.53
X3.2031Y-1.5543
X3.2031Y-1.6543
X3.3031Y-1.5543
X3.3031Y-1.6543
X4.639Y-1.2744
X4.6902Y-3.0909
X4.739Y-1.2744
X4.74Y-3.41
X4.7902Y-3.0909
X4.839Y-1.2744
X4.84Y-3.41
X4.8902Y-3.0909
X4.939Y-1.2744
X4.94Y-3.41
X4.9902Y-3.0909
X5.039Y-1.2744
X5.04Y-3.41
X5.0902Y-3.0909
X5.139Y-1.2744
X5.14Y-3.41
X5.1902Y-3.0909
X5.239Y-1.2744
X5.24Y-3.41
X5.2902Y-3.0909
X5.339Y-1.2744
X5.34Y-3.41
X5.3902Y-3.0909
X5.439Y-1.2744
X5.44Y-3.41
X5.4902Y-3.0909
X5.539Y-1.2744
X5.54Y-3.41
X5.5902Y-3.0909
X5.639Y-1.2744
X5.64Y-3.41
X5.6902Y-3.0909
X5.739Y-1.2744
X5.74Y-3.41
X5.7902Y-3.0909
X5.839Y-1.2744
X5.84Y-3.41
X5.8902Y-3.0909
X5.939Y-1.2744
X5.94Y-3.41
X5.9902Y-3.0909
X6.039Y-1.2744
X6.04Y-3.41
X6.0902Y-3.0909
X6.139Y-1.2744
X6.14Y-3.41
X6.1902Y-3.0909
X6.24Y-3.41
X6.2417Y-1.8579
X6.2417Y-2.1602
X6.2419Y-2.0118
X6.2902Y-3.0909
X6.34Y-3.41
X6.3417Y-1.8579
X6.3417Y-2.1602
X6.3419Y-2.0118
X6.3902Y-3.0909
X6.44Y-3.41
X6.4902Y-3.0909
X6.54Y-3.41
X6.5902Y-3.0909
X6.64Y-3.41
X6.6902Y-3.0909
X6.74Y-3.41
X6.7902Y-3.0909
X6.84Y-3.41
X6.8902Y-3.0909
X6.94Y-3.41
X6.9902Y-3.0909
X7.04Y-3.41
X7.0902Y-3.0909
X7.14Y-3.41
T5
X3.0441Y-3.3417
X3.0441Y-3.5976
X3.2213Y-3.3417
X3.2213Y-3.5976
T0
M30
