G04 #@! TF.GenerationSoftware,KiCad,Pcbnew,(6.0.2)*
G04 #@! TF.CreationDate,2022-06-03T20:35:30-05:00*
G04 #@! TF.ProjectId,Apple2Card,4170706c-6532-4436-9172-642e6b696361,rev?*
G04 #@! TF.SameCoordinates,Original*
G04 #@! TF.FileFunction,Copper,L2,Bot*
G04 #@! TF.FilePolarity,Positive*
%FSLAX46Y46*%
G04 Gerber Fmt 4.6, Leading zero omitted, Abs format (unit mm)*
G04 Created by KiCad (PCBNEW (6.0.2)) date 2022-06-03 20:35:30*
%MOMM*%
%LPD*%
G01*
G04 APERTURE LIST*
G04 #@! TA.AperFunction,ComponentPad*
%ADD10C,1.600000*%
G04 #@! TD*
G04 #@! TA.AperFunction,ComponentPad*
%ADD11O,1.600000X1.600000*%
G04 #@! TD*
G04 #@! TA.AperFunction,ComponentPad*
%ADD12R,1.600000X1.600000*%
G04 #@! TD*
G04 #@! TA.AperFunction,ComponentPad*
%ADD13R,1.700000X1.700000*%
G04 #@! TD*
G04 #@! TA.AperFunction,ComponentPad*
%ADD14O,1.700000X1.700000*%
G04 #@! TD*
G04 #@! TA.AperFunction,SMDPad,CuDef*
%ADD15R,1.910000X8.530000*%
G04 #@! TD*
G04 #@! TA.AperFunction,SMDPad,CuDef*
%ADD16R,1.270000X8.530000*%
G04 #@! TD*
G04 #@! TA.AperFunction,ComponentPad*
%ADD17C,1.500000*%
G04 #@! TD*
G04 #@! TA.AperFunction,ComponentPad*
%ADD18C,2.000000*%
G04 #@! TD*
G04 #@! TA.AperFunction,ComponentPad*
%ADD19R,1.800000X1.800000*%
G04 #@! TD*
G04 #@! TA.AperFunction,ComponentPad*
%ADD20C,1.800000*%
G04 #@! TD*
G04 #@! TA.AperFunction,ViaPad*
%ADD21C,0.800000*%
G04 #@! TD*
G04 #@! TA.AperFunction,Conductor*
%ADD22C,0.350000*%
G04 #@! TD*
G04 APERTURE END LIST*
D10*
X82310000Y-59830000D03*
X82310000Y-54830000D03*
X61468000Y-36830000D03*
D11*
X61468000Y-29210000D03*
D12*
X100190000Y-92370000D03*
D11*
X92570000Y-92370000D03*
D10*
X52525000Y-90000000D03*
D11*
X60145000Y-90000000D03*
D10*
X52415000Y-86850000D03*
D11*
X60035000Y-86850000D03*
D12*
X41790000Y-84750000D03*
D11*
X41790000Y-92370000D03*
D10*
X140120000Y-42940000D03*
X140120000Y-37940000D03*
D12*
X75692000Y-67564000D03*
D11*
X83312000Y-67564000D03*
D10*
X142480000Y-63940000D03*
X142480000Y-58940000D03*
D13*
X53470000Y-59480000D03*
D14*
X53470000Y-62020000D03*
D10*
X76494000Y-70612000D03*
X81494000Y-70612000D03*
X40894000Y-37300000D03*
X40894000Y-32300000D03*
D13*
X161080000Y-47190000D03*
D14*
X158540000Y-47190000D03*
D10*
X145920000Y-54080000D03*
D11*
X153540000Y-54080000D03*
D15*
X181864000Y-99060000D03*
D16*
X179070000Y-99060000D03*
X176530000Y-99060000D03*
X173990000Y-99060000D03*
X171450000Y-99060000D03*
X168910000Y-99060000D03*
X166370000Y-99060000D03*
X163830000Y-99060000D03*
X161290000Y-99060000D03*
X158750000Y-99060000D03*
X156210000Y-99060000D03*
X153670000Y-99060000D03*
X151130000Y-99060000D03*
X148590000Y-99060000D03*
X146050000Y-99060000D03*
X143510000Y-99060000D03*
X140970000Y-99060000D03*
X138430000Y-99060000D03*
X135890000Y-99060000D03*
X133350000Y-99060000D03*
X130810000Y-99060000D03*
X128270000Y-99060000D03*
X125730000Y-99060000D03*
X123190000Y-99060000D03*
D15*
X120396000Y-99060000D03*
D10*
X45212000Y-62484000D03*
D11*
X37592000Y-62484000D03*
D12*
X46736000Y-29560000D03*
D11*
X46736000Y-37180000D03*
D12*
X72640000Y-81530000D03*
D11*
X72640000Y-78990000D03*
X72640000Y-76450000D03*
X72640000Y-73910000D03*
X72640000Y-71370000D03*
X72640000Y-68830000D03*
X72640000Y-66290000D03*
X72640000Y-63750000D03*
X72640000Y-61210000D03*
X72640000Y-58670000D03*
X72640000Y-56130000D03*
X72640000Y-53590000D03*
X72640000Y-51050000D03*
X72640000Y-48510000D03*
X65020000Y-48510000D03*
X65020000Y-51050000D03*
X65020000Y-53590000D03*
X65020000Y-56130000D03*
X65020000Y-58670000D03*
X65020000Y-61210000D03*
X65020000Y-63750000D03*
X65020000Y-66290000D03*
X65020000Y-68830000D03*
X65020000Y-71370000D03*
X65020000Y-73910000D03*
X65020000Y-76450000D03*
X65020000Y-78990000D03*
X65020000Y-81530000D03*
D17*
X77960000Y-52720000D03*
X77960000Y-57600000D03*
D13*
X56300000Y-67640000D03*
D14*
X58840000Y-67640000D03*
X56300000Y-70180000D03*
X58840000Y-70180000D03*
X56300000Y-72720000D03*
X58840000Y-72720000D03*
X56300000Y-75260000D03*
X58840000Y-75260000D03*
X56300000Y-77800000D03*
X58840000Y-77800000D03*
D12*
X50590000Y-75270000D03*
D11*
X50590000Y-67650000D03*
D13*
X120396000Y-86614000D03*
D14*
X122936000Y-86614000D03*
X125476000Y-86614000D03*
X128016000Y-86614000D03*
X130556000Y-86614000D03*
X133096000Y-86614000D03*
X135636000Y-86614000D03*
X138176000Y-86614000D03*
X140716000Y-86614000D03*
X143256000Y-86614000D03*
X145796000Y-86614000D03*
X148336000Y-86614000D03*
X150876000Y-86614000D03*
X153416000Y-86614000D03*
X155956000Y-86614000D03*
X158496000Y-86614000D03*
X161036000Y-86614000D03*
X163576000Y-86614000D03*
X166116000Y-86614000D03*
X168656000Y-86614000D03*
X171196000Y-86614000D03*
X173736000Y-86614000D03*
X176276000Y-86614000D03*
X178816000Y-86614000D03*
X181356000Y-86614000D03*
D13*
X119130000Y-78510000D03*
D14*
X121670000Y-78510000D03*
X124210000Y-78510000D03*
X126750000Y-78510000D03*
X129290000Y-78510000D03*
X131830000Y-78510000D03*
X134370000Y-78510000D03*
X136910000Y-78510000D03*
X139450000Y-78510000D03*
X141990000Y-78510000D03*
X144530000Y-78510000D03*
X147070000Y-78510000D03*
X149610000Y-78510000D03*
X152150000Y-78510000D03*
X154690000Y-78510000D03*
X157230000Y-78510000D03*
X159770000Y-78510000D03*
X162310000Y-78510000D03*
X164850000Y-78510000D03*
X167390000Y-78510000D03*
X169930000Y-78510000D03*
X172470000Y-78510000D03*
X175010000Y-78510000D03*
X177550000Y-78510000D03*
X180090000Y-78510000D03*
D10*
X51308000Y-36830000D03*
D11*
X51308000Y-29210000D03*
D10*
X145940000Y-50970000D03*
D11*
X153560000Y-50970000D03*
D10*
X64000000Y-92000000D03*
D11*
X71620000Y-92000000D03*
D12*
X108080000Y-86580000D03*
D11*
X108080000Y-84040000D03*
X108080000Y-81500000D03*
X108080000Y-78960000D03*
X108080000Y-76420000D03*
X108080000Y-73880000D03*
X108080000Y-71340000D03*
X108080000Y-68800000D03*
X108080000Y-66260000D03*
X108080000Y-63720000D03*
X108080000Y-61180000D03*
X108080000Y-58640000D03*
X108080000Y-56100000D03*
X108080000Y-53560000D03*
X108080000Y-51020000D03*
X108080000Y-48480000D03*
X108080000Y-45940000D03*
X108080000Y-43400000D03*
X108080000Y-40860000D03*
X108080000Y-38320000D03*
X92840000Y-38320000D03*
X92840000Y-40860000D03*
X92840000Y-43400000D03*
X92840000Y-45940000D03*
X92840000Y-48480000D03*
X92840000Y-51020000D03*
X92840000Y-53560000D03*
X92840000Y-56100000D03*
X92840000Y-58640000D03*
X92840000Y-61180000D03*
X92840000Y-63720000D03*
X92840000Y-66260000D03*
X92840000Y-68800000D03*
X92840000Y-71340000D03*
X92840000Y-73880000D03*
X92840000Y-76420000D03*
X92840000Y-78960000D03*
X92840000Y-81500000D03*
X92840000Y-84040000D03*
X92840000Y-86580000D03*
D10*
X37592000Y-29718000D03*
D11*
X37592000Y-37338000D03*
D10*
X38880000Y-84740000D03*
X38880000Y-89740000D03*
D12*
X74460000Y-91880000D03*
D11*
X74460000Y-84260000D03*
X145860000Y-61960000D03*
X148400000Y-61960000D03*
X150940000Y-61960000D03*
X153480000Y-61960000D03*
X156020000Y-61960000D03*
X158560000Y-61960000D03*
X161100000Y-61960000D03*
X161100000Y-69580000D03*
X158560000Y-69580000D03*
X156020000Y-69580000D03*
X153480000Y-69580000D03*
X150940000Y-69580000D03*
X148400000Y-69580000D03*
D12*
X145860000Y-69580000D03*
D10*
X145990000Y-47780000D03*
D11*
X153610000Y-47780000D03*
D13*
X81280000Y-64262000D03*
D14*
X78740000Y-64262000D03*
D13*
X161085000Y-51100000D03*
D14*
X158545000Y-51100000D03*
D10*
X50050000Y-63450000D03*
D11*
X50050000Y-55830000D03*
D10*
X66600000Y-88900000D03*
X71600000Y-88900000D03*
X82340000Y-52550000D03*
X82340000Y-47550000D03*
X145796000Y-42926000D03*
D11*
X153416000Y-42926000D03*
D18*
X77320000Y-84880000D03*
X77320000Y-91380000D03*
X81820000Y-91380000D03*
X81820000Y-84880000D03*
D10*
X64910000Y-43434000D03*
D11*
X64910000Y-35814000D03*
D12*
X121235000Y-38515000D03*
D11*
X121235000Y-41055000D03*
X121235000Y-43595000D03*
X121235000Y-46135000D03*
X121235000Y-48675000D03*
X121235000Y-51215000D03*
X121235000Y-53755000D03*
X121235000Y-56295000D03*
X121235000Y-58835000D03*
X121235000Y-61375000D03*
X121235000Y-63915000D03*
X121235000Y-66455000D03*
X121235000Y-68995000D03*
X121235000Y-71535000D03*
X136475000Y-71535000D03*
X136475000Y-68995000D03*
X136475000Y-66455000D03*
X136475000Y-63915000D03*
X136475000Y-61375000D03*
X136475000Y-58835000D03*
X136475000Y-56295000D03*
X136475000Y-53755000D03*
X136475000Y-51215000D03*
X136475000Y-48675000D03*
X136475000Y-46135000D03*
X136475000Y-43595000D03*
X136475000Y-41055000D03*
X136475000Y-38515000D03*
D12*
X44380000Y-92370000D03*
D11*
X44380000Y-84750000D03*
D10*
X60420000Y-55680000D03*
D11*
X52800000Y-55680000D03*
D19*
X145796000Y-37846000D03*
D20*
X148336000Y-37846000D03*
D10*
X45212000Y-59182000D03*
D11*
X37592000Y-59182000D03*
D10*
X54864000Y-29210000D03*
D11*
X54864000Y-36830000D03*
D13*
X161080000Y-54870000D03*
D14*
X158540000Y-54870000D03*
D13*
X117830000Y-32370000D03*
D14*
X120370000Y-32370000D03*
X122910000Y-32370000D03*
X125450000Y-32370000D03*
X127990000Y-32370000D03*
X130530000Y-32370000D03*
X133070000Y-32370000D03*
X135610000Y-32370000D03*
X138150000Y-32370000D03*
X140690000Y-32370000D03*
X143230000Y-32370000D03*
X145770000Y-32370000D03*
X148310000Y-32370000D03*
X150850000Y-32370000D03*
X153390000Y-32370000D03*
X155930000Y-32370000D03*
D13*
X57605000Y-46895000D03*
D14*
X55065000Y-46895000D03*
X57605000Y-44355000D03*
X55065000Y-44355000D03*
X57605000Y-41815000D03*
X55065000Y-41815000D03*
D10*
X35750000Y-92380000D03*
D11*
X35750000Y-84760000D03*
D13*
X83900000Y-39480000D03*
D14*
X83900000Y-42020000D03*
X81360000Y-39480000D03*
X81360000Y-42020000D03*
X78820000Y-39480000D03*
X78820000Y-42020000D03*
X76280000Y-39480000D03*
X76280000Y-42020000D03*
X73740000Y-39480000D03*
X73740000Y-42020000D03*
D10*
X87730000Y-51700000D03*
X87730000Y-46700000D03*
X59890000Y-83770000D03*
D11*
X52270000Y-83770000D03*
D12*
X172540000Y-66035113D03*
D10*
X172540000Y-63535113D03*
X60420000Y-52570000D03*
D11*
X52800000Y-52570000D03*
D10*
X61730000Y-60520000D03*
X56730000Y-60520000D03*
D12*
X43942000Y-37200000D03*
D11*
X43942000Y-29580000D03*
D21*
X141890000Y-73470000D03*
X143000000Y-84680000D03*
X117700000Y-84900000D03*
X112250000Y-83325000D03*
X69210000Y-62360000D03*
X110225000Y-78900000D03*
X116470000Y-79830000D03*
X133470000Y-60360000D03*
X131980000Y-64180000D03*
X129740000Y-65540000D03*
X127830000Y-66950000D03*
X123140000Y-71000000D03*
X121570000Y-73350000D03*
X115100000Y-69100000D03*
X115900000Y-67075000D03*
X122820000Y-74280000D03*
X68480000Y-81390000D03*
X40640000Y-72898000D03*
X40894000Y-47498000D03*
X67720000Y-49390000D03*
X47498000Y-69596000D03*
X61140000Y-40060000D03*
X47440000Y-44580000D03*
X115710000Y-80960000D03*
X168650000Y-81100000D03*
X110675000Y-80200000D03*
X165740000Y-47330000D03*
X105920000Y-50500000D03*
X48460000Y-52530000D03*
X43434000Y-71628000D03*
X43942000Y-46736000D03*
X48214500Y-61825000D03*
X44196000Y-75184000D03*
X42164000Y-48768000D03*
X42672000Y-74168000D03*
X171230000Y-82450000D03*
X116675000Y-86625000D03*
X139880000Y-57410000D03*
X118475000Y-65025000D03*
D22*
X143000000Y-84680000D02*
X143270000Y-84410000D01*
X143270000Y-84410000D02*
X143270000Y-74850000D01*
X143270000Y-74850000D02*
X141890000Y-73470000D01*
X121660000Y-45710000D02*
X121235000Y-46135000D01*
X122030000Y-45710000D02*
X121660000Y-45710000D01*
X122040000Y-45700000D02*
X122030000Y-45710000D01*
X128020000Y-45700000D02*
X122040000Y-45700000D01*
X133540000Y-73480000D02*
X133540000Y-63275325D01*
X134490000Y-74430000D02*
X133540000Y-73480000D01*
X133540000Y-63275325D02*
X132520000Y-62255325D01*
X138176000Y-75096000D02*
X137510000Y-74430000D01*
X137510000Y-74430000D02*
X134490000Y-74430000D01*
X138176000Y-86614000D02*
X138176000Y-75096000D01*
X132520000Y-62255325D02*
X132520000Y-50200000D01*
X132520000Y-50200000D02*
X128020000Y-45700000D01*
X142570000Y-64030000D02*
X142480000Y-63940000D01*
X170905113Y-66035113D02*
X172540000Y-66035113D01*
X148680000Y-58510000D02*
X163380000Y-58510000D01*
X145860000Y-61330000D02*
X148680000Y-58510000D01*
X158565000Y-61965000D02*
X158560000Y-61960000D01*
X145860000Y-61960000D02*
X145860000Y-61330000D01*
X158565000Y-67595000D02*
X158565000Y-61965000D01*
X161570000Y-61960000D02*
X161100000Y-61960000D01*
X171210000Y-71600000D02*
X161570000Y-61960000D01*
X163380000Y-58510000D02*
X170905113Y-66035113D01*
X171210000Y-82430000D02*
X171210000Y-71600000D01*
X171230000Y-82450000D02*
X171210000Y-82430000D01*
X158565000Y-69575000D02*
X158565000Y-67595000D01*
X168910000Y-91186000D02*
X168910000Y-99060000D01*
X167380000Y-80520000D02*
X167380000Y-89656000D01*
X167400000Y-80500000D02*
X167380000Y-80520000D01*
X166100000Y-73930000D02*
X167400000Y-75230000D01*
X156480000Y-73930000D02*
X166100000Y-73930000D01*
X167380000Y-89656000D02*
X168910000Y-91186000D01*
X155930000Y-73380000D02*
X156480000Y-73930000D01*
X156020000Y-69580000D02*
X155930000Y-69670000D01*
X150945000Y-69575000D02*
X150940000Y-69580000D01*
X149610000Y-67290000D02*
X150945000Y-68625000D01*
X143330000Y-67290000D02*
X149610000Y-67290000D01*
X140770000Y-64730000D02*
X143330000Y-67290000D01*
X155930000Y-69670000D02*
X155930000Y-73380000D01*
X140770000Y-58300000D02*
X140770000Y-64730000D01*
X148400000Y-71645000D02*
X148400000Y-69580000D01*
X152255000Y-75500000D02*
X148400000Y-71645000D01*
X163090000Y-75500000D02*
X152255000Y-75500000D01*
X139880000Y-57410000D02*
X140770000Y-58300000D01*
X163576000Y-86614000D02*
X163576000Y-75986000D01*
X158560000Y-61960000D02*
X156020000Y-61960000D01*
X148400000Y-69580000D02*
X145860000Y-69580000D01*
X158560000Y-69580000D02*
X158565000Y-69575000D01*
X167400000Y-75230000D02*
X167400000Y-80500000D01*
X143790000Y-64030000D02*
X142570000Y-64030000D01*
X163576000Y-75986000D02*
X163090000Y-75500000D01*
X150945000Y-68625000D02*
X150945000Y-69575000D01*
X156020000Y-69580000D02*
X153480000Y-69580000D01*
X145860000Y-61960000D02*
X143790000Y-64030000D01*
X158750000Y-67780000D02*
X163930000Y-67780000D01*
X158750000Y-67780000D02*
X158565000Y-67595000D01*
X168650000Y-72500000D02*
X163930000Y-67780000D01*
X168650000Y-81100000D02*
X168650000Y-72500000D01*
X181864000Y-91186000D02*
X180090000Y-89412000D01*
X181864000Y-99060000D02*
X181864000Y-91186000D01*
X177540000Y-78520000D02*
X177550000Y-78510000D01*
X177540000Y-86560000D02*
X177540000Y-78520000D01*
X175010000Y-81390000D02*
X175010000Y-78510000D01*
X175006000Y-81394000D02*
X175010000Y-81390000D01*
X175006000Y-86494000D02*
X175006000Y-81394000D01*
X172470000Y-81095000D02*
X172470000Y-78510000D01*
X173990000Y-91694000D02*
X172480000Y-90184000D01*
X173990000Y-99060000D02*
X173990000Y-91694000D01*
X169940000Y-78520000D02*
X169930000Y-78510000D01*
X169940000Y-89422000D02*
X169940000Y-78520000D01*
X164850000Y-89666000D02*
X164850000Y-78510000D01*
X166370000Y-91186000D02*
X164850000Y-89666000D01*
X166370000Y-99060000D02*
X166370000Y-91186000D01*
X163830000Y-91440000D02*
X162310000Y-89920000D01*
X159760000Y-89656000D02*
X159760000Y-80710000D01*
X161290000Y-91186000D02*
X159760000Y-89656000D01*
X157230000Y-80990000D02*
X157230000Y-78510000D01*
X157210000Y-81010000D02*
X157230000Y-80990000D01*
X157210000Y-89138000D02*
X157210000Y-81010000D01*
X158750000Y-90678000D02*
X157210000Y-89138000D01*
X158750000Y-99060000D02*
X158750000Y-90678000D01*
X171450000Y-99060000D02*
X171450000Y-90932000D01*
X154700000Y-78520000D02*
X154690000Y-78510000D01*
X154700000Y-89676000D02*
X154700000Y-78520000D01*
X156210000Y-91186000D02*
X154700000Y-89676000D01*
X156210000Y-99060000D02*
X156210000Y-91186000D01*
X152160000Y-78520000D02*
X152150000Y-78510000D01*
X152160000Y-89676000D02*
X152160000Y-78520000D01*
X153670000Y-91186000D02*
X152160000Y-89676000D01*
X153670000Y-99060000D02*
X153670000Y-91186000D01*
X149610000Y-88650000D02*
X149610000Y-78510000D01*
X151130000Y-90170000D02*
X149610000Y-88650000D01*
X151130000Y-99060000D02*
X151130000Y-90170000D01*
X147070000Y-80910000D02*
X147070000Y-78510000D01*
X147080000Y-80920000D02*
X147070000Y-80910000D01*
X147080000Y-88914000D02*
X147080000Y-80920000D01*
X162310000Y-89920000D02*
X162310000Y-78510000D01*
X148590000Y-90424000D02*
X147080000Y-88914000D01*
X148590000Y-99060000D02*
X148590000Y-90424000D01*
X146050000Y-90932000D02*
X144520000Y-89402000D01*
X146050000Y-99060000D02*
X146050000Y-90932000D01*
X141990000Y-81020000D02*
X141990000Y-78510000D01*
X141980000Y-81030000D02*
X141990000Y-81020000D01*
X141980000Y-89402000D02*
X141980000Y-81030000D01*
X143510000Y-90932000D02*
X141980000Y-89402000D01*
X139420000Y-78540000D02*
X139450000Y-78510000D01*
X139420000Y-89636000D02*
X139420000Y-78540000D01*
X140970000Y-91186000D02*
X139420000Y-89636000D01*
X140970000Y-99060000D02*
X140970000Y-91186000D01*
X171450000Y-90932000D02*
X169940000Y-89422000D01*
X159760000Y-80710000D02*
X159770000Y-80700000D01*
X136910000Y-81260000D02*
X136910000Y-78510000D01*
X136920000Y-81270000D02*
X136910000Y-81260000D01*
X136920000Y-89422000D02*
X136920000Y-81270000D01*
X138430000Y-99060000D02*
X138430000Y-90932000D01*
X159770000Y-80700000D02*
X159770000Y-78510000D01*
X144520000Y-78520000D02*
X144530000Y-78510000D01*
X138430000Y-90932000D02*
X136920000Y-89422000D01*
X134370000Y-81050000D02*
X134370000Y-78510000D01*
X134380000Y-81060000D02*
X134370000Y-81050000D01*
X134380000Y-89422000D02*
X134380000Y-81060000D01*
X135890000Y-90932000D02*
X134380000Y-89422000D01*
X135890000Y-99060000D02*
X135890000Y-90932000D01*
X131830000Y-80510000D02*
X131830000Y-78510000D01*
X131820000Y-80520000D02*
X131830000Y-80510000D01*
X131820000Y-89402000D02*
X131820000Y-80520000D01*
X133350000Y-90932000D02*
X131820000Y-89402000D01*
X143510000Y-99060000D02*
X143510000Y-90932000D01*
X129280000Y-81620000D02*
X129290000Y-81610000D01*
X172480000Y-90184000D02*
X172480000Y-81105000D01*
X129280000Y-89656000D02*
X129280000Y-81620000D01*
X130810000Y-91186000D02*
X129280000Y-89656000D01*
X126760000Y-89676000D02*
X126760000Y-78520000D01*
X128270000Y-91186000D02*
X126760000Y-89676000D01*
X124210000Y-81590000D02*
X124210000Y-78510000D01*
X124190000Y-81610000D02*
X124210000Y-81590000D01*
X124190000Y-89900000D02*
X124190000Y-81610000D01*
X126760000Y-78520000D02*
X126750000Y-78510000D01*
X118872000Y-78768000D02*
X119130000Y-78510000D01*
X120396000Y-91440000D02*
X118872000Y-89916000D01*
X120396000Y-99060000D02*
X120396000Y-91440000D01*
X144520000Y-89402000D02*
X144520000Y-78520000D01*
X125730000Y-99060000D02*
X125730000Y-91440000D01*
X118872000Y-89916000D02*
X118872000Y-78768000D01*
X129290000Y-81610000D02*
X129290000Y-78510000D01*
X163830000Y-99060000D02*
X163830000Y-91440000D01*
X128270000Y-99060000D02*
X128270000Y-91186000D01*
X133350000Y-99060000D02*
X133350000Y-90932000D01*
X180090000Y-89412000D02*
X180090000Y-78510000D01*
X172480000Y-81105000D02*
X172470000Y-81095000D01*
X125730000Y-91440000D02*
X124190000Y-89900000D01*
X161290000Y-99060000D02*
X161290000Y-91186000D01*
X130810000Y-99060000D02*
X130810000Y-91186000D01*
X127445000Y-48675000D02*
X121235000Y-48675000D01*
X130850000Y-72240000D02*
X130850000Y-52080000D01*
X133860000Y-75250000D02*
X130850000Y-72240000D01*
X135636000Y-75536000D02*
X135350000Y-75250000D01*
X130850000Y-52080000D02*
X127445000Y-48675000D01*
X135636000Y-86614000D02*
X135636000Y-75536000D01*
X135350000Y-75250000D02*
X133860000Y-75250000D01*
X134390000Y-48160000D02*
X129825000Y-43595000D01*
X129825000Y-43595000D02*
X121235000Y-43595000D01*
X139310000Y-73580000D02*
X135370000Y-73580000D01*
X140716000Y-74986000D02*
X139310000Y-73580000D01*
X140716000Y-86614000D02*
X140716000Y-74986000D01*
X135370000Y-73580000D02*
X134390000Y-72600000D01*
X134390000Y-72600000D02*
X134390000Y-48160000D01*
X119000000Y-75200000D02*
X117825000Y-74025000D01*
X121010000Y-75200000D02*
X119000000Y-75200000D01*
X121670000Y-80510000D02*
X121680000Y-80500000D01*
X121680000Y-80500000D02*
X121680000Y-75870000D01*
X121680000Y-75870000D02*
X121010000Y-75200000D01*
X123190000Y-99060000D02*
X123190000Y-91440000D01*
X123190000Y-91440000D02*
X121670000Y-89920000D01*
X121670000Y-89920000D02*
X121670000Y-80510000D01*
X120905000Y-66455000D02*
X121235000Y-66455000D01*
X118575000Y-68785000D02*
X120905000Y-66455000D01*
X122780000Y-74240000D02*
X119315000Y-74240000D01*
X118575000Y-73500000D02*
X118575000Y-68785000D01*
X122820000Y-74280000D02*
X122780000Y-74240000D01*
X119315000Y-74240000D02*
X118575000Y-73500000D01*
X120305000Y-68995000D02*
X121235000Y-68995000D01*
X119400000Y-69900000D02*
X120305000Y-68995000D01*
X119400000Y-72720000D02*
X119400000Y-69900000D01*
X120000000Y-73320000D02*
X119400000Y-72720000D01*
X121540000Y-73320000D02*
X120000000Y-73320000D01*
X121570000Y-73350000D02*
X121540000Y-73320000D01*
X123325000Y-61375000D02*
X121235000Y-61375000D01*
X124030000Y-75420000D02*
X124030000Y-62080000D01*
X122936000Y-86614000D02*
X122936000Y-76514000D01*
X119690000Y-59830000D02*
X121235000Y-61375000D01*
X122936000Y-76514000D02*
X124030000Y-75420000D01*
X124030000Y-62080000D02*
X123325000Y-61375000D01*
X110560000Y-66260000D02*
X116990000Y-59830000D01*
X116990000Y-59830000D02*
X119690000Y-59830000D01*
X108080000Y-66260000D02*
X110560000Y-66260000D01*
X116720000Y-58790000D02*
X121190000Y-58790000D01*
X124950000Y-72680000D02*
X124950000Y-59550000D01*
X124950000Y-59550000D02*
X124235000Y-58835000D01*
X125476000Y-86614000D02*
X125476000Y-73206000D01*
X108080000Y-68800000D02*
X108050000Y-68770000D01*
X106570000Y-65440000D02*
X107115489Y-64894511D01*
X121190000Y-58790000D02*
X121235000Y-58835000D01*
X107020000Y-68770000D02*
X106570000Y-68320000D01*
X108050000Y-68770000D02*
X107020000Y-68770000D01*
X110615489Y-64894511D02*
X116720000Y-58790000D01*
X107115489Y-64894511D02*
X110615489Y-64894511D01*
X124235000Y-58835000D02*
X121235000Y-58835000D01*
X106570000Y-68320000D02*
X106570000Y-65440000D01*
X125476000Y-73206000D02*
X124950000Y-72680000D01*
X128016000Y-74136000D02*
X125890000Y-72010000D01*
X125675000Y-56295000D02*
X121235000Y-56295000D01*
X125890000Y-72010000D02*
X125890000Y-56510000D01*
X125890000Y-56510000D02*
X125675000Y-56295000D01*
X128016000Y-86614000D02*
X128016000Y-74136000D01*
X130556000Y-86614000D02*
X130556000Y-74896000D01*
X130556000Y-74896000D02*
X126790000Y-71130000D01*
X126790000Y-71130000D02*
X126790000Y-55520000D01*
X126790000Y-55520000D02*
X125025000Y-53755000D01*
X125025000Y-53755000D02*
X121235000Y-53755000D01*
X133096000Y-86614000D02*
X133096000Y-75806000D01*
X126245000Y-51215000D02*
X121235000Y-51215000D01*
X128900000Y-53870000D02*
X126245000Y-51215000D01*
X128900000Y-71610000D02*
X128900000Y-53870000D01*
X133096000Y-75806000D02*
X128900000Y-71610000D01*
X116675000Y-84900000D02*
X115125000Y-83350000D01*
X115125000Y-83350000D02*
X112275000Y-83350000D01*
X112275000Y-83350000D02*
X112250000Y-83325000D01*
X117700000Y-84900000D02*
X116675000Y-84900000D01*
X175006000Y-86494000D02*
X175006000Y-89408000D01*
X176530000Y-90932000D02*
X176530000Y-99060000D01*
X176276000Y-86614000D02*
X175126000Y-86614000D01*
X175006000Y-89408000D02*
X176530000Y-90932000D01*
X175126000Y-86614000D02*
X175006000Y-86494000D01*
X177594000Y-86614000D02*
X178816000Y-86614000D01*
X177540000Y-89656000D02*
X179070000Y-91186000D01*
X179070000Y-91186000D02*
X179070000Y-99060000D01*
X177540000Y-86560000D02*
X177594000Y-86614000D01*
X177540000Y-86560000D02*
X177540000Y-89656000D01*
X182372000Y-86614000D02*
X183134000Y-85852000D01*
X90540000Y-51700000D02*
X91220000Y-51020000D01*
X37846000Y-41656000D02*
X37846000Y-54610000D01*
X135240000Y-42290000D02*
X136475000Y-41055000D01*
X65575000Y-93575000D02*
X72725000Y-93575000D01*
X49730000Y-69330000D02*
X47420000Y-71640000D01*
X35522000Y-87122000D02*
X42008000Y-87122000D01*
X81280000Y-64262000D02*
X81280000Y-65532000D01*
X153390000Y-32370000D02*
X153416000Y-32396000D01*
X87750000Y-38330000D02*
X87750000Y-44590000D01*
X80050000Y-37630000D02*
X81020000Y-36660000D01*
X72725000Y-93575000D02*
X74420000Y-91880000D01*
X64000000Y-92000000D02*
X65575000Y-93575000D01*
X156464000Y-43434000D02*
X155194000Y-44704000D01*
X87750000Y-44590000D02*
X89720000Y-46560000D01*
X38100000Y-77920000D02*
X34290000Y-81730000D01*
X156464000Y-37592000D02*
X156464000Y-43194000D01*
X37846000Y-54610000D02*
X39624000Y-56388000D01*
X156464000Y-43194000D02*
X156464000Y-43434000D01*
X38100000Y-65024000D02*
X38100000Y-77920000D01*
X140134000Y-42926000D02*
X140120000Y-42940000D01*
X47420000Y-83390000D02*
X45970000Y-84840000D01*
X91220000Y-51020000D02*
X92840000Y-51020000D01*
X39624000Y-63500000D02*
X38100000Y-65024000D01*
X145796000Y-42926000D02*
X140134000Y-42926000D01*
X39624000Y-56388000D02*
X39624000Y-63500000D01*
X74240000Y-43940000D02*
X79380000Y-43940000D01*
X159800000Y-45910000D02*
X159810000Y-45900000D01*
X136475000Y-38515000D02*
X136475000Y-41055000D01*
X181356000Y-86614000D02*
X182372000Y-86614000D01*
X157104000Y-43194000D02*
X156464000Y-43194000D01*
X81196000Y-36660000D02*
X86080000Y-36660000D01*
X73740000Y-43440000D02*
X74240000Y-43940000D01*
X79380000Y-43940000D02*
X80050000Y-43270000D01*
X54410000Y-65700000D02*
X52620000Y-67490000D01*
X52620000Y-67490000D02*
X52620000Y-68320000D01*
X138340000Y-41160000D02*
X136580000Y-41160000D01*
X86080000Y-36660000D02*
X87750000Y-38330000D01*
X46736000Y-34798000D02*
X46228000Y-34290000D01*
X48768000Y-35306000D02*
X48768000Y-29464000D01*
X81020000Y-36660000D02*
X81196000Y-36660000D01*
X44470000Y-84840000D02*
X44380000Y-84750000D01*
X75184000Y-27432000D02*
X81280000Y-33528000D01*
X159810000Y-45900000D02*
X157104000Y-43194000D01*
X89720000Y-46560000D02*
X89720000Y-51700000D01*
X35052000Y-36068000D02*
X35052000Y-38862000D01*
X46736000Y-37180000D02*
X46894000Y-37180000D01*
X34290000Y-85890000D02*
X35522000Y-87122000D01*
X183134000Y-85852000D02*
X183134000Y-75692000D01*
X34290000Y-81730000D02*
X34290000Y-85890000D01*
X155194000Y-44704000D02*
X147574000Y-44704000D01*
X64000000Y-92000000D02*
X62310000Y-92000000D01*
X47420000Y-71640000D02*
X47420000Y-83390000D01*
X173477113Y-66035113D02*
X183134000Y-75692000D01*
X46736000Y-37180000D02*
X46736000Y-34798000D01*
X104680000Y-51020000D02*
X105960000Y-52300000D01*
X46228000Y-34290000D02*
X36830000Y-34290000D01*
X50205000Y-93425000D02*
X44380000Y-87600000D01*
X109420000Y-52300000D02*
X119430000Y-42290000D01*
X105960000Y-52300000D02*
X109420000Y-52300000D01*
X159764511Y-53195489D02*
X159800000Y-53160000D01*
X58840000Y-66340000D02*
X58200000Y-65700000D01*
X159764511Y-58434511D02*
X159764511Y-53195489D01*
X74420000Y-91880000D02*
X74460000Y-91880000D01*
X50800000Y-27432000D02*
X75184000Y-27432000D01*
X35052000Y-38862000D02*
X37846000Y-41656000D01*
X60885000Y-93425000D02*
X50205000Y-93425000D01*
X48768000Y-29464000D02*
X50800000Y-27432000D01*
X80050000Y-43270000D02*
X80050000Y-37630000D01*
X42008000Y-87122000D02*
X44380000Y-84750000D01*
X52620000Y-68320000D02*
X51610000Y-69330000D01*
X81280000Y-33528000D02*
X81280000Y-36576000D01*
X136580000Y-41160000D02*
X136475000Y-41055000D01*
X147574000Y-44704000D02*
X145796000Y-42926000D01*
X173477113Y-66035113D02*
X172540000Y-66035113D01*
X73740000Y-42020000D02*
X73740000Y-43440000D01*
X153416000Y-32396000D02*
X153416000Y-34544000D01*
X81280000Y-65532000D02*
X83312000Y-67564000D01*
X58840000Y-67640000D02*
X58840000Y-66340000D01*
X58200000Y-65700000D02*
X54410000Y-65700000D01*
X81280000Y-36576000D02*
X81196000Y-36660000D01*
X62310000Y-92000000D02*
X60885000Y-93425000D01*
X153416000Y-34544000D02*
X156464000Y-37592000D01*
X44380000Y-87600000D02*
X44380000Y-84750000D01*
X140120000Y-42940000D02*
X138340000Y-41160000D01*
X46894000Y-37180000D02*
X48768000Y-35306000D01*
X45970000Y-84840000D02*
X44470000Y-84840000D01*
X51610000Y-69330000D02*
X49730000Y-69330000D01*
X36830000Y-34290000D02*
X35052000Y-36068000D01*
X87730000Y-51700000D02*
X90540000Y-51700000D01*
X159800000Y-53160000D02*
X159800000Y-45910000D01*
X92840000Y-51020000D02*
X104680000Y-51020000D01*
X119430000Y-42290000D02*
X135240000Y-42290000D01*
X65790000Y-66290000D02*
X69210000Y-62870000D01*
X69210000Y-62870000D02*
X69210000Y-62360000D01*
X65020000Y-66290000D02*
X65790000Y-66290000D01*
X115670000Y-78900000D02*
X110225000Y-78900000D01*
X116470000Y-79830000D02*
X116470000Y-79700000D01*
X116470000Y-79700000D02*
X115670000Y-78900000D01*
X133470000Y-60360000D02*
X133450000Y-60340000D01*
X100920000Y-53560000D02*
X92840000Y-53560000D01*
X119050000Y-44850000D02*
X109165489Y-54734511D01*
X133450000Y-60340000D02*
X133450000Y-48960000D01*
X133450000Y-48960000D02*
X129340000Y-44850000D01*
X102094511Y-54734511D02*
X100920000Y-53560000D01*
X129340000Y-44850000D02*
X119050000Y-44850000D01*
X109165489Y-54734511D02*
X102094511Y-54734511D01*
X109240000Y-57410000D02*
X94150000Y-57410000D01*
X128020000Y-47350000D02*
X119300000Y-47350000D01*
X94150000Y-57410000D02*
X92840000Y-56100000D01*
X131660000Y-63860000D02*
X131660000Y-50990000D01*
X131660000Y-50990000D02*
X128020000Y-47350000D01*
X131980000Y-64180000D02*
X131660000Y-63860000D01*
X119300000Y-47350000D02*
X109240000Y-57410000D01*
X108970000Y-59890000D02*
X106110000Y-59890000D01*
X129680000Y-52930000D02*
X126680000Y-49930000D01*
X118930000Y-49930000D02*
X108970000Y-59890000D01*
X129680000Y-65480000D02*
X129680000Y-52930000D01*
X126680000Y-49930000D02*
X118930000Y-49930000D01*
X106110000Y-59890000D02*
X104860000Y-58640000D01*
X129740000Y-65540000D02*
X129680000Y-65480000D01*
X104860000Y-58640000D02*
X92840000Y-58640000D01*
X125910000Y-52490000D02*
X118470000Y-52490000D01*
X108490000Y-62470000D02*
X105520000Y-62470000D01*
X104230000Y-61180000D02*
X92840000Y-61180000D01*
X127810000Y-54390000D02*
X125910000Y-52490000D01*
X118470000Y-52490000D02*
X108490000Y-62470000D01*
X105520000Y-62470000D02*
X104230000Y-61180000D01*
X127810000Y-66930000D02*
X127810000Y-54390000D01*
X127830000Y-66950000D02*
X127810000Y-66930000D01*
X108490000Y-70080000D02*
X99200000Y-70080000D01*
X123140000Y-71000000D02*
X123110000Y-70970000D01*
X122640000Y-62660000D02*
X115910000Y-62660000D01*
X115910000Y-62660000D02*
X108490000Y-70080000D01*
X123110000Y-70970000D02*
X123110000Y-63130000D01*
X99200000Y-70080000D02*
X92840000Y-63720000D01*
X123110000Y-63130000D02*
X122640000Y-62660000D01*
X115100000Y-69100000D02*
X114880000Y-69100000D01*
X111380000Y-72600000D02*
X99180000Y-72600000D01*
X114880000Y-69100000D02*
X111380000Y-72600000D01*
X99180000Y-72600000D02*
X92840000Y-66260000D01*
X115900000Y-67075000D02*
X116200000Y-67375000D01*
X99180000Y-75140000D02*
X92840000Y-68800000D01*
X113000000Y-75140000D02*
X99180000Y-75140000D01*
X116200000Y-71940000D02*
X113000000Y-75140000D01*
X116200000Y-67375000D02*
X116200000Y-71940000D01*
X115820000Y-77680000D02*
X99180000Y-77680000D01*
X121235000Y-64340000D02*
X117825000Y-67750000D01*
X99180000Y-77680000D02*
X92840000Y-71340000D01*
X121235000Y-63915000D02*
X121235000Y-64340000D01*
X117825000Y-67750000D02*
X117825000Y-75675000D01*
X117825000Y-75675000D02*
X115820000Y-77680000D01*
X64960000Y-63750000D02*
X61730000Y-60520000D01*
X65020000Y-63750000D02*
X64960000Y-63750000D01*
X72640000Y-61210000D02*
X73664000Y-61210000D01*
X77274000Y-57600000D02*
X77960000Y-57600000D01*
X73664000Y-61210000D02*
X77274000Y-57600000D01*
X77960000Y-57600000D02*
X80080000Y-57600000D01*
X80080000Y-57600000D02*
X82310000Y-59830000D01*
X73030000Y-58670000D02*
X77960000Y-53740000D01*
X82340000Y-52550000D02*
X78130000Y-52550000D01*
X78130000Y-52550000D02*
X77960000Y-52720000D01*
X77960000Y-53740000D02*
X77960000Y-52720000D01*
X72640000Y-58670000D02*
X73030000Y-58670000D01*
X56300000Y-70180000D02*
X50910000Y-70180000D01*
X51740000Y-92550000D02*
X60130000Y-92550000D01*
X60130000Y-92550000D02*
X63780000Y-88900000D01*
X50910000Y-70180000D02*
X48260000Y-72830000D01*
X63780000Y-88900000D02*
X66600000Y-88900000D01*
X48260000Y-72830000D02*
X48260000Y-89070000D01*
X48260000Y-89070000D02*
X51740000Y-92550000D01*
X71600000Y-88900000D02*
X71600000Y-85880000D01*
X88750000Y-92710000D02*
X83760000Y-87720000D01*
X71600000Y-85880000D02*
X72530000Y-84950000D01*
X92230000Y-92710000D02*
X88750000Y-92710000D01*
X71600000Y-90940000D02*
X71600000Y-88900000D01*
X71620000Y-92000000D02*
X71620000Y-90960000D01*
X58245000Y-41815000D02*
X57605000Y-41815000D01*
X83760000Y-87720000D02*
X80160000Y-87720000D01*
X58360000Y-41700000D02*
X58245000Y-41815000D01*
X72530000Y-84950000D02*
X72530000Y-81640000D01*
X77320000Y-84880000D02*
X76140000Y-83700000D01*
X70110000Y-43150000D02*
X68660000Y-41700000D01*
X71620000Y-90960000D02*
X71600000Y-90940000D01*
X72840000Y-81530000D02*
X74460000Y-83150000D01*
X76140000Y-83700000D02*
X75020000Y-83700000D01*
X75020000Y-83700000D02*
X74460000Y-84260000D01*
X68660000Y-41700000D02*
X58360000Y-41700000D01*
X92570000Y-92370000D02*
X92230000Y-92710000D01*
X80160000Y-87720000D02*
X77320000Y-84880000D01*
X74460000Y-83150000D02*
X74460000Y-84260000D01*
X70110000Y-74840000D02*
X70110000Y-43150000D01*
X68480000Y-81390000D02*
X68410000Y-81320000D01*
X68410000Y-76540000D02*
X70110000Y-74840000D01*
X77320000Y-91380000D02*
X77320000Y-84880000D01*
X68410000Y-81320000D02*
X68410000Y-76540000D01*
X41790000Y-84750000D02*
X41704000Y-84836000D01*
X39878000Y-73660000D02*
X39878000Y-83742000D01*
X39878000Y-83742000D02*
X38880000Y-84740000D01*
X35826000Y-84836000D02*
X35750000Y-84760000D01*
X40640000Y-72898000D02*
X39878000Y-73660000D01*
X41134000Y-84836000D02*
X35826000Y-84836000D01*
X41704000Y-84836000D02*
X38494000Y-84836000D01*
X40894000Y-37300000D02*
X40892000Y-37298000D01*
X40932000Y-37338000D02*
X40894000Y-37300000D01*
X40132000Y-46736000D02*
X40132000Y-38062000D01*
X40894000Y-47498000D02*
X40132000Y-46736000D01*
X40132000Y-38062000D02*
X40894000Y-37300000D01*
X37632000Y-37298000D02*
X37592000Y-37338000D01*
X40892000Y-37298000D02*
X37632000Y-37298000D01*
X43942000Y-37200000D02*
X43804000Y-37338000D01*
X43804000Y-37338000D02*
X40932000Y-37338000D01*
X52270000Y-86705000D02*
X52415000Y-86850000D01*
X50590000Y-75270000D02*
X50590000Y-77380000D01*
X52270000Y-79200000D02*
X52270000Y-83770000D01*
X52340000Y-79130000D02*
X52270000Y-79200000D01*
X50590000Y-77380000D02*
X52340000Y-79130000D01*
X52270000Y-83770000D02*
X52270000Y-86705000D01*
X65020000Y-48510000D02*
X60960000Y-52570000D01*
X61120000Y-65020000D02*
X66000000Y-65020000D01*
X60200000Y-64100000D02*
X54140000Y-64100000D01*
X54140000Y-64100000D02*
X50590000Y-67650000D01*
X60960000Y-52570000D02*
X60420000Y-52570000D01*
X66000000Y-65020000D02*
X67720000Y-63300000D01*
X67720000Y-63300000D02*
X67720000Y-49390000D01*
X61120000Y-65020000D02*
X60200000Y-64100000D01*
X41876000Y-92456000D02*
X41790000Y-92370000D01*
X44380000Y-92370000D02*
X44294000Y-92456000D01*
X44294000Y-92456000D02*
X41876000Y-92456000D01*
X46736000Y-29560000D02*
X46578000Y-29718000D01*
X44080000Y-29718000D02*
X43942000Y-29580000D01*
X46578000Y-29718000D02*
X44080000Y-29718000D01*
X75080000Y-37570000D02*
X76280000Y-38770000D01*
X51210000Y-51420000D02*
X47440000Y-51420000D01*
X61140000Y-40060000D02*
X69380000Y-40060000D01*
X57605000Y-56843000D02*
X57605000Y-46895000D01*
X47440000Y-69538000D02*
X47440000Y-44580000D01*
X47498000Y-69596000D02*
X47440000Y-69538000D01*
X58932000Y-58170000D02*
X57605000Y-56843000D01*
X76280000Y-38770000D02*
X76280000Y-39480000D01*
X55900000Y-45630000D02*
X53590000Y-45630000D01*
X52690000Y-46530000D02*
X52690000Y-49940000D01*
X71870000Y-37570000D02*
X75080000Y-37570000D01*
X69380000Y-40060000D02*
X71870000Y-37570000D01*
X57165000Y-46895000D02*
X55900000Y-45630000D01*
X57605000Y-46895000D02*
X57165000Y-46895000D01*
X52690000Y-49940000D02*
X51210000Y-51420000D01*
X65020000Y-56130000D02*
X62980000Y-58170000D01*
X62980000Y-58170000D02*
X58932000Y-58170000D01*
X53590000Y-45630000D02*
X52690000Y-46530000D01*
X55120000Y-57830000D02*
X53470000Y-59480000D01*
X55065000Y-46895000D02*
X55120000Y-46950000D01*
X55120000Y-46950000D02*
X55120000Y-57830000D01*
X56330000Y-43080000D02*
X56330000Y-40800000D01*
X57605000Y-44355000D02*
X56330000Y-43080000D01*
X56330000Y-40800000D02*
X57080000Y-40050000D01*
X84530000Y-45570000D02*
X79090000Y-45570000D01*
X64910000Y-43434000D02*
X63896000Y-42420000D01*
X66124000Y-43434000D02*
X66548000Y-43858000D01*
X66548000Y-43858000D02*
X66548000Y-58042000D01*
X85640000Y-40690000D02*
X85640000Y-44460000D01*
X64910000Y-43434000D02*
X66124000Y-43434000D01*
X83900000Y-39480000D02*
X84430000Y-39480000D01*
X85640000Y-44460000D02*
X84530000Y-45570000D01*
X84430000Y-39480000D02*
X85640000Y-40690000D01*
X59470000Y-41050000D02*
X58470000Y-40050000D01*
X70770000Y-44400000D02*
X71960000Y-45590000D01*
X57080000Y-40050000D02*
X58470000Y-40050000D01*
X70770000Y-42130000D02*
X70770000Y-44400000D01*
X69690000Y-41050000D02*
X70770000Y-42130000D01*
X59540000Y-42420000D02*
X57605000Y-44355000D01*
X63896000Y-42420000D02*
X59540000Y-42420000D01*
X71960000Y-45590000D02*
X79070000Y-45590000D01*
X66548000Y-58042000D02*
X65920000Y-58670000D01*
X79090000Y-45570000D02*
X79070000Y-45590000D01*
X69690000Y-41050000D02*
X59470000Y-41050000D01*
X65920000Y-58670000D02*
X65020000Y-58670000D01*
X54864000Y-36830000D02*
X56040000Y-36830000D01*
X69440000Y-38210000D02*
X70960000Y-36690000D01*
X54864000Y-37986000D02*
X53180000Y-39670000D01*
X61300000Y-57590000D02*
X59622000Y-57590000D01*
X65020000Y-53590000D02*
X65020000Y-53870000D01*
X56040000Y-36830000D02*
X57420000Y-38210000D01*
X59320000Y-46240000D02*
X58659511Y-45579511D01*
X70960000Y-36690000D02*
X76840000Y-36690000D01*
X78820000Y-38670000D02*
X78820000Y-39480000D01*
X59622000Y-57590000D02*
X58700000Y-56668000D01*
X54840000Y-44580000D02*
X55065000Y-44355000D01*
X58700000Y-48790000D02*
X59320000Y-48170000D01*
X57019511Y-45579511D02*
X55795000Y-44355000D01*
X55795000Y-44355000D02*
X55065000Y-44355000D01*
X53180000Y-39670000D02*
X53180000Y-43560000D01*
X53180000Y-43560000D02*
X54200000Y-44580000D01*
X58700000Y-56668000D02*
X58700000Y-48790000D01*
X57420000Y-38210000D02*
X69440000Y-38210000D01*
X54864000Y-36830000D02*
X54864000Y-37986000D01*
X76840000Y-36690000D02*
X78820000Y-38670000D01*
X54200000Y-44580000D02*
X54840000Y-44580000D01*
X59320000Y-48170000D02*
X59320000Y-46240000D01*
X65020000Y-53870000D02*
X61300000Y-57590000D01*
X58659511Y-45579511D02*
X57019511Y-45579511D01*
X65020000Y-51050000D02*
X60420000Y-55650000D01*
X60420000Y-55650000D02*
X60420000Y-55680000D01*
X115710000Y-80960000D02*
X114950000Y-80200000D01*
X114950000Y-80200000D02*
X110675000Y-80200000D01*
X58840000Y-72720000D02*
X58930000Y-72720000D01*
X63460000Y-78990000D02*
X65020000Y-78990000D01*
X62740000Y-78270000D02*
X63460000Y-78990000D01*
X58930000Y-72720000D02*
X62740000Y-76530000D01*
X62740000Y-76530000D02*
X62740000Y-78270000D01*
X59620000Y-75260000D02*
X61660000Y-77300000D01*
X61660000Y-77300000D02*
X61660000Y-80120000D01*
X58840000Y-75260000D02*
X59620000Y-75260000D01*
X63070000Y-81530000D02*
X65020000Y-81530000D01*
X61660000Y-80120000D02*
X63070000Y-81530000D01*
X116790000Y-39560000D02*
X109120000Y-47230000D01*
X107010000Y-47220000D02*
X105920000Y-48310000D01*
X116790000Y-36770000D02*
X116790000Y-39560000D01*
X119170000Y-34390000D02*
X116790000Y-36770000D01*
X105920000Y-48310000D02*
X105920000Y-50500000D01*
X107810000Y-47230000D02*
X107800000Y-47220000D01*
X166680000Y-30310000D02*
X166680000Y-46390000D01*
X140690000Y-33790000D02*
X140090000Y-34390000D01*
X140690000Y-32370000D02*
X140690000Y-33790000D01*
X140690000Y-28740000D02*
X142240000Y-27190000D01*
X107800000Y-47220000D02*
X107010000Y-47220000D01*
X163560000Y-27190000D02*
X166680000Y-30310000D01*
X109120000Y-47230000D02*
X107810000Y-47230000D01*
X166680000Y-46390000D02*
X165740000Y-47330000D01*
X140690000Y-32370000D02*
X140690000Y-28740000D01*
X142240000Y-27190000D02*
X163560000Y-27190000D01*
X140090000Y-34390000D02*
X119170000Y-34390000D01*
X149560000Y-31690000D02*
X151260000Y-29990000D01*
X143256000Y-35094000D02*
X148116000Y-35094000D01*
X163650000Y-50350000D02*
X162520000Y-51480000D01*
X161465000Y-51480000D02*
X161085000Y-51100000D01*
X118490000Y-41370000D02*
X118490000Y-37630000D01*
X108080000Y-51020000D02*
X108840000Y-51020000D01*
X108840000Y-51020000D02*
X118490000Y-41370000D01*
X158870000Y-29990000D02*
X163650000Y-34770000D01*
X148116000Y-35094000D02*
X149560000Y-33650000D01*
X119905000Y-36180000D02*
X142135000Y-36180000D01*
X149560000Y-33650000D02*
X149560000Y-31690000D01*
X151260000Y-29990000D02*
X158870000Y-29990000D01*
X162520000Y-51480000D02*
X161465000Y-51480000D01*
X118490000Y-37630000D02*
X119920000Y-36200000D01*
X163650000Y-34770000D02*
X163650000Y-50350000D01*
X143256000Y-35094000D02*
X143256000Y-32396000D01*
X143256000Y-32396000D02*
X143230000Y-32370000D01*
X142150000Y-36200000D02*
X143256000Y-35094000D01*
X115700000Y-37790000D02*
X115700000Y-36680000D01*
X117856000Y-34524000D02*
X117856000Y-32396000D01*
X108080000Y-43400000D02*
X110090000Y-43400000D01*
X117856000Y-32396000D02*
X117830000Y-32370000D01*
X110090000Y-43400000D02*
X115700000Y-37790000D01*
X115700000Y-36680000D02*
X117856000Y-34524000D01*
X108080000Y-40860000D02*
X110430000Y-40860000D01*
X119460000Y-30730000D02*
X120370000Y-31640000D01*
X120370000Y-31640000D02*
X120370000Y-32370000D01*
X115100000Y-36190000D02*
X115100000Y-31740000D01*
X116110000Y-30730000D02*
X119460000Y-30730000D01*
X110430000Y-40860000D02*
X115100000Y-36190000D01*
X115100000Y-31740000D02*
X116110000Y-30730000D01*
X114160000Y-31410000D02*
X115570000Y-30000000D01*
X110650000Y-38320000D02*
X114160000Y-34810000D01*
X114160000Y-34810000D02*
X114160000Y-31410000D01*
X120620000Y-30000000D02*
X120940000Y-30320000D01*
X108080000Y-38320000D02*
X110650000Y-38320000D01*
X120940000Y-30400000D02*
X122910000Y-32370000D01*
X120940000Y-30320000D02*
X120940000Y-30400000D01*
X115570000Y-30000000D02*
X120620000Y-30000000D01*
X110510000Y-83130000D02*
X108880000Y-81500000D01*
X91056000Y-90040000D02*
X108790000Y-90040000D01*
X108880000Y-81500000D02*
X108080000Y-81500000D01*
X83066000Y-82050000D02*
X91056000Y-90040000D01*
X73656000Y-76450000D02*
X79256000Y-82050000D01*
X110510000Y-88320000D02*
X110510000Y-83130000D01*
X79256000Y-82050000D02*
X83066000Y-82050000D01*
X72640000Y-76450000D02*
X70880000Y-76450000D01*
X60935000Y-85950000D02*
X60035000Y-86850000D01*
X70090000Y-81910000D02*
X66050000Y-85950000D01*
X108790000Y-90040000D02*
X110510000Y-88320000D01*
X66050000Y-85950000D02*
X60935000Y-85950000D01*
X72640000Y-76450000D02*
X73656000Y-76450000D01*
X70880000Y-76450000D02*
X70090000Y-77240000D01*
X70090000Y-77240000D02*
X70090000Y-81910000D01*
X72650000Y-66300000D02*
X72640000Y-66290000D01*
X75692000Y-67310000D02*
X75692000Y-67564000D01*
X58674000Y-61776000D02*
X57960000Y-62490000D01*
X76494000Y-70612000D02*
X76494000Y-68366000D01*
X75692000Y-67564000D02*
X74428000Y-66300000D01*
X58674000Y-59646000D02*
X58674000Y-61776000D01*
X53940000Y-62490000D02*
X53470000Y-62020000D01*
X50050000Y-58774000D02*
X50050000Y-55830000D01*
X53296000Y-62020000D02*
X50050000Y-58774000D01*
X65020000Y-61210000D02*
X62870000Y-59060000D01*
X59260000Y-59060000D02*
X58674000Y-59646000D01*
X62870000Y-59060000D02*
X59260000Y-59060000D01*
X76494000Y-68366000D02*
X75692000Y-67564000D01*
X53470000Y-62020000D02*
X53296000Y-62020000D01*
X78740000Y-64262000D02*
X75692000Y-67310000D01*
X57960000Y-62490000D02*
X53940000Y-62490000D01*
X74428000Y-66300000D02*
X72650000Y-66300000D01*
X90262000Y-90770000D02*
X109360000Y-90770000D01*
X111380000Y-88750000D02*
X111380000Y-82260000D01*
X64175000Y-86975000D02*
X62585000Y-88565000D01*
X71030000Y-82420000D02*
X66475000Y-86975000D01*
X62585000Y-88565000D02*
X61580000Y-88565000D01*
X111380000Y-82260000D02*
X108080000Y-78960000D01*
X78432000Y-82750000D02*
X82242000Y-82750000D01*
X109360000Y-90770000D02*
X111380000Y-88750000D01*
X66475000Y-86975000D02*
X64175000Y-86975000D01*
X71030000Y-80600000D02*
X71030000Y-82420000D01*
X74672000Y-78990000D02*
X78432000Y-82750000D01*
X72640000Y-78990000D02*
X71030000Y-80600000D01*
X61580000Y-88565000D02*
X60145000Y-90000000D01*
X72640000Y-78990000D02*
X74672000Y-78990000D01*
X82242000Y-82750000D02*
X90262000Y-90770000D01*
X57570000Y-78920000D02*
X59890000Y-81240000D01*
X57570000Y-76530000D02*
X57570000Y-78920000D01*
X59890000Y-81240000D02*
X59890000Y-83770000D01*
X56300000Y-75260000D02*
X57570000Y-76530000D01*
X48500000Y-52570000D02*
X48460000Y-52530000D01*
X52800000Y-52570000D02*
X48500000Y-52570000D01*
X44958000Y-39624000D02*
X43180000Y-41402000D01*
X43180000Y-46736000D02*
X43942000Y-46736000D01*
X43180000Y-41402000D02*
X43180000Y-46736000D01*
X61468000Y-36830000D02*
X59690000Y-35052000D01*
X51916000Y-39624000D02*
X44958000Y-39624000D01*
X59690000Y-35052000D02*
X54102000Y-35052000D01*
X62484000Y-35814000D02*
X61468000Y-36830000D01*
X64910000Y-35814000D02*
X62484000Y-35814000D01*
X53090000Y-38450000D02*
X51916000Y-39624000D01*
X43180000Y-71374000D02*
X43434000Y-71628000D01*
X53090000Y-36064000D02*
X53090000Y-38450000D01*
X43180000Y-46736000D02*
X43180000Y-71374000D01*
X54102000Y-35052000D02*
X53090000Y-36064000D01*
X44704000Y-74676000D02*
X44196000Y-75184000D01*
X49125000Y-54100000D02*
X51220000Y-54100000D01*
X48214500Y-61825000D02*
X48250000Y-61789500D01*
X48250000Y-61789500D02*
X48250000Y-54975000D01*
X44196000Y-69850000D02*
X44704000Y-70358000D01*
X51220000Y-54100000D02*
X52800000Y-55680000D01*
X45212000Y-62484000D02*
X44196000Y-63500000D01*
X48250000Y-54975000D02*
X49125000Y-54100000D01*
X44704000Y-70358000D02*
X44704000Y-74676000D01*
X44196000Y-63500000D02*
X44196000Y-69850000D01*
X41910000Y-73406000D02*
X41910000Y-48768000D01*
X42672000Y-74168000D02*
X41910000Y-73406000D01*
X54864000Y-31496000D02*
X51308000Y-35052000D01*
X51308000Y-35052000D02*
X51308000Y-36830000D01*
X41910000Y-48768000D02*
X41910000Y-41148000D01*
X41910000Y-48768000D02*
X42164000Y-48768000D01*
X41910000Y-41148000D02*
X44196000Y-38862000D01*
X54864000Y-29210000D02*
X54864000Y-31496000D01*
X44196000Y-38862000D02*
X49276000Y-38862000D01*
X49276000Y-38862000D02*
X51308000Y-36830000D01*
X109840000Y-85800000D02*
X108080000Y-84040000D01*
X83511000Y-81225000D02*
X91556000Y-89270000D01*
X108240000Y-89270000D02*
X109840000Y-87670000D01*
X72640000Y-73910000D02*
X79955000Y-81225000D01*
X79955000Y-81225000D02*
X83511000Y-81225000D01*
X91556000Y-89270000D02*
X108240000Y-89270000D01*
X109840000Y-87670000D02*
X109840000Y-85800000D01*
X72795000Y-71370000D02*
X73814511Y-72389511D01*
X92056000Y-88500000D02*
X107040000Y-88500000D01*
X108080000Y-87460000D02*
X108080000Y-86580000D01*
X73814511Y-73264511D02*
X80975000Y-80425000D01*
X107040000Y-88500000D02*
X108080000Y-87460000D01*
X72640000Y-71370000D02*
X72795000Y-71370000D01*
X80975000Y-80425000D02*
X83981000Y-80425000D01*
X83981000Y-80425000D02*
X92056000Y-88500000D01*
X73814511Y-72389511D02*
X73814511Y-73264511D01*
X84300000Y-79550000D02*
X91330000Y-86580000D01*
X74150000Y-70650000D02*
X74150000Y-71625000D01*
X72640000Y-68830000D02*
X72640000Y-69140000D01*
X72640000Y-69140000D02*
X74150000Y-70650000D01*
X82075000Y-79550000D02*
X84300000Y-79550000D01*
X91330000Y-86580000D02*
X92840000Y-86580000D01*
X74150000Y-71625000D02*
X82075000Y-79550000D01*
X92650000Y-84040000D02*
X92840000Y-84040000D01*
X87884000Y-55880000D02*
X87884000Y-79274000D01*
X83194000Y-51190000D02*
X87884000Y-55880000D01*
X72640000Y-55860000D02*
X77310000Y-51190000D01*
X87884000Y-79274000D02*
X92650000Y-84040000D01*
X77310000Y-51190000D02*
X83194000Y-51190000D01*
X72640000Y-56130000D02*
X72640000Y-55860000D01*
X83430000Y-50350000D02*
X88900000Y-55820000D01*
X72640000Y-53590000D02*
X73020000Y-53590000D01*
X73020000Y-53590000D02*
X76260000Y-50350000D01*
X88900000Y-77560000D02*
X92840000Y-81500000D01*
X88900000Y-55820000D02*
X88900000Y-77560000D01*
X76260000Y-50350000D02*
X83430000Y-50350000D01*
X89916000Y-55880000D02*
X89916000Y-76962000D01*
X72640000Y-51050000D02*
X74130000Y-51050000D01*
X74130000Y-51050000D02*
X75580000Y-49600000D01*
X91914000Y-78960000D02*
X92840000Y-78960000D01*
X83890000Y-49600000D02*
X86106000Y-51816000D01*
X89916000Y-76962000D02*
X91914000Y-78960000D01*
X86106000Y-52070000D02*
X89916000Y-55880000D01*
X75580000Y-49600000D02*
X83890000Y-49600000D01*
X86106000Y-51816000D02*
X86106000Y-52070000D01*
X110080000Y-35740000D02*
X112980000Y-32840000D01*
X123370000Y-29250000D02*
X125450000Y-31330000D01*
X112980000Y-31230000D02*
X114960000Y-29250000D01*
X97450000Y-38320000D02*
X100030000Y-35740000D01*
X112980000Y-32840000D02*
X112980000Y-31230000D01*
X92840000Y-38320000D02*
X97450000Y-38320000D01*
X100030000Y-35740000D02*
X110080000Y-35740000D01*
X114960000Y-29250000D02*
X123370000Y-29250000D01*
X125450000Y-31330000D02*
X125450000Y-32370000D01*
X112000000Y-30840000D02*
X114300000Y-28540000D01*
X91070000Y-40240000D02*
X91070000Y-36730000D01*
X127990000Y-31960000D02*
X127990000Y-32370000D01*
X114300000Y-28540000D02*
X124570000Y-28540000D01*
X112000000Y-31650000D02*
X112000000Y-30840000D01*
X92840000Y-40860000D02*
X91690000Y-40860000D01*
X124570000Y-28540000D02*
X127990000Y-31960000D01*
X108760000Y-34890000D02*
X112000000Y-31650000D01*
X91690000Y-40860000D02*
X91070000Y-40240000D01*
X91070000Y-36730000D02*
X92910000Y-34890000D01*
X92910000Y-34890000D02*
X108760000Y-34890000D01*
X92160000Y-33990000D02*
X108240000Y-33990000D01*
X113810000Y-27690000D02*
X127760000Y-27690000D01*
X90450000Y-41010000D02*
X90450000Y-35700000D01*
X130530000Y-30460000D02*
X130530000Y-32370000D01*
X108240000Y-33990000D02*
X111080000Y-31150000D01*
X127760000Y-27690000D02*
X130530000Y-30460000D01*
X111080000Y-31150000D02*
X111080000Y-30420000D01*
X92840000Y-43400000D02*
X90450000Y-41010000D01*
X111080000Y-30420000D02*
X113810000Y-27690000D01*
X90450000Y-35700000D02*
X92160000Y-33990000D01*
X113040000Y-27010000D02*
X128590000Y-27010000D01*
X109770000Y-30280000D02*
X113040000Y-27010000D01*
X89780000Y-34750000D02*
X91530000Y-33000000D01*
X109770000Y-31260000D02*
X109770000Y-30280000D01*
X128590000Y-27010000D02*
X133070000Y-31490000D01*
X89780000Y-42880000D02*
X89780000Y-34750000D01*
X108030000Y-33000000D02*
X109770000Y-31260000D01*
X133070000Y-31490000D02*
X133070000Y-32370000D01*
X91530000Y-33000000D02*
X108030000Y-33000000D01*
X92840000Y-45940000D02*
X89780000Y-42880000D01*
X109840000Y-48480000D02*
X117590000Y-40730000D01*
X117590000Y-40730000D02*
X117590000Y-37190000D01*
X145770000Y-31070000D02*
X145770000Y-32370000D01*
X141950000Y-31060000D02*
X142540000Y-30470000D01*
X145170000Y-30470000D02*
X145770000Y-31070000D01*
X149210000Y-28930000D02*
X161300000Y-28930000D01*
X141950000Y-34830000D02*
X141950000Y-31060000D01*
X164820000Y-32450000D02*
X164820000Y-53550000D01*
X119420000Y-35360000D02*
X141420000Y-35360000D01*
X141420000Y-35360000D02*
X141950000Y-34830000D01*
X161300000Y-28930000D02*
X164820000Y-32450000D01*
X108080000Y-48480000D02*
X109840000Y-48480000D01*
X163460000Y-54870000D02*
X161080000Y-54870000D01*
X163480000Y-54890000D02*
X163460000Y-54870000D01*
X117590000Y-37190000D02*
X119420000Y-35360000D01*
X145770000Y-32370000D02*
X149210000Y-28930000D01*
X164820000Y-53550000D02*
X163480000Y-54890000D01*
X142540000Y-30470000D02*
X145170000Y-30470000D01*
X135760000Y-30430000D02*
X135760000Y-32220000D01*
X92840000Y-48480000D02*
X92840000Y-48370000D01*
X108650000Y-30910000D02*
X108650000Y-30170000D01*
X92840000Y-48370000D02*
X89050000Y-44580000D01*
X108650000Y-30170000D02*
X112690000Y-26130000D01*
X131460000Y-26130000D02*
X135760000Y-30430000D01*
X107560000Y-32000000D02*
X108650000Y-30910000D01*
X135760000Y-32220000D02*
X135610000Y-32370000D01*
X112690000Y-26130000D02*
X131460000Y-26130000D01*
X89050000Y-33830000D02*
X90880000Y-32000000D01*
X90880000Y-32000000D02*
X107560000Y-32000000D01*
X89050000Y-44580000D02*
X89050000Y-33830000D01*
X153416000Y-42926000D02*
X148336000Y-37846000D01*
X116675000Y-87375000D02*
X112160000Y-91890000D01*
X116675000Y-86625000D02*
X116675000Y-87375000D01*
X112160000Y-91890000D02*
X101310000Y-91890000D01*
X101310000Y-91890000D02*
X100830000Y-92370000D01*
X100830000Y-92370000D02*
X100190000Y-92370000D01*
X55260000Y-80190000D02*
X55260000Y-87265000D01*
X55260000Y-87265000D02*
X52525000Y-90000000D01*
X56300000Y-72720000D02*
X54340000Y-74680000D01*
X54340000Y-79270000D02*
X55260000Y-80190000D01*
X54340000Y-74680000D02*
X54340000Y-79270000D01*
X150170000Y-49220000D02*
X148730000Y-47780000D01*
X148730000Y-47780000D02*
X145990000Y-47780000D01*
X139875000Y-46135000D02*
X136475000Y-46135000D01*
X158540000Y-47190000D02*
X156510000Y-49220000D01*
X145990000Y-47780000D02*
X141520000Y-47780000D01*
X156510000Y-49220000D02*
X150170000Y-49220000D01*
X141520000Y-47780000D02*
X139875000Y-46135000D01*
X151610000Y-52490000D02*
X150090000Y-50970000D01*
X157155000Y-52490000D02*
X151610000Y-52490000D01*
X141980000Y-50970000D02*
X139685000Y-48675000D01*
X145940000Y-50970000D02*
X141980000Y-50970000D01*
X139685000Y-48675000D02*
X136475000Y-48675000D01*
X158545000Y-51100000D02*
X157155000Y-52490000D01*
X150090000Y-50970000D02*
X145940000Y-50970000D01*
X81360000Y-38130000D02*
X81980000Y-37510000D01*
X73000000Y-48870000D02*
X72640000Y-48510000D01*
X81360000Y-39480000D02*
X81360000Y-38130000D01*
X84000000Y-48870000D02*
X73000000Y-48870000D01*
X81980000Y-37510000D02*
X85670000Y-37510000D01*
X86620000Y-38460000D02*
X86620000Y-46250000D01*
X86620000Y-46250000D02*
X84000000Y-48870000D01*
X85670000Y-37510000D02*
X86620000Y-38460000D01*
X114430000Y-76420000D02*
X108080000Y-76420000D01*
X116925000Y-73925000D02*
X114430000Y-76420000D01*
X118475000Y-65025000D02*
X118475000Y-65475000D01*
X116925000Y-67025000D02*
X116925000Y-73925000D01*
X118475000Y-65475000D02*
X116925000Y-67025000D01*
X156740000Y-54870000D02*
X158540000Y-54870000D01*
X145920000Y-54080000D02*
X149160000Y-54080000D01*
X138690000Y-54080000D02*
X136475000Y-56295000D01*
X149160000Y-54080000D02*
X150880000Y-55800000D01*
X150880000Y-55800000D02*
X155810000Y-55800000D01*
X145920000Y-54080000D02*
X138690000Y-54080000D01*
X155810000Y-55800000D02*
X156740000Y-54870000D01*
M02*
