G04 #@! TF.GenerationSoftware,KiCad,Pcbnew,(6.0.2)*
G04 #@! TF.CreationDate,2022-06-16T23:24:29-05:00*
G04 #@! TF.ProjectId,Apple2Card,4170706c-6532-4436-9172-642e6b696361,rev?*
G04 #@! TF.SameCoordinates,Original*
G04 #@! TF.FileFunction,Soldermask,Top*
G04 #@! TF.FilePolarity,Negative*
%FSLAX46Y46*%
G04 Gerber Fmt 4.6, Leading zero omitted, Abs format (unit mm)*
G04 Created by KiCad (PCBNEW (6.0.2)) date 2022-06-16 23:24:29*
%MOMM*%
%LPD*%
G01*
G04 APERTURE LIST*
%ADD10C,1.600000*%
%ADD11O,1.600000X1.600000*%
%ADD12R,1.700000X1.700000*%
%ADD13O,1.700000X1.700000*%
%ADD14R,1.600000X1.600000*%
%ADD15R,1.800000X1.800000*%
%ADD16C,1.800000*%
%ADD17R,2.200000X1.200000*%
%ADD18C,1.000000*%
%ADD19R,1.400000X1.600000*%
%ADD20R,1.600000X0.700000*%
%ADD21R,1.400000X1.200000*%
%ADD22R,1.900000X8.530000*%
%ADD23R,1.270000X8.530000*%
%ADD24R,1.910000X8.530000*%
%ADD25C,1.500000*%
%ADD26C,2.000000*%
G04 APERTURE END LIST*
D10*
X82310000Y-59830000D03*
X82310000Y-54830000D03*
X114410000Y-44910000D03*
D11*
X114410000Y-52530000D03*
D12*
X178010000Y-54640000D03*
D13*
X178010000Y-52100000D03*
D10*
X64770000Y-35814000D03*
D11*
X64770000Y-43434000D03*
D10*
X61468000Y-36830000D03*
D11*
X61468000Y-29210000D03*
D14*
X100190000Y-92370000D03*
D11*
X92570000Y-92370000D03*
D10*
X52430000Y-90790000D03*
D11*
X60050000Y-90790000D03*
D10*
X52480000Y-87520000D03*
D11*
X60100000Y-87520000D03*
D15*
X67650000Y-32585000D03*
D16*
X67650000Y-30045000D03*
D14*
X41790000Y-84750000D03*
D11*
X41790000Y-92370000D03*
D10*
X140520000Y-35990000D03*
X140520000Y-30990000D03*
D17*
X35620000Y-66160000D03*
D18*
X35220000Y-68960000D03*
D19*
X45120000Y-80760000D03*
D18*
X35220000Y-76960000D03*
D20*
X45720000Y-76160000D03*
X45720000Y-75060000D03*
X45720000Y-73960000D03*
X45720000Y-72860000D03*
X45720000Y-71760000D03*
X45720000Y-70660000D03*
X45720000Y-69560000D03*
X45720000Y-68460000D03*
X45720000Y-67360000D03*
D21*
X45120000Y-66160000D03*
D17*
X35520000Y-81660000D03*
D15*
X79761000Y-28702000D03*
D16*
X77221000Y-28702000D03*
D14*
X75692000Y-67564000D03*
D11*
X83312000Y-67564000D03*
D10*
X142810000Y-58930000D03*
X142810000Y-63930000D03*
D12*
X53848000Y-59436000D03*
D13*
X51308000Y-59436000D03*
D10*
X77340000Y-70610000D03*
X82340000Y-70610000D03*
D12*
X104445000Y-34860000D03*
D13*
X106985000Y-34860000D03*
D10*
X40894000Y-37300000D03*
X40894000Y-32300000D03*
X140100000Y-43220000D03*
D11*
X147720000Y-43220000D03*
D12*
X155920000Y-45720000D03*
D13*
X153380000Y-45720000D03*
D15*
X58674000Y-63754000D03*
D16*
X56134000Y-63754000D03*
D10*
X140050000Y-56310000D03*
D11*
X147670000Y-56310000D03*
D22*
X120396000Y-99060000D03*
D23*
X123190000Y-99060000D03*
X125730000Y-99060000D03*
X128270000Y-99060000D03*
X130810000Y-99060000D03*
X133350000Y-99060000D03*
X135890000Y-99060000D03*
X138430000Y-99060000D03*
X140970000Y-99060000D03*
X143510000Y-99060000D03*
X146050000Y-99060000D03*
X148590000Y-99060000D03*
X151130000Y-99060000D03*
X153670000Y-99060000D03*
X156210000Y-99060000D03*
X158750000Y-99060000D03*
X161290000Y-99060000D03*
X163830000Y-99060000D03*
X166370000Y-99060000D03*
X168910000Y-99060000D03*
X171450000Y-99060000D03*
X173990000Y-99060000D03*
X176530000Y-99060000D03*
X179070000Y-99060000D03*
D24*
X181864000Y-99060000D03*
D10*
X45212000Y-62484000D03*
D11*
X37592000Y-62484000D03*
D12*
X155885000Y-41970000D03*
D13*
X153345000Y-41970000D03*
D14*
X46736000Y-29560000D03*
D11*
X46736000Y-37180000D03*
D14*
X72640000Y-81530000D03*
D11*
X72640000Y-78990000D03*
X72640000Y-76450000D03*
X72640000Y-73910000D03*
X72640000Y-71370000D03*
X72640000Y-68830000D03*
X72640000Y-66290000D03*
X72640000Y-63750000D03*
X72640000Y-61210000D03*
X72640000Y-58670000D03*
X72640000Y-56130000D03*
X72640000Y-53590000D03*
X72640000Y-51050000D03*
X72640000Y-48510000D03*
X65020000Y-48510000D03*
X65020000Y-51050000D03*
X65020000Y-53590000D03*
X65020000Y-56130000D03*
X65020000Y-58670000D03*
X65020000Y-61210000D03*
X65020000Y-63750000D03*
X65020000Y-66290000D03*
X65020000Y-68830000D03*
X65020000Y-71370000D03*
X65020000Y-73910000D03*
X65020000Y-76450000D03*
X65020000Y-78990000D03*
X65020000Y-81530000D03*
D25*
X77960000Y-52720000D03*
X77960000Y-57600000D03*
D12*
X54864000Y-72136000D03*
D13*
X57404000Y-72136000D03*
X54864000Y-74676000D03*
X57404000Y-74676000D03*
X54864000Y-77216000D03*
X57404000Y-77216000D03*
X54864000Y-79756000D03*
X57404000Y-79756000D03*
X54864000Y-82296000D03*
X57404000Y-82296000D03*
D10*
X61480000Y-62900000D03*
D11*
X61480000Y-55280000D03*
D12*
X120396000Y-86614000D03*
D13*
X122936000Y-86614000D03*
X125476000Y-86614000D03*
X128016000Y-86614000D03*
X130556000Y-86614000D03*
X133096000Y-86614000D03*
X135636000Y-86614000D03*
X138176000Y-86614000D03*
X140716000Y-86614000D03*
X143256000Y-86614000D03*
X145796000Y-86614000D03*
X148336000Y-86614000D03*
X150876000Y-86614000D03*
X153416000Y-86614000D03*
X155956000Y-86614000D03*
X158496000Y-86614000D03*
X161036000Y-86614000D03*
X163576000Y-86614000D03*
X166116000Y-86614000D03*
X168656000Y-86614000D03*
X171196000Y-86614000D03*
X173736000Y-86614000D03*
X176276000Y-86614000D03*
X178816000Y-86614000D03*
X181356000Y-86614000D03*
D10*
X83820000Y-27432000D03*
D11*
X83820000Y-35052000D03*
D12*
X119130000Y-78510000D03*
D13*
X121670000Y-78510000D03*
X124210000Y-78510000D03*
X126750000Y-78510000D03*
X129290000Y-78510000D03*
X131830000Y-78510000D03*
X134370000Y-78510000D03*
X136910000Y-78510000D03*
X139450000Y-78510000D03*
X141990000Y-78510000D03*
X144530000Y-78510000D03*
X147070000Y-78510000D03*
X149610000Y-78510000D03*
X152150000Y-78510000D03*
X154690000Y-78510000D03*
X157230000Y-78510000D03*
X159770000Y-78510000D03*
X162310000Y-78510000D03*
X164850000Y-78510000D03*
X167390000Y-78510000D03*
X169930000Y-78510000D03*
X172470000Y-78510000D03*
X175010000Y-78510000D03*
X177550000Y-78510000D03*
X180090000Y-78510000D03*
D10*
X51308000Y-36830000D03*
D11*
X51308000Y-29210000D03*
D12*
X155900000Y-53240000D03*
D13*
X153360000Y-53240000D03*
D10*
X140060000Y-50050000D03*
D11*
X147680000Y-50050000D03*
D10*
X117480000Y-36720000D03*
D11*
X117480000Y-44340000D03*
D14*
X147066000Y-69342000D03*
D11*
X149606000Y-69342000D03*
X152146000Y-69342000D03*
X154686000Y-69342000D03*
X157226000Y-69342000D03*
X159766000Y-69342000D03*
X162306000Y-69342000D03*
X162306000Y-61722000D03*
X159766000Y-61722000D03*
X157226000Y-61722000D03*
X154686000Y-61722000D03*
X152146000Y-61722000D03*
X149606000Y-61722000D03*
X147066000Y-61722000D03*
D17*
X35582000Y-41018000D03*
D19*
X45082000Y-55618000D03*
D18*
X35182000Y-43818000D03*
X35182000Y-51818000D03*
D20*
X45682000Y-51018000D03*
X45682000Y-49918000D03*
X45682000Y-48818000D03*
X45682000Y-47718000D03*
X45682000Y-46618000D03*
X45682000Y-45518000D03*
X45682000Y-44418000D03*
X45682000Y-43318000D03*
X45682000Y-42218000D03*
D21*
X45082000Y-41018000D03*
D17*
X35482000Y-56518000D03*
D10*
X64000000Y-92000000D03*
D11*
X71620000Y-92000000D03*
D14*
X108080000Y-86580000D03*
D11*
X108080000Y-84040000D03*
X108080000Y-81500000D03*
X108080000Y-78960000D03*
X108080000Y-76420000D03*
X108080000Y-73880000D03*
X108080000Y-71340000D03*
X108080000Y-68800000D03*
X108080000Y-66260000D03*
X108080000Y-63720000D03*
X108080000Y-61180000D03*
X108080000Y-58640000D03*
X108080000Y-56100000D03*
X108080000Y-53560000D03*
X108080000Y-51020000D03*
X108080000Y-48480000D03*
X108080000Y-45940000D03*
X108080000Y-43400000D03*
X108080000Y-40860000D03*
X108080000Y-38320000D03*
X92840000Y-38320000D03*
X92840000Y-40860000D03*
X92840000Y-43400000D03*
X92840000Y-45940000D03*
X92840000Y-48480000D03*
X92840000Y-51020000D03*
X92840000Y-53560000D03*
X92840000Y-56100000D03*
X92840000Y-58640000D03*
X92840000Y-61180000D03*
X92840000Y-63720000D03*
X92840000Y-66260000D03*
X92840000Y-68800000D03*
X92840000Y-71340000D03*
X92840000Y-73880000D03*
X92840000Y-76420000D03*
X92840000Y-78960000D03*
X92840000Y-81500000D03*
X92840000Y-84040000D03*
X92840000Y-86580000D03*
D10*
X37592000Y-29718000D03*
D11*
X37592000Y-37338000D03*
D10*
X38880000Y-84740000D03*
X38880000Y-89740000D03*
D14*
X74460000Y-91880000D03*
D11*
X74460000Y-84260000D03*
D14*
X170429000Y-69586000D03*
D11*
X172969000Y-69586000D03*
X175509000Y-69586000D03*
X178049000Y-69586000D03*
X180589000Y-69586000D03*
X183129000Y-69586000D03*
X185669000Y-69586000D03*
X185669000Y-61966000D03*
X183129000Y-61966000D03*
X180589000Y-61966000D03*
X178049000Y-61966000D03*
X175509000Y-61966000D03*
X172969000Y-61966000D03*
X170429000Y-61966000D03*
D10*
X140060000Y-46890000D03*
D11*
X147680000Y-46890000D03*
D12*
X81280000Y-64262000D03*
D13*
X78740000Y-64262000D03*
D10*
X140060000Y-53210000D03*
D11*
X147680000Y-53210000D03*
D12*
X155910000Y-49490000D03*
D13*
X153370000Y-49490000D03*
D10*
X50750000Y-69920000D03*
D11*
X50750000Y-62300000D03*
D10*
X66600000Y-88900000D03*
X71600000Y-88900000D03*
X82340000Y-52550000D03*
X82340000Y-47550000D03*
X145260000Y-35960000D03*
D11*
X145260000Y-28340000D03*
D26*
X77320000Y-84880000D03*
X77320000Y-91380000D03*
X81820000Y-91380000D03*
X81820000Y-84880000D03*
D10*
X68072000Y-43434000D03*
D11*
X68072000Y-35814000D03*
D10*
X147630000Y-38740000D03*
D11*
X140010000Y-38740000D03*
D14*
X121235000Y-38515000D03*
D11*
X121235000Y-41055000D03*
X121235000Y-43595000D03*
X121235000Y-46135000D03*
X121235000Y-48675000D03*
X121235000Y-51215000D03*
X121235000Y-53755000D03*
X121235000Y-56295000D03*
X121235000Y-58835000D03*
X121235000Y-61375000D03*
X121235000Y-63915000D03*
X121235000Y-66455000D03*
X121235000Y-68995000D03*
X121235000Y-71535000D03*
X136475000Y-71535000D03*
X136475000Y-68995000D03*
X136475000Y-66455000D03*
X136475000Y-63915000D03*
X136475000Y-61375000D03*
X136475000Y-58835000D03*
X136475000Y-56295000D03*
X136475000Y-53755000D03*
X136475000Y-51215000D03*
X136475000Y-48675000D03*
X136475000Y-46135000D03*
X136475000Y-43595000D03*
X136475000Y-41055000D03*
X136475000Y-38515000D03*
D14*
X44380000Y-92370000D03*
D11*
X44380000Y-84750000D03*
D10*
X58630000Y-55720000D03*
D11*
X51010000Y-55720000D03*
D15*
X149410000Y-30290000D03*
D16*
X149410000Y-27750000D03*
D10*
X45212000Y-59182000D03*
D11*
X37592000Y-59182000D03*
D10*
X54864000Y-29210000D03*
D11*
X54864000Y-36830000D03*
D12*
X113330000Y-39070000D03*
D13*
X113330000Y-41610000D03*
D12*
X155865000Y-57070000D03*
D13*
X153325000Y-57070000D03*
D12*
X95970000Y-31210000D03*
D13*
X98510000Y-31210000D03*
X101050000Y-31210000D03*
X103590000Y-31210000D03*
X106130000Y-31210000D03*
X108670000Y-31210000D03*
X111210000Y-31210000D03*
X113750000Y-31210000D03*
X116290000Y-31210000D03*
X118830000Y-31210000D03*
X121370000Y-31210000D03*
X123910000Y-31210000D03*
X126450000Y-31210000D03*
X128990000Y-31210000D03*
X131530000Y-31210000D03*
X134070000Y-31210000D03*
D12*
X57605000Y-46895000D03*
D13*
X55065000Y-46895000D03*
X57605000Y-44355000D03*
X55065000Y-44355000D03*
X57605000Y-41815000D03*
X55065000Y-41815000D03*
D10*
X166920000Y-62150000D03*
X166920000Y-57150000D03*
X35750000Y-92380000D03*
D11*
X35750000Y-84760000D03*
D12*
X83900000Y-39480000D03*
D13*
X83900000Y-42020000D03*
X81360000Y-39480000D03*
X81360000Y-42020000D03*
X78820000Y-39480000D03*
X78820000Y-42020000D03*
X76280000Y-39480000D03*
X76280000Y-42020000D03*
X73740000Y-39480000D03*
X73740000Y-42020000D03*
D10*
X87730000Y-51700000D03*
X87730000Y-46700000D03*
D14*
X172620000Y-54190000D03*
D10*
X172620000Y-51690000D03*
X60420000Y-52570000D03*
D11*
X52800000Y-52570000D03*
D10*
X61468000Y-65278000D03*
X61468000Y-70278000D03*
D14*
X43942000Y-37200000D03*
D11*
X43942000Y-29580000D03*
M02*
