G04 #@! TF.GenerationSoftware,KiCad,Pcbnew,(6.0.2)*
G04 #@! TF.CreationDate,2022-06-03T19:38:42-05:00*
G04 #@! TF.ProjectId,Apple2Card,4170706c-6532-4436-9172-642e6b696361,rev?*
G04 #@! TF.SameCoordinates,Original*
G04 #@! TF.FileFunction,Legend,Top*
G04 #@! TF.FilePolarity,Positive*
%FSLAX46Y46*%
G04 Gerber Fmt 4.6, Leading zero omitted, Abs format (unit mm)*
G04 Created by KiCad (PCBNEW (6.0.2)) date 2022-06-03 19:38:42*
%MOMM*%
%LPD*%
G01*
G04 APERTURE LIST*
%ADD10C,0.150000*%
%ADD11C,0.250000*%
%ADD12C,0.120000*%
%ADD13C,1.000000*%
G04 APERTURE END LIST*
D10*
X140766666Y-90214285D02*
X140766666Y-89738095D01*
X141052380Y-90309523D02*
X140052380Y-89976190D01*
X141052380Y-89642857D01*
X140052380Y-89404761D02*
X140052380Y-88738095D01*
X141052380Y-89166666D01*
X137327380Y-77388095D02*
X136327380Y-77388095D01*
X136327380Y-77150000D01*
X136375000Y-77007142D01*
X136470238Y-76911904D01*
X136565476Y-76864285D01*
X136755952Y-76816666D01*
X136898809Y-76816666D01*
X137089285Y-76864285D01*
X137184523Y-76911904D01*
X137279761Y-77007142D01*
X137327380Y-77150000D01*
X137327380Y-77388095D01*
X136327380Y-75959523D02*
X136327380Y-76150000D01*
X136375000Y-76245238D01*
X136422619Y-76292857D01*
X136565476Y-76388095D01*
X136755952Y-76435714D01*
X137136904Y-76435714D01*
X137232142Y-76388095D01*
X137279761Y-76340476D01*
X137327380Y-76245238D01*
X137327380Y-76054761D01*
X137279761Y-75959523D01*
X137232142Y-75911904D01*
X137136904Y-75864285D01*
X136898809Y-75864285D01*
X136803571Y-75911904D01*
X136755952Y-75959523D01*
X136708333Y-76054761D01*
X136708333Y-76245238D01*
X136755952Y-76340476D01*
X136803571Y-76388095D01*
X136898809Y-76435714D01*
X148556666Y-91150476D02*
X148556666Y-90674285D01*
X148842380Y-91245714D02*
X147842380Y-90912380D01*
X148842380Y-90579047D01*
X148842380Y-89721904D02*
X148842380Y-90293333D01*
X148842380Y-90007619D02*
X147842380Y-90007619D01*
X147985238Y-90102857D01*
X148080476Y-90198095D01*
X148128095Y-90293333D01*
X147842380Y-89102857D02*
X147842380Y-89007619D01*
X147890000Y-88912380D01*
X147937619Y-88864761D01*
X148032857Y-88817142D01*
X148223333Y-88769523D01*
X148461428Y-88769523D01*
X148651904Y-88817142D01*
X148747142Y-88864761D01*
X148794761Y-88912380D01*
X148842380Y-89007619D01*
X148842380Y-89102857D01*
X148794761Y-89198095D01*
X148747142Y-89245714D01*
X148651904Y-89293333D01*
X148461428Y-89340952D01*
X148223333Y-89340952D01*
X148032857Y-89293333D01*
X147937619Y-89245714D01*
X147890000Y-89198095D01*
X147842380Y-89102857D01*
X138356666Y-90214285D02*
X138356666Y-89738095D01*
X138642380Y-90309523D02*
X137642380Y-89976190D01*
X138642380Y-89642857D01*
X137642380Y-88880952D02*
X137642380Y-89071428D01*
X137690000Y-89166666D01*
X137737619Y-89214285D01*
X137880476Y-89309523D01*
X138070952Y-89357142D01*
X138451904Y-89357142D01*
X138547142Y-89309523D01*
X138594761Y-89261904D01*
X138642380Y-89166666D01*
X138642380Y-88976190D01*
X138594761Y-88880952D01*
X138547142Y-88833333D01*
X138451904Y-88785714D01*
X138213809Y-88785714D01*
X138118571Y-88833333D01*
X138070952Y-88880952D01*
X138023333Y-88976190D01*
X138023333Y-89166666D01*
X138070952Y-89261904D01*
X138118571Y-89309523D01*
X138213809Y-89357142D01*
X143506666Y-90184285D02*
X143506666Y-89708095D01*
X143792380Y-90279523D02*
X142792380Y-89946190D01*
X143792380Y-89612857D01*
X143220952Y-89136666D02*
X143173333Y-89231904D01*
X143125714Y-89279523D01*
X143030476Y-89327142D01*
X142982857Y-89327142D01*
X142887619Y-89279523D01*
X142840000Y-89231904D01*
X142792380Y-89136666D01*
X142792380Y-88946190D01*
X142840000Y-88850952D01*
X142887619Y-88803333D01*
X142982857Y-88755714D01*
X143030476Y-88755714D01*
X143125714Y-88803333D01*
X143173333Y-88850952D01*
X143220952Y-88946190D01*
X143220952Y-89136666D01*
X143268571Y-89231904D01*
X143316190Y-89279523D01*
X143411428Y-89327142D01*
X143601904Y-89327142D01*
X143697142Y-89279523D01*
X143744761Y-89231904D01*
X143792380Y-89136666D01*
X143792380Y-88946190D01*
X143744761Y-88850952D01*
X143697142Y-88803333D01*
X143601904Y-88755714D01*
X143411428Y-88755714D01*
X143316190Y-88803333D01*
X143268571Y-88850952D01*
X143220952Y-88946190D01*
X136162380Y-30078095D02*
X135162380Y-30078095D01*
X135162380Y-29697142D01*
X135210000Y-29601904D01*
X135257619Y-29554285D01*
X135352857Y-29506666D01*
X135495714Y-29506666D01*
X135590952Y-29554285D01*
X135638571Y-29601904D01*
X135686190Y-29697142D01*
X135686190Y-30078095D01*
X135638571Y-28744761D02*
X135686190Y-28601904D01*
X135733809Y-28554285D01*
X135829047Y-28506666D01*
X135971904Y-28506666D01*
X136067142Y-28554285D01*
X136114761Y-28601904D01*
X136162380Y-28697142D01*
X136162380Y-29078095D01*
X135162380Y-29078095D01*
X135162380Y-28744761D01*
X135210000Y-28649523D01*
X135257619Y-28601904D01*
X135352857Y-28554285D01*
X135448095Y-28554285D01*
X135543333Y-28601904D01*
X135590952Y-28649523D01*
X135638571Y-28744761D01*
X135638571Y-29078095D01*
X135162380Y-28173333D02*
X135162380Y-27506666D01*
X136162380Y-27935238D01*
X134727380Y-77338095D02*
X133727380Y-77338095D01*
X133727380Y-77100000D01*
X133775000Y-76957142D01*
X133870238Y-76861904D01*
X133965476Y-76814285D01*
X134155952Y-76766666D01*
X134298809Y-76766666D01*
X134489285Y-76814285D01*
X134584523Y-76861904D01*
X134679761Y-76957142D01*
X134727380Y-77100000D01*
X134727380Y-77338095D01*
X133727380Y-75861904D02*
X133727380Y-76338095D01*
X134203571Y-76385714D01*
X134155952Y-76338095D01*
X134108333Y-76242857D01*
X134108333Y-76004761D01*
X134155952Y-75909523D01*
X134203571Y-75861904D01*
X134298809Y-75814285D01*
X134536904Y-75814285D01*
X134632142Y-75861904D01*
X134679761Y-75909523D01*
X134727380Y-76004761D01*
X134727380Y-76242857D01*
X134679761Y-76338095D01*
X134632142Y-76385714D01*
X143522380Y-30188095D02*
X142522380Y-30188095D01*
X142522380Y-29807142D01*
X142570000Y-29711904D01*
X142617619Y-29664285D01*
X142712857Y-29616666D01*
X142855714Y-29616666D01*
X142950952Y-29664285D01*
X142998571Y-29711904D01*
X143046190Y-29807142D01*
X143046190Y-30188095D01*
X143427142Y-28616666D02*
X143474761Y-28664285D01*
X143522380Y-28807142D01*
X143522380Y-28902380D01*
X143474761Y-29045238D01*
X143379523Y-29140476D01*
X143284285Y-29188095D01*
X143093809Y-29235714D01*
X142950952Y-29235714D01*
X142760476Y-29188095D01*
X142665238Y-29140476D01*
X142570000Y-29045238D01*
X142522380Y-28902380D01*
X142522380Y-28807142D01*
X142570000Y-28664285D01*
X142617619Y-28616666D01*
X143522380Y-27664285D02*
X143522380Y-28235714D01*
X143522380Y-27950000D02*
X142522380Y-27950000D01*
X142665238Y-28045238D01*
X142760476Y-28140476D01*
X142808095Y-28235714D01*
X169232380Y-93420952D02*
X168232380Y-93420952D01*
X168232380Y-92754285D02*
X168232380Y-92563809D01*
X168280000Y-92468571D01*
X168375238Y-92373333D01*
X168565714Y-92325714D01*
X168899047Y-92325714D01*
X169089523Y-92373333D01*
X169184761Y-92468571D01*
X169232380Y-92563809D01*
X169232380Y-92754285D01*
X169184761Y-92849523D01*
X169089523Y-92944761D01*
X168899047Y-92992380D01*
X168565714Y-92992380D01*
X168375238Y-92944761D01*
X168280000Y-92849523D01*
X168232380Y-92754285D01*
X169184761Y-91944761D02*
X169232380Y-91801904D01*
X169232380Y-91563809D01*
X169184761Y-91468571D01*
X169137142Y-91420952D01*
X169041904Y-91373333D01*
X168946666Y-91373333D01*
X168851428Y-91420952D01*
X168803809Y-91468571D01*
X168756190Y-91563809D01*
X168708571Y-91754285D01*
X168660952Y-91849523D01*
X168613333Y-91897142D01*
X168518095Y-91944761D01*
X168422857Y-91944761D01*
X168327619Y-91897142D01*
X168280000Y-91849523D01*
X168232380Y-91754285D01*
X168232380Y-91516190D01*
X168280000Y-91373333D01*
X168232380Y-91087619D02*
X168232380Y-90516190D01*
X169232380Y-90801904D02*
X168232380Y-90801904D01*
X169232380Y-89611428D02*
X168756190Y-89944761D01*
X169232380Y-90182857D02*
X168232380Y-90182857D01*
X168232380Y-89801904D01*
X168280000Y-89706666D01*
X168327619Y-89659047D01*
X168422857Y-89611428D01*
X168565714Y-89611428D01*
X168660952Y-89659047D01*
X168708571Y-89706666D01*
X168756190Y-89801904D01*
X168756190Y-90182857D01*
X168708571Y-88849523D02*
X168756190Y-88706666D01*
X168803809Y-88659047D01*
X168899047Y-88611428D01*
X169041904Y-88611428D01*
X169137142Y-88659047D01*
X169184761Y-88706666D01*
X169232380Y-88801904D01*
X169232380Y-89182857D01*
X168232380Y-89182857D01*
X168232380Y-88849523D01*
X168280000Y-88754285D01*
X168327619Y-88706666D01*
X168422857Y-88659047D01*
X168518095Y-88659047D01*
X168613333Y-88706666D01*
X168660952Y-88754285D01*
X168708571Y-88849523D01*
X168708571Y-89182857D01*
X161266666Y-91160476D02*
X161266666Y-90684285D01*
X161552380Y-91255714D02*
X160552380Y-90922380D01*
X161552380Y-90589047D01*
X161552380Y-89731904D02*
X161552380Y-90303333D01*
X161552380Y-90017619D02*
X160552380Y-90017619D01*
X160695238Y-90112857D01*
X160790476Y-90208095D01*
X160838095Y-90303333D01*
X160552380Y-88827142D02*
X160552380Y-89303333D01*
X161028571Y-89350952D01*
X160980952Y-89303333D01*
X160933333Y-89208095D01*
X160933333Y-88970000D01*
X160980952Y-88874761D01*
X161028571Y-88827142D01*
X161123809Y-88779523D01*
X161361904Y-88779523D01*
X161457142Y-88827142D01*
X161504761Y-88874761D01*
X161552380Y-88970000D01*
X161552380Y-89208095D01*
X161504761Y-89303333D01*
X161457142Y-89350952D01*
X130736666Y-90124285D02*
X130736666Y-89648095D01*
X131022380Y-90219523D02*
X130022380Y-89886190D01*
X131022380Y-89552857D01*
X130022380Y-89314761D02*
X130022380Y-88695714D01*
X130403333Y-89029047D01*
X130403333Y-88886190D01*
X130450952Y-88790952D01*
X130498571Y-88743333D01*
X130593809Y-88695714D01*
X130831904Y-88695714D01*
X130927142Y-88743333D01*
X130974761Y-88790952D01*
X131022380Y-88886190D01*
X131022380Y-89171904D01*
X130974761Y-89267142D01*
X130927142Y-89314761D01*
X119096428Y-77436904D02*
X119096428Y-76675000D01*
X119477380Y-77055952D02*
X118715476Y-77055952D01*
X119477380Y-75675000D02*
X119477380Y-76246428D01*
X119477380Y-75960714D02*
X118477380Y-75960714D01*
X118620238Y-76055952D01*
X118715476Y-76151190D01*
X118763095Y-76246428D01*
X118572619Y-75294047D02*
X118525000Y-75246428D01*
X118477380Y-75151190D01*
X118477380Y-74913095D01*
X118525000Y-74817857D01*
X118572619Y-74770238D01*
X118667857Y-74722619D01*
X118763095Y-74722619D01*
X118905952Y-74770238D01*
X119477380Y-75341666D01*
X119477380Y-74722619D01*
X118477380Y-74436904D02*
X119477380Y-74103571D01*
X118477380Y-73770238D01*
X122794761Y-35697619D02*
X122842380Y-35650000D01*
X122937619Y-35602380D01*
X123175714Y-35602380D01*
X123270952Y-35650000D01*
X123318571Y-35697619D01*
X123366190Y-35792857D01*
X123366190Y-35888095D01*
X123318571Y-36030952D01*
X122747142Y-36602380D01*
X123366190Y-36602380D01*
X123699523Y-35602380D02*
X124366190Y-35602380D01*
X123937619Y-36602380D01*
X125318571Y-36507142D02*
X125270952Y-36554761D01*
X125128095Y-36602380D01*
X125032857Y-36602380D01*
X124890000Y-36554761D01*
X124794761Y-36459523D01*
X124747142Y-36364285D01*
X124699523Y-36173809D01*
X124699523Y-36030952D01*
X124747142Y-35840476D01*
X124794761Y-35745238D01*
X124890000Y-35650000D01*
X125032857Y-35602380D01*
X125128095Y-35602380D01*
X125270952Y-35650000D01*
X125318571Y-35697619D01*
X126270952Y-36602380D02*
X125699523Y-36602380D01*
X125985238Y-36602380D02*
X125985238Y-35602380D01*
X125890000Y-35745238D01*
X125794761Y-35840476D01*
X125699523Y-35888095D01*
X126651904Y-35697619D02*
X126699523Y-35650000D01*
X126794761Y-35602380D01*
X127032857Y-35602380D01*
X127128095Y-35650000D01*
X127175714Y-35697619D01*
X127223333Y-35792857D01*
X127223333Y-35888095D01*
X127175714Y-36030952D01*
X126604285Y-36602380D01*
X127223333Y-36602380D01*
X127794761Y-36030952D02*
X127699523Y-35983333D01*
X127651904Y-35935714D01*
X127604285Y-35840476D01*
X127604285Y-35792857D01*
X127651904Y-35697619D01*
X127699523Y-35650000D01*
X127794761Y-35602380D01*
X127985238Y-35602380D01*
X128080476Y-35650000D01*
X128128095Y-35697619D01*
X128175714Y-35792857D01*
X128175714Y-35840476D01*
X128128095Y-35935714D01*
X128080476Y-35983333D01*
X127985238Y-36030952D01*
X127794761Y-36030952D01*
X127699523Y-36078571D01*
X127651904Y-36126190D01*
X127604285Y-36221428D01*
X127604285Y-36411904D01*
X127651904Y-36507142D01*
X127699523Y-36554761D01*
X127794761Y-36602380D01*
X127985238Y-36602380D01*
X128080476Y-36554761D01*
X128128095Y-36507142D01*
X128175714Y-36411904D01*
X128175714Y-36221428D01*
X128128095Y-36126190D01*
X128080476Y-36078571D01*
X127985238Y-36030952D01*
X129318571Y-35554761D02*
X128461428Y-36840476D01*
X129604285Y-35697619D02*
X129651904Y-35650000D01*
X129747142Y-35602380D01*
X129985238Y-35602380D01*
X130080476Y-35650000D01*
X130128095Y-35697619D01*
X130175714Y-35792857D01*
X130175714Y-35888095D01*
X130128095Y-36030952D01*
X129556666Y-36602380D01*
X130175714Y-36602380D01*
X130747142Y-36030952D02*
X130651904Y-35983333D01*
X130604285Y-35935714D01*
X130556666Y-35840476D01*
X130556666Y-35792857D01*
X130604285Y-35697619D01*
X130651904Y-35650000D01*
X130747142Y-35602380D01*
X130937619Y-35602380D01*
X131032857Y-35650000D01*
X131080476Y-35697619D01*
X131128095Y-35792857D01*
X131128095Y-35840476D01*
X131080476Y-35935714D01*
X131032857Y-35983333D01*
X130937619Y-36030952D01*
X130747142Y-36030952D01*
X130651904Y-36078571D01*
X130604285Y-36126190D01*
X130556666Y-36221428D01*
X130556666Y-36411904D01*
X130604285Y-36507142D01*
X130651904Y-36554761D01*
X130747142Y-36602380D01*
X130937619Y-36602380D01*
X131032857Y-36554761D01*
X131080476Y-36507142D01*
X131128095Y-36411904D01*
X131128095Y-36221428D01*
X131080476Y-36126190D01*
X131032857Y-36078571D01*
X130937619Y-36030952D01*
X132128095Y-36507142D02*
X132080476Y-36554761D01*
X131937619Y-36602380D01*
X131842380Y-36602380D01*
X131699523Y-36554761D01*
X131604285Y-36459523D01*
X131556666Y-36364285D01*
X131509047Y-36173809D01*
X131509047Y-36030952D01*
X131556666Y-35840476D01*
X131604285Y-35745238D01*
X131699523Y-35650000D01*
X131842380Y-35602380D01*
X131937619Y-35602380D01*
X132080476Y-35650000D01*
X132128095Y-35697619D01*
X132509047Y-35697619D02*
X132556666Y-35650000D01*
X132651904Y-35602380D01*
X132890000Y-35602380D01*
X132985238Y-35650000D01*
X133032857Y-35697619D01*
X133080476Y-35792857D01*
X133080476Y-35888095D01*
X133032857Y-36030952D01*
X132461428Y-36602380D01*
X133080476Y-36602380D01*
X133985238Y-35602380D02*
X133509047Y-35602380D01*
X133461428Y-36078571D01*
X133509047Y-36030952D01*
X133604285Y-35983333D01*
X133842380Y-35983333D01*
X133937619Y-36030952D01*
X133985238Y-36078571D01*
X134032857Y-36173809D01*
X134032857Y-36411904D01*
X133985238Y-36507142D01*
X133937619Y-36554761D01*
X133842380Y-36602380D01*
X133604285Y-36602380D01*
X133509047Y-36554761D01*
X133461428Y-36507142D01*
X134890000Y-35602380D02*
X134699523Y-35602380D01*
X134604285Y-35650000D01*
X134556666Y-35697619D01*
X134461428Y-35840476D01*
X134413809Y-36030952D01*
X134413809Y-36411904D01*
X134461428Y-36507142D01*
X134509047Y-36554761D01*
X134604285Y-36602380D01*
X134794761Y-36602380D01*
X134890000Y-36554761D01*
X134937619Y-36507142D01*
X134985238Y-36411904D01*
X134985238Y-36173809D01*
X134937619Y-36078571D01*
X134890000Y-36030952D01*
X134794761Y-35983333D01*
X134604285Y-35983333D01*
X134509047Y-36030952D01*
X134461428Y-36078571D01*
X134413809Y-36173809D01*
X54993809Y-39612380D02*
X54993809Y-38612380D01*
X56041428Y-39517142D02*
X55993809Y-39564761D01*
X55850952Y-39612380D01*
X55755714Y-39612380D01*
X55612857Y-39564761D01*
X55517619Y-39469523D01*
X55470000Y-39374285D01*
X55422380Y-39183809D01*
X55422380Y-39040952D01*
X55470000Y-38850476D01*
X55517619Y-38755238D01*
X55612857Y-38660000D01*
X55755714Y-38612380D01*
X55850952Y-38612380D01*
X55993809Y-38660000D01*
X56041428Y-38707619D01*
X56422380Y-39564761D02*
X56565238Y-39612380D01*
X56803333Y-39612380D01*
X56898571Y-39564761D01*
X56946190Y-39517142D01*
X56993809Y-39421904D01*
X56993809Y-39326666D01*
X56946190Y-39231428D01*
X56898571Y-39183809D01*
X56803333Y-39136190D01*
X56612857Y-39088571D01*
X56517619Y-39040952D01*
X56470000Y-38993333D01*
X56422380Y-38898095D01*
X56422380Y-38802857D01*
X56470000Y-38707619D01*
X56517619Y-38660000D01*
X56612857Y-38612380D01*
X56850952Y-38612380D01*
X56993809Y-38660000D01*
X57422380Y-39612380D02*
X57422380Y-38612380D01*
X57803333Y-38612380D01*
X57898571Y-38660000D01*
X57946190Y-38707619D01*
X57993809Y-38802857D01*
X57993809Y-38945714D01*
X57946190Y-39040952D01*
X57898571Y-39088571D01*
X57803333Y-39136190D01*
X57422380Y-39136190D01*
X124802380Y-77463095D02*
X123802380Y-77463095D01*
X123802380Y-77225000D01*
X123850000Y-77082142D01*
X123945238Y-76986904D01*
X124040476Y-76939285D01*
X124230952Y-76891666D01*
X124373809Y-76891666D01*
X124564285Y-76939285D01*
X124659523Y-76986904D01*
X124754761Y-77082142D01*
X124802380Y-77225000D01*
X124802380Y-77463095D01*
X124802380Y-75939285D02*
X124802380Y-76510714D01*
X124802380Y-76225000D02*
X123802380Y-76225000D01*
X123945238Y-76320238D01*
X124040476Y-76415476D01*
X124088095Y-76510714D01*
X52608095Y-77440000D02*
X52512857Y-77392380D01*
X52370000Y-77392380D01*
X52227142Y-77440000D01*
X52131904Y-77535238D01*
X52084285Y-77630476D01*
X52036666Y-77820952D01*
X52036666Y-77963809D01*
X52084285Y-78154285D01*
X52131904Y-78249523D01*
X52227142Y-78344761D01*
X52370000Y-78392380D01*
X52465238Y-78392380D01*
X52608095Y-78344761D01*
X52655714Y-78297142D01*
X52655714Y-77963809D01*
X52465238Y-77963809D01*
X53084285Y-78392380D02*
X53084285Y-77392380D01*
X53655714Y-78392380D01*
X53655714Y-77392380D01*
X54131904Y-78392380D02*
X54131904Y-77392380D01*
X54370000Y-77392380D01*
X54512857Y-77440000D01*
X54608095Y-77535238D01*
X54655714Y-77630476D01*
X54703333Y-77820952D01*
X54703333Y-77963809D01*
X54655714Y-78154285D01*
X54608095Y-78249523D01*
X54512857Y-78344761D01*
X54370000Y-78392380D01*
X54131904Y-78392380D01*
X53503333Y-73322380D02*
X53170000Y-72846190D01*
X52931904Y-73322380D02*
X52931904Y-72322380D01*
X53312857Y-72322380D01*
X53408095Y-72370000D01*
X53455714Y-72417619D01*
X53503333Y-72512857D01*
X53503333Y-72655714D01*
X53455714Y-72750952D01*
X53408095Y-72798571D01*
X53312857Y-72846190D01*
X52931904Y-72846190D01*
X53836666Y-72322380D02*
X54503333Y-73322380D01*
X54503333Y-72322380D02*
X53836666Y-73322380D01*
X75109523Y-93786666D02*
X75585714Y-93786666D01*
X75014285Y-94072380D02*
X75347619Y-93072380D01*
X75680952Y-94072380D01*
X76585714Y-94072380D02*
X76252380Y-93596190D01*
X76014285Y-94072380D02*
X76014285Y-93072380D01*
X76395238Y-93072380D01*
X76490476Y-93120000D01*
X76538095Y-93167619D01*
X76585714Y-93262857D01*
X76585714Y-93405714D01*
X76538095Y-93500952D01*
X76490476Y-93548571D01*
X76395238Y-93596190D01*
X76014285Y-93596190D01*
X77014285Y-94072380D02*
X77014285Y-93072380D01*
X77252380Y-93072380D01*
X77395238Y-93120000D01*
X77490476Y-93215238D01*
X77538095Y-93310476D01*
X77585714Y-93500952D01*
X77585714Y-93643809D01*
X77538095Y-93834285D01*
X77490476Y-93929523D01*
X77395238Y-94024761D01*
X77252380Y-94072380D01*
X77014285Y-94072380D01*
X78014285Y-93072380D02*
X78014285Y-93881904D01*
X78061904Y-93977142D01*
X78109523Y-94024761D01*
X78204761Y-94072380D01*
X78395238Y-94072380D01*
X78490476Y-94024761D01*
X78538095Y-93977142D01*
X78585714Y-93881904D01*
X78585714Y-93072380D01*
X79061904Y-94072380D02*
X79061904Y-93072380D01*
X79538095Y-94072380D02*
X79538095Y-93072380D01*
X80109523Y-94072380D01*
X80109523Y-93072380D01*
X80776190Y-93072380D02*
X80966666Y-93072380D01*
X81061904Y-93120000D01*
X81157142Y-93215238D01*
X81204761Y-93405714D01*
X81204761Y-93739047D01*
X81157142Y-93929523D01*
X81061904Y-94024761D01*
X80966666Y-94072380D01*
X80776190Y-94072380D01*
X80680952Y-94024761D01*
X80585714Y-93929523D01*
X80538095Y-93739047D01*
X80538095Y-93405714D01*
X80585714Y-93215238D01*
X80680952Y-93120000D01*
X80776190Y-93072380D01*
X82966666Y-94072380D02*
X82633333Y-93596190D01*
X82395238Y-94072380D02*
X82395238Y-93072380D01*
X82776190Y-93072380D01*
X82871428Y-93120000D01*
X82919047Y-93167619D01*
X82966666Y-93262857D01*
X82966666Y-93405714D01*
X82919047Y-93500952D01*
X82871428Y-93548571D01*
X82776190Y-93596190D01*
X82395238Y-93596190D01*
X83395238Y-93548571D02*
X83728571Y-93548571D01*
X83871428Y-94072380D02*
X83395238Y-94072380D01*
X83395238Y-93072380D01*
X83871428Y-93072380D01*
X84252380Y-94024761D02*
X84395238Y-94072380D01*
X84633333Y-94072380D01*
X84728571Y-94024761D01*
X84776190Y-93977142D01*
X84823809Y-93881904D01*
X84823809Y-93786666D01*
X84776190Y-93691428D01*
X84728571Y-93643809D01*
X84633333Y-93596190D01*
X84442857Y-93548571D01*
X84347619Y-93500952D01*
X84300000Y-93453333D01*
X84252380Y-93358095D01*
X84252380Y-93262857D01*
X84300000Y-93167619D01*
X84347619Y-93120000D01*
X84442857Y-93072380D01*
X84680952Y-93072380D01*
X84823809Y-93120000D01*
X85252380Y-93548571D02*
X85585714Y-93548571D01*
X85728571Y-94072380D02*
X85252380Y-94072380D01*
X85252380Y-93072380D01*
X85728571Y-93072380D01*
X86014285Y-93072380D02*
X86585714Y-93072380D01*
X86299999Y-94072380D02*
X86299999Y-93072380D01*
X120822380Y-30268095D02*
X119822380Y-30268095D01*
X119822380Y-29887142D01*
X119870000Y-29791904D01*
X119917619Y-29744285D01*
X120012857Y-29696666D01*
X120155714Y-29696666D01*
X120250952Y-29744285D01*
X120298571Y-29791904D01*
X120346190Y-29887142D01*
X120346190Y-30268095D01*
X120298571Y-28934761D02*
X120346190Y-28791904D01*
X120393809Y-28744285D01*
X120489047Y-28696666D01*
X120631904Y-28696666D01*
X120727142Y-28744285D01*
X120774761Y-28791904D01*
X120822380Y-28887142D01*
X120822380Y-29268095D01*
X119822380Y-29268095D01*
X119822380Y-28934761D01*
X119870000Y-28839523D01*
X119917619Y-28791904D01*
X120012857Y-28744285D01*
X120108095Y-28744285D01*
X120203333Y-28791904D01*
X120250952Y-28839523D01*
X120298571Y-28934761D01*
X120298571Y-29268095D01*
X120822380Y-27744285D02*
X120822380Y-28315714D01*
X120822380Y-28030000D02*
X119822380Y-28030000D01*
X119965238Y-28125238D01*
X120060476Y-28220476D01*
X120108095Y-28315714D01*
X159546428Y-77385714D02*
X159546428Y-76623809D01*
X158927380Y-75671428D02*
X158927380Y-76147619D01*
X159403571Y-76195238D01*
X159355952Y-76147619D01*
X159308333Y-76052380D01*
X159308333Y-75814285D01*
X159355952Y-75719047D01*
X159403571Y-75671428D01*
X159498809Y-75623809D01*
X159736904Y-75623809D01*
X159832142Y-75671428D01*
X159879761Y-75719047D01*
X159927380Y-75814285D01*
X159927380Y-76052380D01*
X159879761Y-76147619D01*
X159832142Y-76195238D01*
X158927380Y-75338095D02*
X159927380Y-75004761D01*
X158927380Y-74671428D01*
X38297619Y-82854761D02*
X38440476Y-82902380D01*
X38678571Y-82902380D01*
X38773809Y-82854761D01*
X38821428Y-82807142D01*
X38869047Y-82711904D01*
X38869047Y-82616666D01*
X38821428Y-82521428D01*
X38773809Y-82473809D01*
X38678571Y-82426190D01*
X38488095Y-82378571D01*
X38392857Y-82330952D01*
X38345238Y-82283333D01*
X38297619Y-82188095D01*
X38297619Y-82092857D01*
X38345238Y-81997619D01*
X38392857Y-81950000D01*
X38488095Y-81902380D01*
X38726190Y-81902380D01*
X38869047Y-81950000D01*
X39773809Y-82902380D02*
X39297619Y-82902380D01*
X39297619Y-81902380D01*
X40297619Y-81902380D02*
X40488095Y-81902380D01*
X40583333Y-81950000D01*
X40678571Y-82045238D01*
X40726190Y-82235714D01*
X40726190Y-82569047D01*
X40678571Y-82759523D01*
X40583333Y-82854761D01*
X40488095Y-82902380D01*
X40297619Y-82902380D01*
X40202380Y-82854761D01*
X40107142Y-82759523D01*
X40059523Y-82569047D01*
X40059523Y-82235714D01*
X40107142Y-82045238D01*
X40202380Y-81950000D01*
X40297619Y-81902380D01*
X41011904Y-81902380D02*
X41583333Y-81902380D01*
X41297619Y-82902380D02*
X41297619Y-81902380D01*
X43202380Y-82902380D02*
X42630952Y-82902380D01*
X42916666Y-82902380D02*
X42916666Y-81902380D01*
X42821428Y-82045238D01*
X42726190Y-82140476D01*
X42630952Y-82188095D01*
X155410000Y-29481904D02*
X155362380Y-29577142D01*
X155362380Y-29720000D01*
X155410000Y-29862857D01*
X155505238Y-29958095D01*
X155600476Y-30005714D01*
X155790952Y-30053333D01*
X155933809Y-30053333D01*
X156124285Y-30005714D01*
X156219523Y-29958095D01*
X156314761Y-29862857D01*
X156362380Y-29720000D01*
X156362380Y-29624761D01*
X156314761Y-29481904D01*
X156267142Y-29434285D01*
X155933809Y-29434285D01*
X155933809Y-29624761D01*
X156362380Y-29005714D02*
X155362380Y-29005714D01*
X156362380Y-28434285D01*
X155362380Y-28434285D01*
X156362380Y-27958095D02*
X155362380Y-27958095D01*
X155362380Y-27720000D01*
X155410000Y-27577142D01*
X155505238Y-27481904D01*
X155600476Y-27434285D01*
X155790952Y-27386666D01*
X155933809Y-27386666D01*
X156124285Y-27434285D01*
X156219523Y-27481904D01*
X156314761Y-27577142D01*
X156362380Y-27720000D01*
X156362380Y-27958095D01*
X52928095Y-74702380D02*
X53499523Y-74702380D01*
X53213809Y-75702380D02*
X53213809Y-74702380D01*
X53737619Y-74702380D02*
X54404285Y-75702380D01*
X54404285Y-74702380D02*
X53737619Y-75702380D01*
X176772380Y-93343333D02*
X175772380Y-93343333D01*
X176772380Y-92867142D02*
X175772380Y-92867142D01*
X176772380Y-92295714D01*
X175772380Y-92295714D01*
X175772380Y-91962380D02*
X175772380Y-91390952D01*
X176772380Y-91676666D02*
X175772380Y-91676666D01*
X175772380Y-90867142D02*
X175772380Y-90676666D01*
X175820000Y-90581428D01*
X175915238Y-90486190D01*
X176105714Y-90438571D01*
X176439047Y-90438571D01*
X176629523Y-90486190D01*
X176724761Y-90581428D01*
X176772380Y-90676666D01*
X176772380Y-90867142D01*
X176724761Y-90962380D01*
X176629523Y-91057619D01*
X176439047Y-91105238D01*
X176105714Y-91105238D01*
X175915238Y-91057619D01*
X175820000Y-90962380D01*
X175772380Y-90867142D01*
X175772380Y-90010000D02*
X176581904Y-90010000D01*
X176677142Y-89962380D01*
X176724761Y-89914761D01*
X176772380Y-89819523D01*
X176772380Y-89629047D01*
X176724761Y-89533809D01*
X176677142Y-89486190D01*
X176581904Y-89438571D01*
X175772380Y-89438571D01*
X175772380Y-89105238D02*
X175772380Y-88533809D01*
X176772380Y-88819523D02*
X175772380Y-88819523D01*
X146066666Y-90314285D02*
X146066666Y-89838095D01*
X146352380Y-90409523D02*
X145352380Y-90076190D01*
X146352380Y-89742857D01*
X146352380Y-89361904D02*
X146352380Y-89171428D01*
X146304761Y-89076190D01*
X146257142Y-89028571D01*
X146114285Y-88933333D01*
X145923809Y-88885714D01*
X145542857Y-88885714D01*
X145447619Y-88933333D01*
X145400000Y-88980952D01*
X145352380Y-89076190D01*
X145352380Y-89266666D01*
X145400000Y-89361904D01*
X145447619Y-89409523D01*
X145542857Y-89457142D01*
X145780952Y-89457142D01*
X145876190Y-89409523D01*
X145923809Y-89361904D01*
X145971428Y-89266666D01*
X145971428Y-89076190D01*
X145923809Y-88980952D01*
X145876190Y-88933333D01*
X145780952Y-88885714D01*
X103211619Y-90558952D02*
X103116380Y-90511333D01*
X103068761Y-90463714D01*
X103021142Y-90368476D01*
X103021142Y-90320857D01*
X103068761Y-90225619D01*
X103116380Y-90178000D01*
X103211619Y-90130380D01*
X103402095Y-90130380D01*
X103497333Y-90178000D01*
X103544952Y-90225619D01*
X103592571Y-90320857D01*
X103592571Y-90368476D01*
X103544952Y-90463714D01*
X103497333Y-90511333D01*
X103402095Y-90558952D01*
X103211619Y-90558952D01*
X103116380Y-90606571D01*
X103068761Y-90654190D01*
X103021142Y-90749428D01*
X103021142Y-90939904D01*
X103068761Y-91035142D01*
X103116380Y-91082761D01*
X103211619Y-91130380D01*
X103402095Y-91130380D01*
X103497333Y-91082761D01*
X103544952Y-91035142D01*
X103592571Y-90939904D01*
X103592571Y-90749428D01*
X103544952Y-90654190D01*
X103497333Y-90606571D01*
X103402095Y-90558952D01*
X103973523Y-90225619D02*
X104021142Y-90178000D01*
X104116380Y-90130380D01*
X104354476Y-90130380D01*
X104449714Y-90178000D01*
X104497333Y-90225619D01*
X104544952Y-90320857D01*
X104544952Y-90416095D01*
X104497333Y-90558952D01*
X103925904Y-91130380D01*
X104544952Y-91130380D01*
X105544952Y-91035142D02*
X105497333Y-91082761D01*
X105354476Y-91130380D01*
X105259238Y-91130380D01*
X105116380Y-91082761D01*
X105021142Y-90987523D01*
X104973523Y-90892285D01*
X104925904Y-90701809D01*
X104925904Y-90558952D01*
X104973523Y-90368476D01*
X105021142Y-90273238D01*
X105116380Y-90178000D01*
X105259238Y-90130380D01*
X105354476Y-90130380D01*
X105497333Y-90178000D01*
X105544952Y-90225619D01*
X106449714Y-90130380D02*
X105973523Y-90130380D01*
X105925904Y-90606571D01*
X105973523Y-90558952D01*
X106068761Y-90511333D01*
X106306857Y-90511333D01*
X106402095Y-90558952D01*
X106449714Y-90606571D01*
X106497333Y-90701809D01*
X106497333Y-90939904D01*
X106449714Y-91035142D01*
X106402095Y-91082761D01*
X106306857Y-91130380D01*
X106068761Y-91130380D01*
X105973523Y-91082761D01*
X105925904Y-91035142D01*
X107402095Y-90130380D02*
X106925904Y-90130380D01*
X106878285Y-90606571D01*
X106925904Y-90558952D01*
X107021142Y-90511333D01*
X107259238Y-90511333D01*
X107354476Y-90558952D01*
X107402095Y-90606571D01*
X107449714Y-90701809D01*
X107449714Y-90939904D01*
X107402095Y-91035142D01*
X107354476Y-91082761D01*
X107259238Y-91130380D01*
X107021142Y-91130380D01*
X106925904Y-91082761D01*
X106878285Y-91035142D01*
X107830666Y-90844666D02*
X108306857Y-90844666D01*
X107735428Y-91130380D02*
X108068761Y-90130380D01*
X108402095Y-91130380D01*
X79446380Y-37639428D02*
X78446380Y-37639428D01*
X79160666Y-37306095D01*
X78446380Y-36972761D01*
X79446380Y-36972761D01*
X78446380Y-36306095D02*
X78446380Y-36115619D01*
X78494000Y-36020380D01*
X78589238Y-35925142D01*
X78779714Y-35877523D01*
X79113047Y-35877523D01*
X79303523Y-35925142D01*
X79398761Y-36020380D01*
X79446380Y-36115619D01*
X79446380Y-36306095D01*
X79398761Y-36401333D01*
X79303523Y-36496571D01*
X79113047Y-36544190D01*
X78779714Y-36544190D01*
X78589238Y-36496571D01*
X78494000Y-36401333D01*
X78446380Y-36306095D01*
X79398761Y-35496571D02*
X79446380Y-35353714D01*
X79446380Y-35115619D01*
X79398761Y-35020380D01*
X79351142Y-34972761D01*
X79255904Y-34925142D01*
X79160666Y-34925142D01*
X79065428Y-34972761D01*
X79017809Y-35020380D01*
X78970190Y-35115619D01*
X78922571Y-35306095D01*
X78874952Y-35401333D01*
X78827333Y-35448952D01*
X78732095Y-35496571D01*
X78636857Y-35496571D01*
X78541619Y-35448952D01*
X78494000Y-35401333D01*
X78446380Y-35306095D01*
X78446380Y-35068000D01*
X78494000Y-34925142D01*
X79446380Y-34496571D02*
X78446380Y-34496571D01*
X123372380Y-30308095D02*
X122372380Y-30308095D01*
X122372380Y-29927142D01*
X122420000Y-29831904D01*
X122467619Y-29784285D01*
X122562857Y-29736666D01*
X122705714Y-29736666D01*
X122800952Y-29784285D01*
X122848571Y-29831904D01*
X122896190Y-29927142D01*
X122896190Y-30308095D01*
X122848571Y-28974761D02*
X122896190Y-28831904D01*
X122943809Y-28784285D01*
X123039047Y-28736666D01*
X123181904Y-28736666D01*
X123277142Y-28784285D01*
X123324761Y-28831904D01*
X123372380Y-28927142D01*
X123372380Y-29308095D01*
X122372380Y-29308095D01*
X122372380Y-28974761D01*
X122420000Y-28879523D01*
X122467619Y-28831904D01*
X122562857Y-28784285D01*
X122658095Y-28784285D01*
X122753333Y-28831904D01*
X122800952Y-28879523D01*
X122848571Y-28974761D01*
X122848571Y-29308095D01*
X122467619Y-28355714D02*
X122420000Y-28308095D01*
X122372380Y-28212857D01*
X122372380Y-27974761D01*
X122420000Y-27879523D01*
X122467619Y-27831904D01*
X122562857Y-27784285D01*
X122658095Y-27784285D01*
X122800952Y-27831904D01*
X123372380Y-28403333D01*
X123372380Y-27784285D01*
X81637142Y-36996666D02*
X81684761Y-37044285D01*
X81732380Y-37187142D01*
X81732380Y-37282380D01*
X81684761Y-37425238D01*
X81589523Y-37520476D01*
X81494285Y-37568095D01*
X81303809Y-37615714D01*
X81160952Y-37615714D01*
X80970476Y-37568095D01*
X80875238Y-37520476D01*
X80780000Y-37425238D01*
X80732380Y-37282380D01*
X80732380Y-37187142D01*
X80780000Y-37044285D01*
X80827619Y-36996666D01*
X81684761Y-36615714D02*
X81732380Y-36472857D01*
X81732380Y-36234761D01*
X81684761Y-36139523D01*
X81637142Y-36091904D01*
X81541904Y-36044285D01*
X81446666Y-36044285D01*
X81351428Y-36091904D01*
X81303809Y-36139523D01*
X81256190Y-36234761D01*
X81208571Y-36425238D01*
X81160952Y-36520476D01*
X81113333Y-36568095D01*
X81018095Y-36615714D01*
X80922857Y-36615714D01*
X80827619Y-36568095D01*
X80780000Y-36520476D01*
X80732380Y-36425238D01*
X80732380Y-36187142D01*
X80780000Y-36044285D01*
X145027380Y-77488095D02*
X144027380Y-77488095D01*
X144027380Y-77107142D01*
X144075000Y-77011904D01*
X144122619Y-76964285D01*
X144217857Y-76916666D01*
X144360714Y-76916666D01*
X144455952Y-76964285D01*
X144503571Y-77011904D01*
X144551190Y-77107142D01*
X144551190Y-77488095D01*
X145027380Y-76488095D02*
X144027380Y-76488095D01*
X144503571Y-76488095D02*
X144503571Y-75916666D01*
X145027380Y-75916666D02*
X144027380Y-75916666D01*
X144979761Y-75488095D02*
X145027380Y-75345238D01*
X145027380Y-75107142D01*
X144979761Y-75011904D01*
X144932142Y-74964285D01*
X144836904Y-74916666D01*
X144741666Y-74916666D01*
X144646428Y-74964285D01*
X144598809Y-75011904D01*
X144551190Y-75107142D01*
X144503571Y-75297619D01*
X144455952Y-75392857D01*
X144408333Y-75440476D01*
X144313095Y-75488095D01*
X144217857Y-75488095D01*
X144122619Y-75440476D01*
X144075000Y-75392857D01*
X144027380Y-75297619D01*
X144027380Y-75059523D01*
X144075000Y-74916666D01*
X144027380Y-74297619D02*
X144027380Y-74202380D01*
X144075000Y-74107142D01*
X144122619Y-74059523D01*
X144217857Y-74011904D01*
X144408333Y-73964285D01*
X144646428Y-73964285D01*
X144836904Y-74011904D01*
X144932142Y-74059523D01*
X144979761Y-74107142D01*
X145027380Y-74202380D01*
X145027380Y-74297619D01*
X144979761Y-74392857D01*
X144932142Y-74440476D01*
X144836904Y-74488095D01*
X144646428Y-74535714D01*
X144408333Y-74535714D01*
X144217857Y-74488095D01*
X144122619Y-74440476D01*
X144075000Y-74392857D01*
X144027380Y-74297619D01*
X157702380Y-77260714D02*
X156702380Y-77260714D01*
X157702380Y-76689285D01*
X156702380Y-76689285D01*
X157607142Y-75641666D02*
X157654761Y-75689285D01*
X157702380Y-75832142D01*
X157702380Y-75927380D01*
X157654761Y-76070238D01*
X157559523Y-76165476D01*
X157464285Y-76213095D01*
X157273809Y-76260714D01*
X157130952Y-76260714D01*
X156940476Y-76213095D01*
X156845238Y-76165476D01*
X156750000Y-76070238D01*
X156702380Y-75927380D01*
X156702380Y-75832142D01*
X156750000Y-75689285D01*
X156797619Y-75641666D01*
X61258095Y-77510000D02*
X61162857Y-77462380D01*
X61020000Y-77462380D01*
X60877142Y-77510000D01*
X60781904Y-77605238D01*
X60734285Y-77700476D01*
X60686666Y-77890952D01*
X60686666Y-78033809D01*
X60734285Y-78224285D01*
X60781904Y-78319523D01*
X60877142Y-78414761D01*
X61020000Y-78462380D01*
X61115238Y-78462380D01*
X61258095Y-78414761D01*
X61305714Y-78367142D01*
X61305714Y-78033809D01*
X61115238Y-78033809D01*
X61734285Y-78462380D02*
X61734285Y-77462380D01*
X62305714Y-78462380D01*
X62305714Y-77462380D01*
X62781904Y-78462380D02*
X62781904Y-77462380D01*
X63020000Y-77462380D01*
X63162857Y-77510000D01*
X63258095Y-77605238D01*
X63305714Y-77700476D01*
X63353333Y-77890952D01*
X63353333Y-78033809D01*
X63305714Y-78224285D01*
X63258095Y-78319523D01*
X63162857Y-78414761D01*
X63020000Y-78462380D01*
X62781904Y-78462380D01*
X153251428Y-30285714D02*
X153251428Y-29523809D01*
X153632380Y-29904761D02*
X152870476Y-29904761D01*
X152632380Y-28571428D02*
X152632380Y-29047619D01*
X153108571Y-29095238D01*
X153060952Y-29047619D01*
X153013333Y-28952380D01*
X153013333Y-28714285D01*
X153060952Y-28619047D01*
X153108571Y-28571428D01*
X153203809Y-28523809D01*
X153441904Y-28523809D01*
X153537142Y-28571428D01*
X153584761Y-28619047D01*
X153632380Y-28714285D01*
X153632380Y-28952380D01*
X153584761Y-29047619D01*
X153537142Y-29095238D01*
X152632380Y-28238095D02*
X153632380Y-27904761D01*
X152632380Y-27571428D01*
D11*
X161815714Y-29602761D02*
X161815714Y-27602761D01*
X162291904Y-27602761D01*
X162577619Y-27698000D01*
X162768095Y-27888476D01*
X162863333Y-28078952D01*
X162958571Y-28459904D01*
X162958571Y-28745619D01*
X162863333Y-29126571D01*
X162768095Y-29317047D01*
X162577619Y-29507523D01*
X162291904Y-29602761D01*
X161815714Y-29602761D01*
X163720476Y-29031333D02*
X164672857Y-29031333D01*
X163530000Y-29602761D02*
X164196666Y-27602761D01*
X164863333Y-29602761D01*
X165530000Y-29602761D02*
X165530000Y-27602761D01*
X166672857Y-29602761D01*
X166672857Y-27602761D01*
X168958571Y-30269428D02*
X169434761Y-30269428D01*
X169434761Y-27412285D01*
X168958571Y-27412285D01*
X171053809Y-30269428D02*
X170577619Y-30269428D01*
X170577619Y-27412285D01*
X171053809Y-27412285D01*
X174482380Y-29412285D02*
X174387142Y-29507523D01*
X174101428Y-29602761D01*
X173910952Y-29602761D01*
X173625238Y-29507523D01*
X173434761Y-29317047D01*
X173339523Y-29126571D01*
X173244285Y-28745619D01*
X173244285Y-28459904D01*
X173339523Y-28078952D01*
X173434761Y-27888476D01*
X173625238Y-27698000D01*
X173910952Y-27602761D01*
X174101428Y-27602761D01*
X174387142Y-27698000D01*
X174482380Y-27793238D01*
X175720476Y-27602761D02*
X176101428Y-27602761D01*
X176291904Y-27698000D01*
X176482380Y-27888476D01*
X176577619Y-28269428D01*
X176577619Y-28936095D01*
X176482380Y-29317047D01*
X176291904Y-29507523D01*
X176101428Y-29602761D01*
X175720476Y-29602761D01*
X175530000Y-29507523D01*
X175339523Y-29317047D01*
X175244285Y-28936095D01*
X175244285Y-28269428D01*
X175339523Y-27888476D01*
X175530000Y-27698000D01*
X175720476Y-27602761D01*
X177434761Y-29602761D02*
X177434761Y-27602761D01*
X178577619Y-29602761D01*
X178577619Y-27602761D01*
X179244285Y-27602761D02*
X180387142Y-27602761D01*
X179815714Y-29602761D02*
X179815714Y-27602761D01*
X182196666Y-29602761D02*
X181530000Y-28650380D01*
X181053809Y-29602761D02*
X181053809Y-27602761D01*
X181815714Y-27602761D01*
X182006190Y-27698000D01*
X182101428Y-27793238D01*
X182196666Y-27983714D01*
X182196666Y-28269428D01*
X182101428Y-28459904D01*
X182006190Y-28555142D01*
X181815714Y-28650380D01*
X181053809Y-28650380D01*
X183434761Y-27602761D02*
X183815714Y-27602761D01*
X184006190Y-27698000D01*
X184196666Y-27888476D01*
X184291904Y-28269428D01*
X184291904Y-28936095D01*
X184196666Y-29317047D01*
X184006190Y-29507523D01*
X183815714Y-29602761D01*
X183434761Y-29602761D01*
X183244285Y-29507523D01*
X183053809Y-29317047D01*
X182958571Y-28936095D01*
X182958571Y-28269428D01*
X183053809Y-27888476D01*
X183244285Y-27698000D01*
X183434761Y-27602761D01*
X186101428Y-29602761D02*
X185149047Y-29602761D01*
X185149047Y-27602761D01*
X187720476Y-29602761D02*
X186768095Y-29602761D01*
X186768095Y-27602761D01*
X188387142Y-28555142D02*
X189053809Y-28555142D01*
X189339523Y-29602761D02*
X188387142Y-29602761D01*
X188387142Y-27602761D01*
X189339523Y-27602761D01*
X191339523Y-29602761D02*
X190672857Y-28650380D01*
X190196666Y-29602761D02*
X190196666Y-27602761D01*
X190958571Y-27602761D01*
X191149047Y-27698000D01*
X191244285Y-27793238D01*
X191339523Y-27983714D01*
X191339523Y-28269428D01*
X191244285Y-28459904D01*
X191149047Y-28555142D01*
X190958571Y-28650380D01*
X190196666Y-28650380D01*
X161863333Y-32251333D02*
X162815714Y-32251333D01*
X161672857Y-32822761D02*
X162339523Y-30822761D01*
X163006190Y-32822761D01*
X164815714Y-32822761D02*
X164149047Y-31870380D01*
X163672857Y-32822761D02*
X163672857Y-30822761D01*
X164434761Y-30822761D01*
X164625238Y-30918000D01*
X164720476Y-31013238D01*
X164815714Y-31203714D01*
X164815714Y-31489428D01*
X164720476Y-31679904D01*
X164625238Y-31775142D01*
X164434761Y-31870380D01*
X163672857Y-31870380D01*
X165672857Y-32822761D02*
X165672857Y-30822761D01*
X166149047Y-30822761D01*
X166434761Y-30918000D01*
X166625238Y-31108476D01*
X166720476Y-31298952D01*
X166815714Y-31679904D01*
X166815714Y-31965619D01*
X166720476Y-32346571D01*
X166625238Y-32537047D01*
X166434761Y-32727523D01*
X166149047Y-32822761D01*
X165672857Y-32822761D01*
X167672857Y-30822761D02*
X167672857Y-32441809D01*
X167768095Y-32632285D01*
X167863333Y-32727523D01*
X168053809Y-32822761D01*
X168434761Y-32822761D01*
X168625238Y-32727523D01*
X168720476Y-32632285D01*
X168815714Y-32441809D01*
X168815714Y-30822761D01*
X169768095Y-32822761D02*
X169768095Y-30822761D01*
X170720476Y-32822761D02*
X170720476Y-30822761D01*
X171863333Y-32822761D01*
X171863333Y-30822761D01*
X173196666Y-30822761D02*
X173577619Y-30822761D01*
X173768095Y-30918000D01*
X173958571Y-31108476D01*
X174053809Y-31489428D01*
X174053809Y-32156095D01*
X173958571Y-32537047D01*
X173768095Y-32727523D01*
X173577619Y-32822761D01*
X173196666Y-32822761D01*
X173006190Y-32727523D01*
X172815714Y-32537047D01*
X172720476Y-32156095D01*
X172720476Y-31489428D01*
X172815714Y-31108476D01*
X173006190Y-30918000D01*
X173196666Y-30822761D01*
X176434761Y-32822761D02*
X176434761Y-30822761D01*
X177387142Y-32822761D02*
X177387142Y-30822761D01*
X178530000Y-32822761D01*
X178530000Y-30822761D01*
X179196666Y-30822761D02*
X180339523Y-30822761D01*
X179768095Y-32822761D02*
X179768095Y-30822761D01*
X181006190Y-31775142D02*
X181672857Y-31775142D01*
X181958571Y-32822761D02*
X181006190Y-32822761D01*
X181006190Y-30822761D01*
X181958571Y-30822761D01*
X183958571Y-32822761D02*
X183291904Y-31870380D01*
X182815714Y-32822761D02*
X182815714Y-30822761D01*
X183577619Y-30822761D01*
X183768095Y-30918000D01*
X183863333Y-31013238D01*
X183958571Y-31203714D01*
X183958571Y-31489428D01*
X183863333Y-31679904D01*
X183768095Y-31775142D01*
X183577619Y-31870380D01*
X182815714Y-31870380D01*
X185482380Y-31775142D02*
X184815714Y-31775142D01*
X184815714Y-32822761D02*
X184815714Y-30822761D01*
X185768095Y-30822761D01*
X186434761Y-32251333D02*
X187387142Y-32251333D01*
X186244285Y-32822761D02*
X186910952Y-30822761D01*
X187577619Y-32822761D01*
X189387142Y-32632285D02*
X189291904Y-32727523D01*
X189006190Y-32822761D01*
X188815714Y-32822761D01*
X188530000Y-32727523D01*
X188339523Y-32537047D01*
X188244285Y-32346571D01*
X188149047Y-31965619D01*
X188149047Y-31679904D01*
X188244285Y-31298952D01*
X188339523Y-31108476D01*
X188530000Y-30918000D01*
X188815714Y-30822761D01*
X189006190Y-30822761D01*
X189291904Y-30918000D01*
X189387142Y-31013238D01*
X190244285Y-31775142D02*
X190910952Y-31775142D01*
X191196666Y-32822761D02*
X190244285Y-32822761D01*
X190244285Y-30822761D01*
X191196666Y-30822761D01*
X168720476Y-34042761D02*
X169387142Y-36042761D01*
X170053809Y-34042761D01*
X170720476Y-34995142D02*
X171387142Y-34995142D01*
X171672857Y-36042761D02*
X170720476Y-36042761D01*
X170720476Y-34042761D01*
X171672857Y-34042761D01*
X173672857Y-36042761D02*
X173006190Y-35090380D01*
X172530000Y-36042761D02*
X172530000Y-34042761D01*
X173291904Y-34042761D01*
X173482380Y-34138000D01*
X173577619Y-34233238D01*
X173672857Y-34423714D01*
X173672857Y-34709428D01*
X173577619Y-34899904D01*
X173482380Y-34995142D01*
X173291904Y-35090380D01*
X172530000Y-35090380D01*
X174434761Y-35947523D02*
X174720476Y-36042761D01*
X175196666Y-36042761D01*
X175387142Y-35947523D01*
X175482380Y-35852285D01*
X175577619Y-35661809D01*
X175577619Y-35471333D01*
X175482380Y-35280857D01*
X175387142Y-35185619D01*
X175196666Y-35090380D01*
X174815714Y-34995142D01*
X174625238Y-34899904D01*
X174530000Y-34804666D01*
X174434761Y-34614190D01*
X174434761Y-34423714D01*
X174530000Y-34233238D01*
X174625238Y-34138000D01*
X174815714Y-34042761D01*
X175291904Y-34042761D01*
X175577619Y-34138000D01*
X176434761Y-36042761D02*
X176434761Y-34042761D01*
X177768095Y-34042761D02*
X178149047Y-34042761D01*
X178339523Y-34138000D01*
X178530000Y-34328476D01*
X178625238Y-34709428D01*
X178625238Y-35376095D01*
X178530000Y-35757047D01*
X178339523Y-35947523D01*
X178149047Y-36042761D01*
X177768095Y-36042761D01*
X177577619Y-35947523D01*
X177387142Y-35757047D01*
X177291904Y-35376095D01*
X177291904Y-34709428D01*
X177387142Y-34328476D01*
X177577619Y-34138000D01*
X177768095Y-34042761D01*
X179482380Y-36042761D02*
X179482380Y-34042761D01*
X180625238Y-36042761D01*
X180625238Y-34042761D01*
X183006190Y-34233238D02*
X183101428Y-34138000D01*
X183291904Y-34042761D01*
X183768095Y-34042761D01*
X183958571Y-34138000D01*
X184053809Y-34233238D01*
X184149047Y-34423714D01*
X184149047Y-34614190D01*
X184053809Y-34899904D01*
X182910952Y-36042761D01*
X184149047Y-36042761D01*
X166863333Y-39072285D02*
X166768095Y-39167523D01*
X166482380Y-39262761D01*
X166291904Y-39262761D01*
X166006190Y-39167523D01*
X165815714Y-38977047D01*
X165720476Y-38786571D01*
X165625238Y-38405619D01*
X165625238Y-38119904D01*
X165720476Y-37738952D01*
X165815714Y-37548476D01*
X166006190Y-37358000D01*
X166291904Y-37262761D01*
X166482380Y-37262761D01*
X166768095Y-37358000D01*
X166863333Y-37453238D01*
X168863333Y-39072285D02*
X168768095Y-39167523D01*
X168482380Y-39262761D01*
X168291904Y-39262761D01*
X168006190Y-39167523D01*
X167815714Y-38977047D01*
X167720476Y-38786571D01*
X167625238Y-38405619D01*
X167625238Y-38119904D01*
X167720476Y-37738952D01*
X167815714Y-37548476D01*
X168006190Y-37358000D01*
X168291904Y-37262761D01*
X168482380Y-37262761D01*
X168768095Y-37358000D01*
X168863333Y-37453238D01*
X169720476Y-38500857D02*
X171244285Y-38500857D01*
X172863333Y-38215142D02*
X173149047Y-38310380D01*
X173244285Y-38405619D01*
X173339523Y-38596095D01*
X173339523Y-38881809D01*
X173244285Y-39072285D01*
X173149047Y-39167523D01*
X172958571Y-39262761D01*
X172196666Y-39262761D01*
X172196666Y-37262761D01*
X172863333Y-37262761D01*
X173053809Y-37358000D01*
X173149047Y-37453238D01*
X173244285Y-37643714D01*
X173244285Y-37834190D01*
X173149047Y-38024666D01*
X173053809Y-38119904D01*
X172863333Y-38215142D01*
X172196666Y-38215142D01*
X174577619Y-38310380D02*
X174577619Y-39262761D01*
X173910952Y-37262761D02*
X174577619Y-38310380D01*
X175244285Y-37262761D01*
X175910952Y-38500857D02*
X177434761Y-38500857D01*
X178291904Y-39167523D02*
X178577619Y-39262761D01*
X179053809Y-39262761D01*
X179244285Y-39167523D01*
X179339523Y-39072285D01*
X179434761Y-38881809D01*
X179434761Y-38691333D01*
X179339523Y-38500857D01*
X179244285Y-38405619D01*
X179053809Y-38310380D01*
X178672857Y-38215142D01*
X178482380Y-38119904D01*
X178387142Y-38024666D01*
X178291904Y-37834190D01*
X178291904Y-37643714D01*
X178387142Y-37453238D01*
X178482380Y-37358000D01*
X178672857Y-37262761D01*
X179149047Y-37262761D01*
X179434761Y-37358000D01*
X180196666Y-38691333D02*
X181149047Y-38691333D01*
X180006190Y-39262761D02*
X180672857Y-37262761D01*
X181339523Y-39262761D01*
X184387142Y-37929428D02*
X184387142Y-39262761D01*
X183910952Y-37167523D02*
X183434761Y-38596095D01*
X184672857Y-38596095D01*
X185434761Y-39072285D02*
X185530000Y-39167523D01*
X185434761Y-39262761D01*
X185339523Y-39167523D01*
X185434761Y-39072285D01*
X185434761Y-39262761D01*
X186768095Y-37262761D02*
X186958571Y-37262761D01*
X187149047Y-37358000D01*
X187244285Y-37453238D01*
X187339523Y-37643714D01*
X187434761Y-38024666D01*
X187434761Y-38500857D01*
X187339523Y-38881809D01*
X187244285Y-39072285D01*
X187149047Y-39167523D01*
X186958571Y-39262761D01*
X186768095Y-39262761D01*
X186577619Y-39167523D01*
X186482380Y-39072285D01*
X186387142Y-38881809D01*
X186291904Y-38500857D01*
X186291904Y-38024666D01*
X186387142Y-37643714D01*
X186482380Y-37453238D01*
X186577619Y-37358000D01*
X186768095Y-37262761D01*
D10*
X179380000Y-76981904D02*
X179332380Y-77077142D01*
X179332380Y-77220000D01*
X179380000Y-77362857D01*
X179475238Y-77458095D01*
X179570476Y-77505714D01*
X179760952Y-77553333D01*
X179903809Y-77553333D01*
X180094285Y-77505714D01*
X180189523Y-77458095D01*
X180284761Y-77362857D01*
X180332380Y-77220000D01*
X180332380Y-77124761D01*
X180284761Y-76981904D01*
X180237142Y-76934285D01*
X179903809Y-76934285D01*
X179903809Y-77124761D01*
X180332380Y-76505714D02*
X179332380Y-76505714D01*
X180332380Y-75934285D01*
X179332380Y-75934285D01*
X180332380Y-75458095D02*
X179332380Y-75458095D01*
X179332380Y-75220000D01*
X179380000Y-75077142D01*
X179475238Y-74981904D01*
X179570476Y-74934285D01*
X179760952Y-74886666D01*
X179903809Y-74886666D01*
X180094285Y-74934285D01*
X180189523Y-74981904D01*
X180284761Y-75077142D01*
X180332380Y-75220000D01*
X180332380Y-75458095D01*
X128402380Y-30128095D02*
X127402380Y-30128095D01*
X127402380Y-29747142D01*
X127450000Y-29651904D01*
X127497619Y-29604285D01*
X127592857Y-29556666D01*
X127735714Y-29556666D01*
X127830952Y-29604285D01*
X127878571Y-29651904D01*
X127926190Y-29747142D01*
X127926190Y-30128095D01*
X127878571Y-28794761D02*
X127926190Y-28651904D01*
X127973809Y-28604285D01*
X128069047Y-28556666D01*
X128211904Y-28556666D01*
X128307142Y-28604285D01*
X128354761Y-28651904D01*
X128402380Y-28747142D01*
X128402380Y-29128095D01*
X127402380Y-29128095D01*
X127402380Y-28794761D01*
X127450000Y-28699523D01*
X127497619Y-28651904D01*
X127592857Y-28604285D01*
X127688095Y-28604285D01*
X127783333Y-28651904D01*
X127830952Y-28699523D01*
X127878571Y-28794761D01*
X127878571Y-29128095D01*
X127735714Y-27699523D02*
X128402380Y-27699523D01*
X127354761Y-27937619D02*
X128069047Y-28175714D01*
X128069047Y-27556666D01*
X154202380Y-77329761D02*
X154202380Y-76663095D01*
X155202380Y-77091666D01*
X155202380Y-76282142D02*
X154202380Y-76282142D01*
X154916666Y-75948809D01*
X154202380Y-75615476D01*
X155202380Y-75615476D01*
X130912380Y-30188095D02*
X129912380Y-30188095D01*
X129912380Y-29807142D01*
X129960000Y-29711904D01*
X130007619Y-29664285D01*
X130102857Y-29616666D01*
X130245714Y-29616666D01*
X130340952Y-29664285D01*
X130388571Y-29711904D01*
X130436190Y-29807142D01*
X130436190Y-30188095D01*
X130388571Y-28854761D02*
X130436190Y-28711904D01*
X130483809Y-28664285D01*
X130579047Y-28616666D01*
X130721904Y-28616666D01*
X130817142Y-28664285D01*
X130864761Y-28711904D01*
X130912380Y-28807142D01*
X130912380Y-29188095D01*
X129912380Y-29188095D01*
X129912380Y-28854761D01*
X129960000Y-28759523D01*
X130007619Y-28711904D01*
X130102857Y-28664285D01*
X130198095Y-28664285D01*
X130293333Y-28711904D01*
X130340952Y-28759523D01*
X130388571Y-28854761D01*
X130388571Y-29188095D01*
X129912380Y-27711904D02*
X129912380Y-28188095D01*
X130388571Y-28235714D01*
X130340952Y-28188095D01*
X130293333Y-28092857D01*
X130293333Y-27854761D01*
X130340952Y-27759523D01*
X130388571Y-27711904D01*
X130483809Y-27664285D01*
X130721904Y-27664285D01*
X130817142Y-27711904D01*
X130864761Y-27759523D01*
X130912380Y-27854761D01*
X130912380Y-28092857D01*
X130864761Y-28188095D01*
X130817142Y-28235714D01*
X166632380Y-90525714D02*
X165632380Y-90525714D01*
X166632380Y-89954285D01*
X165632380Y-89954285D01*
X166537142Y-88906666D02*
X166584761Y-88954285D01*
X166632380Y-89097142D01*
X166632380Y-89192380D01*
X166584761Y-89335238D01*
X166489523Y-89430476D01*
X166394285Y-89478095D01*
X166203809Y-89525714D01*
X166060952Y-89525714D01*
X165870476Y-89478095D01*
X165775238Y-89430476D01*
X165680000Y-89335238D01*
X165632380Y-89192380D01*
X165632380Y-89097142D01*
X165680000Y-88954285D01*
X165727619Y-88906666D01*
X75740000Y-45973904D02*
X75692380Y-46069142D01*
X75692380Y-46212000D01*
X75740000Y-46354857D01*
X75835238Y-46450095D01*
X75930476Y-46497714D01*
X76120952Y-46545333D01*
X76263809Y-46545333D01*
X76454285Y-46497714D01*
X76549523Y-46450095D01*
X76644761Y-46354857D01*
X76692380Y-46212000D01*
X76692380Y-46116761D01*
X76644761Y-45973904D01*
X76597142Y-45926285D01*
X76263809Y-45926285D01*
X76263809Y-46116761D01*
X76692380Y-45497714D02*
X75692380Y-45497714D01*
X76692380Y-44926285D01*
X75692380Y-44926285D01*
X76692380Y-44450095D02*
X75692380Y-44450095D01*
X75692380Y-44212000D01*
X75740000Y-44069142D01*
X75835238Y-43973904D01*
X75930476Y-43926285D01*
X76120952Y-43878666D01*
X76263809Y-43878666D01*
X76454285Y-43926285D01*
X76549523Y-43973904D01*
X76644761Y-44069142D01*
X76692380Y-44212000D01*
X76692380Y-44450095D01*
X123136666Y-90084285D02*
X123136666Y-89608095D01*
X123422380Y-90179523D02*
X122422380Y-89846190D01*
X123422380Y-89512857D01*
X122422380Y-88989047D02*
X122422380Y-88893809D01*
X122470000Y-88798571D01*
X122517619Y-88750952D01*
X122612857Y-88703333D01*
X122803333Y-88655714D01*
X123041428Y-88655714D01*
X123231904Y-88703333D01*
X123327142Y-88750952D01*
X123374761Y-88798571D01*
X123422380Y-88893809D01*
X123422380Y-88989047D01*
X123374761Y-89084285D01*
X123327142Y-89131904D01*
X123231904Y-89179523D01*
X123041428Y-89227142D01*
X122803333Y-89227142D01*
X122612857Y-89179523D01*
X122517619Y-89131904D01*
X122470000Y-89084285D01*
X122422380Y-88989047D01*
X129752380Y-77413095D02*
X128752380Y-77413095D01*
X128752380Y-77175000D01*
X128800000Y-77032142D01*
X128895238Y-76936904D01*
X128990476Y-76889285D01*
X129180952Y-76841666D01*
X129323809Y-76841666D01*
X129514285Y-76889285D01*
X129609523Y-76936904D01*
X129704761Y-77032142D01*
X129752380Y-77175000D01*
X129752380Y-77413095D01*
X128752380Y-76508333D02*
X128752380Y-75889285D01*
X129133333Y-76222619D01*
X129133333Y-76079761D01*
X129180952Y-75984523D01*
X129228571Y-75936904D01*
X129323809Y-75889285D01*
X129561904Y-75889285D01*
X129657142Y-75936904D01*
X129704761Y-75984523D01*
X129752380Y-76079761D01*
X129752380Y-76365476D01*
X129704761Y-76460714D01*
X129657142Y-76508333D01*
X133592380Y-30238095D02*
X132592380Y-30238095D01*
X132592380Y-29857142D01*
X132640000Y-29761904D01*
X132687619Y-29714285D01*
X132782857Y-29666666D01*
X132925714Y-29666666D01*
X133020952Y-29714285D01*
X133068571Y-29761904D01*
X133116190Y-29857142D01*
X133116190Y-30238095D01*
X133068571Y-28904761D02*
X133116190Y-28761904D01*
X133163809Y-28714285D01*
X133259047Y-28666666D01*
X133401904Y-28666666D01*
X133497142Y-28714285D01*
X133544761Y-28761904D01*
X133592380Y-28857142D01*
X133592380Y-29238095D01*
X132592380Y-29238095D01*
X132592380Y-28904761D01*
X132640000Y-28809523D01*
X132687619Y-28761904D01*
X132782857Y-28714285D01*
X132878095Y-28714285D01*
X132973333Y-28761904D01*
X133020952Y-28809523D01*
X133068571Y-28904761D01*
X133068571Y-29238095D01*
X132592380Y-27809523D02*
X132592380Y-28000000D01*
X132640000Y-28095238D01*
X132687619Y-28142857D01*
X132830476Y-28238095D01*
X133020952Y-28285714D01*
X133401904Y-28285714D01*
X133497142Y-28238095D01*
X133544761Y-28190476D01*
X133592380Y-28095238D01*
X133592380Y-27904761D01*
X133544761Y-27809523D01*
X133497142Y-27761904D01*
X133401904Y-27714285D01*
X133163809Y-27714285D01*
X133068571Y-27761904D01*
X133020952Y-27809523D01*
X132973333Y-27904761D01*
X132973333Y-28095238D01*
X133020952Y-28190476D01*
X133068571Y-28238095D01*
X133163809Y-28285714D01*
X125556666Y-90084285D02*
X125556666Y-89608095D01*
X125842380Y-90179523D02*
X124842380Y-89846190D01*
X125842380Y-89512857D01*
X125842380Y-88655714D02*
X125842380Y-89227142D01*
X125842380Y-88941428D02*
X124842380Y-88941428D01*
X124985238Y-89036666D01*
X125080476Y-89131904D01*
X125128095Y-89227142D01*
X139727380Y-77388095D02*
X138727380Y-77388095D01*
X138727380Y-77150000D01*
X138775000Y-77007142D01*
X138870238Y-76911904D01*
X138965476Y-76864285D01*
X139155952Y-76816666D01*
X139298809Y-76816666D01*
X139489285Y-76864285D01*
X139584523Y-76911904D01*
X139679761Y-77007142D01*
X139727380Y-77150000D01*
X139727380Y-77388095D01*
X138727380Y-76483333D02*
X138727380Y-75816666D01*
X139727380Y-76245238D01*
X38047619Y-40644761D02*
X38190476Y-40692380D01*
X38428571Y-40692380D01*
X38523809Y-40644761D01*
X38571428Y-40597142D01*
X38619047Y-40501904D01*
X38619047Y-40406666D01*
X38571428Y-40311428D01*
X38523809Y-40263809D01*
X38428571Y-40216190D01*
X38238095Y-40168571D01*
X38142857Y-40120952D01*
X38095238Y-40073333D01*
X38047619Y-39978095D01*
X38047619Y-39882857D01*
X38095238Y-39787619D01*
X38142857Y-39740000D01*
X38238095Y-39692380D01*
X38476190Y-39692380D01*
X38619047Y-39740000D01*
X39523809Y-40692380D02*
X39047619Y-40692380D01*
X39047619Y-39692380D01*
X40047619Y-39692380D02*
X40238095Y-39692380D01*
X40333333Y-39740000D01*
X40428571Y-39835238D01*
X40476190Y-40025714D01*
X40476190Y-40359047D01*
X40428571Y-40549523D01*
X40333333Y-40644761D01*
X40238095Y-40692380D01*
X40047619Y-40692380D01*
X39952380Y-40644761D01*
X39857142Y-40549523D01*
X39809523Y-40359047D01*
X39809523Y-40025714D01*
X39857142Y-39835238D01*
X39952380Y-39740000D01*
X40047619Y-39692380D01*
X40761904Y-39692380D02*
X41333333Y-39692380D01*
X41047619Y-40692380D02*
X41047619Y-39692380D01*
X42380952Y-39787619D02*
X42428571Y-39740000D01*
X42523809Y-39692380D01*
X42761904Y-39692380D01*
X42857142Y-39740000D01*
X42904761Y-39787619D01*
X42952380Y-39882857D01*
X42952380Y-39978095D01*
X42904761Y-40120952D01*
X42333333Y-40692380D01*
X42952380Y-40692380D01*
X179392380Y-94120476D02*
X178392380Y-94120476D01*
X178392380Y-93882380D01*
X178440000Y-93739523D01*
X178535238Y-93644285D01*
X178630476Y-93596666D01*
X178820952Y-93549047D01*
X178963809Y-93549047D01*
X179154285Y-93596666D01*
X179249523Y-93644285D01*
X179344761Y-93739523D01*
X179392380Y-93882380D01*
X179392380Y-94120476D01*
X179392380Y-93120476D02*
X178392380Y-93120476D01*
X179106666Y-92787142D01*
X178392380Y-92453809D01*
X179392380Y-92453809D01*
X179106666Y-92025238D02*
X179106666Y-91549047D01*
X179392380Y-92120476D02*
X178392380Y-91787142D01*
X179392380Y-91453809D01*
X178392380Y-90930000D02*
X178392380Y-90739523D01*
X178440000Y-90644285D01*
X178535238Y-90549047D01*
X178725714Y-90501428D01*
X179059047Y-90501428D01*
X179249523Y-90549047D01*
X179344761Y-90644285D01*
X179392380Y-90739523D01*
X179392380Y-90930000D01*
X179344761Y-91025238D01*
X179249523Y-91120476D01*
X179059047Y-91168095D01*
X178725714Y-91168095D01*
X178535238Y-91120476D01*
X178440000Y-91025238D01*
X178392380Y-90930000D01*
X178392380Y-90072857D02*
X179201904Y-90072857D01*
X179297142Y-90025238D01*
X179344761Y-89977619D01*
X179392380Y-89882380D01*
X179392380Y-89691904D01*
X179344761Y-89596666D01*
X179297142Y-89549047D01*
X179201904Y-89501428D01*
X178392380Y-89501428D01*
X178392380Y-89168095D02*
X178392380Y-88596666D01*
X179392380Y-88882380D02*
X178392380Y-88882380D01*
X156196666Y-91160476D02*
X156196666Y-90684285D01*
X156482380Y-91255714D02*
X155482380Y-90922380D01*
X156482380Y-90589047D01*
X156482380Y-89731904D02*
X156482380Y-90303333D01*
X156482380Y-90017619D02*
X155482380Y-90017619D01*
X155625238Y-90112857D01*
X155720476Y-90208095D01*
X155768095Y-90303333D01*
X155482380Y-89398571D02*
X155482380Y-88779523D01*
X155863333Y-89112857D01*
X155863333Y-88970000D01*
X155910952Y-88874761D01*
X155958571Y-88827142D01*
X156053809Y-88779523D01*
X156291904Y-88779523D01*
X156387142Y-88827142D01*
X156434761Y-88874761D01*
X156482380Y-88970000D01*
X156482380Y-89255714D01*
X156434761Y-89350952D01*
X156387142Y-89398571D01*
X162121428Y-77386904D02*
X162121428Y-76625000D01*
X162502380Y-75625000D02*
X162502380Y-76196428D01*
X162502380Y-75910714D02*
X161502380Y-75910714D01*
X161645238Y-76005952D01*
X161740476Y-76101190D01*
X161788095Y-76196428D01*
X161597619Y-75244047D02*
X161550000Y-75196428D01*
X161502380Y-75101190D01*
X161502380Y-74863095D01*
X161550000Y-74767857D01*
X161597619Y-74720238D01*
X161692857Y-74672619D01*
X161788095Y-74672619D01*
X161930952Y-74720238D01*
X162502380Y-75291666D01*
X162502380Y-74672619D01*
X161502380Y-74386904D02*
X162502380Y-74053571D01*
X161502380Y-73720238D01*
X52187142Y-70812380D02*
X52187142Y-69812380D01*
X52425238Y-69812380D01*
X52568095Y-69860000D01*
X52663333Y-69955238D01*
X52710952Y-70050476D01*
X52758571Y-70240952D01*
X52758571Y-70383809D01*
X52710952Y-70574285D01*
X52663333Y-70669523D01*
X52568095Y-70764761D01*
X52425238Y-70812380D01*
X52187142Y-70812380D01*
X53044285Y-69812380D02*
X53615714Y-69812380D01*
X53330000Y-70812380D02*
X53330000Y-69812380D01*
X54520476Y-70812380D02*
X54187142Y-70336190D01*
X53949047Y-70812380D02*
X53949047Y-69812380D01*
X54330000Y-69812380D01*
X54425238Y-69860000D01*
X54472857Y-69907619D01*
X54520476Y-70002857D01*
X54520476Y-70145714D01*
X54472857Y-70240952D01*
X54425238Y-70288571D01*
X54330000Y-70336190D01*
X53949047Y-70336190D01*
X164072380Y-90031904D02*
X163596190Y-90365238D01*
X164072380Y-90603333D02*
X163072380Y-90603333D01*
X163072380Y-90222380D01*
X163120000Y-90127142D01*
X163167619Y-90079523D01*
X163262857Y-90031904D01*
X163405714Y-90031904D01*
X163500952Y-90079523D01*
X163548571Y-90127142D01*
X163596190Y-90222380D01*
X163596190Y-90603333D01*
X163072380Y-89698571D02*
X164072380Y-89460476D01*
X163358095Y-89270000D01*
X164072380Y-89079523D01*
X163072380Y-88841428D01*
X73985428Y-46497714D02*
X73985428Y-45735809D01*
X74366380Y-46116761D02*
X73604476Y-46116761D01*
X73366380Y-44783428D02*
X73366380Y-45259619D01*
X73842571Y-45307238D01*
X73794952Y-45259619D01*
X73747333Y-45164380D01*
X73747333Y-44926285D01*
X73794952Y-44831047D01*
X73842571Y-44783428D01*
X73937809Y-44735809D01*
X74175904Y-44735809D01*
X74271142Y-44783428D01*
X74318761Y-44831047D01*
X74366380Y-44926285D01*
X74366380Y-45164380D01*
X74318761Y-45259619D01*
X74271142Y-45307238D01*
X73366380Y-44450095D02*
X74366380Y-44116761D01*
X73366380Y-43783428D01*
X135716666Y-90174285D02*
X135716666Y-89698095D01*
X136002380Y-90269523D02*
X135002380Y-89936190D01*
X136002380Y-89602857D01*
X135002380Y-88793333D02*
X135002380Y-89269523D01*
X135478571Y-89317142D01*
X135430952Y-89269523D01*
X135383333Y-89174285D01*
X135383333Y-88936190D01*
X135430952Y-88840952D01*
X135478571Y-88793333D01*
X135573809Y-88745714D01*
X135811904Y-88745714D01*
X135907142Y-88793333D01*
X135954761Y-88840952D01*
X136002380Y-88936190D01*
X136002380Y-89174285D01*
X135954761Y-89269523D01*
X135907142Y-89317142D01*
X174232380Y-91391904D02*
X173232380Y-91391904D01*
X173232380Y-91153809D01*
X173280000Y-91010952D01*
X173375238Y-90915714D01*
X173470476Y-90868095D01*
X173660952Y-90820476D01*
X173803809Y-90820476D01*
X173994285Y-90868095D01*
X174089523Y-90915714D01*
X174184761Y-91010952D01*
X174232380Y-91153809D01*
X174232380Y-91391904D01*
X174232380Y-90391904D02*
X173232380Y-90391904D01*
X173946666Y-90058571D01*
X173232380Y-89725238D01*
X174232380Y-89725238D01*
X173946666Y-89296666D02*
X173946666Y-88820476D01*
X174232380Y-89391904D02*
X173232380Y-89058571D01*
X174232380Y-88725238D01*
X60761714Y-73302761D02*
X60904571Y-73350380D01*
X61142666Y-73350380D01*
X61237904Y-73302761D01*
X61285523Y-73255142D01*
X61333142Y-73159904D01*
X61333142Y-73064666D01*
X61285523Y-72969428D01*
X61237904Y-72921809D01*
X61142666Y-72874190D01*
X60952190Y-72826571D01*
X60856952Y-72778952D01*
X60809333Y-72731333D01*
X60761714Y-72636095D01*
X60761714Y-72540857D01*
X60809333Y-72445619D01*
X60856952Y-72398000D01*
X60952190Y-72350380D01*
X61190285Y-72350380D01*
X61333142Y-72398000D01*
X61761714Y-73350380D02*
X61761714Y-72350380D01*
X61999809Y-72350380D01*
X62142666Y-72398000D01*
X62237904Y-72493238D01*
X62285523Y-72588476D01*
X62333142Y-72778952D01*
X62333142Y-72921809D01*
X62285523Y-73112285D01*
X62237904Y-73207523D01*
X62142666Y-73302761D01*
X61999809Y-73350380D01*
X61761714Y-73350380D01*
X62714095Y-73064666D02*
X63190285Y-73064666D01*
X62618857Y-73350380D02*
X62952190Y-72350380D01*
X63285523Y-73350380D01*
X122227380Y-77488095D02*
X121227380Y-77488095D01*
X121227380Y-77250000D01*
X121275000Y-77107142D01*
X121370238Y-77011904D01*
X121465476Y-76964285D01*
X121655952Y-76916666D01*
X121798809Y-76916666D01*
X121989285Y-76964285D01*
X122084523Y-77011904D01*
X122179761Y-77107142D01*
X122227380Y-77250000D01*
X122227380Y-77488095D01*
X121227380Y-76297619D02*
X121227380Y-76202380D01*
X121275000Y-76107142D01*
X121322619Y-76059523D01*
X121417857Y-76011904D01*
X121608333Y-75964285D01*
X121846428Y-75964285D01*
X122036904Y-76011904D01*
X122132142Y-76059523D01*
X122179761Y-76107142D01*
X122227380Y-76202380D01*
X122227380Y-76297619D01*
X122179761Y-76392857D01*
X122132142Y-76440476D01*
X122036904Y-76488095D01*
X121846428Y-76535714D01*
X121608333Y-76535714D01*
X121417857Y-76488095D01*
X121322619Y-76440476D01*
X121275000Y-76392857D01*
X121227380Y-76297619D01*
X143785714Y-72252380D02*
X143214285Y-72252380D01*
X143500000Y-72252380D02*
X143500000Y-71252380D01*
X143404761Y-71395238D01*
X143309523Y-71490476D01*
X143214285Y-71538095D01*
X181611428Y-91475714D02*
X181611428Y-90713809D01*
X181992380Y-91094761D02*
X181230476Y-91094761D01*
X180992380Y-89761428D02*
X180992380Y-90237619D01*
X181468571Y-90285238D01*
X181420952Y-90237619D01*
X181373333Y-90142380D01*
X181373333Y-89904285D01*
X181420952Y-89809047D01*
X181468571Y-89761428D01*
X181563809Y-89713809D01*
X181801904Y-89713809D01*
X181897142Y-89761428D01*
X181944761Y-89809047D01*
X181992380Y-89904285D01*
X181992380Y-90142380D01*
X181944761Y-90237619D01*
X181897142Y-90285238D01*
X180992380Y-89428095D02*
X181992380Y-89094761D01*
X180992380Y-88761428D01*
X150027380Y-77338095D02*
X149027380Y-77338095D01*
X149027380Y-76957142D01*
X149075000Y-76861904D01*
X149122619Y-76814285D01*
X149217857Y-76766666D01*
X149360714Y-76766666D01*
X149455952Y-76814285D01*
X149503571Y-76861904D01*
X149551190Y-76957142D01*
X149551190Y-77338095D01*
X150027380Y-76338095D02*
X149027380Y-76338095D01*
X149503571Y-76338095D02*
X149503571Y-75766666D01*
X150027380Y-75766666D02*
X149027380Y-75766666D01*
X149979761Y-75338095D02*
X150027380Y-75195238D01*
X150027380Y-74957142D01*
X149979761Y-74861904D01*
X149932142Y-74814285D01*
X149836904Y-74766666D01*
X149741666Y-74766666D01*
X149646428Y-74814285D01*
X149598809Y-74861904D01*
X149551190Y-74957142D01*
X149503571Y-75147619D01*
X149455952Y-75242857D01*
X149408333Y-75290476D01*
X149313095Y-75338095D01*
X149217857Y-75338095D01*
X149122619Y-75290476D01*
X149075000Y-75242857D01*
X149027380Y-75147619D01*
X149027380Y-74909523D01*
X149075000Y-74766666D01*
X150027380Y-73814285D02*
X150027380Y-74385714D01*
X150027380Y-74100000D02*
X149027380Y-74100000D01*
X149170238Y-74195238D01*
X149265476Y-74290476D01*
X149313095Y-74385714D01*
X167802380Y-76719047D02*
X167326190Y-77052380D01*
X167802380Y-77290476D02*
X166802380Y-77290476D01*
X166802380Y-76909523D01*
X166850000Y-76814285D01*
X166897619Y-76766666D01*
X166992857Y-76719047D01*
X167135714Y-76719047D01*
X167230952Y-76766666D01*
X167278571Y-76814285D01*
X167326190Y-76909523D01*
X167326190Y-77290476D01*
X167278571Y-76290476D02*
X167278571Y-75957142D01*
X167802380Y-75814285D02*
X167802380Y-76290476D01*
X166802380Y-76290476D01*
X166802380Y-75814285D01*
X167754761Y-75433333D02*
X167802380Y-75290476D01*
X167802380Y-75052380D01*
X167754761Y-74957142D01*
X167707142Y-74909523D01*
X167611904Y-74861904D01*
X167516666Y-74861904D01*
X167421428Y-74909523D01*
X167373809Y-74957142D01*
X167326190Y-75052380D01*
X167278571Y-75242857D01*
X167230952Y-75338095D01*
X167183333Y-75385714D01*
X167088095Y-75433333D01*
X166992857Y-75433333D01*
X166897619Y-75385714D01*
X166850000Y-75338095D01*
X166802380Y-75242857D01*
X166802380Y-75004761D01*
X166850000Y-74861904D01*
X171712380Y-90559047D02*
X171236190Y-90892380D01*
X171712380Y-91130476D02*
X170712380Y-91130476D01*
X170712380Y-90749523D01*
X170760000Y-90654285D01*
X170807619Y-90606666D01*
X170902857Y-90559047D01*
X171045714Y-90559047D01*
X171140952Y-90606666D01*
X171188571Y-90654285D01*
X171236190Y-90749523D01*
X171236190Y-91130476D01*
X171712380Y-90130476D02*
X170712380Y-90130476D01*
X170712380Y-89892380D01*
X170760000Y-89749523D01*
X170855238Y-89654285D01*
X170950476Y-89606666D01*
X171140952Y-89559047D01*
X171283809Y-89559047D01*
X171474285Y-89606666D01*
X171569523Y-89654285D01*
X171664761Y-89749523D01*
X171712380Y-89892380D01*
X171712380Y-90130476D01*
X171236190Y-88940000D02*
X171712380Y-88940000D01*
X170712380Y-89273333D02*
X171236190Y-88940000D01*
X170712380Y-88606666D01*
X151156666Y-91170476D02*
X151156666Y-90694285D01*
X151442380Y-91265714D02*
X150442380Y-90932380D01*
X151442380Y-90599047D01*
X151442380Y-89741904D02*
X151442380Y-90313333D01*
X151442380Y-90027619D02*
X150442380Y-90027619D01*
X150585238Y-90122857D01*
X150680476Y-90218095D01*
X150728095Y-90313333D01*
X151442380Y-88789523D02*
X151442380Y-89360952D01*
X151442380Y-89075238D02*
X150442380Y-89075238D01*
X150585238Y-89170476D01*
X150680476Y-89265714D01*
X150728095Y-89360952D01*
X64334000Y-84240666D02*
X64810190Y-84240666D01*
X64238761Y-84526380D02*
X64572095Y-83526380D01*
X64905428Y-84526380D01*
X65095904Y-83526380D02*
X65667333Y-83526380D01*
X65381619Y-84526380D02*
X65381619Y-83526380D01*
X66000666Y-84526380D02*
X66000666Y-83526380D01*
X66334000Y-84240666D01*
X66667333Y-83526380D01*
X66667333Y-84526380D01*
X67143523Y-84002571D02*
X67476857Y-84002571D01*
X67619714Y-84526380D02*
X67143523Y-84526380D01*
X67143523Y-83526380D01*
X67619714Y-83526380D01*
X68572095Y-83574000D02*
X68476857Y-83526380D01*
X68334000Y-83526380D01*
X68191142Y-83574000D01*
X68095904Y-83669238D01*
X68048285Y-83764476D01*
X68000666Y-83954952D01*
X68000666Y-84097809D01*
X68048285Y-84288285D01*
X68095904Y-84383523D01*
X68191142Y-84478761D01*
X68334000Y-84526380D01*
X68429238Y-84526380D01*
X68572095Y-84478761D01*
X68619714Y-84431142D01*
X68619714Y-84097809D01*
X68429238Y-84097809D01*
X69000666Y-84240666D02*
X69476857Y-84240666D01*
X68905428Y-84526380D02*
X69238761Y-83526380D01*
X69572095Y-84526380D01*
X69810190Y-83526380D02*
X70429238Y-83526380D01*
X70095904Y-83907333D01*
X70238761Y-83907333D01*
X70334000Y-83954952D01*
X70381619Y-84002571D01*
X70429238Y-84097809D01*
X70429238Y-84335904D01*
X70381619Y-84431142D01*
X70334000Y-84478761D01*
X70238761Y-84526380D01*
X69953047Y-84526380D01*
X69857809Y-84478761D01*
X69810190Y-84431142D01*
X70810190Y-83621619D02*
X70857809Y-83574000D01*
X70953047Y-83526380D01*
X71191142Y-83526380D01*
X71286380Y-83574000D01*
X71334000Y-83621619D01*
X71381619Y-83716857D01*
X71381619Y-83812095D01*
X71334000Y-83954952D01*
X70762571Y-84526380D01*
X71381619Y-84526380D01*
X71953047Y-83954952D02*
X71857809Y-83907333D01*
X71810190Y-83859714D01*
X71762571Y-83764476D01*
X71762571Y-83716857D01*
X71810190Y-83621619D01*
X71857809Y-83574000D01*
X71953047Y-83526380D01*
X72143523Y-83526380D01*
X72238761Y-83574000D01*
X72286380Y-83621619D01*
X72334000Y-83716857D01*
X72334000Y-83764476D01*
X72286380Y-83859714D01*
X72238761Y-83907333D01*
X72143523Y-83954952D01*
X71953047Y-83954952D01*
X71857809Y-84002571D01*
X71810190Y-84050190D01*
X71762571Y-84145428D01*
X71762571Y-84335904D01*
X71810190Y-84431142D01*
X71857809Y-84478761D01*
X71953047Y-84526380D01*
X72143523Y-84526380D01*
X72238761Y-84478761D01*
X72286380Y-84431142D01*
X72334000Y-84335904D01*
X72334000Y-84145428D01*
X72286380Y-84050190D01*
X72238761Y-84002571D01*
X72143523Y-83954952D01*
X72762571Y-84526380D02*
X72762571Y-83526380D01*
X73143523Y-83526380D01*
X73238761Y-83574000D01*
X73286380Y-83621619D01*
X73334000Y-83716857D01*
X73334000Y-83859714D01*
X73286380Y-83954952D01*
X73238761Y-84002571D01*
X73143523Y-84050190D01*
X72762571Y-84050190D01*
X120902380Y-92557142D02*
X119902380Y-92557142D01*
X119902380Y-91890476D02*
X119902380Y-91700000D01*
X119950000Y-91604761D01*
X120045238Y-91509523D01*
X120235714Y-91461904D01*
X120569047Y-91461904D01*
X120759523Y-91509523D01*
X120854761Y-91604761D01*
X120902380Y-91700000D01*
X120902380Y-91890476D01*
X120854761Y-91985714D01*
X120759523Y-92080952D01*
X120569047Y-92128571D01*
X120235714Y-92128571D01*
X120045238Y-92080952D01*
X119950000Y-91985714D01*
X119902380Y-91890476D01*
X120854761Y-91080952D02*
X120902380Y-90938095D01*
X120902380Y-90700000D01*
X120854761Y-90604761D01*
X120807142Y-90557142D01*
X120711904Y-90509523D01*
X120616666Y-90509523D01*
X120521428Y-90557142D01*
X120473809Y-90604761D01*
X120426190Y-90700000D01*
X120378571Y-90890476D01*
X120330952Y-90985714D01*
X120283333Y-91033333D01*
X120188095Y-91080952D01*
X120092857Y-91080952D01*
X119997619Y-91033333D01*
X119950000Y-90985714D01*
X119902380Y-90890476D01*
X119902380Y-90652380D01*
X119950000Y-90509523D01*
X120378571Y-90080952D02*
X120378571Y-89747619D01*
X120902380Y-89604761D02*
X120902380Y-90080952D01*
X119902380Y-90080952D01*
X119902380Y-89604761D01*
X120902380Y-88700000D02*
X120902380Y-89176190D01*
X119902380Y-89176190D01*
X175427380Y-77341666D02*
X174427380Y-77341666D01*
X175427380Y-76865476D02*
X174427380Y-76865476D01*
X175427380Y-76294047D01*
X174427380Y-76294047D01*
X174427380Y-75960714D02*
X174427380Y-75389285D01*
X175427380Y-75675000D02*
X174427380Y-75675000D01*
X175427380Y-75055952D02*
X174427380Y-75055952D01*
X175427380Y-74579761D02*
X174427380Y-74579761D01*
X175427380Y-74008333D01*
X174427380Y-74008333D01*
X153616666Y-91140476D02*
X153616666Y-90664285D01*
X153902380Y-91235714D02*
X152902380Y-90902380D01*
X153902380Y-90569047D01*
X153902380Y-89711904D02*
X153902380Y-90283333D01*
X153902380Y-89997619D02*
X152902380Y-89997619D01*
X153045238Y-90092857D01*
X153140476Y-90188095D01*
X153188095Y-90283333D01*
X152997619Y-89330952D02*
X152950000Y-89283333D01*
X152902380Y-89188095D01*
X152902380Y-88950000D01*
X152950000Y-88854761D01*
X152997619Y-88807142D01*
X153092857Y-88759523D01*
X153188095Y-88759523D01*
X153330952Y-88807142D01*
X153902380Y-89378571D01*
X153902380Y-88759523D01*
X150249333Y-60920380D02*
X150916000Y-60920380D01*
X150487428Y-61920380D01*
X151725523Y-61253714D02*
X151725523Y-61920380D01*
X151487428Y-60872761D02*
X151249333Y-61587047D01*
X151868380Y-61587047D01*
X152249333Y-61920380D02*
X152249333Y-60920380D01*
X152249333Y-61396571D02*
X152820761Y-61396571D01*
X152820761Y-61920380D02*
X152820761Y-60920380D01*
X153868380Y-61825142D02*
X153820761Y-61872761D01*
X153677904Y-61920380D01*
X153582666Y-61920380D01*
X153439809Y-61872761D01*
X153344571Y-61777523D01*
X153296952Y-61682285D01*
X153249333Y-61491809D01*
X153249333Y-61348952D01*
X153296952Y-61158476D01*
X153344571Y-61063238D01*
X153439809Y-60968000D01*
X153582666Y-60920380D01*
X153677904Y-60920380D01*
X153820761Y-60968000D01*
X153868380Y-61015619D01*
X154154095Y-60920380D02*
X154725523Y-60920380D01*
X154439809Y-61920380D02*
X154439809Y-60920380D01*
X155249333Y-60920380D02*
X155344571Y-60920380D01*
X155439809Y-60968000D01*
X155487428Y-61015619D01*
X155535047Y-61110857D01*
X155582666Y-61301333D01*
X155582666Y-61539428D01*
X155535047Y-61729904D01*
X155487428Y-61825142D01*
X155439809Y-61872761D01*
X155344571Y-61920380D01*
X155249333Y-61920380D01*
X155154095Y-61872761D01*
X155106476Y-61825142D01*
X155058857Y-61729904D01*
X155011238Y-61539428D01*
X155011238Y-61301333D01*
X155058857Y-61110857D01*
X155106476Y-61015619D01*
X155154095Y-60968000D01*
X155249333Y-60920380D01*
X156201714Y-60920380D02*
X156296952Y-60920380D01*
X156392190Y-60968000D01*
X156439809Y-61015619D01*
X156487428Y-61110857D01*
X156535047Y-61301333D01*
X156535047Y-61539428D01*
X156487428Y-61729904D01*
X156439809Y-61825142D01*
X156392190Y-61872761D01*
X156296952Y-61920380D01*
X156201714Y-61920380D01*
X156106476Y-61872761D01*
X156058857Y-61825142D01*
X156011238Y-61729904D01*
X155963619Y-61539428D01*
X155963619Y-61301333D01*
X156011238Y-61110857D01*
X156058857Y-61015619D01*
X156106476Y-60968000D01*
X156201714Y-60920380D01*
X83970761Y-37607714D02*
X84018380Y-37464857D01*
X84018380Y-37226761D01*
X83970761Y-37131523D01*
X83923142Y-37083904D01*
X83827904Y-37036285D01*
X83732666Y-37036285D01*
X83637428Y-37083904D01*
X83589809Y-37131523D01*
X83542190Y-37226761D01*
X83494571Y-37417238D01*
X83446952Y-37512476D01*
X83399333Y-37560095D01*
X83304095Y-37607714D01*
X83208857Y-37607714D01*
X83113619Y-37560095D01*
X83066000Y-37512476D01*
X83018380Y-37417238D01*
X83018380Y-37179142D01*
X83066000Y-37036285D01*
X83923142Y-36036285D02*
X83970761Y-36083904D01*
X84018380Y-36226761D01*
X84018380Y-36322000D01*
X83970761Y-36464857D01*
X83875523Y-36560095D01*
X83780285Y-36607714D01*
X83589809Y-36655333D01*
X83446952Y-36655333D01*
X83256476Y-36607714D01*
X83161238Y-36560095D01*
X83066000Y-36464857D01*
X83018380Y-36322000D01*
X83018380Y-36226761D01*
X83066000Y-36083904D01*
X83113619Y-36036285D01*
X84018380Y-35607714D02*
X83018380Y-35607714D01*
X84018380Y-35036285D02*
X83446952Y-35464857D01*
X83018380Y-35036285D02*
X83589809Y-35607714D01*
X142327380Y-77388095D02*
X141327380Y-77388095D01*
X141327380Y-77150000D01*
X141375000Y-77007142D01*
X141470238Y-76911904D01*
X141565476Y-76864285D01*
X141755952Y-76816666D01*
X141898809Y-76816666D01*
X142089285Y-76864285D01*
X142184523Y-76911904D01*
X142279761Y-77007142D01*
X142327380Y-77150000D01*
X142327380Y-77388095D01*
X142279761Y-76435714D02*
X142327380Y-76292857D01*
X142327380Y-76054761D01*
X142279761Y-75959523D01*
X142232142Y-75911904D01*
X142136904Y-75864285D01*
X142041666Y-75864285D01*
X141946428Y-75911904D01*
X141898809Y-75959523D01*
X141851190Y-76054761D01*
X141803571Y-76245238D01*
X141755952Y-76340476D01*
X141708333Y-76388095D01*
X141613095Y-76435714D01*
X141517857Y-76435714D01*
X141422619Y-76388095D01*
X141375000Y-76340476D01*
X141327380Y-76245238D01*
X141327380Y-76007142D01*
X141375000Y-75864285D01*
X60494285Y-67791428D02*
X61256190Y-67791428D01*
X60875238Y-68172380D02*
X60875238Y-67410476D01*
X62208571Y-67172380D02*
X61732380Y-67172380D01*
X61684761Y-67648571D01*
X61732380Y-67600952D01*
X61827619Y-67553333D01*
X62065714Y-67553333D01*
X62160952Y-67600952D01*
X62208571Y-67648571D01*
X62256190Y-67743809D01*
X62256190Y-67981904D01*
X62208571Y-68077142D01*
X62160952Y-68124761D01*
X62065714Y-68172380D01*
X61827619Y-68172380D01*
X61732380Y-68124761D01*
X61684761Y-68077142D01*
X62541904Y-67172380D02*
X62875238Y-68172380D01*
X63208571Y-67172380D01*
X178012380Y-77533809D02*
X177012380Y-77533809D01*
X177012380Y-77295714D01*
X177060000Y-77152857D01*
X177155238Y-77057619D01*
X177250476Y-77010000D01*
X177440952Y-76962380D01*
X177583809Y-76962380D01*
X177774285Y-77010000D01*
X177869523Y-77057619D01*
X177964761Y-77152857D01*
X178012380Y-77295714D01*
X178012380Y-77533809D01*
X178012380Y-76533809D02*
X177012380Y-76533809D01*
X177726666Y-76200476D01*
X177012380Y-75867142D01*
X178012380Y-75867142D01*
X177726666Y-75438571D02*
X177726666Y-74962380D01*
X178012380Y-75533809D02*
X177012380Y-75200476D01*
X178012380Y-74867142D01*
X178012380Y-74533809D02*
X177012380Y-74533809D01*
X178012380Y-74057619D02*
X177012380Y-74057619D01*
X178012380Y-73486190D01*
X177012380Y-73486190D01*
X141122380Y-30238095D02*
X140122380Y-30238095D01*
X140122380Y-29857142D01*
X140170000Y-29761904D01*
X140217619Y-29714285D01*
X140312857Y-29666666D01*
X140455714Y-29666666D01*
X140550952Y-29714285D01*
X140598571Y-29761904D01*
X140646190Y-29857142D01*
X140646190Y-30238095D01*
X141027142Y-28666666D02*
X141074761Y-28714285D01*
X141122380Y-28857142D01*
X141122380Y-28952380D01*
X141074761Y-29095238D01*
X140979523Y-29190476D01*
X140884285Y-29238095D01*
X140693809Y-29285714D01*
X140550952Y-29285714D01*
X140360476Y-29238095D01*
X140265238Y-29190476D01*
X140170000Y-29095238D01*
X140122380Y-28952380D01*
X140122380Y-28857142D01*
X140170000Y-28714285D01*
X140217619Y-28666666D01*
X140122380Y-28047619D02*
X140122380Y-27952380D01*
X140170000Y-27857142D01*
X140217619Y-27809523D01*
X140312857Y-27761904D01*
X140503333Y-27714285D01*
X140741428Y-27714285D01*
X140931904Y-27761904D01*
X141027142Y-27809523D01*
X141074761Y-27857142D01*
X141122380Y-27952380D01*
X141122380Y-28047619D01*
X141074761Y-28142857D01*
X141027142Y-28190476D01*
X140931904Y-28238095D01*
X140741428Y-28285714D01*
X140503333Y-28285714D01*
X140312857Y-28238095D01*
X140217619Y-28190476D01*
X140170000Y-28142857D01*
X140122380Y-28047619D01*
X88034761Y-41663809D02*
X88082380Y-41520952D01*
X88082380Y-41282857D01*
X88034761Y-41187619D01*
X87987142Y-41140000D01*
X87891904Y-41092380D01*
X87796666Y-41092380D01*
X87701428Y-41140000D01*
X87653809Y-41187619D01*
X87606190Y-41282857D01*
X87558571Y-41473333D01*
X87510952Y-41568571D01*
X87463333Y-41616190D01*
X87368095Y-41663809D01*
X87272857Y-41663809D01*
X87177619Y-41616190D01*
X87130000Y-41568571D01*
X87082380Y-41473333D01*
X87082380Y-41235238D01*
X87130000Y-41092380D01*
X88082380Y-40663809D02*
X87082380Y-40663809D01*
X87082380Y-40282857D01*
X87130000Y-40187619D01*
X87177619Y-40140000D01*
X87272857Y-40092380D01*
X87415714Y-40092380D01*
X87510952Y-40140000D01*
X87558571Y-40187619D01*
X87606190Y-40282857D01*
X87606190Y-40663809D01*
X88082380Y-39663809D02*
X87082380Y-39663809D01*
X121443714Y-36520380D02*
X120872285Y-36520380D01*
X121158000Y-36520380D02*
X121158000Y-35520380D01*
X121062761Y-35663238D01*
X120967523Y-35758476D01*
X120872285Y-35806095D01*
X118382380Y-30308095D02*
X117382380Y-30308095D01*
X117382380Y-29927142D01*
X117430000Y-29831904D01*
X117477619Y-29784285D01*
X117572857Y-29736666D01*
X117715714Y-29736666D01*
X117810952Y-29784285D01*
X117858571Y-29831904D01*
X117906190Y-29927142D01*
X117906190Y-30308095D01*
X117858571Y-28974761D02*
X117906190Y-28831904D01*
X117953809Y-28784285D01*
X118049047Y-28736666D01*
X118191904Y-28736666D01*
X118287142Y-28784285D01*
X118334761Y-28831904D01*
X118382380Y-28927142D01*
X118382380Y-29308095D01*
X117382380Y-29308095D01*
X117382380Y-28974761D01*
X117430000Y-28879523D01*
X117477619Y-28831904D01*
X117572857Y-28784285D01*
X117668095Y-28784285D01*
X117763333Y-28831904D01*
X117810952Y-28879523D01*
X117858571Y-28974761D01*
X117858571Y-29308095D01*
X117382380Y-28117619D02*
X117382380Y-28022380D01*
X117430000Y-27927142D01*
X117477619Y-27879523D01*
X117572857Y-27831904D01*
X117763333Y-27784285D01*
X118001428Y-27784285D01*
X118191904Y-27831904D01*
X118287142Y-27879523D01*
X118334761Y-27927142D01*
X118382380Y-28022380D01*
X118382380Y-28117619D01*
X118334761Y-28212857D01*
X118287142Y-28260476D01*
X118191904Y-28308095D01*
X118001428Y-28355714D01*
X117763333Y-28355714D01*
X117572857Y-28308095D01*
X117477619Y-28260476D01*
X117430000Y-28212857D01*
X117382380Y-28117619D01*
X60745714Y-47502380D02*
X60174285Y-47502380D01*
X60460000Y-47502380D02*
X60460000Y-46502380D01*
X60364761Y-46645238D01*
X60269523Y-46740476D01*
X60174285Y-46788095D01*
X76652380Y-37639428D02*
X75652380Y-37639428D01*
X76366666Y-37306095D01*
X75652380Y-36972761D01*
X76652380Y-36972761D01*
X76652380Y-36496571D02*
X75652380Y-36496571D01*
X76604761Y-36068000D02*
X76652380Y-35925142D01*
X76652380Y-35687047D01*
X76604761Y-35591809D01*
X76557142Y-35544190D01*
X76461904Y-35496571D01*
X76366666Y-35496571D01*
X76271428Y-35544190D01*
X76223809Y-35591809D01*
X76176190Y-35687047D01*
X76128571Y-35877523D01*
X76080952Y-35972761D01*
X76033333Y-36020380D01*
X75938095Y-36068000D01*
X75842857Y-36068000D01*
X75747619Y-36020380D01*
X75700000Y-35972761D01*
X75652380Y-35877523D01*
X75652380Y-35639428D01*
X75700000Y-35496571D01*
X75652380Y-34877523D02*
X75652380Y-34687047D01*
X75700000Y-34591809D01*
X75795238Y-34496571D01*
X75985714Y-34448952D01*
X76319047Y-34448952D01*
X76509523Y-34496571D01*
X76604761Y-34591809D01*
X76652380Y-34687047D01*
X76652380Y-34877523D01*
X76604761Y-34972761D01*
X76509523Y-35068000D01*
X76319047Y-35115619D01*
X75985714Y-35115619D01*
X75795238Y-35068000D01*
X75700000Y-34972761D01*
X75652380Y-34877523D01*
X128196666Y-90064285D02*
X128196666Y-89588095D01*
X128482380Y-90159523D02*
X127482380Y-89826190D01*
X128482380Y-89492857D01*
X127577619Y-89207142D02*
X127530000Y-89159523D01*
X127482380Y-89064285D01*
X127482380Y-88826190D01*
X127530000Y-88730952D01*
X127577619Y-88683333D01*
X127672857Y-88635714D01*
X127768095Y-88635714D01*
X127910952Y-88683333D01*
X128482380Y-89254761D01*
X128482380Y-88635714D01*
X133226666Y-90174285D02*
X133226666Y-89698095D01*
X133512380Y-90269523D02*
X132512380Y-89936190D01*
X133512380Y-89602857D01*
X132845714Y-88840952D02*
X133512380Y-88840952D01*
X132464761Y-89079047D02*
X133179047Y-89317142D01*
X133179047Y-88698095D01*
X173027380Y-77195238D02*
X172027380Y-77195238D01*
X173027380Y-76623809D01*
X172027380Y-76623809D01*
X173027380Y-76147619D02*
X172027380Y-76147619D01*
X172741666Y-75814285D01*
X172027380Y-75480952D01*
X173027380Y-75480952D01*
X173027380Y-75004761D02*
X172027380Y-75004761D01*
X152722619Y-76620238D02*
X152675000Y-76715476D01*
X152579761Y-76810714D01*
X152436904Y-76953571D01*
X152389285Y-77048809D01*
X152389285Y-77144047D01*
X152627380Y-77096428D02*
X152579761Y-77191666D01*
X152484523Y-77286904D01*
X152294047Y-77334523D01*
X151960714Y-77334523D01*
X151770238Y-77286904D01*
X151675000Y-77191666D01*
X151627380Y-77096428D01*
X151627380Y-76905952D01*
X151675000Y-76810714D01*
X151770238Y-76715476D01*
X151960714Y-76667857D01*
X152294047Y-76667857D01*
X152484523Y-76715476D01*
X152579761Y-76810714D01*
X152627380Y-76905952D01*
X152627380Y-77096428D01*
X151627380Y-76334523D02*
X151627380Y-75715476D01*
X152008333Y-76048809D01*
X152008333Y-75905952D01*
X152055952Y-75810714D01*
X152103571Y-75763095D01*
X152198809Y-75715476D01*
X152436904Y-75715476D01*
X152532142Y-75763095D01*
X152579761Y-75810714D01*
X152627380Y-75905952D01*
X152627380Y-76191666D01*
X152579761Y-76286904D01*
X152532142Y-76334523D01*
X126092380Y-30308095D02*
X125092380Y-30308095D01*
X125092380Y-29927142D01*
X125140000Y-29831904D01*
X125187619Y-29784285D01*
X125282857Y-29736666D01*
X125425714Y-29736666D01*
X125520952Y-29784285D01*
X125568571Y-29831904D01*
X125616190Y-29927142D01*
X125616190Y-30308095D01*
X125568571Y-28974761D02*
X125616190Y-28831904D01*
X125663809Y-28784285D01*
X125759047Y-28736666D01*
X125901904Y-28736666D01*
X125997142Y-28784285D01*
X126044761Y-28831904D01*
X126092380Y-28927142D01*
X126092380Y-29308095D01*
X125092380Y-29308095D01*
X125092380Y-28974761D01*
X125140000Y-28879523D01*
X125187619Y-28831904D01*
X125282857Y-28784285D01*
X125378095Y-28784285D01*
X125473333Y-28831904D01*
X125520952Y-28879523D01*
X125568571Y-28974761D01*
X125568571Y-29308095D01*
X125092380Y-28403333D02*
X125092380Y-27784285D01*
X125473333Y-28117619D01*
X125473333Y-27974761D01*
X125520952Y-27879523D01*
X125568571Y-27831904D01*
X125663809Y-27784285D01*
X125901904Y-27784285D01*
X125997142Y-27831904D01*
X126044761Y-27879523D01*
X126092380Y-27974761D01*
X126092380Y-28260476D01*
X126044761Y-28355714D01*
X125997142Y-28403333D01*
X146727380Y-77563095D02*
X147536904Y-77563095D01*
X147632142Y-77515476D01*
X147679761Y-77467857D01*
X147727380Y-77372619D01*
X147727380Y-77182142D01*
X147679761Y-77086904D01*
X147632142Y-77039285D01*
X147536904Y-76991666D01*
X146727380Y-76991666D01*
X147679761Y-76563095D02*
X147727380Y-76420238D01*
X147727380Y-76182142D01*
X147679761Y-76086904D01*
X147632142Y-76039285D01*
X147536904Y-75991666D01*
X147441666Y-75991666D01*
X147346428Y-76039285D01*
X147298809Y-76086904D01*
X147251190Y-76182142D01*
X147203571Y-76372619D01*
X147155952Y-76467857D01*
X147108333Y-76515476D01*
X147013095Y-76563095D01*
X146917857Y-76563095D01*
X146822619Y-76515476D01*
X146775000Y-76467857D01*
X146727380Y-76372619D01*
X146727380Y-76134523D01*
X146775000Y-75991666D01*
X147727380Y-74991666D02*
X147251190Y-75325000D01*
X147727380Y-75563095D02*
X146727380Y-75563095D01*
X146727380Y-75182142D01*
X146775000Y-75086904D01*
X146822619Y-75039285D01*
X146917857Y-74991666D01*
X147060714Y-74991666D01*
X147155952Y-75039285D01*
X147203571Y-75086904D01*
X147251190Y-75182142D01*
X147251190Y-75563095D01*
X147727380Y-74039285D02*
X147727380Y-74610714D01*
X147727380Y-74325000D02*
X146727380Y-74325000D01*
X146870238Y-74420238D01*
X146965476Y-74515476D01*
X147013095Y-74610714D01*
X127202380Y-77363095D02*
X126202380Y-77363095D01*
X126202380Y-77125000D01*
X126250000Y-76982142D01*
X126345238Y-76886904D01*
X126440476Y-76839285D01*
X126630952Y-76791666D01*
X126773809Y-76791666D01*
X126964285Y-76839285D01*
X127059523Y-76886904D01*
X127154761Y-76982142D01*
X127202380Y-77125000D01*
X127202380Y-77363095D01*
X126297619Y-76410714D02*
X126250000Y-76363095D01*
X126202380Y-76267857D01*
X126202380Y-76029761D01*
X126250000Y-75934523D01*
X126297619Y-75886904D01*
X126392857Y-75839285D01*
X126488095Y-75839285D01*
X126630952Y-75886904D01*
X127202380Y-76458333D01*
X127202380Y-75839285D01*
X108489714Y-89352380D02*
X107918285Y-89352380D01*
X108204000Y-89352380D02*
X108204000Y-88352380D01*
X108108761Y-88495238D01*
X108013523Y-88590476D01*
X107918285Y-88638095D01*
X60759523Y-75814761D02*
X60902380Y-75862380D01*
X61140476Y-75862380D01*
X61235714Y-75814761D01*
X61283333Y-75767142D01*
X61330952Y-75671904D01*
X61330952Y-75576666D01*
X61283333Y-75481428D01*
X61235714Y-75433809D01*
X61140476Y-75386190D01*
X60950000Y-75338571D01*
X60854761Y-75290952D01*
X60807142Y-75243333D01*
X60759523Y-75148095D01*
X60759523Y-75052857D01*
X60807142Y-74957619D01*
X60854761Y-74910000D01*
X60950000Y-74862380D01*
X61188095Y-74862380D01*
X61330952Y-74910000D01*
X62330952Y-75767142D02*
X62283333Y-75814761D01*
X62140476Y-75862380D01*
X62045238Y-75862380D01*
X61902380Y-75814761D01*
X61807142Y-75719523D01*
X61759523Y-75624285D01*
X61711904Y-75433809D01*
X61711904Y-75290952D01*
X61759523Y-75100476D01*
X61807142Y-75005238D01*
X61902380Y-74910000D01*
X62045238Y-74862380D01*
X62140476Y-74862380D01*
X62283333Y-74910000D01*
X62330952Y-74957619D01*
X63235714Y-75862380D02*
X62759523Y-75862380D01*
X62759523Y-74862380D01*
X165177380Y-77172619D02*
X164177380Y-77172619D01*
X165177380Y-76696428D02*
X164177380Y-76696428D01*
X165177380Y-76125000D01*
X164177380Y-76125000D01*
X165177380Y-75648809D02*
X164177380Y-75648809D01*
X164653571Y-75648809D02*
X164653571Y-75077380D01*
X165177380Y-75077380D02*
X164177380Y-75077380D01*
X170352380Y-77273809D02*
X169352380Y-77273809D01*
X170352380Y-76226190D02*
X169876190Y-76559523D01*
X170352380Y-76797619D02*
X169352380Y-76797619D01*
X169352380Y-76416666D01*
X169400000Y-76321428D01*
X169447619Y-76273809D01*
X169542857Y-76226190D01*
X169685714Y-76226190D01*
X169780952Y-76273809D01*
X169828571Y-76321428D01*
X169876190Y-76416666D01*
X169876190Y-76797619D01*
X170447619Y-75130952D02*
X170400000Y-75226190D01*
X170304761Y-75321428D01*
X170161904Y-75464285D01*
X170114285Y-75559523D01*
X170114285Y-75654761D01*
X170352380Y-75607142D02*
X170304761Y-75702380D01*
X170209523Y-75797619D01*
X170019047Y-75845238D01*
X169685714Y-75845238D01*
X169495238Y-75797619D01*
X169400000Y-75702380D01*
X169352380Y-75607142D01*
X169352380Y-75416666D01*
X169400000Y-75321428D01*
X169495238Y-75226190D01*
X169685714Y-75178571D01*
X170019047Y-75178571D01*
X170209523Y-75226190D01*
X170304761Y-75321428D01*
X170352380Y-75416666D01*
X170352380Y-75607142D01*
X158686666Y-91140476D02*
X158686666Y-90664285D01*
X158972380Y-91235714D02*
X157972380Y-90902380D01*
X158972380Y-90569047D01*
X158972380Y-89711904D02*
X158972380Y-90283333D01*
X158972380Y-89997619D02*
X157972380Y-89997619D01*
X158115238Y-90092857D01*
X158210476Y-90188095D01*
X158258095Y-90283333D01*
X158305714Y-88854761D02*
X158972380Y-88854761D01*
X157924761Y-89092857D02*
X158639047Y-89330952D01*
X158639047Y-88711904D01*
X146152380Y-30128095D02*
X145152380Y-30128095D01*
X145152380Y-29747142D01*
X145200000Y-29651904D01*
X145247619Y-29604285D01*
X145342857Y-29556666D01*
X145485714Y-29556666D01*
X145580952Y-29604285D01*
X145628571Y-29651904D01*
X145676190Y-29747142D01*
X145676190Y-30128095D01*
X146057142Y-28556666D02*
X146104761Y-28604285D01*
X146152380Y-28747142D01*
X146152380Y-28842380D01*
X146104761Y-28985238D01*
X146009523Y-29080476D01*
X145914285Y-29128095D01*
X145723809Y-29175714D01*
X145580952Y-29175714D01*
X145390476Y-29128095D01*
X145295238Y-29080476D01*
X145200000Y-28985238D01*
X145152380Y-28842380D01*
X145152380Y-28747142D01*
X145200000Y-28604285D01*
X145247619Y-28556666D01*
X145247619Y-28175714D02*
X145200000Y-28128095D01*
X145152380Y-28032857D01*
X145152380Y-27794761D01*
X145200000Y-27699523D01*
X145247619Y-27651904D01*
X145342857Y-27604285D01*
X145438095Y-27604285D01*
X145580952Y-27651904D01*
X146152380Y-28223333D01*
X146152380Y-27604285D01*
X75115714Y-81912380D02*
X74544285Y-81912380D01*
X74830000Y-81912380D02*
X74830000Y-80912380D01*
X74734761Y-81055238D01*
X74639523Y-81150476D01*
X74544285Y-81198095D01*
X132152380Y-77413095D02*
X131152380Y-77413095D01*
X131152380Y-77175000D01*
X131200000Y-77032142D01*
X131295238Y-76936904D01*
X131390476Y-76889285D01*
X131580952Y-76841666D01*
X131723809Y-76841666D01*
X131914285Y-76889285D01*
X132009523Y-76936904D01*
X132104761Y-77032142D01*
X132152380Y-77175000D01*
X132152380Y-77413095D01*
X131485714Y-75984523D02*
X132152380Y-75984523D01*
X131104761Y-76222619D02*
X131819047Y-76460714D01*
X131819047Y-75841666D01*
X82727142Y-57516666D02*
X82774761Y-57564285D01*
X82822380Y-57707142D01*
X82822380Y-57802380D01*
X82774761Y-57945238D01*
X82679523Y-58040476D01*
X82584285Y-58088095D01*
X82393809Y-58135714D01*
X82250952Y-58135714D01*
X82060476Y-58088095D01*
X81965238Y-58040476D01*
X81870000Y-57945238D01*
X81822380Y-57802380D01*
X81822380Y-57707142D01*
X81870000Y-57564285D01*
X81917619Y-57516666D01*
X81917619Y-57135714D02*
X81870000Y-57088095D01*
X81822380Y-56992857D01*
X81822380Y-56754761D01*
X81870000Y-56659523D01*
X81917619Y-56611904D01*
X82012857Y-56564285D01*
X82108095Y-56564285D01*
X82250952Y-56611904D01*
X82822380Y-57183333D01*
X82822380Y-56564285D01*
X61920380Y-33662857D02*
X61444190Y-33996190D01*
X61920380Y-34234285D02*
X60920380Y-34234285D01*
X60920380Y-33853333D01*
X60968000Y-33758095D01*
X61015619Y-33710476D01*
X61110857Y-33662857D01*
X61253714Y-33662857D01*
X61348952Y-33710476D01*
X61396571Y-33758095D01*
X61444190Y-33853333D01*
X61444190Y-34234285D01*
X61920380Y-32710476D02*
X61920380Y-33281904D01*
X61920380Y-32996190D02*
X60920380Y-32996190D01*
X61063238Y-33091428D01*
X61158476Y-33186666D01*
X61206095Y-33281904D01*
X60920380Y-31805714D02*
X60920380Y-32281904D01*
X61396571Y-32329523D01*
X61348952Y-32281904D01*
X61301333Y-32186666D01*
X61301333Y-31948571D01*
X61348952Y-31853333D01*
X61396571Y-31805714D01*
X61491809Y-31758095D01*
X61729904Y-31758095D01*
X61825142Y-31805714D01*
X61872761Y-31853333D01*
X61920380Y-31948571D01*
X61920380Y-32186666D01*
X61872761Y-32281904D01*
X61825142Y-32329523D01*
X95421904Y-92822380D02*
X95421904Y-91822380D01*
X95660000Y-91822380D01*
X95802857Y-91870000D01*
X95898095Y-91965238D01*
X95945714Y-92060476D01*
X95993333Y-92250952D01*
X95993333Y-92393809D01*
X95945714Y-92584285D01*
X95898095Y-92679523D01*
X95802857Y-92774761D01*
X95660000Y-92822380D01*
X95421904Y-92822380D01*
X96564761Y-92250952D02*
X96469523Y-92203333D01*
X96421904Y-92155714D01*
X96374285Y-92060476D01*
X96374285Y-92012857D01*
X96421904Y-91917619D01*
X96469523Y-91870000D01*
X96564761Y-91822380D01*
X96755238Y-91822380D01*
X96850476Y-91870000D01*
X96898095Y-91917619D01*
X96945714Y-92012857D01*
X96945714Y-92060476D01*
X96898095Y-92155714D01*
X96850476Y-92203333D01*
X96755238Y-92250952D01*
X96564761Y-92250952D01*
X96469523Y-92298571D01*
X96421904Y-92346190D01*
X96374285Y-92441428D01*
X96374285Y-92631904D01*
X96421904Y-92727142D01*
X96469523Y-92774761D01*
X96564761Y-92822380D01*
X96755238Y-92822380D01*
X96850476Y-92774761D01*
X96898095Y-92727142D01*
X96945714Y-92631904D01*
X96945714Y-92441428D01*
X96898095Y-92346190D01*
X96850476Y-92298571D01*
X96755238Y-92250952D01*
X56058333Y-90432380D02*
X55725000Y-89956190D01*
X55486904Y-90432380D02*
X55486904Y-89432380D01*
X55867857Y-89432380D01*
X55963095Y-89480000D01*
X56010714Y-89527619D01*
X56058333Y-89622857D01*
X56058333Y-89765714D01*
X56010714Y-89860952D01*
X55963095Y-89908571D01*
X55867857Y-89956190D01*
X55486904Y-89956190D01*
X56915476Y-89432380D02*
X56725000Y-89432380D01*
X56629761Y-89480000D01*
X56582142Y-89527619D01*
X56486904Y-89670476D01*
X56439285Y-89860952D01*
X56439285Y-90241904D01*
X56486904Y-90337142D01*
X56534523Y-90384761D01*
X56629761Y-90432380D01*
X56820238Y-90432380D01*
X56915476Y-90384761D01*
X56963095Y-90337142D01*
X57010714Y-90241904D01*
X57010714Y-90003809D01*
X56963095Y-89908571D01*
X56915476Y-89860952D01*
X56820238Y-89813333D01*
X56629761Y-89813333D01*
X56534523Y-89860952D01*
X56486904Y-89908571D01*
X56439285Y-90003809D01*
X56058333Y-87302380D02*
X55725000Y-86826190D01*
X55486904Y-87302380D02*
X55486904Y-86302380D01*
X55867857Y-86302380D01*
X55963095Y-86350000D01*
X56010714Y-86397619D01*
X56058333Y-86492857D01*
X56058333Y-86635714D01*
X56010714Y-86730952D01*
X55963095Y-86778571D01*
X55867857Y-86826190D01*
X55486904Y-86826190D01*
X56963095Y-86302380D02*
X56486904Y-86302380D01*
X56439285Y-86778571D01*
X56486904Y-86730952D01*
X56582142Y-86683333D01*
X56820238Y-86683333D01*
X56915476Y-86730952D01*
X56963095Y-86778571D01*
X57010714Y-86873809D01*
X57010714Y-87111904D01*
X56963095Y-87207142D01*
X56915476Y-87254761D01*
X56820238Y-87302380D01*
X56582142Y-87302380D01*
X56486904Y-87254761D01*
X56439285Y-87207142D01*
X42322380Y-89538095D02*
X41322380Y-89538095D01*
X41322380Y-89300000D01*
X41370000Y-89157142D01*
X41465238Y-89061904D01*
X41560476Y-89014285D01*
X41750952Y-88966666D01*
X41893809Y-88966666D01*
X42084285Y-89014285D01*
X42179523Y-89061904D01*
X42274761Y-89157142D01*
X42322380Y-89300000D01*
X42322380Y-89538095D01*
X41322380Y-88061904D02*
X41322380Y-88538095D01*
X41798571Y-88585714D01*
X41750952Y-88538095D01*
X41703333Y-88442857D01*
X41703333Y-88204761D01*
X41750952Y-88109523D01*
X41798571Y-88061904D01*
X41893809Y-88014285D01*
X42131904Y-88014285D01*
X42227142Y-88061904D01*
X42274761Y-88109523D01*
X42322380Y-88204761D01*
X42322380Y-88442857D01*
X42274761Y-88538095D01*
X42227142Y-88585714D01*
X140477142Y-40546666D02*
X140524761Y-40594285D01*
X140572380Y-40737142D01*
X140572380Y-40832380D01*
X140524761Y-40975238D01*
X140429523Y-41070476D01*
X140334285Y-41118095D01*
X140143809Y-41165714D01*
X140000952Y-41165714D01*
X139810476Y-41118095D01*
X139715238Y-41070476D01*
X139620000Y-40975238D01*
X139572380Y-40832380D01*
X139572380Y-40737142D01*
X139620000Y-40594285D01*
X139667619Y-40546666D01*
X140000952Y-39975238D02*
X139953333Y-40070476D01*
X139905714Y-40118095D01*
X139810476Y-40165714D01*
X139762857Y-40165714D01*
X139667619Y-40118095D01*
X139620000Y-40070476D01*
X139572380Y-39975238D01*
X139572380Y-39784761D01*
X139620000Y-39689523D01*
X139667619Y-39641904D01*
X139762857Y-39594285D01*
X139810476Y-39594285D01*
X139905714Y-39641904D01*
X139953333Y-39689523D01*
X140000952Y-39784761D01*
X140000952Y-39975238D01*
X140048571Y-40070476D01*
X140096190Y-40118095D01*
X140191428Y-40165714D01*
X140381904Y-40165714D01*
X140477142Y-40118095D01*
X140524761Y-40070476D01*
X140572380Y-39975238D01*
X140572380Y-39784761D01*
X140524761Y-39689523D01*
X140477142Y-39641904D01*
X140381904Y-39594285D01*
X140191428Y-39594285D01*
X140096190Y-39641904D01*
X140048571Y-39689523D01*
X140000952Y-39784761D01*
X38064380Y-74675904D02*
X38873904Y-74675904D01*
X38969142Y-74628285D01*
X39016761Y-74580666D01*
X39064380Y-74485428D01*
X39064380Y-74294952D01*
X39016761Y-74199714D01*
X38969142Y-74152095D01*
X38873904Y-74104476D01*
X38064380Y-74104476D01*
X38064380Y-73152095D02*
X38064380Y-73628285D01*
X38540571Y-73675904D01*
X38492952Y-73628285D01*
X38445333Y-73533047D01*
X38445333Y-73294952D01*
X38492952Y-73199714D01*
X38540571Y-73152095D01*
X38635809Y-73104476D01*
X38873904Y-73104476D01*
X38969142Y-73152095D01*
X39016761Y-73199714D01*
X39064380Y-73294952D01*
X39064380Y-73533047D01*
X39016761Y-73628285D01*
X38969142Y-73675904D01*
X79017904Y-68016380D02*
X79017904Y-67016380D01*
X79256000Y-67016380D01*
X79398857Y-67064000D01*
X79494095Y-67159238D01*
X79541714Y-67254476D01*
X79589333Y-67444952D01*
X79589333Y-67587809D01*
X79541714Y-67778285D01*
X79494095Y-67873523D01*
X79398857Y-67968761D01*
X79256000Y-68016380D01*
X79017904Y-68016380D01*
X79922666Y-67016380D02*
X80589333Y-67016380D01*
X80160761Y-68016380D01*
X142867142Y-62122857D02*
X142914761Y-62170476D01*
X142962380Y-62313333D01*
X142962380Y-62408571D01*
X142914761Y-62551428D01*
X142819523Y-62646666D01*
X142724285Y-62694285D01*
X142533809Y-62741904D01*
X142390952Y-62741904D01*
X142200476Y-62694285D01*
X142105238Y-62646666D01*
X142010000Y-62551428D01*
X141962380Y-62408571D01*
X141962380Y-62313333D01*
X142010000Y-62170476D01*
X142057619Y-62122857D01*
X142962380Y-61170476D02*
X142962380Y-61741904D01*
X142962380Y-61456190D02*
X141962380Y-61456190D01*
X142105238Y-61551428D01*
X142200476Y-61646666D01*
X142248095Y-61741904D01*
X141962380Y-60551428D02*
X141962380Y-60456190D01*
X142010000Y-60360952D01*
X142057619Y-60313333D01*
X142152857Y-60265714D01*
X142343333Y-60218095D01*
X142581428Y-60218095D01*
X142771904Y-60265714D01*
X142867142Y-60313333D01*
X142914761Y-60360952D01*
X142962380Y-60456190D01*
X142962380Y-60551428D01*
X142914761Y-60646666D01*
X142867142Y-60694285D01*
X142771904Y-60741904D01*
X142581428Y-60789523D01*
X142343333Y-60789523D01*
X142152857Y-60741904D01*
X142057619Y-60694285D01*
X142010000Y-60646666D01*
X141962380Y-60551428D01*
X52616666Y-64052380D02*
X52616666Y-64766666D01*
X52569047Y-64909523D01*
X52473809Y-65004761D01*
X52330952Y-65052380D01*
X52235714Y-65052380D01*
X53092857Y-65052380D02*
X53092857Y-64052380D01*
X53473809Y-64052380D01*
X53569047Y-64100000D01*
X53616666Y-64147619D01*
X53664285Y-64242857D01*
X53664285Y-64385714D01*
X53616666Y-64480952D01*
X53569047Y-64528571D01*
X53473809Y-64576190D01*
X53092857Y-64576190D01*
X54616666Y-65052380D02*
X54045238Y-65052380D01*
X54330952Y-65052380D02*
X54330952Y-64052380D01*
X54235714Y-64195238D01*
X54140476Y-64290476D01*
X54045238Y-64338095D01*
X78827333Y-71019142D02*
X78779714Y-71066761D01*
X78636857Y-71114380D01*
X78541619Y-71114380D01*
X78398761Y-71066761D01*
X78303523Y-70971523D01*
X78255904Y-70876285D01*
X78208285Y-70685809D01*
X78208285Y-70542952D01*
X78255904Y-70352476D01*
X78303523Y-70257238D01*
X78398761Y-70162000D01*
X78541619Y-70114380D01*
X78636857Y-70114380D01*
X78779714Y-70162000D01*
X78827333Y-70209619D01*
X79303523Y-71114380D02*
X79494000Y-71114380D01*
X79589238Y-71066761D01*
X79636857Y-71019142D01*
X79732095Y-70876285D01*
X79779714Y-70685809D01*
X79779714Y-70304857D01*
X79732095Y-70209619D01*
X79684476Y-70162000D01*
X79589238Y-70114380D01*
X79398761Y-70114380D01*
X79303523Y-70162000D01*
X79255904Y-70209619D01*
X79208285Y-70304857D01*
X79208285Y-70542952D01*
X79255904Y-70638190D01*
X79303523Y-70685809D01*
X79398761Y-70733428D01*
X79589238Y-70733428D01*
X79684476Y-70685809D01*
X79732095Y-70638190D01*
X79779714Y-70542952D01*
X41243142Y-34922666D02*
X41290761Y-34970285D01*
X41338380Y-35113142D01*
X41338380Y-35208380D01*
X41290761Y-35351238D01*
X41195523Y-35446476D01*
X41100285Y-35494095D01*
X40909809Y-35541714D01*
X40766952Y-35541714D01*
X40576476Y-35494095D01*
X40481238Y-35446476D01*
X40386000Y-35351238D01*
X40338380Y-35208380D01*
X40338380Y-35113142D01*
X40386000Y-34970285D01*
X40433619Y-34922666D01*
X40338380Y-34065523D02*
X40338380Y-34256000D01*
X40386000Y-34351238D01*
X40433619Y-34398857D01*
X40576476Y-34494095D01*
X40766952Y-34541714D01*
X41147904Y-34541714D01*
X41243142Y-34494095D01*
X41290761Y-34446476D01*
X41338380Y-34351238D01*
X41338380Y-34160761D01*
X41290761Y-34065523D01*
X41243142Y-34017904D01*
X41147904Y-33970285D01*
X40909809Y-33970285D01*
X40814571Y-34017904D01*
X40766952Y-34065523D01*
X40719333Y-34160761D01*
X40719333Y-34351238D01*
X40766952Y-34446476D01*
X40814571Y-34494095D01*
X40909809Y-34541714D01*
X162862380Y-48023333D02*
X163576666Y-48023333D01*
X163719523Y-48070952D01*
X163814761Y-48166190D01*
X163862380Y-48309047D01*
X163862380Y-48404285D01*
X163862380Y-47547142D02*
X162862380Y-47547142D01*
X162862380Y-47166190D01*
X162910000Y-47070952D01*
X162957619Y-47023333D01*
X163052857Y-46975714D01*
X163195714Y-46975714D01*
X163290952Y-47023333D01*
X163338571Y-47070952D01*
X163386190Y-47166190D01*
X163386190Y-47547142D01*
X162957619Y-46594761D02*
X162910000Y-46547142D01*
X162862380Y-46451904D01*
X162862380Y-46213809D01*
X162910000Y-46118571D01*
X162957619Y-46070952D01*
X163052857Y-46023333D01*
X163148095Y-46023333D01*
X163290952Y-46070952D01*
X163862380Y-46642380D01*
X163862380Y-46023333D01*
X149047142Y-54532380D02*
X148713809Y-54056190D01*
X148475714Y-54532380D02*
X148475714Y-53532380D01*
X148856666Y-53532380D01*
X148951904Y-53580000D01*
X148999523Y-53627619D01*
X149047142Y-53722857D01*
X149047142Y-53865714D01*
X148999523Y-53960952D01*
X148951904Y-54008571D01*
X148856666Y-54056190D01*
X148475714Y-54056190D01*
X149999523Y-54532380D02*
X149428095Y-54532380D01*
X149713809Y-54532380D02*
X149713809Y-53532380D01*
X149618571Y-53675238D01*
X149523333Y-53770476D01*
X149428095Y-53818095D01*
X150570952Y-53960952D02*
X150475714Y-53913333D01*
X150428095Y-53865714D01*
X150380476Y-53770476D01*
X150380476Y-53722857D01*
X150428095Y-53627619D01*
X150475714Y-53580000D01*
X150570952Y-53532380D01*
X150761428Y-53532380D01*
X150856666Y-53580000D01*
X150904285Y-53627619D01*
X150951904Y-53722857D01*
X150951904Y-53770476D01*
X150904285Y-53865714D01*
X150856666Y-53913333D01*
X150761428Y-53960952D01*
X150570952Y-53960952D01*
X150475714Y-54008571D01*
X150428095Y-54056190D01*
X150380476Y-54151428D01*
X150380476Y-54341904D01*
X150428095Y-54437142D01*
X150475714Y-54484761D01*
X150570952Y-54532380D01*
X150761428Y-54532380D01*
X150856666Y-54484761D01*
X150904285Y-54437142D01*
X150951904Y-54341904D01*
X150951904Y-54151428D01*
X150904285Y-54056190D01*
X150856666Y-54008571D01*
X150761428Y-53960952D01*
X40759142Y-62936380D02*
X40425809Y-62460190D01*
X40187714Y-62936380D02*
X40187714Y-61936380D01*
X40568666Y-61936380D01*
X40663904Y-61984000D01*
X40711523Y-62031619D01*
X40759142Y-62126857D01*
X40759142Y-62269714D01*
X40711523Y-62364952D01*
X40663904Y-62412571D01*
X40568666Y-62460190D01*
X40187714Y-62460190D01*
X41711523Y-62936380D02*
X41140095Y-62936380D01*
X41425809Y-62936380D02*
X41425809Y-61936380D01*
X41330571Y-62079238D01*
X41235333Y-62174476D01*
X41140095Y-62222095D01*
X42044857Y-61936380D02*
X42663904Y-61936380D01*
X42330571Y-62317333D01*
X42473428Y-62317333D01*
X42568666Y-62364952D01*
X42616285Y-62412571D01*
X42663904Y-62507809D01*
X42663904Y-62745904D01*
X42616285Y-62841142D01*
X42568666Y-62888761D01*
X42473428Y-62936380D01*
X42187714Y-62936380D01*
X42092476Y-62888761D01*
X42044857Y-62841142D01*
X47248380Y-34278095D02*
X46248380Y-34278095D01*
X46248380Y-34040000D01*
X46296000Y-33897142D01*
X46391238Y-33801904D01*
X46486476Y-33754285D01*
X46676952Y-33706666D01*
X46819809Y-33706666D01*
X47010285Y-33754285D01*
X47105523Y-33801904D01*
X47200761Y-33897142D01*
X47248380Y-34040000D01*
X47248380Y-34278095D01*
X46581714Y-32849523D02*
X47248380Y-32849523D01*
X46200761Y-33087619D02*
X46915047Y-33325714D01*
X46915047Y-32706666D01*
X68326095Y-85050380D02*
X68326095Y-85859904D01*
X68373714Y-85955142D01*
X68421333Y-86002761D01*
X68516571Y-86050380D01*
X68707047Y-86050380D01*
X68802285Y-86002761D01*
X68849904Y-85955142D01*
X68897523Y-85859904D01*
X68897523Y-85050380D01*
X69897523Y-86050380D02*
X69326095Y-86050380D01*
X69611809Y-86050380D02*
X69611809Y-85050380D01*
X69516571Y-85193238D01*
X69421333Y-85288476D01*
X69326095Y-85336095D01*
X77856190Y-55606190D02*
X78332380Y-55606190D01*
X77332380Y-55939523D02*
X77856190Y-55606190D01*
X77332380Y-55272857D01*
X78332380Y-54415714D02*
X78332380Y-54987142D01*
X78332380Y-54701428D02*
X77332380Y-54701428D01*
X77475238Y-54796666D01*
X77570476Y-54891904D01*
X77618095Y-54987142D01*
X57236666Y-64762380D02*
X57236666Y-65476666D01*
X57189047Y-65619523D01*
X57093809Y-65714761D01*
X56950952Y-65762380D01*
X56855714Y-65762380D01*
X58189047Y-64762380D02*
X57712857Y-64762380D01*
X57665238Y-65238571D01*
X57712857Y-65190952D01*
X57808095Y-65143333D01*
X58046190Y-65143333D01*
X58141428Y-65190952D01*
X58189047Y-65238571D01*
X58236666Y-65333809D01*
X58236666Y-65571904D01*
X58189047Y-65667142D01*
X58141428Y-65714761D01*
X58046190Y-65762380D01*
X57808095Y-65762380D01*
X57712857Y-65714761D01*
X57665238Y-65667142D01*
X51102380Y-71858095D02*
X50102380Y-71858095D01*
X50102380Y-71620000D01*
X50150000Y-71477142D01*
X50245238Y-71381904D01*
X50340476Y-71334285D01*
X50530952Y-71286666D01*
X50673809Y-71286666D01*
X50864285Y-71334285D01*
X50959523Y-71381904D01*
X51054761Y-71477142D01*
X51102380Y-71620000D01*
X51102380Y-71858095D01*
X51102380Y-70334285D02*
X51102380Y-70905714D01*
X51102380Y-70620000D02*
X50102380Y-70620000D01*
X50245238Y-70715238D01*
X50340476Y-70810476D01*
X50388095Y-70905714D01*
X117518380Y-86947333D02*
X118232666Y-86947333D01*
X118375523Y-86994952D01*
X118470761Y-87090190D01*
X118518380Y-87233047D01*
X118518380Y-87328285D01*
X117518380Y-86566380D02*
X117518380Y-85947333D01*
X117899333Y-86280666D01*
X117899333Y-86137809D01*
X117946952Y-86042571D01*
X117994571Y-85994952D01*
X118089809Y-85947333D01*
X118327904Y-85947333D01*
X118423142Y-85994952D01*
X118470761Y-86042571D01*
X118518380Y-86137809D01*
X118518380Y-86423523D01*
X118470761Y-86518761D01*
X118423142Y-86566380D01*
X116267380Y-79743333D02*
X116981666Y-79743333D01*
X117124523Y-79790952D01*
X117219761Y-79886190D01*
X117267380Y-80029047D01*
X117267380Y-80124285D01*
X116362619Y-79314761D02*
X116315000Y-79267142D01*
X116267380Y-79171904D01*
X116267380Y-78933809D01*
X116315000Y-78838571D01*
X116362619Y-78790952D01*
X116457857Y-78743333D01*
X116553095Y-78743333D01*
X116695952Y-78790952D01*
X117267380Y-79362380D01*
X117267380Y-78743333D01*
X51900380Y-33692857D02*
X51424190Y-34026190D01*
X51900380Y-34264285D02*
X50900380Y-34264285D01*
X50900380Y-33883333D01*
X50948000Y-33788095D01*
X50995619Y-33740476D01*
X51090857Y-33692857D01*
X51233714Y-33692857D01*
X51328952Y-33740476D01*
X51376571Y-33788095D01*
X51424190Y-33883333D01*
X51424190Y-34264285D01*
X51900380Y-32740476D02*
X51900380Y-33311904D01*
X51900380Y-33026190D02*
X50900380Y-33026190D01*
X51043238Y-33121428D01*
X51138476Y-33216666D01*
X51186095Y-33311904D01*
X50900380Y-31883333D02*
X50900380Y-32073809D01*
X50948000Y-32169047D01*
X50995619Y-32216666D01*
X51138476Y-32311904D01*
X51328952Y-32359523D01*
X51709904Y-32359523D01*
X51805142Y-32311904D01*
X51852761Y-32264285D01*
X51900380Y-32169047D01*
X51900380Y-31978571D01*
X51852761Y-31883333D01*
X51805142Y-31835714D01*
X51709904Y-31788095D01*
X51471809Y-31788095D01*
X51376571Y-31835714D01*
X51328952Y-31883333D01*
X51281333Y-31978571D01*
X51281333Y-32169047D01*
X51328952Y-32264285D01*
X51376571Y-32311904D01*
X51471809Y-32359523D01*
X149603333Y-51352380D02*
X149270000Y-50876190D01*
X149031904Y-51352380D02*
X149031904Y-50352380D01*
X149412857Y-50352380D01*
X149508095Y-50400000D01*
X149555714Y-50447619D01*
X149603333Y-50542857D01*
X149603333Y-50685714D01*
X149555714Y-50780952D01*
X149508095Y-50828571D01*
X149412857Y-50876190D01*
X149031904Y-50876190D01*
X149936666Y-50352380D02*
X150555714Y-50352380D01*
X150222380Y-50733333D01*
X150365238Y-50733333D01*
X150460476Y-50780952D01*
X150508095Y-50828571D01*
X150555714Y-50923809D01*
X150555714Y-51161904D01*
X150508095Y-51257142D01*
X150460476Y-51304761D01*
X150365238Y-51352380D01*
X150079523Y-51352380D01*
X149984285Y-51304761D01*
X149936666Y-51257142D01*
X37834380Y-49529904D02*
X38643904Y-49529904D01*
X38739142Y-49482285D01*
X38786761Y-49434666D01*
X38834380Y-49339428D01*
X38834380Y-49148952D01*
X38786761Y-49053714D01*
X38739142Y-49006095D01*
X38643904Y-48958476D01*
X37834380Y-48958476D01*
X37834380Y-48053714D02*
X37834380Y-48244190D01*
X37882000Y-48339428D01*
X37929619Y-48387047D01*
X38072476Y-48482285D01*
X38262952Y-48529904D01*
X38643904Y-48529904D01*
X38739142Y-48482285D01*
X38786761Y-48434666D01*
X38834380Y-48339428D01*
X38834380Y-48148952D01*
X38786761Y-48053714D01*
X38739142Y-48006095D01*
X38643904Y-47958476D01*
X38405809Y-47958476D01*
X38310571Y-48006095D01*
X38262952Y-48053714D01*
X38215333Y-48148952D01*
X38215333Y-48339428D01*
X38262952Y-48434666D01*
X38310571Y-48482285D01*
X38405809Y-48529904D01*
X67643333Y-92452380D02*
X67310000Y-91976190D01*
X67071904Y-92452380D02*
X67071904Y-91452380D01*
X67452857Y-91452380D01*
X67548095Y-91500000D01*
X67595714Y-91547619D01*
X67643333Y-91642857D01*
X67643333Y-91785714D01*
X67595714Y-91880952D01*
X67548095Y-91928571D01*
X67452857Y-91976190D01*
X67071904Y-91976190D01*
X68500476Y-91785714D02*
X68500476Y-92452380D01*
X68262380Y-91404761D02*
X68024285Y-92119047D01*
X68643333Y-92119047D01*
X103124095Y-88606380D02*
X103124095Y-89415904D01*
X103171714Y-89511142D01*
X103219333Y-89558761D01*
X103314571Y-89606380D01*
X103505047Y-89606380D01*
X103600285Y-89558761D01*
X103647904Y-89511142D01*
X103695523Y-89415904D01*
X103695523Y-88606380D01*
X104600285Y-88939714D02*
X104600285Y-89606380D01*
X104362190Y-88558761D02*
X104124095Y-89273047D01*
X104743142Y-89273047D01*
X37954380Y-34140857D02*
X37478190Y-34474190D01*
X37954380Y-34712285D02*
X36954380Y-34712285D01*
X36954380Y-34331333D01*
X37002000Y-34236095D01*
X37049619Y-34188476D01*
X37144857Y-34140857D01*
X37287714Y-34140857D01*
X37382952Y-34188476D01*
X37430571Y-34236095D01*
X37478190Y-34331333D01*
X37478190Y-34712285D01*
X37954380Y-33188476D02*
X37954380Y-33759904D01*
X37954380Y-33474190D02*
X36954380Y-33474190D01*
X37097238Y-33569428D01*
X37192476Y-33664666D01*
X37240095Y-33759904D01*
X37049619Y-32807523D02*
X37002000Y-32759904D01*
X36954380Y-32664666D01*
X36954380Y-32426571D01*
X37002000Y-32331333D01*
X37049619Y-32283714D01*
X37144857Y-32236095D01*
X37240095Y-32236095D01*
X37382952Y-32283714D01*
X37954380Y-32855142D01*
X37954380Y-32236095D01*
X39237142Y-87406666D02*
X39284761Y-87454285D01*
X39332380Y-87597142D01*
X39332380Y-87692380D01*
X39284761Y-87835238D01*
X39189523Y-87930476D01*
X39094285Y-87978095D01*
X38903809Y-88025714D01*
X38760952Y-88025714D01*
X38570476Y-87978095D01*
X38475238Y-87930476D01*
X38380000Y-87835238D01*
X38332380Y-87692380D01*
X38332380Y-87597142D01*
X38380000Y-87454285D01*
X38427619Y-87406666D01*
X38332380Y-86501904D02*
X38332380Y-86978095D01*
X38808571Y-87025714D01*
X38760952Y-86978095D01*
X38713333Y-86882857D01*
X38713333Y-86644761D01*
X38760952Y-86549523D01*
X38808571Y-86501904D01*
X38903809Y-86454285D01*
X39141904Y-86454285D01*
X39237142Y-86501904D01*
X39284761Y-86549523D01*
X39332380Y-86644761D01*
X39332380Y-86882857D01*
X39284761Y-86978095D01*
X39237142Y-87025714D01*
X74962380Y-88588095D02*
X73962380Y-88588095D01*
X73962380Y-88350000D01*
X74010000Y-88207142D01*
X74105238Y-88111904D01*
X74200476Y-88064285D01*
X74390952Y-88016666D01*
X74533809Y-88016666D01*
X74724285Y-88064285D01*
X74819523Y-88111904D01*
X74914761Y-88207142D01*
X74962380Y-88350000D01*
X74962380Y-88588095D01*
X74057619Y-87635714D02*
X74010000Y-87588095D01*
X73962380Y-87492857D01*
X73962380Y-87254761D01*
X74010000Y-87159523D01*
X74057619Y-87111904D01*
X74152857Y-87064285D01*
X74248095Y-87064285D01*
X74390952Y-87111904D01*
X74962380Y-87683333D01*
X74962380Y-87064285D01*
X142987380Y-68601904D02*
X143796904Y-68601904D01*
X143892142Y-68554285D01*
X143939761Y-68506666D01*
X143987380Y-68411428D01*
X143987380Y-68220952D01*
X143939761Y-68125714D01*
X143892142Y-68078095D01*
X143796904Y-68030476D01*
X142987380Y-68030476D01*
X142987380Y-67649523D02*
X142987380Y-67030476D01*
X143368333Y-67363809D01*
X143368333Y-67220952D01*
X143415952Y-67125714D01*
X143463571Y-67078095D01*
X143558809Y-67030476D01*
X143796904Y-67030476D01*
X143892142Y-67078095D01*
X143939761Y-67125714D01*
X143987380Y-67220952D01*
X143987380Y-67506666D01*
X143939761Y-67601904D01*
X143892142Y-67649523D01*
X149593333Y-48162380D02*
X149260000Y-47686190D01*
X149021904Y-48162380D02*
X149021904Y-47162380D01*
X149402857Y-47162380D01*
X149498095Y-47210000D01*
X149545714Y-47257619D01*
X149593333Y-47352857D01*
X149593333Y-47495714D01*
X149545714Y-47590952D01*
X149498095Y-47638571D01*
X149402857Y-47686190D01*
X149021904Y-47686190D01*
X149974285Y-47257619D02*
X150021904Y-47210000D01*
X150117142Y-47162380D01*
X150355238Y-47162380D01*
X150450476Y-47210000D01*
X150498095Y-47257619D01*
X150545714Y-47352857D01*
X150545714Y-47448095D01*
X150498095Y-47590952D01*
X149926666Y-48162380D01*
X150545714Y-48162380D01*
X83062380Y-65095333D02*
X83776666Y-65095333D01*
X83919523Y-65142952D01*
X84014761Y-65238190D01*
X84062380Y-65381047D01*
X84062380Y-65476285D01*
X84062380Y-64619142D02*
X83062380Y-64619142D01*
X83062380Y-64238190D01*
X83110000Y-64142952D01*
X83157619Y-64095333D01*
X83252857Y-64047714D01*
X83395714Y-64047714D01*
X83490952Y-64095333D01*
X83538571Y-64142952D01*
X83586190Y-64238190D01*
X83586190Y-64619142D01*
X83062380Y-63142952D02*
X83062380Y-63619142D01*
X83538571Y-63666761D01*
X83490952Y-63619142D01*
X83443333Y-63523904D01*
X83443333Y-63285809D01*
X83490952Y-63190571D01*
X83538571Y-63142952D01*
X83633809Y-63095333D01*
X83871904Y-63095333D01*
X83967142Y-63142952D01*
X84014761Y-63190571D01*
X84062380Y-63285809D01*
X84062380Y-63523904D01*
X84014761Y-63619142D01*
X83967142Y-63666761D01*
X162867380Y-51933333D02*
X163581666Y-51933333D01*
X163724523Y-51980952D01*
X163819761Y-52076190D01*
X163867380Y-52219047D01*
X163867380Y-52314285D01*
X163867380Y-51457142D02*
X162867380Y-51457142D01*
X162867380Y-51076190D01*
X162915000Y-50980952D01*
X162962619Y-50933333D01*
X163057857Y-50885714D01*
X163200714Y-50885714D01*
X163295952Y-50933333D01*
X163343571Y-50980952D01*
X163391190Y-51076190D01*
X163391190Y-51457142D01*
X162867380Y-50552380D02*
X162867380Y-49933333D01*
X163248333Y-50266666D01*
X163248333Y-50123809D01*
X163295952Y-50028571D01*
X163343571Y-49980952D01*
X163438809Y-49933333D01*
X163676904Y-49933333D01*
X163772142Y-49980952D01*
X163819761Y-50028571D01*
X163867380Y-50123809D01*
X163867380Y-50409523D01*
X163819761Y-50504761D01*
X163772142Y-50552380D01*
X50492380Y-60028857D02*
X50016190Y-60362190D01*
X50492380Y-60600285D02*
X49492380Y-60600285D01*
X49492380Y-60219333D01*
X49540000Y-60124095D01*
X49587619Y-60076476D01*
X49682857Y-60028857D01*
X49825714Y-60028857D01*
X49920952Y-60076476D01*
X49968571Y-60124095D01*
X50016190Y-60219333D01*
X50016190Y-60600285D01*
X49587619Y-59647904D02*
X49540000Y-59600285D01*
X49492380Y-59505047D01*
X49492380Y-59266952D01*
X49540000Y-59171714D01*
X49587619Y-59124095D01*
X49682857Y-59076476D01*
X49778095Y-59076476D01*
X49920952Y-59124095D01*
X50492380Y-59695523D01*
X50492380Y-59076476D01*
X49492380Y-58457428D02*
X49492380Y-58362190D01*
X49540000Y-58266952D01*
X49587619Y-58219333D01*
X49682857Y-58171714D01*
X49873333Y-58124095D01*
X50111428Y-58124095D01*
X50301904Y-58171714D01*
X50397142Y-58219333D01*
X50444761Y-58266952D01*
X50492380Y-58362190D01*
X50492380Y-58457428D01*
X50444761Y-58552666D01*
X50397142Y-58600285D01*
X50301904Y-58647904D01*
X50111428Y-58695523D01*
X49873333Y-58695523D01*
X49682857Y-58647904D01*
X49587619Y-58600285D01*
X49540000Y-58552666D01*
X49492380Y-58457428D01*
X69029333Y-89265142D02*
X68981714Y-89312761D01*
X68838857Y-89360380D01*
X68743619Y-89360380D01*
X68600761Y-89312761D01*
X68505523Y-89217523D01*
X68457904Y-89122285D01*
X68410285Y-88931809D01*
X68410285Y-88788952D01*
X68457904Y-88598476D01*
X68505523Y-88503238D01*
X68600761Y-88408000D01*
X68743619Y-88360380D01*
X68838857Y-88360380D01*
X68981714Y-88408000D01*
X69029333Y-88455619D01*
X69886476Y-88693714D02*
X69886476Y-89360380D01*
X69648380Y-88312761D02*
X69410285Y-89027047D01*
X70029333Y-89027047D01*
X82727142Y-50306666D02*
X82774761Y-50354285D01*
X82822380Y-50497142D01*
X82822380Y-50592380D01*
X82774761Y-50735238D01*
X82679523Y-50830476D01*
X82584285Y-50878095D01*
X82393809Y-50925714D01*
X82250952Y-50925714D01*
X82060476Y-50878095D01*
X81965238Y-50830476D01*
X81870000Y-50735238D01*
X81822380Y-50592380D01*
X81822380Y-50497142D01*
X81870000Y-50354285D01*
X81917619Y-50306666D01*
X81822380Y-49973333D02*
X81822380Y-49354285D01*
X82203333Y-49687619D01*
X82203333Y-49544761D01*
X82250952Y-49449523D01*
X82298571Y-49401904D01*
X82393809Y-49354285D01*
X82631904Y-49354285D01*
X82727142Y-49401904D01*
X82774761Y-49449523D01*
X82822380Y-49544761D01*
X82822380Y-49830476D01*
X82774761Y-49925714D01*
X82727142Y-49973333D01*
X148983142Y-43328380D02*
X148649809Y-42852190D01*
X148411714Y-43328380D02*
X148411714Y-42328380D01*
X148792666Y-42328380D01*
X148887904Y-42376000D01*
X148935523Y-42423619D01*
X148983142Y-42518857D01*
X148983142Y-42661714D01*
X148935523Y-42756952D01*
X148887904Y-42804571D01*
X148792666Y-42852190D01*
X148411714Y-42852190D01*
X149935523Y-43328380D02*
X149364095Y-43328380D01*
X149649809Y-43328380D02*
X149649809Y-42328380D01*
X149554571Y-42471238D01*
X149459333Y-42566476D01*
X149364095Y-42614095D01*
X150411714Y-43328380D02*
X150602190Y-43328380D01*
X150697428Y-43280761D01*
X150745047Y-43233142D01*
X150840285Y-43090285D01*
X150887904Y-42899809D01*
X150887904Y-42518857D01*
X150840285Y-42423619D01*
X150792666Y-42376000D01*
X150697428Y-42328380D01*
X150506952Y-42328380D01*
X150411714Y-42376000D01*
X150364095Y-42423619D01*
X150316476Y-42518857D01*
X150316476Y-42756952D01*
X150364095Y-42852190D01*
X150411714Y-42899809D01*
X150506952Y-42947428D01*
X150697428Y-42947428D01*
X150792666Y-42899809D01*
X150840285Y-42852190D01*
X150887904Y-42756952D01*
X79958761Y-89391333D02*
X80006380Y-89248476D01*
X80006380Y-89010380D01*
X79958761Y-88915142D01*
X79911142Y-88867523D01*
X79815904Y-88819904D01*
X79720666Y-88819904D01*
X79625428Y-88867523D01*
X79577809Y-88915142D01*
X79530190Y-89010380D01*
X79482571Y-89200857D01*
X79434952Y-89296095D01*
X79387333Y-89343714D01*
X79292095Y-89391333D01*
X79196857Y-89391333D01*
X79101619Y-89343714D01*
X79054000Y-89296095D01*
X79006380Y-89200857D01*
X79006380Y-88962761D01*
X79054000Y-88819904D01*
X79006380Y-88486571D02*
X80006380Y-88248476D01*
X79292095Y-88058000D01*
X80006380Y-87867523D01*
X79006380Y-87629428D01*
X80006380Y-86724666D02*
X80006380Y-87296095D01*
X80006380Y-87010380D02*
X79006380Y-87010380D01*
X79149238Y-87105619D01*
X79244476Y-87200857D01*
X79292095Y-87296095D01*
X65412380Y-39880666D02*
X64936190Y-40214000D01*
X65412380Y-40452095D02*
X64412380Y-40452095D01*
X64412380Y-40071142D01*
X64460000Y-39975904D01*
X64507619Y-39928285D01*
X64602857Y-39880666D01*
X64745714Y-39880666D01*
X64840952Y-39928285D01*
X64888571Y-39975904D01*
X64936190Y-40071142D01*
X64936190Y-40452095D01*
X65412380Y-39404476D02*
X65412380Y-39214000D01*
X65364761Y-39118761D01*
X65317142Y-39071142D01*
X65174285Y-38975904D01*
X64983809Y-38928285D01*
X64602857Y-38928285D01*
X64507619Y-38975904D01*
X64460000Y-39023523D01*
X64412380Y-39118761D01*
X64412380Y-39309238D01*
X64460000Y-39404476D01*
X64507619Y-39452095D01*
X64602857Y-39499714D01*
X64840952Y-39499714D01*
X64936190Y-39452095D01*
X64983809Y-39404476D01*
X65031428Y-39309238D01*
X65031428Y-39118761D01*
X64983809Y-39023523D01*
X64936190Y-38975904D01*
X64840952Y-38928285D01*
X136158095Y-35632380D02*
X136158095Y-36441904D01*
X136205714Y-36537142D01*
X136253333Y-36584761D01*
X136348571Y-36632380D01*
X136539047Y-36632380D01*
X136634285Y-36584761D01*
X136681904Y-36537142D01*
X136729523Y-36441904D01*
X136729523Y-35632380D01*
X137253333Y-36632380D02*
X137443809Y-36632380D01*
X137539047Y-36584761D01*
X137586666Y-36537142D01*
X137681904Y-36394285D01*
X137729523Y-36203809D01*
X137729523Y-35822857D01*
X137681904Y-35727619D01*
X137634285Y-35680000D01*
X137539047Y-35632380D01*
X137348571Y-35632380D01*
X137253333Y-35680000D01*
X137205714Y-35727619D01*
X137158095Y-35822857D01*
X137158095Y-36060952D01*
X137205714Y-36156190D01*
X137253333Y-36203809D01*
X137348571Y-36251428D01*
X137539047Y-36251428D01*
X137634285Y-36203809D01*
X137681904Y-36156190D01*
X137729523Y-36060952D01*
X44752380Y-89218095D02*
X43752380Y-89218095D01*
X43752380Y-88980000D01*
X43800000Y-88837142D01*
X43895238Y-88741904D01*
X43990476Y-88694285D01*
X44180952Y-88646666D01*
X44323809Y-88646666D01*
X44514285Y-88694285D01*
X44609523Y-88741904D01*
X44704761Y-88837142D01*
X44752380Y-88980000D01*
X44752380Y-89218095D01*
X43752380Y-88313333D02*
X43752380Y-87694285D01*
X44133333Y-88027619D01*
X44133333Y-87884761D01*
X44180952Y-87789523D01*
X44228571Y-87741904D01*
X44323809Y-87694285D01*
X44561904Y-87694285D01*
X44657142Y-87741904D01*
X44704761Y-87789523D01*
X44752380Y-87884761D01*
X44752380Y-88170476D01*
X44704761Y-88265714D01*
X44657142Y-88313333D01*
X56107142Y-56142380D02*
X55773809Y-55666190D01*
X55535714Y-56142380D02*
X55535714Y-55142380D01*
X55916666Y-55142380D01*
X56011904Y-55190000D01*
X56059523Y-55237619D01*
X56107142Y-55332857D01*
X56107142Y-55475714D01*
X56059523Y-55570952D01*
X56011904Y-55618571D01*
X55916666Y-55666190D01*
X55535714Y-55666190D01*
X57059523Y-56142380D02*
X56488095Y-56142380D01*
X56773809Y-56142380D02*
X56773809Y-55142380D01*
X56678571Y-55285238D01*
X56583333Y-55380476D01*
X56488095Y-55428095D01*
X57678571Y-55142380D02*
X57773809Y-55142380D01*
X57869047Y-55190000D01*
X57916666Y-55237619D01*
X57964285Y-55332857D01*
X58011904Y-55523333D01*
X58011904Y-55761428D01*
X57964285Y-55951904D01*
X57916666Y-56047142D01*
X57869047Y-56094761D01*
X57773809Y-56142380D01*
X57678571Y-56142380D01*
X57583333Y-56094761D01*
X57535714Y-56047142D01*
X57488095Y-55951904D01*
X57440476Y-55761428D01*
X57440476Y-55523333D01*
X57488095Y-55332857D01*
X57535714Y-55237619D01*
X57583333Y-55190000D01*
X57678571Y-55142380D01*
X146055714Y-41172380D02*
X146055714Y-40172380D01*
X146293809Y-40172380D01*
X146436666Y-40220000D01*
X146531904Y-40315238D01*
X146579523Y-40410476D01*
X146627142Y-40600952D01*
X146627142Y-40743809D01*
X146579523Y-40934285D01*
X146531904Y-41029523D01*
X146436666Y-41124761D01*
X146293809Y-41172380D01*
X146055714Y-41172380D01*
X147579523Y-41172380D02*
X147008095Y-41172380D01*
X147293809Y-41172380D02*
X147293809Y-40172380D01*
X147198571Y-40315238D01*
X147103333Y-40410476D01*
X147008095Y-40458095D01*
X148198571Y-40172380D02*
X148293809Y-40172380D01*
X148389047Y-40220000D01*
X148436666Y-40267619D01*
X148484285Y-40362857D01*
X148531904Y-40553333D01*
X148531904Y-40791428D01*
X148484285Y-40981904D01*
X148436666Y-41077142D01*
X148389047Y-41124761D01*
X148293809Y-41172380D01*
X148198571Y-41172380D01*
X148103333Y-41124761D01*
X148055714Y-41077142D01*
X148008095Y-40981904D01*
X147960476Y-40791428D01*
X147960476Y-40553333D01*
X148008095Y-40362857D01*
X148055714Y-40267619D01*
X148103333Y-40220000D01*
X148198571Y-40172380D01*
X40809142Y-59624380D02*
X40475809Y-59148190D01*
X40237714Y-59624380D02*
X40237714Y-58624380D01*
X40618666Y-58624380D01*
X40713904Y-58672000D01*
X40761523Y-58719619D01*
X40809142Y-58814857D01*
X40809142Y-58957714D01*
X40761523Y-59052952D01*
X40713904Y-59100571D01*
X40618666Y-59148190D01*
X40237714Y-59148190D01*
X41761523Y-59624380D02*
X41190095Y-59624380D01*
X41475809Y-59624380D02*
X41475809Y-58624380D01*
X41380571Y-58767238D01*
X41285333Y-58862476D01*
X41190095Y-58910095D01*
X42618666Y-58957714D02*
X42618666Y-59624380D01*
X42380571Y-58576761D02*
X42142476Y-59291047D01*
X42761523Y-59291047D01*
X55306380Y-33702857D02*
X54830190Y-34036190D01*
X55306380Y-34274285D02*
X54306380Y-34274285D01*
X54306380Y-33893333D01*
X54354000Y-33798095D01*
X54401619Y-33750476D01*
X54496857Y-33702857D01*
X54639714Y-33702857D01*
X54734952Y-33750476D01*
X54782571Y-33798095D01*
X54830190Y-33893333D01*
X54830190Y-34274285D01*
X55306380Y-32750476D02*
X55306380Y-33321904D01*
X55306380Y-33036190D02*
X54306380Y-33036190D01*
X54449238Y-33131428D01*
X54544476Y-33226666D01*
X54592095Y-33321904D01*
X54306380Y-32417142D02*
X54306380Y-31750476D01*
X55306380Y-32179047D01*
X162862380Y-55703333D02*
X163576666Y-55703333D01*
X163719523Y-55750952D01*
X163814761Y-55846190D01*
X163862380Y-55989047D01*
X163862380Y-56084285D01*
X163862380Y-55227142D02*
X162862380Y-55227142D01*
X162862380Y-54846190D01*
X162910000Y-54750952D01*
X162957619Y-54703333D01*
X163052857Y-54655714D01*
X163195714Y-54655714D01*
X163290952Y-54703333D01*
X163338571Y-54750952D01*
X163386190Y-54846190D01*
X163386190Y-55227142D01*
X163195714Y-53798571D02*
X163862380Y-53798571D01*
X162814761Y-54036666D02*
X163529047Y-54274761D01*
X163529047Y-53655714D01*
X158430380Y-32957333D02*
X159144666Y-32957333D01*
X159287523Y-33004952D01*
X159382761Y-33100190D01*
X159430380Y-33243047D01*
X159430380Y-33338285D01*
X158763714Y-32052571D02*
X159430380Y-32052571D01*
X158382761Y-32290666D02*
X159097047Y-32528761D01*
X159097047Y-31909714D01*
X56001666Y-48677380D02*
X56001666Y-49391666D01*
X55954047Y-49534523D01*
X55858809Y-49629761D01*
X55715952Y-49677380D01*
X55620714Y-49677380D01*
X57001666Y-49677380D02*
X56430238Y-49677380D01*
X56715952Y-49677380D02*
X56715952Y-48677380D01*
X56620714Y-48820238D01*
X56525476Y-48915476D01*
X56430238Y-48963095D01*
X36202380Y-89182857D02*
X35726190Y-89516190D01*
X36202380Y-89754285D02*
X35202380Y-89754285D01*
X35202380Y-89373333D01*
X35250000Y-89278095D01*
X35297619Y-89230476D01*
X35392857Y-89182857D01*
X35535714Y-89182857D01*
X35630952Y-89230476D01*
X35678571Y-89278095D01*
X35726190Y-89373333D01*
X35726190Y-89754285D01*
X36202380Y-88230476D02*
X36202380Y-88801904D01*
X36202380Y-88516190D02*
X35202380Y-88516190D01*
X35345238Y-88611428D01*
X35440476Y-88706666D01*
X35488095Y-88801904D01*
X36202380Y-87278095D02*
X36202380Y-87849523D01*
X36202380Y-87563809D02*
X35202380Y-87563809D01*
X35345238Y-87659047D01*
X35440476Y-87754285D01*
X35488095Y-87849523D01*
X85682380Y-41083333D02*
X86396666Y-41083333D01*
X86539523Y-41130952D01*
X86634761Y-41226190D01*
X86682380Y-41369047D01*
X86682380Y-41464285D01*
X85682380Y-40178571D02*
X85682380Y-40369047D01*
X85730000Y-40464285D01*
X85777619Y-40511904D01*
X85920476Y-40607142D01*
X86110952Y-40654761D01*
X86491904Y-40654761D01*
X86587142Y-40607142D01*
X86634761Y-40559523D01*
X86682380Y-40464285D01*
X86682380Y-40273809D01*
X86634761Y-40178571D01*
X86587142Y-40130952D01*
X86491904Y-40083333D01*
X86253809Y-40083333D01*
X86158571Y-40130952D01*
X86110952Y-40178571D01*
X86063333Y-40273809D01*
X86063333Y-40464285D01*
X86110952Y-40559523D01*
X86158571Y-40607142D01*
X86253809Y-40654761D01*
X88127142Y-49406666D02*
X88174761Y-49454285D01*
X88222380Y-49597142D01*
X88222380Y-49692380D01*
X88174761Y-49835238D01*
X88079523Y-49930476D01*
X87984285Y-49978095D01*
X87793809Y-50025714D01*
X87650952Y-50025714D01*
X87460476Y-49978095D01*
X87365238Y-49930476D01*
X87270000Y-49835238D01*
X87222380Y-49692380D01*
X87222380Y-49597142D01*
X87270000Y-49454285D01*
X87317619Y-49406666D01*
X87222380Y-49073333D02*
X87222380Y-48406666D01*
X88222380Y-48835238D01*
X55913333Y-84222380D02*
X55580000Y-83746190D01*
X55341904Y-84222380D02*
X55341904Y-83222380D01*
X55722857Y-83222380D01*
X55818095Y-83270000D01*
X55865714Y-83317619D01*
X55913333Y-83412857D01*
X55913333Y-83555714D01*
X55865714Y-83650952D01*
X55818095Y-83698571D01*
X55722857Y-83746190D01*
X55341904Y-83746190D01*
X56246666Y-83222380D02*
X56913333Y-83222380D01*
X56484761Y-84222380D01*
X176737142Y-65352858D02*
X176784761Y-65400477D01*
X176832380Y-65543334D01*
X176832380Y-65638572D01*
X176784761Y-65781429D01*
X176689523Y-65876667D01*
X176594285Y-65924286D01*
X176403809Y-65971905D01*
X176260952Y-65971905D01*
X176070476Y-65924286D01*
X175975238Y-65876667D01*
X175880000Y-65781429D01*
X175832380Y-65638572D01*
X175832380Y-65543334D01*
X175880000Y-65400477D01*
X175927619Y-65352858D01*
X176832380Y-64400477D02*
X176832380Y-64971905D01*
X176832380Y-64686191D02*
X175832380Y-64686191D01*
X175975238Y-64781429D01*
X176070476Y-64876667D01*
X176118095Y-64971905D01*
X176165714Y-63543334D02*
X176832380Y-63543334D01*
X175784761Y-63781429D02*
X176499047Y-64019524D01*
X176499047Y-63400477D01*
X56433333Y-53062380D02*
X56100000Y-52586190D01*
X55861904Y-53062380D02*
X55861904Y-52062380D01*
X56242857Y-52062380D01*
X56338095Y-52110000D01*
X56385714Y-52157619D01*
X56433333Y-52252857D01*
X56433333Y-52395714D01*
X56385714Y-52490952D01*
X56338095Y-52538571D01*
X56242857Y-52586190D01*
X55861904Y-52586190D01*
X57004761Y-52490952D02*
X56909523Y-52443333D01*
X56861904Y-52395714D01*
X56814285Y-52300476D01*
X56814285Y-52252857D01*
X56861904Y-52157619D01*
X56909523Y-52110000D01*
X57004761Y-52062380D01*
X57195238Y-52062380D01*
X57290476Y-52110000D01*
X57338095Y-52157619D01*
X57385714Y-52252857D01*
X57385714Y-52300476D01*
X57338095Y-52395714D01*
X57290476Y-52443333D01*
X57195238Y-52490952D01*
X57004761Y-52490952D01*
X56909523Y-52538571D01*
X56861904Y-52586190D01*
X56814285Y-52681428D01*
X56814285Y-52871904D01*
X56861904Y-52967142D01*
X56909523Y-53014761D01*
X57004761Y-53062380D01*
X57195238Y-53062380D01*
X57290476Y-53014761D01*
X57338095Y-52967142D01*
X57385714Y-52871904D01*
X57385714Y-52681428D01*
X57338095Y-52586190D01*
X57290476Y-52538571D01*
X57195238Y-52490952D01*
X59063333Y-60817142D02*
X59015714Y-60864761D01*
X58872857Y-60912380D01*
X58777619Y-60912380D01*
X58634761Y-60864761D01*
X58539523Y-60769523D01*
X58491904Y-60674285D01*
X58444285Y-60483809D01*
X58444285Y-60340952D01*
X58491904Y-60150476D01*
X58539523Y-60055238D01*
X58634761Y-59960000D01*
X58777619Y-59912380D01*
X58872857Y-59912380D01*
X59015714Y-59960000D01*
X59063333Y-60007619D01*
X60015714Y-60912380D02*
X59444285Y-60912380D01*
X59730000Y-60912380D02*
X59730000Y-59912380D01*
X59634761Y-60055238D01*
X59539523Y-60150476D01*
X59444285Y-60198095D01*
X44504380Y-33888095D02*
X43504380Y-33888095D01*
X43504380Y-33650000D01*
X43552000Y-33507142D01*
X43647238Y-33411904D01*
X43742476Y-33364285D01*
X43932952Y-33316666D01*
X44075809Y-33316666D01*
X44266285Y-33364285D01*
X44361523Y-33411904D01*
X44456761Y-33507142D01*
X44504380Y-33650000D01*
X44504380Y-33888095D01*
X43504380Y-32459523D02*
X43504380Y-32650000D01*
X43552000Y-32745238D01*
X43599619Y-32792857D01*
X43742476Y-32888095D01*
X43932952Y-32935714D01*
X44313904Y-32935714D01*
X44409142Y-32888095D01*
X44456761Y-32840476D01*
X44504380Y-32745238D01*
X44504380Y-32554761D01*
X44456761Y-32459523D01*
X44409142Y-32411904D01*
X44313904Y-32364285D01*
X44075809Y-32364285D01*
X43980571Y-32411904D01*
X43932952Y-32459523D01*
X43885333Y-32554761D01*
X43885333Y-32745238D01*
X43932952Y-32840476D01*
X43980571Y-32888095D01*
X44075809Y-32935714D01*
D12*
X80940000Y-54710000D02*
X81255000Y-54710000D01*
X83680000Y-59950000D02*
X83680000Y-54710000D01*
X80940000Y-59950000D02*
X80940000Y-54710000D01*
X80940000Y-59950000D02*
X81255000Y-59950000D01*
X83365000Y-59950000D02*
X83680000Y-59950000D01*
X83365000Y-54710000D02*
X83680000Y-54710000D01*
X60098000Y-29750000D02*
X60428000Y-29750000D01*
X62838000Y-29750000D02*
X62508000Y-29750000D01*
X62838000Y-36290000D02*
X62838000Y-29750000D01*
X62508000Y-36290000D02*
X62838000Y-36290000D01*
X60428000Y-36290000D02*
X60098000Y-36290000D01*
X60098000Y-36290000D02*
X60098000Y-29750000D01*
X94260000Y-91250000D02*
X94260000Y-93490000D01*
X94260000Y-93490000D02*
X98500000Y-93490000D01*
X98500000Y-93490000D02*
X98500000Y-91250000D01*
X93610000Y-92370000D02*
X94260000Y-92370000D01*
X99150000Y-92370000D02*
X98500000Y-92370000D01*
X97660000Y-93490000D02*
X97660000Y-91250000D01*
X97780000Y-93490000D02*
X97780000Y-91250000D01*
X97900000Y-93490000D02*
X97900000Y-91250000D01*
X98500000Y-91250000D02*
X94260000Y-91250000D01*
X53065000Y-91040000D02*
X53065000Y-91370000D01*
X59605000Y-88630000D02*
X59605000Y-88960000D01*
X53065000Y-88630000D02*
X59605000Y-88630000D01*
X59605000Y-91370000D02*
X59605000Y-91040000D01*
X53065000Y-91370000D02*
X59605000Y-91370000D01*
X53065000Y-88960000D02*
X53065000Y-88630000D01*
X59495000Y-88220000D02*
X59495000Y-87890000D01*
X52955000Y-88220000D02*
X59495000Y-88220000D01*
X52955000Y-85810000D02*
X52955000Y-85480000D01*
X59495000Y-85480000D02*
X59495000Y-85810000D01*
X52955000Y-85480000D02*
X59495000Y-85480000D01*
X52955000Y-87890000D02*
X52955000Y-88220000D01*
X42910000Y-87280000D02*
X40670000Y-87280000D01*
X41790000Y-91330000D02*
X41790000Y-90680000D01*
X40670000Y-86440000D02*
X40670000Y-90680000D01*
X42910000Y-87160000D02*
X40670000Y-87160000D01*
X42910000Y-86440000D02*
X40670000Y-86440000D01*
X40670000Y-90680000D02*
X42910000Y-90680000D01*
X42910000Y-90680000D02*
X42910000Y-86440000D01*
X42910000Y-87040000D02*
X40670000Y-87040000D01*
X41790000Y-85790000D02*
X41790000Y-86440000D01*
X138750000Y-37820000D02*
X139065000Y-37820000D01*
X141490000Y-43060000D02*
X141490000Y-37820000D01*
X141175000Y-43060000D02*
X141490000Y-43060000D01*
X141175000Y-37820000D02*
X141490000Y-37820000D01*
X138750000Y-43060000D02*
X138750000Y-37820000D01*
X138750000Y-43060000D02*
X139065000Y-43060000D01*
D11*
X31312000Y-77964000D02*
X31012000Y-78264000D01*
X31012000Y-78264000D02*
X31012000Y-81264000D01*
X31712000Y-66564000D02*
X31712000Y-76264000D01*
X31612000Y-76964000D02*
X31512000Y-77564000D01*
X31012000Y-81264000D02*
X45512000Y-81264000D01*
X45512000Y-66564000D02*
X45512000Y-81264000D01*
X31512000Y-77564000D02*
X31312000Y-77964000D01*
X45512000Y-66564000D02*
X31712000Y-66564000D01*
X31712000Y-76264000D02*
X31612000Y-76964000D01*
D12*
X77982000Y-66444000D02*
X77982000Y-68684000D01*
X78222000Y-66444000D02*
X78222000Y-68684000D01*
X81622000Y-68684000D02*
X81622000Y-66444000D01*
X77382000Y-66444000D02*
X77382000Y-68684000D01*
X78102000Y-66444000D02*
X78102000Y-68684000D01*
X76732000Y-67564000D02*
X77382000Y-67564000D01*
X81622000Y-66444000D02*
X77382000Y-66444000D01*
X77382000Y-68684000D02*
X81622000Y-68684000D01*
X82272000Y-67564000D02*
X81622000Y-67564000D01*
X141110000Y-64060000D02*
X141425000Y-64060000D01*
X141110000Y-64060000D02*
X141110000Y-58820000D01*
X143850000Y-64060000D02*
X143850000Y-58820000D01*
X143535000Y-58820000D02*
X143850000Y-58820000D01*
X141110000Y-58820000D02*
X141425000Y-58820000D01*
X143535000Y-64060000D02*
X143850000Y-64060000D01*
X52140000Y-60750000D02*
X54800000Y-60750000D01*
X54800000Y-60750000D02*
X54800000Y-63350000D01*
X52140000Y-63350000D02*
X54800000Y-63350000D01*
X52140000Y-58150000D02*
X53470000Y-58150000D01*
X52140000Y-60750000D02*
X52140000Y-63350000D01*
X52140000Y-59480000D02*
X52140000Y-58150000D01*
X76374000Y-71667000D02*
X76374000Y-71982000D01*
X76374000Y-71982000D02*
X81614000Y-71982000D01*
X81614000Y-69242000D02*
X81614000Y-69557000D01*
X76374000Y-69242000D02*
X81614000Y-69242000D01*
X76374000Y-69242000D02*
X76374000Y-69557000D01*
X81614000Y-71667000D02*
X81614000Y-71982000D01*
X39524000Y-37420000D02*
X39524000Y-32180000D01*
X41949000Y-37420000D02*
X42264000Y-37420000D01*
X42264000Y-37420000D02*
X42264000Y-32180000D01*
X39524000Y-32180000D02*
X39839000Y-32180000D01*
X39524000Y-37420000D02*
X39839000Y-37420000D01*
X41949000Y-32180000D02*
X42264000Y-32180000D01*
X157210000Y-45860000D02*
X157210000Y-48520000D01*
X162410000Y-45860000D02*
X162410000Y-47190000D01*
X159810000Y-45860000D02*
X157210000Y-45860000D01*
X161080000Y-45860000D02*
X162410000Y-45860000D01*
X159810000Y-48520000D02*
X157210000Y-48520000D01*
X159810000Y-45860000D02*
X159810000Y-48520000D01*
X146460000Y-52710000D02*
X153000000Y-52710000D01*
X146460000Y-55450000D02*
X153000000Y-55450000D01*
X146460000Y-53040000D02*
X146460000Y-52710000D01*
X153000000Y-55450000D02*
X153000000Y-55120000D01*
X146460000Y-55120000D02*
X146460000Y-55450000D01*
X153000000Y-52710000D02*
X153000000Y-53040000D01*
X184150000Y-103378000D02*
X118110000Y-103378000D01*
X184150000Y-94488000D02*
X184150000Y-103378000D01*
X118110000Y-103378000D02*
X118110000Y-94488000D01*
X118110000Y-94488000D02*
X184150000Y-94488000D01*
X44672000Y-61444000D02*
X44672000Y-61114000D01*
X44672000Y-63854000D02*
X38132000Y-63854000D01*
X44672000Y-63524000D02*
X44672000Y-63854000D01*
X38132000Y-63854000D02*
X38132000Y-63524000D01*
X38132000Y-61114000D02*
X38132000Y-61444000D01*
X44672000Y-61114000D02*
X38132000Y-61114000D01*
X45616000Y-31250000D02*
X45616000Y-35490000D01*
X47856000Y-35490000D02*
X47856000Y-31250000D01*
X47856000Y-31850000D02*
X45616000Y-31850000D01*
X47856000Y-32090000D02*
X45616000Y-32090000D01*
X46736000Y-36140000D02*
X46736000Y-35490000D01*
X46736000Y-30600000D02*
X46736000Y-31250000D01*
X47856000Y-31250000D02*
X45616000Y-31250000D01*
X47856000Y-31970000D02*
X45616000Y-31970000D01*
X45616000Y-35490000D02*
X47856000Y-35490000D01*
X66180000Y-47180000D02*
X66180000Y-82860000D01*
X73970000Y-82920000D02*
X73970000Y-47120000D01*
X66180000Y-82860000D02*
X67830000Y-82860000D01*
X63690000Y-47120000D02*
X63690000Y-82920000D01*
X69830000Y-82860000D02*
X71480000Y-82860000D01*
X71480000Y-47180000D02*
X66180000Y-47180000D01*
X71480000Y-82860000D02*
X71480000Y-47180000D01*
X73970000Y-47120000D02*
X63690000Y-47120000D01*
X63690000Y-82920000D02*
X73970000Y-82920000D01*
X69830000Y-82860000D02*
G75*
G03*
X67830000Y-82860000I-1000000J0D01*
G01*
X75435000Y-52035000D02*
X75435000Y-58285000D01*
X80485000Y-52035000D02*
X80485000Y-58285000D01*
X80485000Y-52035000D02*
G75*
G03*
X75435000Y-52035000I-2525000J0D01*
G01*
X75435000Y-58285000D02*
G75*
G03*
X80485000Y-58285000I2525000J0D01*
G01*
X54970000Y-68910000D02*
X54970000Y-79130000D01*
X60170000Y-66310000D02*
X60170000Y-79130000D01*
X57570000Y-68910000D02*
X57570000Y-66310000D01*
X57570000Y-66310000D02*
X60170000Y-66310000D01*
X54970000Y-79130000D02*
X60170000Y-79130000D01*
X54970000Y-67640000D02*
X54970000Y-66310000D01*
X54970000Y-66310000D02*
X56300000Y-66310000D01*
X54970000Y-68910000D02*
X57570000Y-68910000D01*
X50590000Y-68690000D02*
X50590000Y-69340000D01*
X49470000Y-72980000D02*
X51710000Y-72980000D01*
X49470000Y-72860000D02*
X51710000Y-72860000D01*
X50590000Y-74230000D02*
X50590000Y-73580000D01*
X49470000Y-69340000D02*
X49470000Y-73580000D01*
X49470000Y-73580000D02*
X51710000Y-73580000D01*
X51710000Y-73580000D02*
X51710000Y-69340000D01*
X49470000Y-72740000D02*
X51710000Y-72740000D01*
X51710000Y-69340000D02*
X49470000Y-69340000D01*
X121666000Y-85284000D02*
X182686000Y-85284000D01*
X121666000Y-87944000D02*
X182686000Y-87944000D01*
X182686000Y-87944000D02*
X182686000Y-85284000D01*
X119066000Y-87944000D02*
X119066000Y-86614000D01*
X121666000Y-87944000D02*
X121666000Y-85284000D01*
X120396000Y-87944000D02*
X119066000Y-87944000D01*
X181435000Y-80740000D02*
X181435000Y-78080000D01*
X119145000Y-80740000D02*
X117815000Y-80740000D01*
X120415000Y-80740000D02*
X181435000Y-80740000D01*
X117815000Y-80740000D02*
X117815000Y-79410000D01*
X120415000Y-78080000D02*
X181435000Y-78080000D01*
X120415000Y-80740000D02*
X120415000Y-78080000D01*
X52678000Y-36290000D02*
X52678000Y-29750000D01*
X52678000Y-29750000D02*
X52348000Y-29750000D01*
X50268000Y-36290000D02*
X49938000Y-36290000D01*
X52348000Y-36290000D02*
X52678000Y-36290000D01*
X49938000Y-29750000D02*
X50268000Y-29750000D01*
X49938000Y-36290000D02*
X49938000Y-29750000D01*
X146480000Y-52340000D02*
X153020000Y-52340000D01*
X146480000Y-49600000D02*
X153020000Y-49600000D01*
X153020000Y-49600000D02*
X153020000Y-49930000D01*
X146480000Y-49930000D02*
X146480000Y-49600000D01*
X146480000Y-52010000D02*
X146480000Y-52340000D01*
X153020000Y-52340000D02*
X153020000Y-52010000D01*
D11*
X45282000Y-41418000D02*
X45282000Y-56118000D01*
X30782000Y-56118000D02*
X45282000Y-56118000D01*
X45282000Y-41418000D02*
X31482000Y-41418000D01*
X31382000Y-51818000D02*
X31282000Y-52418000D01*
X31082000Y-52818000D02*
X30782000Y-53118000D01*
X30782000Y-53118000D02*
X30782000Y-56118000D01*
X31482000Y-41418000D02*
X31482000Y-51118000D01*
X31282000Y-52418000D02*
X31082000Y-52818000D01*
X31482000Y-51118000D02*
X31382000Y-51818000D01*
D12*
X64540000Y-93370000D02*
X71080000Y-93370000D01*
X71080000Y-90630000D02*
X71080000Y-90960000D01*
X64540000Y-90630000D02*
X71080000Y-90630000D01*
X64540000Y-90960000D02*
X64540000Y-90630000D01*
X64540000Y-93040000D02*
X64540000Y-93370000D01*
X71080000Y-93370000D02*
X71080000Y-93040000D01*
X91510000Y-87970000D02*
X109410000Y-87970000D01*
X94000000Y-87910000D02*
X99460000Y-87910000D01*
X94000000Y-36990000D02*
X94000000Y-87910000D01*
X91510000Y-36930000D02*
X91510000Y-87970000D01*
X106920000Y-87910000D02*
X106920000Y-36990000D01*
X101460000Y-87910000D02*
X106920000Y-87910000D01*
X109410000Y-87970000D02*
X109410000Y-36930000D01*
X106920000Y-36990000D02*
X94000000Y-36990000D01*
X109410000Y-36930000D02*
X91510000Y-36930000D01*
X101460000Y-87910000D02*
G75*
G03*
X99460000Y-87910000I-1000000J0D01*
G01*
X38632000Y-30258000D02*
X38962000Y-30258000D01*
X38962000Y-36798000D02*
X38632000Y-36798000D01*
X36222000Y-30258000D02*
X36222000Y-36798000D01*
X36222000Y-36798000D02*
X36552000Y-36798000D01*
X38962000Y-30258000D02*
X38962000Y-36798000D01*
X36552000Y-30258000D02*
X36222000Y-30258000D01*
X37825000Y-84620000D02*
X37510000Y-84620000D01*
X40250000Y-84620000D02*
X39935000Y-84620000D01*
X37510000Y-84620000D02*
X37510000Y-89860000D01*
X40250000Y-84620000D02*
X40250000Y-89860000D01*
X37825000Y-89860000D02*
X37510000Y-89860000D01*
X40250000Y-89860000D02*
X39935000Y-89860000D01*
X73340000Y-89590000D02*
X75580000Y-89590000D01*
X75580000Y-85950000D02*
X73340000Y-85950000D01*
X73340000Y-85950000D02*
X73340000Y-90190000D01*
X73340000Y-89470000D02*
X75580000Y-89470000D01*
X74460000Y-90840000D02*
X74460000Y-90190000D01*
X75580000Y-90190000D02*
X75580000Y-85950000D01*
X74460000Y-85300000D02*
X74460000Y-85950000D01*
X73340000Y-90190000D02*
X75580000Y-90190000D01*
X73340000Y-89350000D02*
X75580000Y-89350000D01*
X162495000Y-62700000D02*
X144475000Y-62700000D01*
X144475000Y-72980000D02*
X162495000Y-72980000D01*
X162435000Y-65190000D02*
X144535000Y-65190000D01*
X162495000Y-72980000D02*
X162495000Y-62700000D01*
X144475000Y-62700000D02*
X144475000Y-72980000D01*
X144535000Y-68840000D02*
X144535000Y-70490000D01*
X144535000Y-70490000D02*
X162435000Y-70490000D01*
X162435000Y-70490000D02*
X162435000Y-65190000D01*
X144535000Y-65190000D02*
X144535000Y-66840000D01*
X144535000Y-68840000D02*
G75*
G03*
X144535000Y-66840000I0J1000000D01*
G01*
X146530000Y-46740000D02*
X146530000Y-46410000D01*
X146530000Y-49150000D02*
X153070000Y-49150000D01*
X153070000Y-49150000D02*
X153070000Y-48820000D01*
X153070000Y-46410000D02*
X153070000Y-46740000D01*
X146530000Y-48820000D02*
X146530000Y-49150000D01*
X146530000Y-46410000D02*
X153070000Y-46410000D01*
X82610000Y-62932000D02*
X82610000Y-64262000D01*
X80010000Y-62932000D02*
X77410000Y-62932000D01*
X77410000Y-62932000D02*
X77410000Y-65592000D01*
X81280000Y-62932000D02*
X82610000Y-62932000D01*
X80010000Y-62932000D02*
X80010000Y-65592000D01*
X80010000Y-65592000D02*
X77410000Y-65592000D01*
X157215000Y-49770000D02*
X157215000Y-52430000D01*
X159815000Y-49770000D02*
X157215000Y-49770000D01*
X159815000Y-49770000D02*
X159815000Y-52430000D01*
X162415000Y-49770000D02*
X162415000Y-51100000D01*
X161085000Y-49770000D02*
X162415000Y-49770000D01*
X159815000Y-52430000D02*
X157215000Y-52430000D01*
X48680000Y-56370000D02*
X49010000Y-56370000D01*
X49010000Y-62910000D02*
X48680000Y-62910000D01*
X48680000Y-62910000D02*
X48680000Y-56370000D01*
X51090000Y-62910000D02*
X51420000Y-62910000D01*
X51420000Y-56370000D02*
X51090000Y-56370000D01*
X51420000Y-62910000D02*
X51420000Y-56370000D01*
X66480000Y-90270000D02*
X71720000Y-90270000D01*
X66480000Y-89955000D02*
X66480000Y-90270000D01*
X66480000Y-87530000D02*
X66480000Y-87845000D01*
X71720000Y-87530000D02*
X71720000Y-87845000D01*
X71720000Y-89955000D02*
X71720000Y-90270000D01*
X66480000Y-87530000D02*
X71720000Y-87530000D01*
X83395000Y-47430000D02*
X83710000Y-47430000D01*
X83395000Y-52670000D02*
X83710000Y-52670000D01*
X80970000Y-52670000D02*
X80970000Y-47430000D01*
X83710000Y-52670000D02*
X83710000Y-47430000D01*
X80970000Y-47430000D02*
X81285000Y-47430000D01*
X80970000Y-52670000D02*
X81285000Y-52670000D01*
X146336000Y-43966000D02*
X146336000Y-44296000D01*
X152876000Y-44296000D02*
X152876000Y-43966000D01*
X152876000Y-41556000D02*
X152876000Y-41886000D01*
X146336000Y-44296000D02*
X152876000Y-44296000D01*
X146336000Y-41556000D02*
X152876000Y-41556000D01*
X146336000Y-41886000D02*
X146336000Y-41556000D01*
X76320000Y-85880000D02*
X76320000Y-90380000D01*
X82820000Y-90380000D02*
X82820000Y-85880000D01*
X78820000Y-91630000D02*
X80320000Y-91630000D01*
X80320000Y-84630000D02*
X78820000Y-84630000D01*
X63870000Y-42894000D02*
X63540000Y-42894000D01*
X65950000Y-42894000D02*
X66280000Y-42894000D01*
X66280000Y-42894000D02*
X66280000Y-36354000D01*
X66280000Y-36354000D02*
X65950000Y-36354000D01*
X63540000Y-42894000D02*
X63540000Y-36354000D01*
X63540000Y-36354000D02*
X63870000Y-36354000D01*
X119905000Y-37125000D02*
X119905000Y-72925000D01*
X119905000Y-72925000D02*
X137805000Y-72925000D01*
X135315000Y-72865000D02*
X135315000Y-37185000D01*
X122395000Y-72865000D02*
X135315000Y-72865000D01*
X137805000Y-72925000D02*
X137805000Y-37125000D01*
X127855000Y-37185000D02*
X122395000Y-37185000D01*
X135315000Y-37185000D02*
X129855000Y-37185000D01*
X137805000Y-37125000D02*
X119905000Y-37125000D01*
X122395000Y-37185000D02*
X122395000Y-72865000D01*
X127855000Y-37185000D02*
G75*
G03*
X129855000Y-37185000I1000000J0D01*
G01*
X43260000Y-89840000D02*
X45500000Y-89840000D01*
X44380000Y-85790000D02*
X44380000Y-86440000D01*
X43260000Y-86440000D02*
X43260000Y-90680000D01*
X43260000Y-90680000D02*
X45500000Y-90680000D01*
X45500000Y-86440000D02*
X43260000Y-86440000D01*
X44380000Y-91330000D02*
X44380000Y-90680000D01*
X43260000Y-90080000D02*
X45500000Y-90080000D01*
X45500000Y-90680000D02*
X45500000Y-86440000D01*
X43260000Y-89960000D02*
X45500000Y-89960000D01*
X53340000Y-57050000D02*
X53340000Y-56720000D01*
X59880000Y-54310000D02*
X53340000Y-54310000D01*
X53340000Y-54310000D02*
X53340000Y-54640000D01*
X59880000Y-54640000D02*
X59880000Y-54310000D01*
X59880000Y-56720000D02*
X59880000Y-57050000D01*
X59880000Y-57050000D02*
X53340000Y-57050000D01*
X145506000Y-36610000D02*
X145506000Y-36766000D01*
X145506000Y-38926000D02*
X145506000Y-39082000D01*
X146025039Y-38926000D02*
G75*
G03*
X148107130Y-38925837I1040961J1080000D01*
G01*
X148738335Y-36767392D02*
G75*
G03*
X145506000Y-36610484I-1672335J-1078609D01*
G01*
X148107130Y-36766163D02*
G75*
G03*
X146025039Y-36766000I-1041130J-1079837D01*
G01*
X145506000Y-39081516D02*
G75*
G03*
X148738335Y-38924608I1560000J1235517D01*
G01*
X44672000Y-57812000D02*
X38132000Y-57812000D01*
X44672000Y-60222000D02*
X44672000Y-60552000D01*
X44672000Y-60552000D02*
X38132000Y-60552000D01*
X38132000Y-60552000D02*
X38132000Y-60222000D01*
X44672000Y-58142000D02*
X44672000Y-57812000D01*
X38132000Y-57812000D02*
X38132000Y-58142000D01*
X55904000Y-29750000D02*
X56234000Y-29750000D01*
X53824000Y-29750000D02*
X53494000Y-29750000D01*
X56234000Y-29750000D02*
X56234000Y-36290000D01*
X56234000Y-36290000D02*
X55904000Y-36290000D01*
X53494000Y-29750000D02*
X53494000Y-36290000D01*
X53494000Y-36290000D02*
X53824000Y-36290000D01*
X159810000Y-53540000D02*
X157210000Y-53540000D01*
X162410000Y-53540000D02*
X162410000Y-54870000D01*
X159810000Y-53540000D02*
X159810000Y-56200000D01*
X157210000Y-53540000D02*
X157210000Y-56200000D01*
X159810000Y-56200000D02*
X157210000Y-56200000D01*
X161080000Y-53540000D02*
X162410000Y-53540000D01*
X119100000Y-33700000D02*
X119100000Y-31040000D01*
X117830000Y-33700000D02*
X116500000Y-33700000D01*
X157260000Y-33700000D02*
X157260000Y-31040000D01*
X119100000Y-33700000D02*
X157260000Y-33700000D01*
X116500000Y-33700000D02*
X116500000Y-32370000D01*
X119100000Y-31040000D02*
X157260000Y-31040000D01*
X58935000Y-46895000D02*
X58935000Y-48225000D01*
X56335000Y-45625000D02*
X56335000Y-48225000D01*
X56335000Y-48225000D02*
X53735000Y-48225000D01*
X58935000Y-45625000D02*
X58935000Y-40485000D01*
X53735000Y-48225000D02*
X53735000Y-40485000D01*
X58935000Y-45625000D02*
X56335000Y-45625000D01*
X58935000Y-40485000D02*
X53735000Y-40485000D01*
X58935000Y-48225000D02*
X57605000Y-48225000D01*
X36790000Y-91840000D02*
X37120000Y-91840000D01*
X37120000Y-91840000D02*
X37120000Y-85300000D01*
X37120000Y-85300000D02*
X36790000Y-85300000D01*
X34380000Y-91840000D02*
X34380000Y-85300000D01*
X34380000Y-85300000D02*
X34710000Y-85300000D01*
X34710000Y-91840000D02*
X34380000Y-91840000D01*
X82630000Y-40750000D02*
X85230000Y-40750000D01*
X82630000Y-38150000D02*
X82630000Y-40750000D01*
X82630000Y-38150000D02*
X72410000Y-38150000D01*
X85230000Y-38150000D02*
X85230000Y-39480000D01*
X83900000Y-38150000D02*
X85230000Y-38150000D01*
X85230000Y-43350000D02*
X72410000Y-43350000D01*
X72410000Y-38150000D02*
X72410000Y-43350000D01*
X85230000Y-40750000D02*
X85230000Y-43350000D01*
X89100000Y-51820000D02*
X89100000Y-46580000D01*
X86360000Y-51820000D02*
X86675000Y-51820000D01*
X88785000Y-51820000D02*
X89100000Y-51820000D01*
X88785000Y-46580000D02*
X89100000Y-46580000D01*
X86360000Y-51820000D02*
X86360000Y-46580000D01*
X86360000Y-46580000D02*
X86675000Y-46580000D01*
X59350000Y-82400000D02*
X52810000Y-82400000D01*
X59350000Y-85140000D02*
X52810000Y-85140000D01*
X52810000Y-82400000D02*
X52810000Y-82730000D01*
X59350000Y-84810000D02*
X59350000Y-85140000D01*
X59350000Y-82730000D02*
X59350000Y-82400000D01*
X52810000Y-85140000D02*
X52810000Y-84810000D01*
X170049000Y-64105113D02*
X171500000Y-64105113D01*
X173580000Y-64465113D02*
X175101000Y-64465113D01*
X173580000Y-62944113D02*
X174366000Y-62944113D01*
X170365000Y-63384113D02*
X171500000Y-63384113D01*
X170340000Y-63424113D02*
X171500000Y-63424113D01*
X170250000Y-63584113D02*
X171500000Y-63584113D01*
X171289000Y-62504113D02*
X171500000Y-62504113D01*
X173580000Y-63704113D02*
X174888000Y-63704113D01*
X173580000Y-63264113D02*
X174635000Y-63264113D01*
X173580000Y-64105113D02*
X175031000Y-64105113D01*
X171362000Y-62464113D02*
X173718000Y-62464113D01*
X173580000Y-63584113D02*
X174830000Y-63584113D01*
X170986000Y-62704113D02*
X171500000Y-62704113D01*
X173580000Y-63744113D02*
X174905000Y-63744113D01*
X170158000Y-63784113D02*
X171500000Y-63784113D01*
X170272000Y-63544113D02*
X171500000Y-63544113D01*
X173580000Y-62744113D02*
X174145000Y-62744113D01*
X170841000Y-62824113D02*
X171500000Y-62824113D01*
X173580000Y-62984113D02*
X174404000Y-62984113D01*
X170293000Y-63504113D02*
X171500000Y-63504113D01*
X173580000Y-64145113D02*
X175041000Y-64145113D01*
X170085000Y-63984113D02*
X171500000Y-63984113D01*
X170536000Y-63144113D02*
X171500000Y-63144113D01*
X173580000Y-64425113D02*
X175096000Y-64425113D01*
X170935000Y-62744113D02*
X171500000Y-62744113D01*
X170211000Y-63664113D02*
X171500000Y-63664113D01*
X169990000Y-64385113D02*
X171500000Y-64385113D01*
X173580000Y-62584113D02*
X173923000Y-62584113D01*
X173580000Y-63064113D02*
X174477000Y-63064113D01*
X173580000Y-63424113D02*
X174740000Y-63424113D01*
X169975000Y-64505113D02*
X171500000Y-64505113D01*
X173580000Y-62904113D02*
X174325000Y-62904113D01*
X170316000Y-63464113D02*
X171500000Y-63464113D01*
X170815000Y-67339888D02*
X171315000Y-67339888D01*
X169979000Y-64465113D02*
X171500000Y-64465113D01*
X173580000Y-62544113D02*
X173859000Y-62544113D01*
X173580000Y-63104113D02*
X174511000Y-63104113D01*
X170639000Y-63024113D02*
X171500000Y-63024113D01*
X173580000Y-63944113D02*
X174982000Y-63944113D01*
X170012000Y-64265113D02*
X171500000Y-64265113D01*
X170569000Y-63104113D02*
X171500000Y-63104113D01*
X170445000Y-63264113D02*
X171500000Y-63264113D01*
X173580000Y-64505113D02*
X175105000Y-64505113D01*
X173580000Y-64545113D02*
X175109000Y-64545113D01*
X173580000Y-64225113D02*
X175060000Y-64225113D01*
X173580000Y-63864113D02*
X174954000Y-63864113D01*
X170072000Y-64024113D02*
X171500000Y-64024113D01*
X173580000Y-63624113D02*
X174850000Y-63624113D01*
X173580000Y-63544113D02*
X174808000Y-63544113D01*
X170112000Y-63904113D02*
X171500000Y-63904113D01*
X171221000Y-62544113D02*
X171500000Y-62544113D01*
X171040000Y-62664113D02*
X171500000Y-62664113D01*
X170175000Y-63744113D02*
X171500000Y-63744113D01*
X173580000Y-64185113D02*
X175051000Y-64185113D01*
X172256000Y-62184113D02*
X172824000Y-62184113D01*
X169960000Y-64745113D02*
X175120000Y-64745113D01*
X170887000Y-62784113D02*
X171500000Y-62784113D01*
X173580000Y-62664113D02*
X174040000Y-62664113D01*
X170230000Y-63624113D02*
X171500000Y-63624113D01*
X170060000Y-64064113D02*
X171500000Y-64064113D01*
X173580000Y-62824113D02*
X174239000Y-62824113D01*
X173580000Y-63464113D02*
X174764000Y-63464113D01*
X171442000Y-62424113D02*
X173638000Y-62424113D01*
X170029000Y-64185113D02*
X171500000Y-64185113D01*
X170603000Y-63064113D02*
X171500000Y-63064113D01*
X171863000Y-62264113D02*
X173217000Y-62264113D01*
X170714000Y-62944113D02*
X171500000Y-62944113D01*
X173580000Y-63664113D02*
X174869000Y-63664113D01*
X169964000Y-64625113D02*
X175116000Y-64625113D01*
X173580000Y-63984113D02*
X174995000Y-63984113D01*
X169961000Y-64705113D02*
X175119000Y-64705113D01*
X173580000Y-64265113D02*
X175068000Y-64265113D01*
X170126000Y-63864113D02*
X171500000Y-63864113D01*
X173580000Y-63144113D02*
X174544000Y-63144113D01*
X173580000Y-62704113D02*
X174094000Y-62704113D01*
X170676000Y-62984113D02*
X171500000Y-62984113D01*
X173580000Y-62624113D02*
X173983000Y-62624113D01*
X173580000Y-63904113D02*
X174968000Y-63904113D01*
X170098000Y-63944113D02*
X171500000Y-63944113D01*
X173580000Y-63344113D02*
X174689000Y-63344113D01*
X170020000Y-64225113D02*
X171500000Y-64225113D01*
X173580000Y-63024113D02*
X174441000Y-63024113D01*
X169997000Y-64345113D02*
X171500000Y-64345113D01*
X173580000Y-63304113D02*
X174662000Y-63304113D01*
X171735000Y-62304113D02*
X173345000Y-62304113D01*
X170039000Y-64145113D02*
X171500000Y-64145113D01*
X172022000Y-62224113D02*
X173058000Y-62224113D01*
X170192000Y-63704113D02*
X171500000Y-63704113D01*
X170004000Y-64305113D02*
X171500000Y-64305113D01*
X170475000Y-63224113D02*
X171500000Y-63224113D01*
X173580000Y-63784113D02*
X174922000Y-63784113D01*
X173580000Y-62504113D02*
X173791000Y-62504113D01*
X173580000Y-64305113D02*
X175076000Y-64305113D01*
X173580000Y-63824113D02*
X174938000Y-63824113D01*
X173580000Y-63224113D02*
X174605000Y-63224113D01*
X170418000Y-63304113D02*
X171500000Y-63304113D01*
X173580000Y-63504113D02*
X174787000Y-63504113D01*
X173580000Y-62784113D02*
X174193000Y-62784113D01*
X169971000Y-64545113D02*
X171500000Y-64545113D01*
X170755000Y-62904113D02*
X171500000Y-62904113D01*
X173580000Y-64024113D02*
X175008000Y-64024113D01*
X173580000Y-63384113D02*
X174715000Y-63384113D01*
X169960000Y-64785113D02*
X175120000Y-64785113D01*
X171529000Y-62384113D02*
X173551000Y-62384113D01*
X169967000Y-64585113D02*
X175113000Y-64585113D01*
X171065000Y-67589888D02*
X171065000Y-67089888D01*
X173580000Y-63184113D02*
X174575000Y-63184113D01*
X169962000Y-64665113D02*
X175118000Y-64665113D01*
X170797000Y-62864113D02*
X171500000Y-62864113D01*
X171157000Y-62584113D02*
X171500000Y-62584113D01*
X173580000Y-62864113D02*
X174283000Y-62864113D01*
X170505000Y-63184113D02*
X171500000Y-63184113D01*
X170142000Y-63824113D02*
X171500000Y-63824113D01*
X173580000Y-64064113D02*
X175020000Y-64064113D01*
X171625000Y-62344113D02*
X173455000Y-62344113D01*
X169984000Y-64425113D02*
X171500000Y-64425113D01*
X173580000Y-64345113D02*
X175083000Y-64345113D01*
X173580000Y-64385113D02*
X175090000Y-64385113D01*
X170391000Y-63344113D02*
X171500000Y-63344113D01*
X171097000Y-62624113D02*
X171500000Y-62624113D01*
X175160000Y-64785113D02*
G75*
G03*
X175160000Y-64785113I-2620000J0D01*
G01*
X53340000Y-51200000D02*
X53340000Y-51530000D01*
X59880000Y-51200000D02*
X53340000Y-51200000D01*
X59880000Y-53610000D02*
X59880000Y-53940000D01*
X53340000Y-53940000D02*
X53340000Y-53610000D01*
X59880000Y-53940000D02*
X53340000Y-53940000D01*
X59880000Y-51530000D02*
X59880000Y-51200000D01*
X61850000Y-61890000D02*
X56610000Y-61890000D01*
X56610000Y-61890000D02*
X56610000Y-61575000D01*
X56610000Y-59465000D02*
X56610000Y-59150000D01*
X61850000Y-59150000D02*
X56610000Y-59150000D01*
X61850000Y-59465000D02*
X61850000Y-59150000D01*
X61850000Y-61890000D02*
X61850000Y-61575000D01*
X43942000Y-30620000D02*
X43942000Y-31270000D01*
X42822000Y-34670000D02*
X45062000Y-34670000D01*
X42822000Y-34790000D02*
X45062000Y-34790000D01*
X42822000Y-34910000D02*
X45062000Y-34910000D01*
X43942000Y-36160000D02*
X43942000Y-35510000D01*
X42822000Y-35510000D02*
X45062000Y-35510000D01*
X42822000Y-31270000D02*
X42822000Y-35510000D01*
X45062000Y-31270000D02*
X42822000Y-31270000D01*
X45062000Y-35510000D02*
X45062000Y-31270000D01*
D13*
X35412000Y-68964000D03*
X35412000Y-76964000D03*
X35182000Y-43818000D03*
X35182000Y-51818000D03*
M02*
